0
SECTION
2
HEADER
9
$INSUNITS
70
4
0
ENDSEC
0
SECTION
2
TABLES
0
TABLE
2
LTYPE
0
LTYPE
72
65
70
0
2
CONTINUOUS
3
______
73
0
40
0
0
LTYPE
72
65
70
0
2
DASHED
3
_ _ _ 
73
2
40
7.5
49
5
49
-2.5
0
LTYPE
72
65
70
0
2
DOTTED
3
. . . 
73
2
40
1.5
49
0.5
49
-1
0
ENDTAB
0
TABLE
2
LAYER
0
ENDTAB
0
ENDSEC
0
SECTION
2
ENTITIES
0
LINE
8
0
6
CONTINUOUS
10
201.998159
20
-149.8732143
11
188.9709393
21
-172.4370208
0
LINE
8
0
6
CONTINUOUS
10
186.1492049
20
-173.1140985
11
172.5505872
21
-164.2783771
0
LINE
8
0
6
CONTINUOUS
10
171.9814467
20
-164.0243839
11
126.846218
21
-151.857646
0
LINE
8
0
6
CONTINUOUS
10
126.2832472
20
-151.789167
11
87.0753078
21
-152.6211054
0
LINE
8
0
6
CONTINUOUS
10
87.0591938
20
-152.6213824
11
47.2935613
21
-153.1446144
0
LINE
8
0
6
CONTINUOUS
10
45.2672477
20
-151.1447875
11
45.2672477
21
-58.137051
0
LINE
8
0
6
CONTINUOUS
10
46.6649849
20
-56.2298857
11
83.220936
21
-44.6859012
0
LINE
8
0
6
CONTINUOUS
10
83.3142122
20
-44.6589174
11
102.0170144
21
-39.7371273
0
LINE
8
0
6
CONTINUOUS
10
102.526001
20
-39.6712764
11
131.0845739
21
-39.6712764
0
LINE
8
0
6
CONTINUOUS
10
131.4468987
20
-39.70437
11
169.0875969
21
-46.6381828
0
LINE
8
0
6
CONTINUOUS
10
169.4499217
20
-46.6712764
11
193.5172478
21
-46.6712764
0
LINE
8
0
6
CONTINUOUS
10
195.5172478
20
-48.6712764
11
195.5172478
21
-123.9001108
0
LINE
8
0
6
CONTINUOUS
10
195.5894516
20
-124.4326534
11
202.1939044
21
-148.3406717
0
ARC
8
0
6
CONTINUOUS
10
187.2388885
20
-171.4370208
40
2
50
236.9861448
51
329.9999999
0
ARC
8
0
6
CONTINUOUS
10
171.4609036
20
-165.9554548
40
2
50
56.9861448
51
74.9138223
0
ARC
8
0
6
CONTINUOUS
10
126.3256748
20
-153.7887169
40
2
50
74.9138223
51
91.2155523
0
ARC
8
0
6
CONTINUOUS
10
87.0328802
20
-150.6215555
40
2
50
270.7538509
51
271.2155523
0
ARC
8
0
6
CONTINUOUS
10
47.2672477
20
-151.1447875
40
2
50
180
51
270.7538509
0
ARC
8
0
6
CONTINUOUS
10
47.2672477
20
-58.137051
40
2
50
107.5255695
51
180
0
ARC
8
0
6
CONTINUOUS
10
83.8231988
20
-46.5930664
40
2
50
104.7435634
51
107.5255695
0
ARC
8
0
6
CONTINUOUS
10
102.526001
20
-41.6712764
40
2
50
90
51
104.7435634
0
ARC
8
0
6
CONTINUOUS
10
131.0845739
20
-41.6712764
40
2
50
79.5625264
51
90
0
ARC
8
0
6
CONTINUOUS
10
169.4499217
20
-44.6712764
40
2
50
259.5625264
51
270
0
ARC
8
0
6
CONTINUOUS
10
193.5172478
20
-48.6712764
40
2
50
0
51
90
0
ARC
8
0
6
CONTINUOUS
10
197.5172478
20
-123.9001108
40
2
50
180
51
195.4425077
0
ARC
8
0
6
CONTINUOUS
10
200.2661082
20
-148.8732143
40
2
50
329.9999999
51
15.4425077
0
ENDSEC
0
EOF