0
SECTION
2
HEADER
9
$INSUNITS
70
4
0
ENDSEC
0
SECTION
2
TABLES
0
TABLE
2
LTYPE
0
LTYPE
72
65
70
0
2
CONTINUOUS
3
______
73
0
40
0
0
LTYPE
72
65
70
0
2
DASHED
3
_ _ _ 
73
2
40
7.5
49
5
49
-2.5
0
LTYPE
72
65
70
0
2
DOTTED
3
. . . 
73
2
40
1.5
49
0.5
49
-1
0
ENDTAB
0
TABLE
2
LAYER
0
ENDTAB
0
ENDSEC
0
SECTION
2
ENTITIES
0
LINE
8
0
6
CONTINUOUS
10
196.4832567
20
-151.4253053
11
187.4645447
21
-167.0461726
0
LINE
8
0
6
CONTINUOUS
10
184.7123431
20
-167.766432
11
170.0458623
21
-159.0688936
0
LINE
8
0
6
CONTINUOUS
10
169.7316439
20
-158.9178808
11
152.0591498
21
-152.2509789
0
LINE
8
0
6
CONTINUOUS
10
151.7005138
20
-152.1526355
11
131.3778271
21
-148.5691975
0
LINE
8
0
6
CONTINUOUS
10
131.0264035
20
-148.5388173
11
92.7414046
21
-148.6178216
0
LINE
8
0
6
CONTINUOUS
10
90.7692219
20
-146.9738561
11
89.5646493
21
-140.3152462
0
LINE
8
0
6
CONTINUOUS
10
87.5965938
20
-138.6712764
11
51.2672477
21
-138.6712764
0
LINE
8
0
6
CONTINUOUS
10
49.2672477
20
-136.6712764
11
49.2672477
21
-62.6712764
0
LINE
8
0
6
CONTINUOUS
10
51.2672477
20
-60.6712764
11
85.183845
21
-60.6712764
0
LINE
8
0
6
CONTINUOUS
10
87.1837756
20
-58.6879424
11
87.2545105
21
-50.1997577
0
LINE
8
0
6
CONTINUOUS
10
88.7454544
20
-48.2822747
11
106.0170144
21
-43.7371273
0
LINE
8
0
6
CONTINUOUS
10
106.526001
20
-43.6712764
11
127.0845739
21
-43.6712764
0
LINE
8
0
6
CONTINUOUS
10
127.4468987
20
-43.70437
11
165.0875969
21
-50.6381828
0
LINE
8
0
6
CONTINUOUS
10
165.4499217
20
-50.6712764
11
189.5172478
21
-50.6712764
0
LINE
8
0
6
CONTINUOUS
10
191.5172478
20
-52.6712764
11
191.5172477
21
-119.1712764
0
LINE
8
0
6
CONTINUOUS
10
191.5172477
20
-119.1712764
11
191.5172477
21
-135.5631419
0
LINE
8
0
6
CONTINUOUS
10
191.641523
20
-136.2571572
11
196.6269305
21
-149.7312901
0
ARC
8
0
6
CONTINUOUS
10
185.7324939
20
-166.0461726
40
2
50
239.331148
51
329.9999999
0
ARC
8
0
6
CONTINUOUS
10
169.0257115
20
-160.789153
40
2
50
59.331148
51
69.3311517
0
ARC
8
0
6
CONTINUOUS
10
151.3532174
20
-154.122251
40
2
50
69.3311517
51
79.9999992
0
ARC
8
0
6
CONTINUOUS
10
131.0305307
20
-150.538813
40
2
50
79.9999992
51
90.1182357
0
ARC
8
0
6
CONTINUOUS
10
92.7372774
20
-146.6178259
40
2
50
190.2541658
51
270.1182357
0
ARC
8
0
6
CONTINUOUS
10
87.5965938
20
-140.6712764
40
2
50
10.2541658
51
90
0
ARC
8
0
6
CONTINUOUS
10
51.2672477
20
-136.6712764
40
2
50
180
51
270
0
ARC
8
0
6
CONTINUOUS
10
51.2672477
20
-62.6712764
40
2
50
90
51
180
0
ARC
8
0
6
CONTINUOUS
10
85.183845
20
-58.6712764
40
2
50
270
51
359.5225488
0
ARC
8
0
6
CONTINUOUS
10
89.2544411
20
-50.2164237
40
2
50
104.7435634
51
179.5225488
0
ARC
8
0
6
CONTINUOUS
10
106.526001
20
-45.6712764
40
2
50
90
51
104.7435634
0
ARC
8
0
6
CONTINUOUS
10
127.0845739
20
-45.6712764
40
2
50
79.5625264
51
90
0
ARC
8
0
6
CONTINUOUS
10
165.4499217
20
-48.6712764
40
2
50
259.5625264
51
270
0
ARC
8
0
6
CONTINUOUS
10
189.5172478
20
-52.6712764
40
2
50
0
51
90
0
ARC
8
0
6
CONTINUOUS
10
193.5172477
20
-135.5631419
40
2
50
180
51
200.3043957
0
ARC
8
0
6
CONTINUOUS
10
194.7512059
20
-150.4253053
40
2
50
329.9999999
51
20.3043957
0
ENDSEC
0
EOF