0
SECTION
2
HEADER
9
$INSUNITS
70
4
0
ENDSEC
0
SECTION
2
TABLES
0
TABLE
2
LTYPE
0
LTYPE
72
65
70
0
2
CONTINUOUS
3
______
73
0
40
0
0
LTYPE
72
65
70
0
2
DASHED
3
_ _ _ 
73
2
40
7.5
49
5
49
-2.5
0
LTYPE
72
65
70
0
2
DOTTED
3
. . . 
73
2
40
1.5
49
0.5
49
-1
0
ENDTAB
0
TABLE
2
LAYER
0
ENDTAB
0
ENDSEC
0
SECTION
2
ENTITIES
0
LINE
8
0
6
CONTINUOUS
10
196.4832567
20
-151.4253053
11
187.4645447
21
-167.0461726
0
LINE
8
0
6
CONTINUOUS
10
184.7123431
20
-167.766432
11
170.0458623
21
-159.0688936
0
LINE
8
0
6
CONTINUOUS
10
169.7316439
20
-158.9178808
11
152.0591498
21
-152.2509789
0
LINE
8
0
6
CONTINUOUS
10
151.7005138
20
-152.1526355
11
131.3778271
21
-148.5691975
0
LINE
8
0
6
CONTINUOUS
10
131.0264035
20
-148.5388173
11
92.7414046
21
-148.6178216
0
LINE
8
0
6
CONTINUOUS
10
90.7692219
20
-146.9738561
11
89.5646493
21
-140.3152462
0
LINE
8
0
6
CONTINUOUS
10
87.5965938
20
-138.6712764
11
51.2672477
21
-138.6712764
0
LINE
8
0
6
CONTINUOUS
10
49.2672477
20
-136.6712764
11
49.2672477
21
-62.6712764
0
LINE
8
0
6
CONTINUOUS
10
51.2672477
20
-60.6712764
11
85.183845
21
-60.6712764
0
LINE
8
0
6
CONTINUOUS
10
87.1837756
20
-58.6879424
11
87.2545105
21
-50.1997577
0
LINE
8
0
6
CONTINUOUS
10
88.7454544
20
-48.2822747
11
106.0170144
21
-43.7371273
0
LINE
8
0
6
CONTINUOUS
10
106.526001
20
-43.6712764
11
127.0845739
21
-43.6712764
0
LINE
8
0
6
CONTINUOUS
10
127.4468987
20
-43.70437
11
165.0875969
21
-50.6381828
0
LINE
8
0
6
CONTINUOUS
10
165.4499217
20
-50.6712764
11
189.5172478
21
-50.6712764
0
LINE
8
0
6
CONTINUOUS
10
191.5172478
20
-52.6712764
11
191.5172477
21
-119.1712764
0
LINE
8
0
6
CONTINUOUS
10
191.5172477
20
-119.1712764
11
191.5172477
21
-135.5631419
0
LINE
8
0
6
CONTINUOUS
10
191.641523
20
-136.2571572
11
196.6269305
21
-149.7312901
0
ARC
8
0
6
CONTINUOUS
10
185.7324939
20
-166.0461726
40
2
50
239.331148
51
329.9999999
0
ARC
8
0
6
CONTINUOUS
10
169.0257115
20
-160.789153
40
2
50
59.331148
51
69.3311517
0
ARC
8
0
6
CONTINUOUS
10
151.3532174
20
-154.122251
40
2
50
69.3311517
51
79.9999992
0
ARC
8
0
6
CONTINUOUS
10
131.0305307
20
-150.538813
40
2
50
79.9999992
51
90.1182357
0
ARC
8
0
6
CONTINUOUS
10
92.7372774
20
-146.6178259
40
2
50
190.2541658
51
270.1182357
0
ARC
8
0
6
CONTINUOUS
10
87.5965938
20
-140.6712764
40
2
50
10.2541658
51
90
0
ARC
8
0
6
CONTINUOUS
10
51.2672477
20
-136.6712764
40
2
50
180
51
270
0
ARC
8
0
6
CONTINUOUS
10
51.2672477
20
-62.6712764
40
2
50
90
51
180
0
ARC
8
0
6
CONTINUOUS
10
85.183845
20
-58.6712764
40
2
50
270
51
359.5225488
0
ARC
8
0
6
CONTINUOUS
10
89.2544411
20
-50.2164237
40
2
50
104.7435634
51
179.5225488
0
ARC
8
0
6
CONTINUOUS
10
106.526001
20
-45.6712764
40
2
50
90
51
104.7435634
0
ARC
8
0
6
CONTINUOUS
10
127.0845739
20
-45.6712764
40
2
50
79.5625264
51
90
0
ARC
8
0
6
CONTINUOUS
10
165.4499217
20
-48.6712764
40
2
50
259.5625264
51
270
0
ARC
8
0
6
CONTINUOUS
10
189.5172478
20
-52.6712764
40
2
50
0
51
90
0
ARC
8
0
6
CONTINUOUS
10
193.5172477
20
-135.5631419
40
2
50
180
51
200.3043957
0
ARC
8
0
6
CONTINUOUS
10
194.7512059
20
-150.4253053
40
2
50
329.9999999
51
20.3043957
0
LINE
8
0
6
CONTINUOUS
10
52.7422477
20
-135.1962764
11
66.7922477
21
-135.1962764
0
LINE
8
0
6
CONTINUOUS
10
66.7922477
20
-135.1962764
11
66.7922477
21
-121.1462764
0
LINE
8
0
6
CONTINUOUS
10
66.7922477
20
-121.1462764
11
52.7422477
21
-121.1462764
0
LINE
8
0
6
CONTINUOUS
10
52.7422477
20
-121.1462764
11
52.7422477
21
-135.1962764
0
LINE
8
0
6
CONTINUOUS
10
52.7422478
20
-116.1962764
11
66.7922478
21
-116.1962764
0
LINE
8
0
6
CONTINUOUS
10
66.7922478
20
-116.1962764
11
66.7922478
21
-102.1462764
0
LINE
8
0
6
CONTINUOUS
10
66.7922478
20
-102.1462764
11
52.7422478
21
-102.1462764
0
LINE
8
0
6
CONTINUOUS
10
52.7422478
20
-102.1462764
11
52.7422478
21
-116.1962764
0
LINE
8
0
6
CONTINUOUS
10
52.7422478
20
-97.1962764
11
66.7922478
21
-97.1962764
0
LINE
8
0
6
CONTINUOUS
10
66.7922478
20
-97.1962764
11
66.7922478
21
-83.1462764
0
LINE
8
0
6
CONTINUOUS
10
66.7922478
20
-83.1462764
11
52.7422478
21
-83.1462764
0
LINE
8
0
6
CONTINUOUS
10
52.7422478
20
-83.1462764
11
52.7422478
21
-97.1962764
0
LINE
8
0
6
CONTINUOUS
10
52.7422478
20
-78.1962764
11
66.7922478
21
-78.1962764
0
LINE
8
0
6
CONTINUOUS
10
66.7922478
20
-78.1962764
11
66.7922478
21
-64.1462764
0
LINE
8
0
6
CONTINUOUS
10
66.7922478
20
-64.1462764
11
52.7422478
21
-64.1462764
0
LINE
8
0
6
CONTINUOUS
10
52.7422478
20
-64.1462764
11
52.7422478
21
-78.1962764
0
LINE
8
0
6
CONTINUOUS
10
71.7422477
20
-135.1962764
11
85.7922477
21
-135.1962764
0
LINE
8
0
6
CONTINUOUS
10
85.7922477
20
-135.1962764
11
85.7922477
21
-121.1462764
0
LINE
8
0
6
CONTINUOUS
10
85.7922477
20
-121.1462764
11
71.7422477
21
-121.1462764
0
LINE
8
0
6
CONTINUOUS
10
71.7422477
20
-121.1462764
11
71.7422477
21
-135.1962764
0
LINE
8
0
6
CONTINUOUS
10
71.7422478
20
-116.1962764
11
85.7922478
21
-116.1962764
0
LINE
8
0
6
CONTINUOUS
10
85.7922478
20
-116.1962764
11
85.7922478
21
-102.1462764
0
LINE
8
0
6
CONTINUOUS
10
85.7922478
20
-102.1462764
11
71.7422478
21
-102.1462764
0
LINE
8
0
6
CONTINUOUS
10
71.7422478
20
-102.1462764
11
71.7422478
21
-116.1962764
0
LINE
8
0
6
CONTINUOUS
10
71.7422478
20
-97.1962764
11
85.7922478
21
-97.1962764
0
LINE
8
0
6
CONTINUOUS
10
85.7922478
20
-97.1962764
11
85.7922478
21
-83.1462764
0
LINE
8
0
6
CONTINUOUS
10
85.7922478
20
-83.1462764
11
71.7422478
21
-83.1462764
0
LINE
8
0
6
CONTINUOUS
10
71.7422478
20
-83.1462764
11
71.7422478
21
-97.1962764
0
LINE
8
0
6
CONTINUOUS
10
71.7422478
20
-78.1962764
11
85.7922478
21
-78.1962764
0
LINE
8
0
6
CONTINUOUS
10
85.7922478
20
-78.1962764
11
85.7922478
21
-64.1462764
0
LINE
8
0
6
CONTINUOUS
10
85.7922478
20
-64.1462764
11
71.7422478
21
-64.1462764
0
LINE
8
0
6
CONTINUOUS
10
71.7422478
20
-64.1462764
11
71.7422478
21
-78.1962764
0
LINE
8
0
6
CONTINUOUS
10
90.7422478
20
-123.1962764
11
104.7922478
21
-123.1962764
0
LINE
8
0
6
CONTINUOUS
10
104.7922478
20
-123.1962764
11
104.7922478
21
-109.1462764
0
LINE
8
0
6
CONTINUOUS
10
104.7922478
20
-109.1462764
11
90.7422478
21
-109.1462764
0
LINE
8
0
6
CONTINUOUS
10
90.7422478
20
-109.1462764
11
90.7422478
21
-123.1962764
0
LINE
8
0
6
CONTINUOUS
10
90.7422478
20
-104.1962764
11
104.7922478
21
-104.1962764
0
LINE
8
0
6
CONTINUOUS
10
104.7922478
20
-104.1962764
11
104.7922478
21
-90.1462764
0
LINE
8
0
6
CONTINUOUS
10
104.7922478
20
-90.1462764
11
90.7422478
21
-90.1462764
0
LINE
8
0
6
CONTINUOUS
10
90.7422478
20
-90.1462764
11
90.7422478
21
-104.1962764
0
LINE
8
0
6
CONTINUOUS
10
90.7422478
20
-85.1962764
11
104.7922478
21
-85.1962764
0
LINE
8
0
6
CONTINUOUS
10
104.7922478
20
-85.1962764
11
104.7922478
21
-71.1462764
0
LINE
8
0
6
CONTINUOUS
10
104.7922478
20
-71.1462764
11
90.7422478
21
-71.1462764
0
LINE
8
0
6
CONTINUOUS
10
90.7422478
20
-71.1462764
11
90.7422478
21
-85.1962764
0
LINE
8
0
6
CONTINUOUS
10
90.7422478
20
-66.1962764
11
104.7922478
21
-66.1962764
0
LINE
8
0
6
CONTINUOUS
10
104.7922478
20
-66.1962764
11
104.7922478
21
-52.1462764
0
LINE
8
0
6
CONTINUOUS
10
104.7922478
20
-52.1462764
11
90.7422478
21
-52.1462764
0
LINE
8
0
6
CONTINUOUS
10
90.7422478
20
-52.1462764
11
90.7422478
21
-66.1962764
0
LINE
8
0
6
CONTINUOUS
10
109.7422477
20
-118.1962764
11
123.7922477
21
-118.1962764
0
LINE
8
0
6
CONTINUOUS
10
123.7922477
20
-118.1962764
11
123.7922477
21
-104.1462764
0
LINE
8
0
6
CONTINUOUS
10
123.7922477
20
-104.1462764
11
109.7422477
21
-104.1462764
0
LINE
8
0
6
CONTINUOUS
10
109.7422477
20
-104.1462764
11
109.7422477
21
-118.1962764
0
LINE
8
0
6
CONTINUOUS
10
109.7422477
20
-99.1962764
11
123.7922477
21
-99.1962764
0
LINE
8
0
6
CONTINUOUS
10
123.7922477
20
-99.1962764
11
123.7922477
21
-85.1462764
0
LINE
8
0
6
CONTINUOUS
10
123.7922477
20
-85.1462764
11
109.7422477
21
-85.1462764
0
LINE
8
0
6
CONTINUOUS
10
109.7422477
20
-85.1462764
11
109.7422477
21
-99.1962764
0
LINE
8
0
6
CONTINUOUS
10
109.7422477
20
-80.1962764
11
123.7922477
21
-80.1962764
0
LINE
8
0
6
CONTINUOUS
10
123.7922477
20
-80.1962764
11
123.7922477
21
-66.1462764
0
LINE
8
0
6
CONTINUOUS
10
123.7922477
20
-66.1462764
11
109.7422477
21
-66.1462764
0
LINE
8
0
6
CONTINUOUS
10
109.7422477
20
-66.1462764
11
109.7422477
21
-80.1962764
0
LINE
8
0
6
CONTINUOUS
10
109.7422478
20
-61.1962764
11
123.7922478
21
-61.1962764
0
LINE
8
0
6
CONTINUOUS
10
123.7922478
20
-61.1962764
11
123.7922478
21
-47.1462764
0
LINE
8
0
6
CONTINUOUS
10
123.7922478
20
-47.1462764
11
109.7422478
21
-47.1462764
0
LINE
8
0
6
CONTINUOUS
10
109.7422478
20
-47.1462764
11
109.7422478
21
-61.1962764
0
LINE
8
0
6
CONTINUOUS
10
128.7422477
20
-125.1962764
11
142.7922477
21
-125.1962764
0
LINE
8
0
6
CONTINUOUS
10
142.7922477
20
-125.1962764
11
142.7922477
21
-111.1462764
0
LINE
8
0
6
CONTINUOUS
10
142.7922477
20
-111.1462764
11
128.7422477
21
-111.1462764
0
LINE
8
0
6
CONTINUOUS
10
128.7422477
20
-111.1462764
11
128.7422477
21
-125.1962764
0
LINE
8
0
6
CONTINUOUS
10
128.7422477
20
-106.1962764
11
142.7922477
21
-106.1962764
0
LINE
8
0
6
CONTINUOUS
10
142.7922477
20
-106.1962764
11
142.7922477
21
-92.1462764
0
LINE
8
0
6
CONTINUOUS
10
142.7922477
20
-92.1462764
11
128.7422477
21
-92.1462764
0
LINE
8
0
6
CONTINUOUS
10
128.7422477
20
-92.1462764
11
128.7422477
21
-106.1962764
0
LINE
8
0
6
CONTINUOUS
10
128.7422477
20
-87.1962764
11
142.7922477
21
-87.1962764
0
LINE
8
0
6
CONTINUOUS
10
142.7922477
20
-87.1962764
11
142.7922477
21
-73.1462764
0
LINE
8
0
6
CONTINUOUS
10
142.7922477
20
-73.1462764
11
128.7422477
21
-73.1462764
0
LINE
8
0
6
CONTINUOUS
10
128.7422477
20
-73.1462764
11
128.7422477
21
-87.1962764
0
LINE
8
0
6
CONTINUOUS
10
128.7422478
20
-68.1962764
11
142.7922478
21
-68.1962764
0
LINE
8
0
6
CONTINUOUS
10
142.7922478
20
-68.1962764
11
142.7922478
21
-54.1462764
0
LINE
8
0
6
CONTINUOUS
10
142.7922478
20
-54.1462764
11
128.7422478
21
-54.1462764
0
LINE
8
0
6
CONTINUOUS
10
128.7422478
20
-54.1462764
11
128.7422478
21
-68.1962764
0
LINE
8
0
6
CONTINUOUS
10
147.7422477
20
-125.1962764
11
161.7922477
21
-125.1962764
0
LINE
8
0
6
CONTINUOUS
10
161.7922477
20
-125.1962764
11
161.7922477
21
-111.1462764
0
LINE
8
0
6
CONTINUOUS
10
161.7922477
20
-111.1462764
11
147.7422477
21
-111.1462764
0
LINE
8
0
6
CONTINUOUS
10
147.7422477
20
-111.1462764
11
147.7422477
21
-125.1962764
0
LINE
8
0
6
CONTINUOUS
10
147.7422477
20
-106.1962764
11
161.7922477
21
-106.1962764
0
LINE
8
0
6
CONTINUOUS
10
161.7922477
20
-106.1962764
11
161.7922477
21
-92.1462764
0
LINE
8
0
6
CONTINUOUS
10
161.7922477
20
-92.1462764
11
147.7422477
21
-92.1462764
0
LINE
8
0
6
CONTINUOUS
10
147.7422477
20
-92.1462764
11
147.7422477
21
-106.1962764
0
LINE
8
0
6
CONTINUOUS
10
147.7422477
20
-87.1962764
11
161.7922477
21
-87.1962764
0
LINE
8
0
6
CONTINUOUS
10
161.7922477
20
-87.1962764
11
161.7922477
21
-73.1462764
0
LINE
8
0
6
CONTINUOUS
10
161.7922477
20
-73.1462764
11
147.7422477
21
-73.1462764
0
LINE
8
0
6
CONTINUOUS
10
147.7422477
20
-73.1462764
11
147.7422477
21
-87.1962764
0
LINE
8
0
6
CONTINUOUS
10
147.7422478
20
-68.1962764
11
161.7922478
21
-68.1962764
0
LINE
8
0
6
CONTINUOUS
10
161.7922478
20
-68.1962764
11
161.7922478
21
-54.1462764
0
LINE
8
0
6
CONTINUOUS
10
161.7922478
20
-54.1462764
11
147.7422478
21
-54.1462764
0
LINE
8
0
6
CONTINUOUS
10
147.7422478
20
-54.1462764
11
147.7422478
21
-68.1962764
0
LINE
8
0
6
CONTINUOUS
10
94.5422477
20
-145.1462764
11
108.5922477
21
-145.1462764
0
LINE
8
0
6
CONTINUOUS
10
108.5922477
20
-145.1462764
11
108.5922477
21
-131.0962764
0
LINE
8
0
6
CONTINUOUS
10
108.5922477
20
-131.0962764
11
94.5422477
21
-131.0962764
0
LINE
8
0
6
CONTINUOUS
10
94.5422477
20
-131.0962764
11
94.5422477
21
-145.1462764
0
LINE
8
0
6
CONTINUOUS
10
115.4422477
20
-145.1462764
11
129.4922477
21
-145.1462764
0
LINE
8
0
6
CONTINUOUS
10
129.4922477
20
-145.1462764
11
129.4922477
21
-131.0962764
0
LINE
8
0
6
CONTINUOUS
10
129.4922477
20
-131.0962764
11
115.4422477
21
-131.0962764
0
LINE
8
0
6
CONTINUOUS
10
115.4422477
20
-131.0962764
11
115.4422477
21
-145.1462764
0
LINE
8
0
6
CONTINUOUS
10
135.2290947
20
-145.7196724
11
149.0656436
21
-148.1594293
0
LINE
8
0
6
CONTINUOUS
10
149.0656436
20
-148.1594293
11
151.5054005
21
-134.3228804
0
LINE
8
0
6
CONTINUOUS
10
151.5054005
20
-134.3228804
11
137.6688516
21
-131.8831235
0
LINE
8
0
6
CONTINUOUS
10
137.6688516
20
-131.8831235
11
135.2290947
21
-145.7196724
0
LINE
8
0
6
CONTINUOUS
10
154.615766
20
-149.7203072
11
167.8184474
21
-154.5256902
0
LINE
8
0
6
CONTINUOUS
10
167.8184474
20
-154.5256902
11
172.6238304
21
-141.3230088
0
LINE
8
0
6
CONTINUOUS
10
172.6238304
20
-141.3230088
11
159.421149
21
-136.5176258
0
LINE
8
0
6
CONTINUOUS
10
159.421149
20
-136.5176258
11
154.615766
21
-149.7203072
0
LINE
8
0
6
CONTINUOUS
10
173.0132071
20
-157.0266236
11
185.1808641
21
-164.0516236
0
LINE
8
0
6
CONTINUOUS
10
185.1808641
20
-164.0516236
11
192.2058641
21
-151.8839666
0
LINE
8
0
6
CONTINUOUS
10
192.2058641
20
-151.8839666
11
180.0382071
21
-144.8589666
0
LINE
8
0
6
CONTINUOUS
10
180.0382071
20
-144.8589666
11
173.0132071
21
-157.0266236
0
LINE
8
0
6
CONTINUOUS
10
171.3922477
20
-119.9212765
11
185.3922477
21
-119.9212765
0
LINE
8
0
6
CONTINUOUS
10
185.3922477
20
-119.9212765
11
185.3922477
21
-105.9212765
0
LINE
8
0
6
CONTINUOUS
10
185.3922477
20
-105.9212765
11
171.3922477
21
-105.9212765
0
LINE
8
0
6
CONTINUOUS
10
171.3922477
20
-105.9212765
11
171.3922477
21
-119.9212765
0
ENDSEC
0
EOF