0
SECTION
2
HEADER
9
$INSUNITS
70
4
0
ENDSEC
0
SECTION
2
TABLES
0
TABLE
2
LTYPE
0
LTYPE
72
65
70
0
2
CONTINUOUS
3
______
73
0
40
0
0
LTYPE
72
65
70
0
2
DASHED
3
_ _ _ 
73
2
40
7.5
49
5
49
-2.5
0
LTYPE
72
65
70
0
2
DOTTED
3
. . . 
73
2
40
1.5
49
0.5
49
-1
0
ENDTAB
0
TABLE
2
LAYER
0
ENDTAB
0
ENDSEC
0
SECTION
2
ENTITIES
0
LINE
8
0
6
CONTINUOUS
10
197.8446825
20
-151.0672465
11
187.8407255
21
-168.3946084
0
LINE
8
0
6
CONTINUOUS
10
185.0713964
20
-169.1045949
11
170.6426358
21
-160.3521047
0
LINE
8
0
6
CONTINUOUS
10
170.3299411
20
-160.1979618
11
152.879036
21
-153.4148276
0
LINE
8
0
6
CONTINUOUS
10
152.5017488
20
-153.3093414
11
130.2240686
21
-149.3811854
0
LINE
8
0
6
CONTINUOUS
10
129.8631818
20
-149.3508471
11
91.7494324
21
-149.6098453
0
LINE
8
0
6
CONTINUOUS
10
89.7677865
20
-147.9659217
11
88.5646493
21
-141.3152462
0
LINE
8
0
6
CONTINUOUS
10
86.5965938
20
-139.6712764
11
50.2672477
21
-139.6712764
0
LINE
8
0
6
CONTINUOUS
10
48.2672477
20
-137.6712764
11
48.2672477
21
-61.6712764
0
LINE
8
0
6
CONTINUOUS
10
50.2672477
20
-59.6712764
11
84.183845
21
-59.6712764
0
LINE
8
0
6
CONTINUOUS
10
86.1837756
20
-57.6879424
11
86.2545105
21
-49.1997577
0
LINE
8
0
6
CONTINUOUS
10
87.7454544
20
-47.2822747
11
105.0170144
21
-42.7371273
0
LINE
8
0
6
CONTINUOUS
10
105.526001
20
-42.6712764
11
128.0845739
21
-42.6712764
0
LINE
8
0
6
CONTINUOUS
10
128.4468987
20
-42.70437
11
166.0875969
21
-49.6381828
0
LINE
8
0
6
CONTINUOUS
10
166.4499217
20
-49.6712764
11
190.5172478
21
-49.6712764
0
LINE
8
0
6
CONTINUOUS
10
192.5172478
20
-51.6712764
11
192.5172477
21
-120.1712764
0
LINE
8
0
6
CONTINUOUS
10
192.5172477
20
-120.1712764
11
192.5172477
21
-134.5553715
0
LINE
8
0
6
CONTINUOUS
10
192.6467978
20
-135.2634797
11
197.9830816
21
-149.3591383
0
ARC
8
0
6
CONTINUOUS
10
186.1086747
20
-167.3946084
40
2
50
238.7589888
51
329.9999999
0
ARC
8
0
6
CONTINUOUS
10
169.6053575
20
-162.0620912
40
2
50
58.7589888
51
68.7589893
0
ARC
8
0
6
CONTINUOUS
10
152.1544524
20
-155.278957
40
2
50
68.7589893
51
79.9999992
0
ARC
8
0
6
CONTINUOUS
10
129.8767722
20
-151.3508009
40
2
50
79.9999992
51
90.3893393
0
ARC
8
0
6
CONTINUOUS
10
91.735842
20
-147.6098915
40
2
50
190.2541658
51
270.3893393
0
ARC
8
0
6
CONTINUOUS
10
86.5965938
20
-141.6712764
40
2
50
10.2541658
51
90
0
ARC
8
0
6
CONTINUOUS
10
50.2672477
20
-137.6712764
40
2
50
180
51
270
0
ARC
8
0
6
CONTINUOUS
10
50.2672477
20
-61.6712764
40
2
50
90
51
180
0
ARC
8
0
6
CONTINUOUS
10
84.183845
20
-57.6712764
40
2
50
270
51
359.5225488
0
ARC
8
0
6
CONTINUOUS
10
88.2544411
20
-49.2164237
40
2
50
104.7435634
51
179.5225488
0
ARC
8
0
6
CONTINUOUS
10
105.526001
20
-44.6712764
40
2
50
90
51
104.7435634
0
ARC
8
0
6
CONTINUOUS
10
128.0845739
20
-44.6712764
40
2
50
79.5625264
51
90
0
ARC
8
0
6
CONTINUOUS
10
166.4499217
20
-47.6712764
40
2
50
259.5625264
51
270
0
ARC
8
0
6
CONTINUOUS
10
190.5172478
20
-51.6712764
40
2
50
0
51
90
0
ARC
8
0
6
CONTINUOUS
10
194.5172477
20
-134.5553715
40
2
50
180
51
200.7354844
0
ARC
8
0
6
CONTINUOUS
10
196.1126317
20
-150.0672465
40
2
50
329.9999999
51
20.7354844
0
ENDSEC
0
EOF