0
SECTION
2
HEADER
9
$INSUNITS
70
4
0
ENDSEC
0
SECTION
2
TABLES
0
TABLE
2
LTYPE
0
LTYPE
72
65
70
0
2
CONTINUOUS
3
______
73
0
40
0
0
LTYPE
72
65
70
0
2
DASHED
3
_ _ _ 
73
2
40
7.5
49
5
49
-2.5
0
LTYPE
72
65
70
0
2
DOTTED
3
. . . 
73
2
40
1.5
49
0.5
49
-1
0
ENDTAB
0
TABLE
2
LAYER
0
ENDTAB
0
ENDSEC
0
SECTION
2
ENTITIES
0
LINE
8
0
6
CONTINUOUS
10
49.2672477
20
-138.6712764
11
89.2672477
21
-138.6712764
0
LINE
8
0
6
CONTINUOUS
10
49.2672477
20
-117.6712764
11
49.2672477
21
-138.6712764
0
LINE
8
0
6
CONTINUOUS
10
49.2672478
20
-117.6712764
11
49.2672478
21
-60.6712764
0
LINE
8
0
6
CONTINUOUS
10
49.2672478
20
-60.6712764
11
87.2672478
21
-60.6712764
0
LINE
8
0
6
CONTINUOUS
10
89.2672477
20
-138.6712764
11
89.2672477
21
-126.6712764
0
LINE
8
0
6
CONTINUOUS
10
89.2672477
20
-126.6712764
11
108.2672478
21
-126.6712764
0
LINE
8
0
6
CONTINUOUS
10
108.2672478
20
-126.6712764
11
108.2672478
21
-121.6712764
0
LINE
8
0
6
CONTINUOUS
10
106.2672478
20
-48.6712764
11
87.2672478
21
-48.6712764
0
LINE
8
0
6
CONTINUOUS
10
87.2672478
20
-48.6712764
11
87.2672478
21
-60.6712764
0
LINE
8
0
6
CONTINUOUS
10
108.2672478
20
-121.6712764
11
125.2672477
21
-121.6712764
0
LINE
8
0
6
CONTINUOUS
10
127.2672478
20
-50.6712764
11
127.2672478
21
-43.6712764
0
LINE
8
0
6
CONTINUOUS
10
127.2672478
20
-43.6712764
11
106.2672478
21
-43.6712764
0
LINE
8
0
6
CONTINUOUS
10
106.2672478
20
-43.6712764
11
106.2672478
21
-48.6712764
0
LINE
8
0
6
CONTINUOUS
10
132.9672477
20
-128.6712764
11
134.7065794
21
-128.6712764
0
LINE
8
0
6
CONTINUOUS
10
139.4652891
20
-128.6712764
11
165.2672477
21
-128.6712764
0
LINE
8
0
6
CONTINUOUS
10
125.2672477
20
-121.6712764
11
125.2672477
21
-127.6212764
0
LINE
8
0
6
CONTINUOUS
10
127.2672478
20
-50.6712764
11
165.2672478
21
-50.6712764
0
LINE
8
0
6
CONTINUOUS
10
165.2672477
20
-128.6712764
11
165.2672477
21
-71.6712764
0
LINE
8
0
6
CONTINUOUS
10
165.2672478
20
-71.6712764
11
165.2672478
21
-50.6712764
0
LINE
8
0
6
CONTINUOUS
10
91.0672477
20
-148.6212764
11
131.6731814
21
-148.6212764
0
LINE
8
0
6
CONTINUOUS
10
91.0672477
20
-127.6212764
11
125.2672477
21
-127.6212764
0
LINE
8
0
6
CONTINUOUS
10
91.0672477
20
-127.6212764
11
91.0672477
21
-148.6212764
0
LINE
8
0
6
CONTINUOUS
10
132.9672477
20
-138.5355167
11
132.9672477
21
-128.6712764
0
LINE
8
0
6
CONTINUOUS
10
131.6731814
20
-148.6212764
11
150.6100172
21
-151.9603516
0
LINE
8
0
6
CONTINUOUS
10
153.6357967
20
-142.2525304
11
155.5310349
21
-131.5041009
0
LINE
8
0
6
CONTINUOUS
10
155.5310349
20
-131.5041009
11
139.4652891
21
-128.6712764
0
LINE
8
0
6
CONTINUOUS
10
134.7065794
20
-128.6712764
11
132.9672477
21
-138.5355167
0
LINE
8
0
6
CONTINUOUS
10
150.6100172
20
-151.9603516
11
168.6793339
21
-158.537045
0
LINE
8
0
6
CONTINUOUS
10
173.3448919
20
-149.5021287
11
177.0777822
21
-139.246097
0
LINE
8
0
6
CONTINUOUS
10
177.0777822
20
-139.246097
11
157.3442372
21
-132.063674
0
LINE
8
0
6
CONTINUOUS
10
157.3442372
20
-132.063674
11
153.6357967
21
-142.2525304
0
LINE
8
0
6
CONTINUOUS
10
168.6793339
20
-158.537045
11
186.4528023
21
-168.7985618
0
LINE
8
0
6
CONTINUOUS
10
186.4528023
20
-168.7985618
11
196.9528023
21
-150.6120284
0
LINE
8
0
6
CONTINUOUS
10
196.9528023
20
-150.6120284
11
178.7662689
21
-140.1120284
0
LINE
8
0
6
CONTINUOUS
10
178.7662689
20
-140.1120284
11
173.3448919
21
-149.5021287
0
LINE
8
0
6
CONTINUOUS
10
167.8922477
20
-124.9962764
11
188.8922477
21
-124.9962764
0
LINE
8
0
6
CONTINUOUS
10
188.8922477
20
-124.9962764
11
188.8922477
21
-103.9962764
0
LINE
8
0
6
CONTINUOUS
10
188.8922477
20
-103.9962764
11
167.8922477
21
-103.9962764
0
LINE
8
0
6
CONTINUOUS
10
167.8922477
20
-103.9962764
11
167.8922477
21
-124.9962764
0
ENDSEC
0
EOF