0
SECTION
2
HEADER
9
$INSUNITS
70
4
0
ENDSEC
0
SECTION
2
TABLES
0
TABLE
2
LTYPE
0
LTYPE
72
65
70
0
2
CONTINUOUS
3
______
73
0
40
0
0
LTYPE
72
65
70
0
2
DASHED
3
_ _ _ 
73
2
40
7.5
49
5
49
-2.5
0
LTYPE
72
65
70
0
2
DOTTED
3
. . . 
73
2
40
1.5
49
0.5
49
-1
0
ENDTAB
0
TABLE
2
LAYER
0
ENDTAB
0
ENDSEC
0
SECTION
2
ENTITIES
0
LINE
8
0
6
CONTINUOUS
10
52.7422477
20
-135.1962764
11
66.7922477
21
-135.1962764
0
LINE
8
0
6
CONTINUOUS
10
66.7922477
20
-135.1962764
11
66.7922477
21
-121.1462764
0
LINE
8
0
6
CONTINUOUS
10
66.7922477
20
-121.1462764
11
52.7422477
21
-121.1462764
0
LINE
8
0
6
CONTINUOUS
10
52.7422477
20
-121.1462764
11
52.7422477
21
-135.1962764
0
LINE
8
0
6
CONTINUOUS
10
52.7422478
20
-116.1962764
11
66.7922478
21
-116.1962764
0
LINE
8
0
6
CONTINUOUS
10
66.7922478
20
-116.1962764
11
66.7922478
21
-102.1462764
0
LINE
8
0
6
CONTINUOUS
10
66.7922478
20
-102.1462764
11
52.7422478
21
-102.1462764
0
LINE
8
0
6
CONTINUOUS
10
52.7422478
20
-102.1462764
11
52.7422478
21
-116.1962764
0
LINE
8
0
6
CONTINUOUS
10
52.7422478
20
-97.1962764
11
66.7922478
21
-97.1962764
0
LINE
8
0
6
CONTINUOUS
10
66.7922478
20
-97.1962764
11
66.7922478
21
-83.1462764
0
LINE
8
0
6
CONTINUOUS
10
66.7922478
20
-83.1462764
11
52.7422478
21
-83.1462764
0
LINE
8
0
6
CONTINUOUS
10
52.7422478
20
-83.1462764
11
52.7422478
21
-97.1962764
0
LINE
8
0
6
CONTINUOUS
10
52.7422478
20
-78.1962764
11
66.7922478
21
-78.1962764
0
LINE
8
0
6
CONTINUOUS
10
66.7922478
20
-78.1962764
11
66.7922478
21
-64.1462764
0
LINE
8
0
6
CONTINUOUS
10
66.7922478
20
-64.1462764
11
52.7422478
21
-64.1462764
0
LINE
8
0
6
CONTINUOUS
10
52.7422478
20
-64.1462764
11
52.7422478
21
-78.1962764
0
LINE
8
0
6
CONTINUOUS
10
71.7422477
20
-135.1962764
11
85.7922477
21
-135.1962764
0
LINE
8
0
6
CONTINUOUS
10
85.7922477
20
-135.1962764
11
85.7922477
21
-121.1462764
0
LINE
8
0
6
CONTINUOUS
10
85.7922477
20
-121.1462764
11
71.7422477
21
-121.1462764
0
LINE
8
0
6
CONTINUOUS
10
71.7422477
20
-121.1462764
11
71.7422477
21
-135.1962764
0
LINE
8
0
6
CONTINUOUS
10
71.7422478
20
-116.1962764
11
85.7922478
21
-116.1962764
0
LINE
8
0
6
CONTINUOUS
10
85.7922478
20
-116.1962764
11
85.7922478
21
-102.1462764
0
LINE
8
0
6
CONTINUOUS
10
85.7922478
20
-102.1462764
11
71.7422478
21
-102.1462764
0
LINE
8
0
6
CONTINUOUS
10
71.7422478
20
-102.1462764
11
71.7422478
21
-116.1962764
0
LINE
8
0
6
CONTINUOUS
10
71.7422478
20
-97.1962764
11
85.7922478
21
-97.1962764
0
LINE
8
0
6
CONTINUOUS
10
85.7922478
20
-97.1962764
11
85.7922478
21
-83.1462764
0
LINE
8
0
6
CONTINUOUS
10
85.7922478
20
-83.1462764
11
71.7422478
21
-83.1462764
0
LINE
8
0
6
CONTINUOUS
10
71.7422478
20
-83.1462764
11
71.7422478
21
-97.1962764
0
LINE
8
0
6
CONTINUOUS
10
71.7422478
20
-78.1962764
11
85.7922478
21
-78.1962764
0
LINE
8
0
6
CONTINUOUS
10
85.7922478
20
-78.1962764
11
85.7922478
21
-64.1462764
0
LINE
8
0
6
CONTINUOUS
10
85.7922478
20
-64.1462764
11
71.7422478
21
-64.1462764
0
LINE
8
0
6
CONTINUOUS
10
71.7422478
20
-64.1462764
11
71.7422478
21
-78.1962764
0
LINE
8
0
6
CONTINUOUS
10
90.7422478
20
-123.1962764
11
104.7922478
21
-123.1962764
0
LINE
8
0
6
CONTINUOUS
10
104.7922478
20
-123.1962764
11
104.7922478
21
-109.1462764
0
LINE
8
0
6
CONTINUOUS
10
104.7922478
20
-109.1462764
11
90.7422478
21
-109.1462764
0
LINE
8
0
6
CONTINUOUS
10
90.7422478
20
-109.1462764
11
90.7422478
21
-123.1962764
0
LINE
8
0
6
CONTINUOUS
10
90.7422478
20
-104.1962764
11
104.7922478
21
-104.1962764
0
LINE
8
0
6
CONTINUOUS
10
104.7922478
20
-104.1962764
11
104.7922478
21
-90.1462764
0
LINE
8
0
6
CONTINUOUS
10
104.7922478
20
-90.1462764
11
90.7422478
21
-90.1462764
0
LINE
8
0
6
CONTINUOUS
10
90.7422478
20
-90.1462764
11
90.7422478
21
-104.1962764
0
LINE
8
0
6
CONTINUOUS
10
90.7422478
20
-85.1962764
11
104.7922478
21
-85.1962764
0
LINE
8
0
6
CONTINUOUS
10
104.7922478
20
-85.1962764
11
104.7922478
21
-71.1462764
0
LINE
8
0
6
CONTINUOUS
10
104.7922478
20
-71.1462764
11
90.7422478
21
-71.1462764
0
LINE
8
0
6
CONTINUOUS
10
90.7422478
20
-71.1462764
11
90.7422478
21
-85.1962764
0
LINE
8
0
6
CONTINUOUS
10
90.7422478
20
-66.1962764
11
104.7922478
21
-66.1962764
0
LINE
8
0
6
CONTINUOUS
10
104.7922478
20
-66.1962764
11
104.7922478
21
-52.1462764
0
LINE
8
0
6
CONTINUOUS
10
104.7922478
20
-52.1462764
11
90.7422478
21
-52.1462764
0
LINE
8
0
6
CONTINUOUS
10
90.7422478
20
-52.1462764
11
90.7422478
21
-66.1962764
0
LINE
8
0
6
CONTINUOUS
10
109.7422477
20
-118.1962764
11
123.7922477
21
-118.1962764
0
LINE
8
0
6
CONTINUOUS
10
123.7922477
20
-118.1962764
11
123.7922477
21
-104.1462764
0
LINE
8
0
6
CONTINUOUS
10
123.7922477
20
-104.1462764
11
109.7422477
21
-104.1462764
0
LINE
8
0
6
CONTINUOUS
10
109.7422477
20
-104.1462764
11
109.7422477
21
-118.1962764
0
LINE
8
0
6
CONTINUOUS
10
109.7422477
20
-99.1962764
11
123.7922477
21
-99.1962764
0
LINE
8
0
6
CONTINUOUS
10
123.7922477
20
-99.1962764
11
123.7922477
21
-85.1462764
0
LINE
8
0
6
CONTINUOUS
10
123.7922477
20
-85.1462764
11
109.7422477
21
-85.1462764
0
LINE
8
0
6
CONTINUOUS
10
109.7422477
20
-85.1462764
11
109.7422477
21
-99.1962764
0
LINE
8
0
6
CONTINUOUS
10
109.7422477
20
-80.1962764
11
123.7922477
21
-80.1962764
0
LINE
8
0
6
CONTINUOUS
10
123.7922477
20
-80.1962764
11
123.7922477
21
-66.1462764
0
LINE
8
0
6
CONTINUOUS
10
123.7922477
20
-66.1462764
11
109.7422477
21
-66.1462764
0
LINE
8
0
6
CONTINUOUS
10
109.7422477
20
-66.1462764
11
109.7422477
21
-80.1962764
0
LINE
8
0
6
CONTINUOUS
10
109.7422478
20
-61.1962764
11
123.7922478
21
-61.1962764
0
LINE
8
0
6
CONTINUOUS
10
123.7922478
20
-61.1962764
11
123.7922478
21
-47.1462764
0
LINE
8
0
6
CONTINUOUS
10
123.7922478
20
-47.1462764
11
109.7422478
21
-47.1462764
0
LINE
8
0
6
CONTINUOUS
10
109.7422478
20
-47.1462764
11
109.7422478
21
-61.1962764
0
LINE
8
0
6
CONTINUOUS
10
128.7422477
20
-125.1962764
11
142.7922477
21
-125.1962764
0
LINE
8
0
6
CONTINUOUS
10
142.7922477
20
-125.1962764
11
142.7922477
21
-111.1462764
0
LINE
8
0
6
CONTINUOUS
10
142.7922477
20
-111.1462764
11
128.7422477
21
-111.1462764
0
LINE
8
0
6
CONTINUOUS
10
128.7422477
20
-111.1462764
11
128.7422477
21
-125.1962764
0
LINE
8
0
6
CONTINUOUS
10
128.7422477
20
-106.1962764
11
142.7922477
21
-106.1962764
0
LINE
8
0
6
CONTINUOUS
10
142.7922477
20
-106.1962764
11
142.7922477
21
-92.1462764
0
LINE
8
0
6
CONTINUOUS
10
142.7922477
20
-92.1462764
11
128.7422477
21
-92.1462764
0
LINE
8
0
6
CONTINUOUS
10
128.7422477
20
-92.1462764
11
128.7422477
21
-106.1962764
0
LINE
8
0
6
CONTINUOUS
10
128.7422477
20
-87.1962764
11
142.7922477
21
-87.1962764
0
LINE
8
0
6
CONTINUOUS
10
142.7922477
20
-87.1962764
11
142.7922477
21
-73.1462764
0
LINE
8
0
6
CONTINUOUS
10
142.7922477
20
-73.1462764
11
128.7422477
21
-73.1462764
0
LINE
8
0
6
CONTINUOUS
10
128.7422477
20
-73.1462764
11
128.7422477
21
-87.1962764
0
LINE
8
0
6
CONTINUOUS
10
128.7422478
20
-68.1962764
11
142.7922478
21
-68.1962764
0
LINE
8
0
6
CONTINUOUS
10
142.7922478
20
-68.1962764
11
142.7922478
21
-54.1462764
0
LINE
8
0
6
CONTINUOUS
10
142.7922478
20
-54.1462764
11
128.7422478
21
-54.1462764
0
LINE
8
0
6
CONTINUOUS
10
128.7422478
20
-54.1462764
11
128.7422478
21
-68.1962764
0
LINE
8
0
6
CONTINUOUS
10
147.7422477
20
-125.1962764
11
161.7922477
21
-125.1962764
0
LINE
8
0
6
CONTINUOUS
10
161.7922477
20
-125.1962764
11
161.7922477
21
-111.1462764
0
LINE
8
0
6
CONTINUOUS
10
161.7922477
20
-111.1462764
11
147.7422477
21
-111.1462764
0
LINE
8
0
6
CONTINUOUS
10
147.7422477
20
-111.1462764
11
147.7422477
21
-125.1962764
0
LINE
8
0
6
CONTINUOUS
10
147.7422477
20
-106.1962764
11
161.7922477
21
-106.1962764
0
LINE
8
0
6
CONTINUOUS
10
161.7922477
20
-106.1962764
11
161.7922477
21
-92.1462764
0
LINE
8
0
6
CONTINUOUS
10
161.7922477
20
-92.1462764
11
147.7422477
21
-92.1462764
0
LINE
8
0
6
CONTINUOUS
10
147.7422477
20
-92.1462764
11
147.7422477
21
-106.1962764
0
LINE
8
0
6
CONTINUOUS
10
147.7422477
20
-87.1962764
11
161.7922477
21
-87.1962764
0
LINE
8
0
6
CONTINUOUS
10
161.7922477
20
-87.1962764
11
161.7922477
21
-73.1462764
0
LINE
8
0
6
CONTINUOUS
10
161.7922477
20
-73.1462764
11
147.7422477
21
-73.1462764
0
LINE
8
0
6
CONTINUOUS
10
147.7422477
20
-73.1462764
11
147.7422477
21
-87.1962764
0
LINE
8
0
6
CONTINUOUS
10
147.7422478
20
-68.1962764
11
161.7922478
21
-68.1962764
0
LINE
8
0
6
CONTINUOUS
10
161.7922478
20
-68.1962764
11
161.7922478
21
-54.1462764
0
LINE
8
0
6
CONTINUOUS
10
161.7922478
20
-54.1462764
11
147.7422478
21
-54.1462764
0
LINE
8
0
6
CONTINUOUS
10
147.7422478
20
-54.1462764
11
147.7422478
21
-68.1962764
0
LINE
8
0
6
CONTINUOUS
10
94.5422477
20
-145.1462764
11
108.5922477
21
-145.1462764
0
LINE
8
0
6
CONTINUOUS
10
108.5922477
20
-145.1462764
11
108.5922477
21
-131.0962764
0
LINE
8
0
6
CONTINUOUS
10
108.5922477
20
-131.0962764
11
94.5422477
21
-131.0962764
0
LINE
8
0
6
CONTINUOUS
10
94.5422477
20
-131.0962764
11
94.5422477
21
-145.1462764
0
LINE
8
0
6
CONTINUOUS
10
115.4422477
20
-145.1462764
11
129.4922477
21
-145.1462764
0
LINE
8
0
6
CONTINUOUS
10
129.4922477
20
-145.1462764
11
129.4922477
21
-131.0962764
0
LINE
8
0
6
CONTINUOUS
10
129.4922477
20
-131.0962764
11
115.4422477
21
-131.0962764
0
LINE
8
0
6
CONTINUOUS
10
115.4422477
20
-131.0962764
11
115.4422477
21
-145.1462764
0
LINE
8
0
6
CONTINUOUS
10
135.2290947
20
-145.7196724
11
149.0656436
21
-148.1594293
0
LINE
8
0
6
CONTINUOUS
10
149.0656436
20
-148.1594293
11
151.5054005
21
-134.3228804
0
LINE
8
0
6
CONTINUOUS
10
151.5054005
20
-134.3228804
11
137.6688516
21
-131.8831235
0
LINE
8
0
6
CONTINUOUS
10
137.6688516
20
-131.8831235
11
135.2290947
21
-145.7196724
0
LINE
8
0
6
CONTINUOUS
10
154.615766
20
-149.7203072
11
167.8184474
21
-154.5256902
0
LINE
8
0
6
CONTINUOUS
10
167.8184474
20
-154.5256902
11
172.6238304
21
-141.3230088
0
LINE
8
0
6
CONTINUOUS
10
172.6238304
20
-141.3230088
11
159.421149
21
-136.5176258
0
LINE
8
0
6
CONTINUOUS
10
159.421149
20
-136.5176258
11
154.615766
21
-149.7203072
0
LINE
8
0
6
CONTINUOUS
10
173.0132071
20
-157.0266236
11
185.1808641
21
-164.0516236
0
LINE
8
0
6
CONTINUOUS
10
185.1808641
20
-164.0516236
11
192.2058641
21
-151.8839666
0
LINE
8
0
6
CONTINUOUS
10
192.2058641
20
-151.8839666
11
180.0382071
21
-144.8589666
0
LINE
8
0
6
CONTINUOUS
10
180.0382071
20
-144.8589666
11
173.0132071
21
-157.0266236
0
LINE
8
0
6
CONTINUOUS
10
171.3922477
20
-121.4962764
11
185.3922477
21
-121.4962764
0
LINE
8
0
6
CONTINUOUS
10
185.3922477
20
-121.4962764
11
185.3922477
21
-107.4962764
0
LINE
8
0
6
CONTINUOUS
10
185.3922477
20
-107.4962764
11
171.3922477
21
-107.4962764
0
LINE
8
0
6
CONTINUOUS
10
171.3922477
20
-107.4962764
11
171.3922477
21
-121.4962764
0
ENDSEC
0
EOF