0
SECTION
2
HEADER
9
$INSUNITS
70
4
0
ENDSEC
0
SECTION
2
TABLES
0
TABLE
2
LTYPE
0
LTYPE
72
65
70
0
2
CONTINUOUS
3
______
73
0
40
0
0
LTYPE
72
65
70
0
2
DASHED
3
_ _ _ 
73
2
40
7.5
49
5
49
-2.5
0
LTYPE
72
65
70
0
2
DOTTED
3
. . . 
73
2
40
1.5
49
0.5
49
-1
0
ENDTAB
0
TABLE
2
LAYER
0
ENDTAB
0
ENDSEC
0
SECTION
2
ENTITIES
0
LINE
8
0
6
CONTINUOUS
10
201.998159
20
-149.8732143
11
188.9709393
21
-172.4370208
0
LINE
8
0
6
CONTINUOUS
10
186.1492049
20
-173.1140985
11
172.5505872
21
-164.2783771
0
LINE
8
0
6
CONTINUOUS
10
171.9814467
20
-164.0243839
11
126.846218
21
-151.857646
0
LINE
8
0
6
CONTINUOUS
10
126.2832472
20
-151.789167
11
87.0753078
21
-152.6211054
0
LINE
8
0
6
CONTINUOUS
10
87.0591938
20
-152.6213824
11
47.2935613
21
-153.1446144
0
LINE
8
0
6
CONTINUOUS
10
45.2672477
20
-151.1447875
11
45.2672477
21
-58.137051
0
LINE
8
0
6
CONTINUOUS
10
46.6649849
20
-56.2298857
11
83.220936
21
-44.6859012
0
LINE
8
0
6
CONTINUOUS
10
83.3142122
20
-44.6589174
11
102.0170144
21
-39.7371273
0
LINE
8
0
6
CONTINUOUS
10
102.526001
20
-39.6712764
11
131.0845739
21
-39.6712764
0
LINE
8
0
6
CONTINUOUS
10
131.4468987
20
-39.70437
11
169.0875969
21
-46.6381828
0
LINE
8
0
6
CONTINUOUS
10
169.4499217
20
-46.6712764
11
193.5172478
21
-46.6712764
0
LINE
8
0
6
CONTINUOUS
10
195.5172478
20
-48.6712764
11
195.5172478
21
-123.9001108
0
LINE
8
0
6
CONTINUOUS
10
195.5894516
20
-124.4326534
11
202.1939044
21
-148.3406717
0
ARC
8
0
6
CONTINUOUS
10
187.2388885
20
-171.4370208
40
2
50
236.9861448
51
329.9999999
0
ARC
8
0
6
CONTINUOUS
10
171.4609036
20
-165.9554548
40
2
50
56.9861448
51
74.9138223
0
ARC
8
0
6
CONTINUOUS
10
126.3256748
20
-153.7887169
40
2
50
74.9138223
51
91.2155523
0
ARC
8
0
6
CONTINUOUS
10
87.0328802
20
-150.6215555
40
2
50
270.7538509
51
271.2155523
0
ARC
8
0
6
CONTINUOUS
10
47.2672477
20
-151.1447875
40
2
50
180
51
270.7538509
0
ARC
8
0
6
CONTINUOUS
10
47.2672477
20
-58.137051
40
2
50
107.5255695
51
180
0
ARC
8
0
6
CONTINUOUS
10
83.8231988
20
-46.5930664
40
2
50
104.7435634
51
107.5255695
0
ARC
8
0
6
CONTINUOUS
10
102.526001
20
-41.6712764
40
2
50
90
51
104.7435634
0
ARC
8
0
6
CONTINUOUS
10
131.0845739
20
-41.6712764
40
2
50
79.5625264
51
90
0
ARC
8
0
6
CONTINUOUS
10
169.4499217
20
-44.6712764
40
2
50
259.5625264
51
270
0
ARC
8
0
6
CONTINUOUS
10
193.5172478
20
-48.6712764
40
2
50
0
51
90
0
ARC
8
0
6
CONTINUOUS
10
197.5172478
20
-123.9001108
40
2
50
180
51
195.4425077
0
ARC
8
0
6
CONTINUOUS
10
200.2661082
20
-148.8732143
40
2
50
329.9999999
51
15.4425077
0
LINE
8
0
6
CONTINUOUS
10
52.7422477
20
-135.1962764
11
66.7922477
21
-135.1962764
0
LINE
8
0
6
CONTINUOUS
10
66.7922477
20
-135.1962764
11
66.7922477
21
-121.1462764
0
LINE
8
0
6
CONTINUOUS
10
66.7922477
20
-121.1462764
11
52.7422477
21
-121.1462764
0
LINE
8
0
6
CONTINUOUS
10
52.7422477
20
-121.1462764
11
52.7422477
21
-135.1962764
0
LINE
8
0
6
CONTINUOUS
10
52.7422478
20
-116.1962764
11
66.7922478
21
-116.1962764
0
LINE
8
0
6
CONTINUOUS
10
66.7922478
20
-116.1962764
11
66.7922478
21
-102.1462764
0
LINE
8
0
6
CONTINUOUS
10
66.7922478
20
-102.1462764
11
52.7422478
21
-102.1462764
0
LINE
8
0
6
CONTINUOUS
10
52.7422478
20
-102.1462764
11
52.7422478
21
-116.1962764
0
LINE
8
0
6
CONTINUOUS
10
52.7422478
20
-97.1962764
11
66.7922478
21
-97.1962764
0
LINE
8
0
6
CONTINUOUS
10
66.7922478
20
-97.1962764
11
66.7922478
21
-83.1462764
0
LINE
8
0
6
CONTINUOUS
10
66.7922478
20
-83.1462764
11
52.7422478
21
-83.1462764
0
LINE
8
0
6
CONTINUOUS
10
52.7422478
20
-83.1462764
11
52.7422478
21
-97.1962764
0
LINE
8
0
6
CONTINUOUS
10
52.7422478
20
-78.1962764
11
66.7922478
21
-78.1962764
0
LINE
8
0
6
CONTINUOUS
10
66.7922478
20
-78.1962764
11
66.7922478
21
-64.1462764
0
LINE
8
0
6
CONTINUOUS
10
66.7922478
20
-64.1462764
11
52.7422478
21
-64.1462764
0
LINE
8
0
6
CONTINUOUS
10
52.7422478
20
-64.1462764
11
52.7422478
21
-78.1962764
0
LINE
8
0
6
CONTINUOUS
10
71.7422477
20
-135.1962764
11
85.7922477
21
-135.1962764
0
LINE
8
0
6
CONTINUOUS
10
85.7922477
20
-135.1962764
11
85.7922477
21
-121.1462764
0
LINE
8
0
6
CONTINUOUS
10
85.7922477
20
-121.1462764
11
71.7422477
21
-121.1462764
0
LINE
8
0
6
CONTINUOUS
10
71.7422477
20
-121.1462764
11
71.7422477
21
-135.1962764
0
LINE
8
0
6
CONTINUOUS
10
71.7422478
20
-116.1962764
11
85.7922478
21
-116.1962764
0
LINE
8
0
6
CONTINUOUS
10
85.7922478
20
-116.1962764
11
85.7922478
21
-102.1462764
0
LINE
8
0
6
CONTINUOUS
10
85.7922478
20
-102.1462764
11
71.7422478
21
-102.1462764
0
LINE
8
0
6
CONTINUOUS
10
71.7422478
20
-102.1462764
11
71.7422478
21
-116.1962764
0
LINE
8
0
6
CONTINUOUS
10
71.7422478
20
-97.1962764
11
85.7922478
21
-97.1962764
0
LINE
8
0
6
CONTINUOUS
10
85.7922478
20
-97.1962764
11
85.7922478
21
-83.1462764
0
LINE
8
0
6
CONTINUOUS
10
85.7922478
20
-83.1462764
11
71.7422478
21
-83.1462764
0
LINE
8
0
6
CONTINUOUS
10
71.7422478
20
-83.1462764
11
71.7422478
21
-97.1962764
0
LINE
8
0
6
CONTINUOUS
10
71.7422478
20
-78.1962764
11
85.7922478
21
-78.1962764
0
LINE
8
0
6
CONTINUOUS
10
85.7922478
20
-78.1962764
11
85.7922478
21
-64.1462764
0
LINE
8
0
6
CONTINUOUS
10
85.7922478
20
-64.1462764
11
71.7422478
21
-64.1462764
0
LINE
8
0
6
CONTINUOUS
10
71.7422478
20
-64.1462764
11
71.7422478
21
-78.1962764
0
LINE
8
0
6
CONTINUOUS
10
90.7422478
20
-123.1962764
11
104.7922478
21
-123.1962764
0
LINE
8
0
6
CONTINUOUS
10
104.7922478
20
-123.1962764
11
104.7922478
21
-109.1462764
0
LINE
8
0
6
CONTINUOUS
10
104.7922478
20
-109.1462764
11
90.7422478
21
-109.1462764
0
LINE
8
0
6
CONTINUOUS
10
90.7422478
20
-109.1462764
11
90.7422478
21
-123.1962764
0
LINE
8
0
6
CONTINUOUS
10
90.7422478
20
-104.1962764
11
104.7922478
21
-104.1962764
0
LINE
8
0
6
CONTINUOUS
10
104.7922478
20
-104.1962764
11
104.7922478
21
-90.1462764
0
LINE
8
0
6
CONTINUOUS
10
104.7922478
20
-90.1462764
11
90.7422478
21
-90.1462764
0
LINE
8
0
6
CONTINUOUS
10
90.7422478
20
-90.1462764
11
90.7422478
21
-104.1962764
0
LINE
8
0
6
CONTINUOUS
10
90.7422478
20
-85.1962764
11
104.7922478
21
-85.1962764
0
LINE
8
0
6
CONTINUOUS
10
104.7922478
20
-85.1962764
11
104.7922478
21
-71.1462764
0
LINE
8
0
6
CONTINUOUS
10
104.7922478
20
-71.1462764
11
90.7422478
21
-71.1462764
0
LINE
8
0
6
CONTINUOUS
10
90.7422478
20
-71.1462764
11
90.7422478
21
-85.1962764
0
LINE
8
0
6
CONTINUOUS
10
90.7422478
20
-66.1962764
11
104.7922478
21
-66.1962764
0
LINE
8
0
6
CONTINUOUS
10
104.7922478
20
-66.1962764
11
104.7922478
21
-52.1462764
0
LINE
8
0
6
CONTINUOUS
10
104.7922478
20
-52.1462764
11
90.7422478
21
-52.1462764
0
LINE
8
0
6
CONTINUOUS
10
90.7422478
20
-52.1462764
11
90.7422478
21
-66.1962764
0
LINE
8
0
6
CONTINUOUS
10
109.7422477
20
-118.1962764
11
123.7922477
21
-118.1962764
0
LINE
8
0
6
CONTINUOUS
10
123.7922477
20
-118.1962764
11
123.7922477
21
-104.1462764
0
LINE
8
0
6
CONTINUOUS
10
123.7922477
20
-104.1462764
11
109.7422477
21
-104.1462764
0
LINE
8
0
6
CONTINUOUS
10
109.7422477
20
-104.1462764
11
109.7422477
21
-118.1962764
0
LINE
8
0
6
CONTINUOUS
10
109.7422477
20
-99.1962764
11
123.7922477
21
-99.1962764
0
LINE
8
0
6
CONTINUOUS
10
123.7922477
20
-99.1962764
11
123.7922477
21
-85.1462764
0
LINE
8
0
6
CONTINUOUS
10
123.7922477
20
-85.1462764
11
109.7422477
21
-85.1462764
0
LINE
8
0
6
CONTINUOUS
10
109.7422477
20
-85.1462764
11
109.7422477
21
-99.1962764
0
LINE
8
0
6
CONTINUOUS
10
109.7422477
20
-80.1962764
11
123.7922477
21
-80.1962764
0
LINE
8
0
6
CONTINUOUS
10
123.7922477
20
-80.1962764
11
123.7922477
21
-66.1462764
0
LINE
8
0
6
CONTINUOUS
10
123.7922477
20
-66.1462764
11
109.7422477
21
-66.1462764
0
LINE
8
0
6
CONTINUOUS
10
109.7422477
20
-66.1462764
11
109.7422477
21
-80.1962764
0
LINE
8
0
6
CONTINUOUS
10
109.7422478
20
-61.1962764
11
123.7922478
21
-61.1962764
0
LINE
8
0
6
CONTINUOUS
10
123.7922478
20
-61.1962764
11
123.7922478
21
-47.1462764
0
LINE
8
0
6
CONTINUOUS
10
123.7922478
20
-47.1462764
11
109.7422478
21
-47.1462764
0
LINE
8
0
6
CONTINUOUS
10
109.7422478
20
-47.1462764
11
109.7422478
21
-61.1962764
0
LINE
8
0
6
CONTINUOUS
10
128.7422477
20
-125.1962764
11
142.7922477
21
-125.1962764
0
LINE
8
0
6
CONTINUOUS
10
142.7922477
20
-125.1962764
11
142.7922477
21
-111.1462764
0
LINE
8
0
6
CONTINUOUS
10
142.7922477
20
-111.1462764
11
128.7422477
21
-111.1462764
0
LINE
8
0
6
CONTINUOUS
10
128.7422477
20
-111.1462764
11
128.7422477
21
-125.1962764
0
LINE
8
0
6
CONTINUOUS
10
128.7422477
20
-106.1962764
11
142.7922477
21
-106.1962764
0
LINE
8
0
6
CONTINUOUS
10
142.7922477
20
-106.1962764
11
142.7922477
21
-92.1462764
0
LINE
8
0
6
CONTINUOUS
10
142.7922477
20
-92.1462764
11
128.7422477
21
-92.1462764
0
LINE
8
0
6
CONTINUOUS
10
128.7422477
20
-92.1462764
11
128.7422477
21
-106.1962764
0
LINE
8
0
6
CONTINUOUS
10
128.7422477
20
-87.1962764
11
142.7922477
21
-87.1962764
0
LINE
8
0
6
CONTINUOUS
10
142.7922477
20
-87.1962764
11
142.7922477
21
-73.1462764
0
LINE
8
0
6
CONTINUOUS
10
142.7922477
20
-73.1462764
11
128.7422477
21
-73.1462764
0
LINE
8
0
6
CONTINUOUS
10
128.7422477
20
-73.1462764
11
128.7422477
21
-87.1962764
0
LINE
8
0
6
CONTINUOUS
10
128.7422478
20
-68.1962764
11
142.7922478
21
-68.1962764
0
LINE
8
0
6
CONTINUOUS
10
142.7922478
20
-68.1962764
11
142.7922478
21
-54.1462764
0
LINE
8
0
6
CONTINUOUS
10
142.7922478
20
-54.1462764
11
128.7422478
21
-54.1462764
0
LINE
8
0
6
CONTINUOUS
10
128.7422478
20
-54.1462764
11
128.7422478
21
-68.1962764
0
LINE
8
0
6
CONTINUOUS
10
147.7422477
20
-125.1962764
11
161.7922477
21
-125.1962764
0
LINE
8
0
6
CONTINUOUS
10
161.7922477
20
-125.1962764
11
161.7922477
21
-111.1462764
0
LINE
8
0
6
CONTINUOUS
10
161.7922477
20
-111.1462764
11
147.7422477
21
-111.1462764
0
LINE
8
0
6
CONTINUOUS
10
147.7422477
20
-111.1462764
11
147.7422477
21
-125.1962764
0
LINE
8
0
6
CONTINUOUS
10
147.7422477
20
-106.1962764
11
161.7922477
21
-106.1962764
0
LINE
8
0
6
CONTINUOUS
10
161.7922477
20
-106.1962764
11
161.7922477
21
-92.1462764
0
LINE
8
0
6
CONTINUOUS
10
161.7922477
20
-92.1462764
11
147.7422477
21
-92.1462764
0
LINE
8
0
6
CONTINUOUS
10
147.7422477
20
-92.1462764
11
147.7422477
21
-106.1962764
0
LINE
8
0
6
CONTINUOUS
10
147.7422477
20
-87.1962764
11
161.7922477
21
-87.1962764
0
LINE
8
0
6
CONTINUOUS
10
161.7922477
20
-87.1962764
11
161.7922477
21
-73.1462764
0
LINE
8
0
6
CONTINUOUS
10
161.7922477
20
-73.1462764
11
147.7422477
21
-73.1462764
0
LINE
8
0
6
CONTINUOUS
10
147.7422477
20
-73.1462764
11
147.7422477
21
-87.1962764
0
LINE
8
0
6
CONTINUOUS
10
147.7422478
20
-68.1962764
11
161.7922478
21
-68.1962764
0
LINE
8
0
6
CONTINUOUS
10
161.7922478
20
-68.1962764
11
161.7922478
21
-54.1462764
0
LINE
8
0
6
CONTINUOUS
10
161.7922478
20
-54.1462764
11
147.7422478
21
-54.1462764
0
LINE
8
0
6
CONTINUOUS
10
147.7422478
20
-54.1462764
11
147.7422478
21
-68.1962764
0
LINE
8
0
6
CONTINUOUS
10
94.5422477
20
-145.1462764
11
108.5922477
21
-145.1462764
0
LINE
8
0
6
CONTINUOUS
10
108.5922477
20
-145.1462764
11
108.5922477
21
-131.0962764
0
LINE
8
0
6
CONTINUOUS
10
108.5922477
20
-131.0962764
11
94.5422477
21
-131.0962764
0
LINE
8
0
6
CONTINUOUS
10
94.5422477
20
-131.0962764
11
94.5422477
21
-145.1462764
0
LINE
8
0
6
CONTINUOUS
10
115.4422477
20
-145.1462764
11
129.4922477
21
-145.1462764
0
LINE
8
0
6
CONTINUOUS
10
129.4922477
20
-145.1462764
11
129.4922477
21
-131.0962764
0
LINE
8
0
6
CONTINUOUS
10
129.4922477
20
-131.0962764
11
115.4422477
21
-131.0962764
0
LINE
8
0
6
CONTINUOUS
10
115.4422477
20
-131.0962764
11
115.4422477
21
-145.1462764
0
LINE
8
0
6
CONTINUOUS
10
135.2290947
20
-145.7196724
11
149.0656436
21
-148.1594293
0
LINE
8
0
6
CONTINUOUS
10
149.0656436
20
-148.1594293
11
151.5054005
21
-134.3228804
0
LINE
8
0
6
CONTINUOUS
10
151.5054005
20
-134.3228804
11
137.6688516
21
-131.8831235
0
LINE
8
0
6
CONTINUOUS
10
137.6688516
20
-131.8831235
11
135.2290947
21
-145.7196724
0
LINE
8
0
6
CONTINUOUS
10
154.615766
20
-149.7203072
11
167.8184474
21
-154.5256902
0
LINE
8
0
6
CONTINUOUS
10
167.8184474
20
-154.5256902
11
172.6238304
21
-141.3230088
0
LINE
8
0
6
CONTINUOUS
10
172.6238304
20
-141.3230088
11
159.421149
21
-136.5176258
0
LINE
8
0
6
CONTINUOUS
10
159.421149
20
-136.5176258
11
154.615766
21
-149.7203072
0
LINE
8
0
6
CONTINUOUS
10
173.0132071
20
-157.0266236
11
185.1808641
21
-164.0516236
0
LINE
8
0
6
CONTINUOUS
10
185.1808641
20
-164.0516236
11
192.2058641
21
-151.8839666
0
LINE
8
0
6
CONTINUOUS
10
192.2058641
20
-151.8839666
11
180.0382071
21
-144.8589666
0
LINE
8
0
6
CONTINUOUS
10
180.0382071
20
-144.8589666
11
173.0132071
21
-157.0266236
0
LINE
8
0
6
CONTINUOUS
10
171.3922477
20
-121.4962764
11
185.3922477
21
-121.4962764
0
LINE
8
0
6
CONTINUOUS
10
185.3922477
20
-121.4962764
11
185.3922477
21
-107.4962764
0
LINE
8
0
6
CONTINUOUS
10
185.3922477
20
-107.4962764
11
171.3922477
21
-107.4962764
0
LINE
8
0
6
CONTINUOUS
10
171.3922477
20
-107.4962764
11
171.3922477
21
-121.4962764
0
LINE
8
0
6
CONTINUOUS
10
171.3922477
20
-94.3962764
11
185.3922477
21
-94.3962764
0
LINE
8
0
6
CONTINUOUS
10
185.3922477
20
-94.3962764
11
185.3922477
21
-54.3962764
0
LINE
8
0
6
CONTINUOUS
10
185.3922477
20
-54.3962764
11
171.3922477
21
-54.3962764
0
LINE
8
0
6
CONTINUOUS
10
171.3922477
20
-54.3962764
11
171.3922477
21
-94.3962764
0
ENDSEC
0
EOF