%TF.GenerationSoftware,KiCad,Pcbnew,10.0.2*%
%TF.CreationDate,2026-09-22T23:10:08+02:00*%
%TF.ProjectId,Sylkaboard,53796c6b-6162-46f6-9172-642e6b696361,v1.0.0*%
%TF.SameCoordinates,Original*%
%TF.FileFunction,Legend,Top*%
%TF.FilePolarity,Positive*%
%FSLAX46Y46*%
G04 Gerber Fmt 4.6, Leading zero omitted, Abs format (unit mm)*
G04 Created by KiCad (PCBNEW 10.0.2) date 2026-09-22 23:10:08*
%MOMM*%
%LPD*%
G01*
G04 APERTURE LIST*
%ADD10C,0.150000*%
%ADD11C,0.120000*%
G04 APERTURE END LIST*
D10*
X230459951Y-104455000D02*
G75*
G02*
X231480000Y-103425000I1030049J0D01*
G01*
X230478892Y-126046106D02*
X230460000Y-104455000D01*
X231350509Y-126916247D02*
G75*
G02*
X230478935Y-126046107I-11809J859747D01*
G01*
X231368779Y-126933680D02*
X247450000Y-126960000D01*
X247579491Y-103468753D02*
X231480000Y-103425000D01*
X247579491Y-103468753D02*
G75*
G02*
X248451065Y-104338893I11809J-859747D01*
G01*
X248451108Y-104338894D02*
X248470000Y-125930000D01*
X248470049Y-125930000D02*
G75*
G02*
X247450000Y-126960000I-1030049J0D01*
G01*
X238860588Y-149647830D02*
X238765350Y-149600211D01*
X238765350Y-149600211D02*
X238622493Y-149600211D01*
X238622493Y-149600211D02*
X238479636Y-149647830D01*
X238479636Y-149647830D02*
X238384398Y-149743068D01*
X238384398Y-149743068D02*
X238336779Y-149838306D01*
X238336779Y-149838306D02*
X238289160Y-150028782D01*
X238289160Y-150028782D02*
X238289160Y-150171639D01*
X238289160Y-150171639D02*
X238336779Y-150362115D01*
X238336779Y-150362115D02*
X238384398Y-150457353D01*
X238384398Y-150457353D02*
X238479636Y-150552592D01*
X238479636Y-150552592D02*
X238622493Y-150600211D01*
X238622493Y-150600211D02*
X238717731Y-150600211D01*
X238717731Y-150600211D02*
X238860588Y-150552592D01*
X238860588Y-150552592D02*
X238908207Y-150504972D01*
X238908207Y-150504972D02*
X238908207Y-150171639D01*
X238908207Y-150171639D02*
X238717731Y-150171639D01*
X239336779Y-150600211D02*
X239336779Y-149600211D01*
X239336779Y-149600211D02*
X239908207Y-150600211D01*
X239908207Y-150600211D02*
X239908207Y-149600211D01*
X240384398Y-150600211D02*
X240384398Y-149600211D01*
X240384398Y-149600211D02*
X240622493Y-149600211D01*
X240622493Y-149600211D02*
X240765350Y-149647830D01*
X240765350Y-149647830D02*
X240860588Y-149743068D01*
X240860588Y-149743068D02*
X240908207Y-149838306D01*
X240908207Y-149838306D02*
X240955826Y-150028782D01*
X240955826Y-150028782D02*
X240955826Y-150171639D01*
X240955826Y-150171639D02*
X240908207Y-150362115D01*
X240908207Y-150362115D02*
X240860588Y-150457353D01*
X240860588Y-150457353D02*
X240765350Y-150552592D01*
X240765350Y-150552592D02*
X240622493Y-150600211D01*
X240622493Y-150600211D02*
X240384398Y-150600211D01*
X238336779Y-151829202D02*
X239098684Y-151829202D01*
X238717731Y-152210155D02*
X238717731Y-151448250D01*
X240051064Y-151210155D02*
X239574874Y-151210155D01*
X239574874Y-151210155D02*
X239527255Y-151686345D01*
X239527255Y-151686345D02*
X239574874Y-151638726D01*
X239574874Y-151638726D02*
X239670112Y-151591107D01*
X239670112Y-151591107D02*
X239908207Y-151591107D01*
X239908207Y-151591107D02*
X240003445Y-151638726D01*
X240003445Y-151638726D02*
X240051064Y-151686345D01*
X240051064Y-151686345D02*
X240098683Y-151781583D01*
X240098683Y-151781583D02*
X240098683Y-152019678D01*
X240098683Y-152019678D02*
X240051064Y-152114916D01*
X240051064Y-152114916D02*
X240003445Y-152162536D01*
X240003445Y-152162536D02*
X239908207Y-152210155D01*
X239908207Y-152210155D02*
X239670112Y-152210155D01*
X239670112Y-152210155D02*
X239574874Y-152162536D01*
X239574874Y-152162536D02*
X239527255Y-152114916D01*
X240384398Y-151210155D02*
X240717731Y-152210155D01*
X240717731Y-152210155D02*
X241051064Y-151210155D01*
X238193922Y-152820099D02*
X238765350Y-152820099D01*
X238479636Y-153820099D02*
X238479636Y-152820099D01*
X239003446Y-152820099D02*
X239670112Y-153820099D01*
X239670112Y-152820099D02*
X239003446Y-153820099D01*
X238908207Y-155430043D02*
X238574874Y-154953852D01*
X238336779Y-155430043D02*
X238336779Y-154430043D01*
X238336779Y-154430043D02*
X238717731Y-154430043D01*
X238717731Y-154430043D02*
X238812969Y-154477662D01*
X238812969Y-154477662D02*
X238860588Y-154525281D01*
X238860588Y-154525281D02*
X238908207Y-154620519D01*
X238908207Y-154620519D02*
X238908207Y-154763376D01*
X238908207Y-154763376D02*
X238860588Y-154858614D01*
X238860588Y-154858614D02*
X238812969Y-154906233D01*
X238812969Y-154906233D02*
X238717731Y-154953852D01*
X238717731Y-154953852D02*
X238336779Y-154953852D01*
X239241541Y-154430043D02*
X239908207Y-155430043D01*
X239908207Y-154430043D02*
X239241541Y-155430043D01*
X238193922Y-156039987D02*
X238765350Y-156039987D01*
X238479636Y-157039987D02*
X238479636Y-156039987D01*
X239003446Y-156039987D02*
X239670112Y-157039987D01*
X239670112Y-156039987D02*
X239003446Y-157039987D01*
X238908207Y-158649931D02*
X238574874Y-158173740D01*
X238336779Y-158649931D02*
X238336779Y-157649931D01*
X238336779Y-157649931D02*
X238717731Y-157649931D01*
X238717731Y-157649931D02*
X238812969Y-157697550D01*
X238812969Y-157697550D02*
X238860588Y-157745169D01*
X238860588Y-157745169D02*
X238908207Y-157840407D01*
X238908207Y-157840407D02*
X238908207Y-157983264D01*
X238908207Y-157983264D02*
X238860588Y-158078502D01*
X238860588Y-158078502D02*
X238812969Y-158126121D01*
X238812969Y-158126121D02*
X238717731Y-158173740D01*
X238717731Y-158173740D02*
X238336779Y-158173740D01*
X239241541Y-157649931D02*
X239908207Y-158649931D01*
X239908207Y-157649931D02*
X239241541Y-158649931D01*
X238336779Y-159878922D02*
X239098684Y-159878922D01*
X238717731Y-160259875D02*
X238717731Y-159497970D01*
X240051064Y-159259875D02*
X239574874Y-159259875D01*
X239574874Y-159259875D02*
X239527255Y-159736065D01*
X239527255Y-159736065D02*
X239574874Y-159688446D01*
X239574874Y-159688446D02*
X239670112Y-159640827D01*
X239670112Y-159640827D02*
X239908207Y-159640827D01*
X239908207Y-159640827D02*
X240003445Y-159688446D01*
X240003445Y-159688446D02*
X240051064Y-159736065D01*
X240051064Y-159736065D02*
X240098683Y-159831303D01*
X240098683Y-159831303D02*
X240098683Y-160069398D01*
X240098683Y-160069398D02*
X240051064Y-160164636D01*
X240051064Y-160164636D02*
X240003445Y-160212256D01*
X240003445Y-160212256D02*
X239908207Y-160259875D01*
X239908207Y-160259875D02*
X239670112Y-160259875D01*
X239670112Y-160259875D02*
X239574874Y-160212256D01*
X239574874Y-160212256D02*
X239527255Y-160164636D01*
X240384398Y-159259875D02*
X240717731Y-160259875D01*
X240717731Y-160259875D02*
X241051064Y-159259875D01*
X238860588Y-160917438D02*
X238765350Y-160869819D01*
X238765350Y-160869819D02*
X238622493Y-160869819D01*
X238622493Y-160869819D02*
X238479636Y-160917438D01*
X238479636Y-160917438D02*
X238384398Y-161012676D01*
X238384398Y-161012676D02*
X238336779Y-161107914D01*
X238336779Y-161107914D02*
X238289160Y-161298390D01*
X238289160Y-161298390D02*
X238289160Y-161441247D01*
X238289160Y-161441247D02*
X238336779Y-161631723D01*
X238336779Y-161631723D02*
X238384398Y-161726961D01*
X238384398Y-161726961D02*
X238479636Y-161822200D01*
X238479636Y-161822200D02*
X238622493Y-161869819D01*
X238622493Y-161869819D02*
X238717731Y-161869819D01*
X238717731Y-161869819D02*
X238860588Y-161822200D01*
X238860588Y-161822200D02*
X238908207Y-161774580D01*
X238908207Y-161774580D02*
X238908207Y-161441247D01*
X238908207Y-161441247D02*
X238717731Y-161441247D01*
X239336779Y-161869819D02*
X239336779Y-160869819D01*
X239336779Y-160869819D02*
X239908207Y-161869819D01*
X239908207Y-161869819D02*
X239908207Y-160869819D01*
X240384398Y-161869819D02*
X240384398Y-160869819D01*
X240384398Y-160869819D02*
X240622493Y-160869819D01*
X240622493Y-160869819D02*
X240765350Y-160917438D01*
X240765350Y-160917438D02*
X240860588Y-161012676D01*
X240860588Y-161012676D02*
X240908207Y-161107914D01*
X240908207Y-161107914D02*
X240955826Y-161298390D01*
X240955826Y-161298390D02*
X240955826Y-161441247D01*
X240955826Y-161441247D02*
X240908207Y-161631723D01*
X240908207Y-161631723D02*
X240860588Y-161726961D01*
X240860588Y-161726961D02*
X240765350Y-161822200D01*
X240765350Y-161822200D02*
X240622493Y-161869819D01*
X240622493Y-161869819D02*
X240384398Y-161869819D01*
X247071541Y-157904819D02*
X247738207Y-158904819D01*
X247738207Y-157904819D02*
X247071541Y-158904819D01*
X247101541Y-154804819D02*
X247768207Y-155804819D01*
X247768207Y-154804819D02*
X247101541Y-155804819D01*
X236138095Y-114654819D02*
X236138095Y-115464342D01*
X236138095Y-115464342D02*
X236185714Y-115559580D01*
X236185714Y-115559580D02*
X236233333Y-115607200D01*
X236233333Y-115607200D02*
X236328571Y-115654819D01*
X236328571Y-115654819D02*
X236519047Y-115654819D01*
X236519047Y-115654819D02*
X236614285Y-115607200D01*
X236614285Y-115607200D02*
X236661904Y-115559580D01*
X236661904Y-115559580D02*
X236709523Y-115464342D01*
X236709523Y-115464342D02*
X236709523Y-114654819D01*
X237709523Y-115654819D02*
X237138095Y-115654819D01*
X237423809Y-115654819D02*
X237423809Y-114654819D01*
X237423809Y-114654819D02*
X237328571Y-114797676D01*
X237328571Y-114797676D02*
X237233333Y-114892914D01*
X237233333Y-114892914D02*
X237138095Y-114940533D01*
X240838095Y-114654819D02*
X240838095Y-115464342D01*
X240838095Y-115464342D02*
X240885714Y-115559580D01*
X240885714Y-115559580D02*
X240933333Y-115607200D01*
X240933333Y-115607200D02*
X241028571Y-115654819D01*
X241028571Y-115654819D02*
X241219047Y-115654819D01*
X241219047Y-115654819D02*
X241314285Y-115607200D01*
X241314285Y-115607200D02*
X241361904Y-115559580D01*
X241361904Y-115559580D02*
X241409523Y-115464342D01*
X241409523Y-115464342D02*
X241409523Y-114654819D01*
X242409523Y-115654819D02*
X241838095Y-115654819D01*
X242123809Y-115654819D02*
X242123809Y-114654819D01*
X242123809Y-114654819D02*
X242028571Y-114797676D01*
X242028571Y-114797676D02*
X241933333Y-114892914D01*
X241933333Y-114892914D02*
X241838095Y-114940533D01*
X242800148Y-175466147D02*
X242466815Y-174989956D01*
X242228720Y-175466147D02*
X242228720Y-174466147D01*
X242228720Y-174466147D02*
X242609672Y-174466147D01*
X242609672Y-174466147D02*
X242704910Y-174513766D01*
X242704910Y-174513766D02*
X242752529Y-174561385D01*
X242752529Y-174561385D02*
X242800148Y-174656623D01*
X242800148Y-174656623D02*
X242800148Y-174799480D01*
X242800148Y-174799480D02*
X242752529Y-174894718D01*
X242752529Y-174894718D02*
X242704910Y-174942337D01*
X242704910Y-174942337D02*
X242609672Y-174989956D01*
X242609672Y-174989956D02*
X242228720Y-174989956D01*
X243228720Y-174942337D02*
X243562053Y-174942337D01*
X243704910Y-175466147D02*
X243228720Y-175466147D01*
X243228720Y-175466147D02*
X243228720Y-174466147D01*
X243228720Y-174466147D02*
X243704910Y-174466147D01*
X244657291Y-175466147D02*
X244085863Y-175466147D01*
X244371577Y-175466147D02*
X244371577Y-174466147D01*
X244371577Y-174466147D02*
X244276339Y-174609004D01*
X244276339Y-174609004D02*
X244181101Y-174704242D01*
X244181101Y-174704242D02*
X244085863Y-174751861D01*
X172097757Y-111698913D02*
X172240614Y-111746532D01*
X172240614Y-111746532D02*
X172478709Y-111746532D01*
X172478709Y-111746532D02*
X172573947Y-111698913D01*
X172573947Y-111698913D02*
X172621566Y-111651293D01*
X172621566Y-111651293D02*
X172669185Y-111556055D01*
X172669185Y-111556055D02*
X172669185Y-111460817D01*
X172669185Y-111460817D02*
X172621566Y-111365579D01*
X172621566Y-111365579D02*
X172573947Y-111317960D01*
X172573947Y-111317960D02*
X172478709Y-111270341D01*
X172478709Y-111270341D02*
X172288233Y-111222722D01*
X172288233Y-111222722D02*
X172192995Y-111175103D01*
X172192995Y-111175103D02*
X172145376Y-111127484D01*
X172145376Y-111127484D02*
X172097757Y-111032246D01*
X172097757Y-111032246D02*
X172097757Y-110937008D01*
X172097757Y-110937008D02*
X172145376Y-110841770D01*
X172145376Y-110841770D02*
X172192995Y-110794151D01*
X172192995Y-110794151D02*
X172288233Y-110746532D01*
X172288233Y-110746532D02*
X172526328Y-110746532D01*
X172526328Y-110746532D02*
X172669185Y-110794151D01*
X173621566Y-111746532D02*
X173050138Y-111746532D01*
X173335852Y-111746532D02*
X173335852Y-110746532D01*
X173335852Y-110746532D02*
X173240614Y-110889389D01*
X173240614Y-110889389D02*
X173145376Y-110984627D01*
X173145376Y-110984627D02*
X173050138Y-111032246D01*
X174240614Y-110746532D02*
X174335852Y-110746532D01*
X174335852Y-110746532D02*
X174431090Y-110794151D01*
X174431090Y-110794151D02*
X174478709Y-110841770D01*
X174478709Y-110841770D02*
X174526328Y-110937008D01*
X174526328Y-110937008D02*
X174573947Y-111127484D01*
X174573947Y-111127484D02*
X174573947Y-111365579D01*
X174573947Y-111365579D02*
X174526328Y-111556055D01*
X174526328Y-111556055D02*
X174478709Y-111651293D01*
X174478709Y-111651293D02*
X174431090Y-111698913D01*
X174431090Y-111698913D02*
X174335852Y-111746532D01*
X174335852Y-111746532D02*
X174240614Y-111746532D01*
X174240614Y-111746532D02*
X174145376Y-111698913D01*
X174145376Y-111698913D02*
X174097757Y-111651293D01*
X174097757Y-111651293D02*
X174050138Y-111556055D01*
X174050138Y-111556055D02*
X174002519Y-111365579D01*
X174002519Y-111365579D02*
X174002519Y-111127484D01*
X174002519Y-111127484D02*
X174050138Y-110937008D01*
X174050138Y-110937008D02*
X174097757Y-110841770D01*
X174097757Y-110841770D02*
X174145376Y-110794151D01*
X174145376Y-110794151D02*
X174240614Y-110746532D01*
X177797757Y-195598913D02*
X177940614Y-195646532D01*
X177940614Y-195646532D02*
X178178709Y-195646532D01*
X178178709Y-195646532D02*
X178273947Y-195598913D01*
X178273947Y-195598913D02*
X178321566Y-195551293D01*
X178321566Y-195551293D02*
X178369185Y-195456055D01*
X178369185Y-195456055D02*
X178369185Y-195360817D01*
X178369185Y-195360817D02*
X178321566Y-195265579D01*
X178321566Y-195265579D02*
X178273947Y-195217960D01*
X178273947Y-195217960D02*
X178178709Y-195170341D01*
X178178709Y-195170341D02*
X177988233Y-195122722D01*
X177988233Y-195122722D02*
X177892995Y-195075103D01*
X177892995Y-195075103D02*
X177845376Y-195027484D01*
X177845376Y-195027484D02*
X177797757Y-194932246D01*
X177797757Y-194932246D02*
X177797757Y-194837008D01*
X177797757Y-194837008D02*
X177845376Y-194741770D01*
X177845376Y-194741770D02*
X177892995Y-194694151D01*
X177892995Y-194694151D02*
X177988233Y-194646532D01*
X177988233Y-194646532D02*
X178226328Y-194646532D01*
X178226328Y-194646532D02*
X178369185Y-194694151D01*
X178750138Y-194741770D02*
X178797757Y-194694151D01*
X178797757Y-194694151D02*
X178892995Y-194646532D01*
X178892995Y-194646532D02*
X179131090Y-194646532D01*
X179131090Y-194646532D02*
X179226328Y-194694151D01*
X179226328Y-194694151D02*
X179273947Y-194741770D01*
X179273947Y-194741770D02*
X179321566Y-194837008D01*
X179321566Y-194837008D02*
X179321566Y-194932246D01*
X179321566Y-194932246D02*
X179273947Y-195075103D01*
X179273947Y-195075103D02*
X178702519Y-195646532D01*
X178702519Y-195646532D02*
X179321566Y-195646532D01*
X180178709Y-194979865D02*
X180178709Y-195646532D01*
X179940614Y-194598913D02*
X179702519Y-195313198D01*
X179702519Y-195313198D02*
X180321566Y-195313198D01*
X205954819Y-138238094D02*
X204954819Y-138238094D01*
X204954819Y-138238094D02*
X204954819Y-137999999D01*
X204954819Y-137999999D02*
X205002438Y-137857142D01*
X205002438Y-137857142D02*
X205097676Y-137761904D01*
X205097676Y-137761904D02*
X205192914Y-137714285D01*
X205192914Y-137714285D02*
X205383390Y-137666666D01*
X205383390Y-137666666D02*
X205526247Y-137666666D01*
X205526247Y-137666666D02*
X205716723Y-137714285D01*
X205716723Y-137714285D02*
X205811961Y-137761904D01*
X205811961Y-137761904D02*
X205907200Y-137857142D01*
X205907200Y-137857142D02*
X205954819Y-137999999D01*
X205954819Y-137999999D02*
X205954819Y-138238094D01*
X205050057Y-137285713D02*
X205002438Y-137238094D01*
X205002438Y-137238094D02*
X204954819Y-137142856D01*
X204954819Y-137142856D02*
X204954819Y-136904761D01*
X204954819Y-136904761D02*
X205002438Y-136809523D01*
X205002438Y-136809523D02*
X205050057Y-136761904D01*
X205050057Y-136761904D02*
X205145295Y-136714285D01*
X205145295Y-136714285D02*
X205240533Y-136714285D01*
X205240533Y-136714285D02*
X205383390Y-136761904D01*
X205383390Y-136761904D02*
X205954819Y-137333332D01*
X205954819Y-137333332D02*
X205954819Y-136714285D01*
X172097757Y-130698913D02*
X172240614Y-130746532D01*
X172240614Y-130746532D02*
X172478709Y-130746532D01*
X172478709Y-130746532D02*
X172573947Y-130698913D01*
X172573947Y-130698913D02*
X172621566Y-130651293D01*
X172621566Y-130651293D02*
X172669185Y-130556055D01*
X172669185Y-130556055D02*
X172669185Y-130460817D01*
X172669185Y-130460817D02*
X172621566Y-130365579D01*
X172621566Y-130365579D02*
X172573947Y-130317960D01*
X172573947Y-130317960D02*
X172478709Y-130270341D01*
X172478709Y-130270341D02*
X172288233Y-130222722D01*
X172288233Y-130222722D02*
X172192995Y-130175103D01*
X172192995Y-130175103D02*
X172145376Y-130127484D01*
X172145376Y-130127484D02*
X172097757Y-130032246D01*
X172097757Y-130032246D02*
X172097757Y-129937008D01*
X172097757Y-129937008D02*
X172145376Y-129841770D01*
X172145376Y-129841770D02*
X172192995Y-129794151D01*
X172192995Y-129794151D02*
X172288233Y-129746532D01*
X172288233Y-129746532D02*
X172526328Y-129746532D01*
X172526328Y-129746532D02*
X172669185Y-129794151D01*
X173621566Y-130746532D02*
X173050138Y-130746532D01*
X173335852Y-130746532D02*
X173335852Y-129746532D01*
X173335852Y-129746532D02*
X173240614Y-129889389D01*
X173240614Y-129889389D02*
X173145376Y-129984627D01*
X173145376Y-129984627D02*
X173050138Y-130032246D01*
X174573947Y-130746532D02*
X174002519Y-130746532D01*
X174288233Y-130746532D02*
X174288233Y-129746532D01*
X174288233Y-129746532D02*
X174192995Y-129889389D01*
X174192995Y-129889389D02*
X174097757Y-129984627D01*
X174097757Y-129984627D02*
X174002519Y-130032246D01*
X239569927Y-209185592D02*
X239470019Y-209072924D01*
X239470019Y-209072924D02*
X239263823Y-208953877D01*
X239263823Y-208953877D02*
X239157534Y-208947497D01*
X239157534Y-208947497D02*
X239092486Y-208964927D01*
X239092486Y-208964927D02*
X239003627Y-209023596D01*
X239003627Y-209023596D02*
X238956008Y-209106075D01*
X238956008Y-209106075D02*
X238949628Y-209212363D01*
X238949628Y-209212363D02*
X238967058Y-209277412D01*
X238967058Y-209277412D02*
X239025727Y-209366270D01*
X239025727Y-209366270D02*
X239166875Y-209502747D01*
X239166875Y-209502747D02*
X239225544Y-209591606D01*
X239225544Y-209591606D02*
X239242974Y-209656654D01*
X239242974Y-209656654D02*
X239236594Y-209762943D01*
X239236594Y-209762943D02*
X239188975Y-209845421D01*
X239188975Y-209845421D02*
X239100117Y-209904090D01*
X239100117Y-209904090D02*
X239035068Y-209921520D01*
X239035068Y-209921520D02*
X238928780Y-209915140D01*
X238928780Y-209915140D02*
X238722583Y-209796093D01*
X238722583Y-209796093D02*
X238622675Y-209683425D01*
X238686472Y-208620544D02*
X238521515Y-208525305D01*
X238521515Y-208525305D02*
X238415227Y-208518926D01*
X238415227Y-208518926D02*
X238350178Y-208536355D01*
X238350178Y-208536355D02*
X238196271Y-208612454D01*
X238196271Y-208612454D02*
X238059793Y-208753602D01*
X238059793Y-208753602D02*
X237869317Y-209083516D01*
X237869317Y-209083516D02*
X237862937Y-209189805D01*
X237862937Y-209189805D02*
X237880367Y-209254853D01*
X237880367Y-209254853D02*
X237939036Y-209343712D01*
X237939036Y-209343712D02*
X238103994Y-209438950D01*
X238103994Y-209438950D02*
X238210282Y-209445330D01*
X238210282Y-209445330D02*
X238275331Y-209427900D01*
X238275331Y-209427900D02*
X238364189Y-209369231D01*
X238364189Y-209369231D02*
X238483237Y-209163034D01*
X238483237Y-209163034D02*
X238489616Y-209056746D01*
X238489616Y-209056746D02*
X238472186Y-208991697D01*
X238472186Y-208991697D02*
X238413517Y-208902839D01*
X238413517Y-208902839D02*
X238248560Y-208807601D01*
X238248560Y-208807601D02*
X238142272Y-208801221D01*
X238142272Y-208801221D02*
X238077223Y-208818651D01*
X238077223Y-208818651D02*
X237988365Y-208877320D01*
X194031055Y-196945779D02*
X193046248Y-196772131D01*
X193046248Y-196772131D02*
X193087592Y-196537653D01*
X193087592Y-196537653D02*
X193159295Y-196405235D01*
X193159295Y-196405235D02*
X193269624Y-196327982D01*
X193269624Y-196327982D02*
X193371684Y-196297624D01*
X193371684Y-196297624D02*
X193567536Y-196283804D01*
X193567536Y-196283804D02*
X193708222Y-196308611D01*
X193708222Y-196308611D02*
X193887536Y-196388583D01*
X193887536Y-196388583D02*
X193973058Y-196452016D01*
X193973058Y-196452016D02*
X194050311Y-196562345D01*
X194050311Y-196562345D02*
X194072400Y-196711301D01*
X194072400Y-196711301D02*
X194031055Y-196945779D01*
X194295662Y-195445120D02*
X194196435Y-196007867D01*
X194246048Y-195726493D02*
X193261241Y-195552845D01*
X193261241Y-195552845D02*
X193385389Y-195671443D01*
X193385389Y-195671443D02*
X193462643Y-195781772D01*
X193462643Y-195781772D02*
X193493000Y-195883832D01*
X194378352Y-194976163D02*
X194411428Y-194788581D01*
X194411428Y-194788581D02*
X194381070Y-194686521D01*
X194381070Y-194686521D02*
X194342443Y-194631356D01*
X194342443Y-194631356D02*
X194218294Y-194512758D01*
X194218294Y-194512758D02*
X194038981Y-194432787D01*
X194038981Y-194432787D02*
X193663816Y-194366635D01*
X193663816Y-194366635D02*
X193561756Y-194396993D01*
X193561756Y-194396993D02*
X193506591Y-194435619D01*
X193506591Y-194435619D02*
X193443158Y-194521142D01*
X193443158Y-194521142D02*
X193410082Y-194708724D01*
X193410082Y-194708724D02*
X193440440Y-194810784D01*
X193440440Y-194810784D02*
X193479066Y-194865949D01*
X193479066Y-194865949D02*
X193564588Y-194929382D01*
X193564588Y-194929382D02*
X193799066Y-194970727D01*
X193799066Y-194970727D02*
X193901127Y-194940369D01*
X193901127Y-194940369D02*
X193956291Y-194901743D01*
X193956291Y-194901743D02*
X194019725Y-194816221D01*
X194019725Y-194816221D02*
X194052801Y-194628638D01*
X194052801Y-194628638D02*
X194022443Y-194526578D01*
X194022443Y-194526578D02*
X193983816Y-194471413D01*
X193983816Y-194471413D02*
X193898294Y-194407980D01*
X129854819Y-148614285D02*
X128854819Y-148614285D01*
X128854819Y-148614285D02*
X128854819Y-148376190D01*
X128854819Y-148376190D02*
X128902438Y-148233333D01*
X128902438Y-148233333D02*
X128997676Y-148138095D01*
X128997676Y-148138095D02*
X129092914Y-148090476D01*
X129092914Y-148090476D02*
X129283390Y-148042857D01*
X129283390Y-148042857D02*
X129426247Y-148042857D01*
X129426247Y-148042857D02*
X129616723Y-148090476D01*
X129616723Y-148090476D02*
X129711961Y-148138095D01*
X129711961Y-148138095D02*
X129807200Y-148233333D01*
X129807200Y-148233333D02*
X129854819Y-148376190D01*
X129854819Y-148376190D02*
X129854819Y-148614285D01*
X128950057Y-147661904D02*
X128902438Y-147614285D01*
X128902438Y-147614285D02*
X128854819Y-147519047D01*
X128854819Y-147519047D02*
X128854819Y-147280952D01*
X128854819Y-147280952D02*
X128902438Y-147185714D01*
X128902438Y-147185714D02*
X128950057Y-147138095D01*
X128950057Y-147138095D02*
X129045295Y-147090476D01*
X129045295Y-147090476D02*
X129140533Y-147090476D01*
X129140533Y-147090476D02*
X129283390Y-147138095D01*
X129283390Y-147138095D02*
X129854819Y-147709523D01*
X129854819Y-147709523D02*
X129854819Y-147090476D01*
X129854819Y-146138095D02*
X129854819Y-146709523D01*
X129854819Y-146423809D02*
X128854819Y-146423809D01*
X128854819Y-146423809D02*
X128997676Y-146519047D01*
X128997676Y-146519047D02*
X129092914Y-146614285D01*
X129092914Y-146614285D02*
X129140533Y-146709523D01*
X191573947Y-118698913D02*
X191716804Y-118746532D01*
X191716804Y-118746532D02*
X191954899Y-118746532D01*
X191954899Y-118746532D02*
X192050137Y-118698913D01*
X192050137Y-118698913D02*
X192097756Y-118651293D01*
X192097756Y-118651293D02*
X192145375Y-118556055D01*
X192145375Y-118556055D02*
X192145375Y-118460817D01*
X192145375Y-118460817D02*
X192097756Y-118365579D01*
X192097756Y-118365579D02*
X192050137Y-118317960D01*
X192050137Y-118317960D02*
X191954899Y-118270341D01*
X191954899Y-118270341D02*
X191764423Y-118222722D01*
X191764423Y-118222722D02*
X191669185Y-118175103D01*
X191669185Y-118175103D02*
X191621566Y-118127484D01*
X191621566Y-118127484D02*
X191573947Y-118032246D01*
X191573947Y-118032246D02*
X191573947Y-117937008D01*
X191573947Y-117937008D02*
X191621566Y-117841770D01*
X191621566Y-117841770D02*
X191669185Y-117794151D01*
X191669185Y-117794151D02*
X191764423Y-117746532D01*
X191764423Y-117746532D02*
X192002518Y-117746532D01*
X192002518Y-117746532D02*
X192145375Y-117794151D01*
X193050137Y-117746532D02*
X192573947Y-117746532D01*
X192573947Y-117746532D02*
X192526328Y-118222722D01*
X192526328Y-118222722D02*
X192573947Y-118175103D01*
X192573947Y-118175103D02*
X192669185Y-118127484D01*
X192669185Y-118127484D02*
X192907280Y-118127484D01*
X192907280Y-118127484D02*
X193002518Y-118175103D01*
X193002518Y-118175103D02*
X193050137Y-118222722D01*
X193050137Y-118222722D02*
X193097756Y-118317960D01*
X193097756Y-118317960D02*
X193097756Y-118556055D01*
X193097756Y-118556055D02*
X193050137Y-118651293D01*
X193050137Y-118651293D02*
X193002518Y-118698913D01*
X193002518Y-118698913D02*
X192907280Y-118746532D01*
X192907280Y-118746532D02*
X192669185Y-118746532D01*
X192669185Y-118746532D02*
X192573947Y-118698913D01*
X192573947Y-118698913D02*
X192526328Y-118651293D01*
X115097757Y-128698913D02*
X115240614Y-128746532D01*
X115240614Y-128746532D02*
X115478709Y-128746532D01*
X115478709Y-128746532D02*
X115573947Y-128698913D01*
X115573947Y-128698913D02*
X115621566Y-128651293D01*
X115621566Y-128651293D02*
X115669185Y-128556055D01*
X115669185Y-128556055D02*
X115669185Y-128460817D01*
X115669185Y-128460817D02*
X115621566Y-128365579D01*
X115621566Y-128365579D02*
X115573947Y-128317960D01*
X115573947Y-128317960D02*
X115478709Y-128270341D01*
X115478709Y-128270341D02*
X115288233Y-128222722D01*
X115288233Y-128222722D02*
X115192995Y-128175103D01*
X115192995Y-128175103D02*
X115145376Y-128127484D01*
X115145376Y-128127484D02*
X115097757Y-128032246D01*
X115097757Y-128032246D02*
X115097757Y-127937008D01*
X115097757Y-127937008D02*
X115145376Y-127841770D01*
X115145376Y-127841770D02*
X115192995Y-127794151D01*
X115192995Y-127794151D02*
X115288233Y-127746532D01*
X115288233Y-127746532D02*
X115526328Y-127746532D01*
X115526328Y-127746532D02*
X115669185Y-127794151D01*
X116050138Y-127841770D02*
X116097757Y-127794151D01*
X116097757Y-127794151D02*
X116192995Y-127746532D01*
X116192995Y-127746532D02*
X116431090Y-127746532D01*
X116431090Y-127746532D02*
X116526328Y-127794151D01*
X116526328Y-127794151D02*
X116573947Y-127841770D01*
X116573947Y-127841770D02*
X116621566Y-127937008D01*
X116621566Y-127937008D02*
X116621566Y-128032246D01*
X116621566Y-128032246D02*
X116573947Y-128175103D01*
X116573947Y-128175103D02*
X116002519Y-128746532D01*
X116002519Y-128746532D02*
X116621566Y-128746532D01*
X117526328Y-127746532D02*
X117050138Y-127746532D01*
X117050138Y-127746532D02*
X117002519Y-128222722D01*
X117002519Y-128222722D02*
X117050138Y-128175103D01*
X117050138Y-128175103D02*
X117145376Y-128127484D01*
X117145376Y-128127484D02*
X117383471Y-128127484D01*
X117383471Y-128127484D02*
X117478709Y-128175103D01*
X117478709Y-128175103D02*
X117526328Y-128222722D01*
X117526328Y-128222722D02*
X117573947Y-128317960D01*
X117573947Y-128317960D02*
X117573947Y-128556055D01*
X117573947Y-128556055D02*
X117526328Y-128651293D01*
X117526328Y-128651293D02*
X117478709Y-128698913D01*
X117478709Y-128698913D02*
X117383471Y-128746532D01*
X117383471Y-128746532D02*
X117145376Y-128746532D01*
X117145376Y-128746532D02*
X117050138Y-128698913D01*
X117050138Y-128698913D02*
X117002519Y-128651293D01*
X210573947Y-137698913D02*
X210716804Y-137746532D01*
X210716804Y-137746532D02*
X210954899Y-137746532D01*
X210954899Y-137746532D02*
X211050137Y-137698913D01*
X211050137Y-137698913D02*
X211097756Y-137651293D01*
X211097756Y-137651293D02*
X211145375Y-137556055D01*
X211145375Y-137556055D02*
X211145375Y-137460817D01*
X211145375Y-137460817D02*
X211097756Y-137365579D01*
X211097756Y-137365579D02*
X211050137Y-137317960D01*
X211050137Y-137317960D02*
X210954899Y-137270341D01*
X210954899Y-137270341D02*
X210764423Y-137222722D01*
X210764423Y-137222722D02*
X210669185Y-137175103D01*
X210669185Y-137175103D02*
X210621566Y-137127484D01*
X210621566Y-137127484D02*
X210573947Y-137032246D01*
X210573947Y-137032246D02*
X210573947Y-136937008D01*
X210573947Y-136937008D02*
X210621566Y-136841770D01*
X210621566Y-136841770D02*
X210669185Y-136794151D01*
X210669185Y-136794151D02*
X210764423Y-136746532D01*
X210764423Y-136746532D02*
X211002518Y-136746532D01*
X211002518Y-136746532D02*
X211145375Y-136794151D01*
X211526328Y-136841770D02*
X211573947Y-136794151D01*
X211573947Y-136794151D02*
X211669185Y-136746532D01*
X211669185Y-136746532D02*
X211907280Y-136746532D01*
X211907280Y-136746532D02*
X212002518Y-136794151D01*
X212002518Y-136794151D02*
X212050137Y-136841770D01*
X212050137Y-136841770D02*
X212097756Y-136937008D01*
X212097756Y-136937008D02*
X212097756Y-137032246D01*
X212097756Y-137032246D02*
X212050137Y-137175103D01*
X212050137Y-137175103D02*
X211478709Y-137746532D01*
X211478709Y-137746532D02*
X212097756Y-137746532D01*
X205954819Y-176238094D02*
X204954819Y-176238094D01*
X204954819Y-176238094D02*
X204954819Y-175999999D01*
X204954819Y-175999999D02*
X205002438Y-175857142D01*
X205002438Y-175857142D02*
X205097676Y-175761904D01*
X205097676Y-175761904D02*
X205192914Y-175714285D01*
X205192914Y-175714285D02*
X205383390Y-175666666D01*
X205383390Y-175666666D02*
X205526247Y-175666666D01*
X205526247Y-175666666D02*
X205716723Y-175714285D01*
X205716723Y-175714285D02*
X205811961Y-175761904D01*
X205811961Y-175761904D02*
X205907200Y-175857142D01*
X205907200Y-175857142D02*
X205954819Y-175999999D01*
X205954819Y-175999999D02*
X205954819Y-176238094D01*
X205288152Y-174809523D02*
X205954819Y-174809523D01*
X204907200Y-175047618D02*
X205621485Y-175285713D01*
X205621485Y-175285713D02*
X205621485Y-174666666D01*
X172121905Y-169137200D02*
X172264762Y-169184819D01*
X172264762Y-169184819D02*
X172502857Y-169184819D01*
X172502857Y-169184819D02*
X172598095Y-169137200D01*
X172598095Y-169137200D02*
X172645714Y-169089580D01*
X172645714Y-169089580D02*
X172693333Y-168994342D01*
X172693333Y-168994342D02*
X172693333Y-168899104D01*
X172693333Y-168899104D02*
X172645714Y-168803866D01*
X172645714Y-168803866D02*
X172598095Y-168756247D01*
X172598095Y-168756247D02*
X172502857Y-168708628D01*
X172502857Y-168708628D02*
X172312381Y-168661009D01*
X172312381Y-168661009D02*
X172217143Y-168613390D01*
X172217143Y-168613390D02*
X172169524Y-168565771D01*
X172169524Y-168565771D02*
X172121905Y-168470533D01*
X172121905Y-168470533D02*
X172121905Y-168375295D01*
X172121905Y-168375295D02*
X172169524Y-168280057D01*
X172169524Y-168280057D02*
X172217143Y-168232438D01*
X172217143Y-168232438D02*
X172312381Y-168184819D01*
X172312381Y-168184819D02*
X172550476Y-168184819D01*
X172550476Y-168184819D02*
X172693333Y-168232438D01*
X173645714Y-169184819D02*
X173074286Y-169184819D01*
X173360000Y-169184819D02*
X173360000Y-168184819D01*
X173360000Y-168184819D02*
X173264762Y-168327676D01*
X173264762Y-168327676D02*
X173169524Y-168422914D01*
X173169524Y-168422914D02*
X173074286Y-168470533D01*
X173979048Y-168184819D02*
X174598095Y-168184819D01*
X174598095Y-168184819D02*
X174264762Y-168565771D01*
X174264762Y-168565771D02*
X174407619Y-168565771D01*
X174407619Y-168565771D02*
X174502857Y-168613390D01*
X174502857Y-168613390D02*
X174550476Y-168661009D01*
X174550476Y-168661009D02*
X174598095Y-168756247D01*
X174598095Y-168756247D02*
X174598095Y-168994342D01*
X174598095Y-168994342D02*
X174550476Y-169089580D01*
X174550476Y-169089580D02*
X174502857Y-169137200D01*
X174502857Y-169137200D02*
X174407619Y-169184819D01*
X174407619Y-169184819D02*
X174121905Y-169184819D01*
X174121905Y-169184819D02*
X174026667Y-169137200D01*
X174026667Y-169137200D02*
X173979048Y-169089580D01*
X153097757Y-116698913D02*
X153240614Y-116746532D01*
X153240614Y-116746532D02*
X153478709Y-116746532D01*
X153478709Y-116746532D02*
X153573947Y-116698913D01*
X153573947Y-116698913D02*
X153621566Y-116651293D01*
X153621566Y-116651293D02*
X153669185Y-116556055D01*
X153669185Y-116556055D02*
X153669185Y-116460817D01*
X153669185Y-116460817D02*
X153621566Y-116365579D01*
X153621566Y-116365579D02*
X153573947Y-116317960D01*
X153573947Y-116317960D02*
X153478709Y-116270341D01*
X153478709Y-116270341D02*
X153288233Y-116222722D01*
X153288233Y-116222722D02*
X153192995Y-116175103D01*
X153192995Y-116175103D02*
X153145376Y-116127484D01*
X153145376Y-116127484D02*
X153097757Y-116032246D01*
X153097757Y-116032246D02*
X153097757Y-115937008D01*
X153097757Y-115937008D02*
X153145376Y-115841770D01*
X153145376Y-115841770D02*
X153192995Y-115794151D01*
X153192995Y-115794151D02*
X153288233Y-115746532D01*
X153288233Y-115746532D02*
X153526328Y-115746532D01*
X153526328Y-115746532D02*
X153669185Y-115794151D01*
X154621566Y-116746532D02*
X154050138Y-116746532D01*
X154335852Y-116746532D02*
X154335852Y-115746532D01*
X154335852Y-115746532D02*
X154240614Y-115889389D01*
X154240614Y-115889389D02*
X154145376Y-115984627D01*
X154145376Y-115984627D02*
X154050138Y-116032246D01*
X155526328Y-115746532D02*
X155050138Y-115746532D01*
X155050138Y-115746532D02*
X155002519Y-116222722D01*
X155002519Y-116222722D02*
X155050138Y-116175103D01*
X155050138Y-116175103D02*
X155145376Y-116127484D01*
X155145376Y-116127484D02*
X155383471Y-116127484D01*
X155383471Y-116127484D02*
X155478709Y-116175103D01*
X155478709Y-116175103D02*
X155526328Y-116222722D01*
X155526328Y-116222722D02*
X155573947Y-116317960D01*
X155573947Y-116317960D02*
X155573947Y-116556055D01*
X155573947Y-116556055D02*
X155526328Y-116651293D01*
X155526328Y-116651293D02*
X155478709Y-116698913D01*
X155478709Y-116698913D02*
X155383471Y-116746532D01*
X155383471Y-116746532D02*
X155145376Y-116746532D01*
X155145376Y-116746532D02*
X155050138Y-116698913D01*
X155050138Y-116698913D02*
X155002519Y-116651293D01*
X115051905Y-186267200D02*
X115194762Y-186314819D01*
X115194762Y-186314819D02*
X115432857Y-186314819D01*
X115432857Y-186314819D02*
X115528095Y-186267200D01*
X115528095Y-186267200D02*
X115575714Y-186219580D01*
X115575714Y-186219580D02*
X115623333Y-186124342D01*
X115623333Y-186124342D02*
X115623333Y-186029104D01*
X115623333Y-186029104D02*
X115575714Y-185933866D01*
X115575714Y-185933866D02*
X115528095Y-185886247D01*
X115528095Y-185886247D02*
X115432857Y-185838628D01*
X115432857Y-185838628D02*
X115242381Y-185791009D01*
X115242381Y-185791009D02*
X115147143Y-185743390D01*
X115147143Y-185743390D02*
X115099524Y-185695771D01*
X115099524Y-185695771D02*
X115051905Y-185600533D01*
X115051905Y-185600533D02*
X115051905Y-185505295D01*
X115051905Y-185505295D02*
X115099524Y-185410057D01*
X115099524Y-185410057D02*
X115147143Y-185362438D01*
X115147143Y-185362438D02*
X115242381Y-185314819D01*
X115242381Y-185314819D02*
X115480476Y-185314819D01*
X115480476Y-185314819D02*
X115623333Y-185362438D01*
X116004286Y-185410057D02*
X116051905Y-185362438D01*
X116051905Y-185362438D02*
X116147143Y-185314819D01*
X116147143Y-185314819D02*
X116385238Y-185314819D01*
X116385238Y-185314819D02*
X116480476Y-185362438D01*
X116480476Y-185362438D02*
X116528095Y-185410057D01*
X116528095Y-185410057D02*
X116575714Y-185505295D01*
X116575714Y-185505295D02*
X116575714Y-185600533D01*
X116575714Y-185600533D02*
X116528095Y-185743390D01*
X116528095Y-185743390D02*
X115956667Y-186314819D01*
X115956667Y-186314819D02*
X116575714Y-186314819D01*
X117147143Y-185743390D02*
X117051905Y-185695771D01*
X117051905Y-185695771D02*
X117004286Y-185648152D01*
X117004286Y-185648152D02*
X116956667Y-185552914D01*
X116956667Y-185552914D02*
X116956667Y-185505295D01*
X116956667Y-185505295D02*
X117004286Y-185410057D01*
X117004286Y-185410057D02*
X117051905Y-185362438D01*
X117051905Y-185362438D02*
X117147143Y-185314819D01*
X117147143Y-185314819D02*
X117337619Y-185314819D01*
X117337619Y-185314819D02*
X117432857Y-185362438D01*
X117432857Y-185362438D02*
X117480476Y-185410057D01*
X117480476Y-185410057D02*
X117528095Y-185505295D01*
X117528095Y-185505295D02*
X117528095Y-185552914D01*
X117528095Y-185552914D02*
X117480476Y-185648152D01*
X117480476Y-185648152D02*
X117432857Y-185695771D01*
X117432857Y-185695771D02*
X117337619Y-185743390D01*
X117337619Y-185743390D02*
X117147143Y-185743390D01*
X117147143Y-185743390D02*
X117051905Y-185791009D01*
X117051905Y-185791009D02*
X117004286Y-185838628D01*
X117004286Y-185838628D02*
X116956667Y-185933866D01*
X116956667Y-185933866D02*
X116956667Y-186124342D01*
X116956667Y-186124342D02*
X117004286Y-186219580D01*
X117004286Y-186219580D02*
X117051905Y-186267200D01*
X117051905Y-186267200D02*
X117147143Y-186314819D01*
X117147143Y-186314819D02*
X117337619Y-186314819D01*
X117337619Y-186314819D02*
X117432857Y-186267200D01*
X117432857Y-186267200D02*
X117480476Y-186219580D01*
X117480476Y-186219580D02*
X117528095Y-186124342D01*
X117528095Y-186124342D02*
X117528095Y-185933866D01*
X117528095Y-185933866D02*
X117480476Y-185838628D01*
X117480476Y-185838628D02*
X117432857Y-185791009D01*
X117432857Y-185791009D02*
X117337619Y-185743390D01*
X213408343Y-199724571D02*
X212468651Y-199382551D01*
X212468651Y-199382551D02*
X212550084Y-199158815D01*
X212550084Y-199158815D02*
X212643691Y-199040860D01*
X212643691Y-199040860D02*
X212765759Y-198983938D01*
X212765759Y-198983938D02*
X212871541Y-198971764D01*
X212871541Y-198971764D02*
X213066816Y-198992164D01*
X213066816Y-198992164D02*
X213201058Y-199041024D01*
X213201058Y-199041024D02*
X213363760Y-199150918D01*
X213363760Y-199150918D02*
X213436968Y-199228238D01*
X213436968Y-199228238D02*
X213493890Y-199350306D01*
X213493890Y-199350306D02*
X213489777Y-199500835D01*
X213489777Y-199500835D02*
X213408343Y-199724571D01*
X213929517Y-198292659D02*
X213734077Y-198829626D01*
X213831797Y-198561142D02*
X212892104Y-198219122D01*
X212892104Y-198219122D02*
X212993773Y-198357477D01*
X212993773Y-198357477D02*
X213050694Y-198479544D01*
X213050694Y-198479544D02*
X213062868Y-198585326D01*
X213596215Y-197259194D02*
X214222677Y-197487208D01*
X213156804Y-197352637D02*
X213746579Y-197820674D01*
X213746579Y-197820674D02*
X213958306Y-197238959D01*
X205854819Y-119238094D02*
X204854819Y-119238094D01*
X204854819Y-119238094D02*
X204854819Y-118999999D01*
X204854819Y-118999999D02*
X204902438Y-118857142D01*
X204902438Y-118857142D02*
X204997676Y-118761904D01*
X204997676Y-118761904D02*
X205092914Y-118714285D01*
X205092914Y-118714285D02*
X205283390Y-118666666D01*
X205283390Y-118666666D02*
X205426247Y-118666666D01*
X205426247Y-118666666D02*
X205616723Y-118714285D01*
X205616723Y-118714285D02*
X205711961Y-118761904D01*
X205711961Y-118761904D02*
X205807200Y-118857142D01*
X205807200Y-118857142D02*
X205854819Y-118999999D01*
X205854819Y-118999999D02*
X205854819Y-119238094D01*
X205854819Y-117714285D02*
X205854819Y-118285713D01*
X205854819Y-117999999D02*
X204854819Y-117999999D01*
X204854819Y-117999999D02*
X204997676Y-118095237D01*
X204997676Y-118095237D02*
X205092914Y-118190475D01*
X205092914Y-118190475D02*
X205140533Y-118285713D01*
X110954819Y-186714285D02*
X109954819Y-186714285D01*
X109954819Y-186714285D02*
X109954819Y-186476190D01*
X109954819Y-186476190D02*
X110002438Y-186333333D01*
X110002438Y-186333333D02*
X110097676Y-186238095D01*
X110097676Y-186238095D02*
X110192914Y-186190476D01*
X110192914Y-186190476D02*
X110383390Y-186142857D01*
X110383390Y-186142857D02*
X110526247Y-186142857D01*
X110526247Y-186142857D02*
X110716723Y-186190476D01*
X110716723Y-186190476D02*
X110811961Y-186238095D01*
X110811961Y-186238095D02*
X110907200Y-186333333D01*
X110907200Y-186333333D02*
X110954819Y-186476190D01*
X110954819Y-186476190D02*
X110954819Y-186714285D01*
X110050057Y-185761904D02*
X110002438Y-185714285D01*
X110002438Y-185714285D02*
X109954819Y-185619047D01*
X109954819Y-185619047D02*
X109954819Y-185380952D01*
X109954819Y-185380952D02*
X110002438Y-185285714D01*
X110002438Y-185285714D02*
X110050057Y-185238095D01*
X110050057Y-185238095D02*
X110145295Y-185190476D01*
X110145295Y-185190476D02*
X110240533Y-185190476D01*
X110240533Y-185190476D02*
X110383390Y-185238095D01*
X110383390Y-185238095D02*
X110954819Y-185809523D01*
X110954819Y-185809523D02*
X110954819Y-185190476D01*
X110383390Y-184619047D02*
X110335771Y-184714285D01*
X110335771Y-184714285D02*
X110288152Y-184761904D01*
X110288152Y-184761904D02*
X110192914Y-184809523D01*
X110192914Y-184809523D02*
X110145295Y-184809523D01*
X110145295Y-184809523D02*
X110050057Y-184761904D01*
X110050057Y-184761904D02*
X110002438Y-184714285D01*
X110002438Y-184714285D02*
X109954819Y-184619047D01*
X109954819Y-184619047D02*
X109954819Y-184428571D01*
X109954819Y-184428571D02*
X110002438Y-184333333D01*
X110002438Y-184333333D02*
X110050057Y-184285714D01*
X110050057Y-184285714D02*
X110145295Y-184238095D01*
X110145295Y-184238095D02*
X110192914Y-184238095D01*
X110192914Y-184238095D02*
X110288152Y-184285714D01*
X110288152Y-184285714D02*
X110335771Y-184333333D01*
X110335771Y-184333333D02*
X110383390Y-184428571D01*
X110383390Y-184428571D02*
X110383390Y-184619047D01*
X110383390Y-184619047D02*
X110431009Y-184714285D01*
X110431009Y-184714285D02*
X110478628Y-184761904D01*
X110478628Y-184761904D02*
X110573866Y-184809523D01*
X110573866Y-184809523D02*
X110764342Y-184809523D01*
X110764342Y-184809523D02*
X110859580Y-184761904D01*
X110859580Y-184761904D02*
X110907200Y-184714285D01*
X110907200Y-184714285D02*
X110954819Y-184619047D01*
X110954819Y-184619047D02*
X110954819Y-184428571D01*
X110954819Y-184428571D02*
X110907200Y-184333333D01*
X110907200Y-184333333D02*
X110859580Y-184285714D01*
X110859580Y-184285714D02*
X110764342Y-184238095D01*
X110764342Y-184238095D02*
X110573866Y-184238095D01*
X110573866Y-184238095D02*
X110478628Y-184285714D01*
X110478628Y-184285714D02*
X110431009Y-184333333D01*
X110431009Y-184333333D02*
X110383390Y-184428571D01*
X129954819Y-186714285D02*
X128954819Y-186714285D01*
X128954819Y-186714285D02*
X128954819Y-186476190D01*
X128954819Y-186476190D02*
X129002438Y-186333333D01*
X129002438Y-186333333D02*
X129097676Y-186238095D01*
X129097676Y-186238095D02*
X129192914Y-186190476D01*
X129192914Y-186190476D02*
X129383390Y-186142857D01*
X129383390Y-186142857D02*
X129526247Y-186142857D01*
X129526247Y-186142857D02*
X129716723Y-186190476D01*
X129716723Y-186190476D02*
X129811961Y-186238095D01*
X129811961Y-186238095D02*
X129907200Y-186333333D01*
X129907200Y-186333333D02*
X129954819Y-186476190D01*
X129954819Y-186476190D02*
X129954819Y-186714285D01*
X129050057Y-185761904D02*
X129002438Y-185714285D01*
X129002438Y-185714285D02*
X128954819Y-185619047D01*
X128954819Y-185619047D02*
X128954819Y-185380952D01*
X128954819Y-185380952D02*
X129002438Y-185285714D01*
X129002438Y-185285714D02*
X129050057Y-185238095D01*
X129050057Y-185238095D02*
X129145295Y-185190476D01*
X129145295Y-185190476D02*
X129240533Y-185190476D01*
X129240533Y-185190476D02*
X129383390Y-185238095D01*
X129383390Y-185238095D02*
X129954819Y-185809523D01*
X129954819Y-185809523D02*
X129954819Y-185190476D01*
X128954819Y-184857142D02*
X128954819Y-184238095D01*
X128954819Y-184238095D02*
X129335771Y-184571428D01*
X129335771Y-184571428D02*
X129335771Y-184428571D01*
X129335771Y-184428571D02*
X129383390Y-184333333D01*
X129383390Y-184333333D02*
X129431009Y-184285714D01*
X129431009Y-184285714D02*
X129526247Y-184238095D01*
X129526247Y-184238095D02*
X129764342Y-184238095D01*
X129764342Y-184238095D02*
X129859580Y-184285714D01*
X129859580Y-184285714D02*
X129907200Y-184333333D01*
X129907200Y-184333333D02*
X129954819Y-184428571D01*
X129954819Y-184428571D02*
X129954819Y-184714285D01*
X129954819Y-184714285D02*
X129907200Y-184809523D01*
X129907200Y-184809523D02*
X129859580Y-184857142D01*
X191573947Y-137698913D02*
X191716804Y-137746532D01*
X191716804Y-137746532D02*
X191954899Y-137746532D01*
X191954899Y-137746532D02*
X192050137Y-137698913D01*
X192050137Y-137698913D02*
X192097756Y-137651293D01*
X192097756Y-137651293D02*
X192145375Y-137556055D01*
X192145375Y-137556055D02*
X192145375Y-137460817D01*
X192145375Y-137460817D02*
X192097756Y-137365579D01*
X192097756Y-137365579D02*
X192050137Y-137317960D01*
X192050137Y-137317960D02*
X191954899Y-137270341D01*
X191954899Y-137270341D02*
X191764423Y-137222722D01*
X191764423Y-137222722D02*
X191669185Y-137175103D01*
X191669185Y-137175103D02*
X191621566Y-137127484D01*
X191621566Y-137127484D02*
X191573947Y-137032246D01*
X191573947Y-137032246D02*
X191573947Y-136937008D01*
X191573947Y-136937008D02*
X191621566Y-136841770D01*
X191621566Y-136841770D02*
X191669185Y-136794151D01*
X191669185Y-136794151D02*
X191764423Y-136746532D01*
X191764423Y-136746532D02*
X192002518Y-136746532D01*
X192002518Y-136746532D02*
X192145375Y-136794151D01*
X193002518Y-136746532D02*
X192812042Y-136746532D01*
X192812042Y-136746532D02*
X192716804Y-136794151D01*
X192716804Y-136794151D02*
X192669185Y-136841770D01*
X192669185Y-136841770D02*
X192573947Y-136984627D01*
X192573947Y-136984627D02*
X192526328Y-137175103D01*
X192526328Y-137175103D02*
X192526328Y-137556055D01*
X192526328Y-137556055D02*
X192573947Y-137651293D01*
X192573947Y-137651293D02*
X192621566Y-137698913D01*
X192621566Y-137698913D02*
X192716804Y-137746532D01*
X192716804Y-137746532D02*
X192907280Y-137746532D01*
X192907280Y-137746532D02*
X193002518Y-137698913D01*
X193002518Y-137698913D02*
X193050137Y-137651293D01*
X193050137Y-137651293D02*
X193097756Y-137556055D01*
X193097756Y-137556055D02*
X193097756Y-137317960D01*
X193097756Y-137317960D02*
X193050137Y-137222722D01*
X193050137Y-137222722D02*
X193002518Y-137175103D01*
X193002518Y-137175103D02*
X192907280Y-137127484D01*
X192907280Y-137127484D02*
X192716804Y-137127484D01*
X192716804Y-137127484D02*
X192621566Y-137175103D01*
X192621566Y-137175103D02*
X192573947Y-137222722D01*
X192573947Y-137222722D02*
X192526328Y-137317960D01*
X110954819Y-148614285D02*
X109954819Y-148614285D01*
X109954819Y-148614285D02*
X109954819Y-148376190D01*
X109954819Y-148376190D02*
X110002438Y-148233333D01*
X110002438Y-148233333D02*
X110097676Y-148138095D01*
X110097676Y-148138095D02*
X110192914Y-148090476D01*
X110192914Y-148090476D02*
X110383390Y-148042857D01*
X110383390Y-148042857D02*
X110526247Y-148042857D01*
X110526247Y-148042857D02*
X110716723Y-148090476D01*
X110716723Y-148090476D02*
X110811961Y-148138095D01*
X110811961Y-148138095D02*
X110907200Y-148233333D01*
X110907200Y-148233333D02*
X110954819Y-148376190D01*
X110954819Y-148376190D02*
X110954819Y-148614285D01*
X110050057Y-147661904D02*
X110002438Y-147614285D01*
X110002438Y-147614285D02*
X109954819Y-147519047D01*
X109954819Y-147519047D02*
X109954819Y-147280952D01*
X109954819Y-147280952D02*
X110002438Y-147185714D01*
X110002438Y-147185714D02*
X110050057Y-147138095D01*
X110050057Y-147138095D02*
X110145295Y-147090476D01*
X110145295Y-147090476D02*
X110240533Y-147090476D01*
X110240533Y-147090476D02*
X110383390Y-147138095D01*
X110383390Y-147138095D02*
X110954819Y-147709523D01*
X110954819Y-147709523D02*
X110954819Y-147090476D01*
X109954819Y-146233333D02*
X109954819Y-146423809D01*
X109954819Y-146423809D02*
X110002438Y-146519047D01*
X110002438Y-146519047D02*
X110050057Y-146566666D01*
X110050057Y-146566666D02*
X110192914Y-146661904D01*
X110192914Y-146661904D02*
X110383390Y-146709523D01*
X110383390Y-146709523D02*
X110764342Y-146709523D01*
X110764342Y-146709523D02*
X110859580Y-146661904D01*
X110859580Y-146661904D02*
X110907200Y-146614285D01*
X110907200Y-146614285D02*
X110954819Y-146519047D01*
X110954819Y-146519047D02*
X110954819Y-146328571D01*
X110954819Y-146328571D02*
X110907200Y-146233333D01*
X110907200Y-146233333D02*
X110859580Y-146185714D01*
X110859580Y-146185714D02*
X110764342Y-146138095D01*
X110764342Y-146138095D02*
X110526247Y-146138095D01*
X110526247Y-146138095D02*
X110431009Y-146185714D01*
X110431009Y-146185714D02*
X110383390Y-146233333D01*
X110383390Y-146233333D02*
X110335771Y-146328571D01*
X110335771Y-146328571D02*
X110335771Y-146519047D01*
X110335771Y-146519047D02*
X110383390Y-146614285D01*
X110383390Y-146614285D02*
X110431009Y-146661904D01*
X110431009Y-146661904D02*
X110526247Y-146709523D01*
X134097757Y-147698913D02*
X134240614Y-147746532D01*
X134240614Y-147746532D02*
X134478709Y-147746532D01*
X134478709Y-147746532D02*
X134573947Y-147698913D01*
X134573947Y-147698913D02*
X134621566Y-147651293D01*
X134621566Y-147651293D02*
X134669185Y-147556055D01*
X134669185Y-147556055D02*
X134669185Y-147460817D01*
X134669185Y-147460817D02*
X134621566Y-147365579D01*
X134621566Y-147365579D02*
X134573947Y-147317960D01*
X134573947Y-147317960D02*
X134478709Y-147270341D01*
X134478709Y-147270341D02*
X134288233Y-147222722D01*
X134288233Y-147222722D02*
X134192995Y-147175103D01*
X134192995Y-147175103D02*
X134145376Y-147127484D01*
X134145376Y-147127484D02*
X134097757Y-147032246D01*
X134097757Y-147032246D02*
X134097757Y-146937008D01*
X134097757Y-146937008D02*
X134145376Y-146841770D01*
X134145376Y-146841770D02*
X134192995Y-146794151D01*
X134192995Y-146794151D02*
X134288233Y-146746532D01*
X134288233Y-146746532D02*
X134526328Y-146746532D01*
X134526328Y-146746532D02*
X134669185Y-146794151D01*
X135050138Y-146841770D02*
X135097757Y-146794151D01*
X135097757Y-146794151D02*
X135192995Y-146746532D01*
X135192995Y-146746532D02*
X135431090Y-146746532D01*
X135431090Y-146746532D02*
X135526328Y-146794151D01*
X135526328Y-146794151D02*
X135573947Y-146841770D01*
X135573947Y-146841770D02*
X135621566Y-146937008D01*
X135621566Y-146937008D02*
X135621566Y-147032246D01*
X135621566Y-147032246D02*
X135573947Y-147175103D01*
X135573947Y-147175103D02*
X135002519Y-147746532D01*
X135002519Y-147746532D02*
X135621566Y-147746532D01*
X136573947Y-147746532D02*
X136002519Y-147746532D01*
X136288233Y-147746532D02*
X136288233Y-146746532D01*
X136288233Y-146746532D02*
X136192995Y-146889389D01*
X136192995Y-146889389D02*
X136097757Y-146984627D01*
X136097757Y-146984627D02*
X136002519Y-147032246D01*
X210573947Y-118698913D02*
X210716804Y-118746532D01*
X210716804Y-118746532D02*
X210954899Y-118746532D01*
X210954899Y-118746532D02*
X211050137Y-118698913D01*
X211050137Y-118698913D02*
X211097756Y-118651293D01*
X211097756Y-118651293D02*
X211145375Y-118556055D01*
X211145375Y-118556055D02*
X211145375Y-118460817D01*
X211145375Y-118460817D02*
X211097756Y-118365579D01*
X211097756Y-118365579D02*
X211050137Y-118317960D01*
X211050137Y-118317960D02*
X210954899Y-118270341D01*
X210954899Y-118270341D02*
X210764423Y-118222722D01*
X210764423Y-118222722D02*
X210669185Y-118175103D01*
X210669185Y-118175103D02*
X210621566Y-118127484D01*
X210621566Y-118127484D02*
X210573947Y-118032246D01*
X210573947Y-118032246D02*
X210573947Y-117937008D01*
X210573947Y-117937008D02*
X210621566Y-117841770D01*
X210621566Y-117841770D02*
X210669185Y-117794151D01*
X210669185Y-117794151D02*
X210764423Y-117746532D01*
X210764423Y-117746532D02*
X211002518Y-117746532D01*
X211002518Y-117746532D02*
X211145375Y-117794151D01*
X212097756Y-118746532D02*
X211526328Y-118746532D01*
X211812042Y-118746532D02*
X211812042Y-117746532D01*
X211812042Y-117746532D02*
X211716804Y-117889389D01*
X211716804Y-117889389D02*
X211621566Y-117984627D01*
X211621566Y-117984627D02*
X211526328Y-118032246D01*
X167954819Y-112814285D02*
X166954819Y-112814285D01*
X166954819Y-112814285D02*
X166954819Y-112576190D01*
X166954819Y-112576190D02*
X167002438Y-112433333D01*
X167002438Y-112433333D02*
X167097676Y-112338095D01*
X167097676Y-112338095D02*
X167192914Y-112290476D01*
X167192914Y-112290476D02*
X167383390Y-112242857D01*
X167383390Y-112242857D02*
X167526247Y-112242857D01*
X167526247Y-112242857D02*
X167716723Y-112290476D01*
X167716723Y-112290476D02*
X167811961Y-112338095D01*
X167811961Y-112338095D02*
X167907200Y-112433333D01*
X167907200Y-112433333D02*
X167954819Y-112576190D01*
X167954819Y-112576190D02*
X167954819Y-112814285D01*
X167954819Y-111290476D02*
X167954819Y-111861904D01*
X167954819Y-111576190D02*
X166954819Y-111576190D01*
X166954819Y-111576190D02*
X167097676Y-111671428D01*
X167097676Y-111671428D02*
X167192914Y-111766666D01*
X167192914Y-111766666D02*
X167240533Y-111861904D01*
X166954819Y-110671428D02*
X166954819Y-110576190D01*
X166954819Y-110576190D02*
X167002438Y-110480952D01*
X167002438Y-110480952D02*
X167050057Y-110433333D01*
X167050057Y-110433333D02*
X167145295Y-110385714D01*
X167145295Y-110385714D02*
X167335771Y-110338095D01*
X167335771Y-110338095D02*
X167573866Y-110338095D01*
X167573866Y-110338095D02*
X167764342Y-110385714D01*
X167764342Y-110385714D02*
X167859580Y-110433333D01*
X167859580Y-110433333D02*
X167907200Y-110480952D01*
X167907200Y-110480952D02*
X167954819Y-110576190D01*
X167954819Y-110576190D02*
X167954819Y-110671428D01*
X167954819Y-110671428D02*
X167907200Y-110766666D01*
X167907200Y-110766666D02*
X167859580Y-110814285D01*
X167859580Y-110814285D02*
X167764342Y-110861904D01*
X167764342Y-110861904D02*
X167573866Y-110909523D01*
X167573866Y-110909523D02*
X167335771Y-110909523D01*
X167335771Y-110909523D02*
X167145295Y-110861904D01*
X167145295Y-110861904D02*
X167050057Y-110814285D01*
X167050057Y-110814285D02*
X167002438Y-110766666D01*
X167002438Y-110766666D02*
X166954819Y-110671428D01*
X133661905Y-170507200D02*
X133804762Y-170554819D01*
X133804762Y-170554819D02*
X134042857Y-170554819D01*
X134042857Y-170554819D02*
X134138095Y-170507200D01*
X134138095Y-170507200D02*
X134185714Y-170459580D01*
X134185714Y-170459580D02*
X134233333Y-170364342D01*
X134233333Y-170364342D02*
X134233333Y-170269104D01*
X134233333Y-170269104D02*
X134185714Y-170173866D01*
X134185714Y-170173866D02*
X134138095Y-170126247D01*
X134138095Y-170126247D02*
X134042857Y-170078628D01*
X134042857Y-170078628D02*
X133852381Y-170031009D01*
X133852381Y-170031009D02*
X133757143Y-169983390D01*
X133757143Y-169983390D02*
X133709524Y-169935771D01*
X133709524Y-169935771D02*
X133661905Y-169840533D01*
X133661905Y-169840533D02*
X133661905Y-169745295D01*
X133661905Y-169745295D02*
X133709524Y-169650057D01*
X133709524Y-169650057D02*
X133757143Y-169602438D01*
X133757143Y-169602438D02*
X133852381Y-169554819D01*
X133852381Y-169554819D02*
X134090476Y-169554819D01*
X134090476Y-169554819D02*
X134233333Y-169602438D01*
X134614286Y-169650057D02*
X134661905Y-169602438D01*
X134661905Y-169602438D02*
X134757143Y-169554819D01*
X134757143Y-169554819D02*
X134995238Y-169554819D01*
X134995238Y-169554819D02*
X135090476Y-169602438D01*
X135090476Y-169602438D02*
X135138095Y-169650057D01*
X135138095Y-169650057D02*
X135185714Y-169745295D01*
X135185714Y-169745295D02*
X135185714Y-169840533D01*
X135185714Y-169840533D02*
X135138095Y-169983390D01*
X135138095Y-169983390D02*
X134566667Y-170554819D01*
X134566667Y-170554819D02*
X135185714Y-170554819D01*
X135566667Y-169650057D02*
X135614286Y-169602438D01*
X135614286Y-169602438D02*
X135709524Y-169554819D01*
X135709524Y-169554819D02*
X135947619Y-169554819D01*
X135947619Y-169554819D02*
X136042857Y-169602438D01*
X136042857Y-169602438D02*
X136090476Y-169650057D01*
X136090476Y-169650057D02*
X136138095Y-169745295D01*
X136138095Y-169745295D02*
X136138095Y-169840533D01*
X136138095Y-169840533D02*
X136090476Y-169983390D01*
X136090476Y-169983390D02*
X135519048Y-170554819D01*
X135519048Y-170554819D02*
X136138095Y-170554819D01*
X172097757Y-149698913D02*
X172240614Y-149746532D01*
X172240614Y-149746532D02*
X172478709Y-149746532D01*
X172478709Y-149746532D02*
X172573947Y-149698913D01*
X172573947Y-149698913D02*
X172621566Y-149651293D01*
X172621566Y-149651293D02*
X172669185Y-149556055D01*
X172669185Y-149556055D02*
X172669185Y-149460817D01*
X172669185Y-149460817D02*
X172621566Y-149365579D01*
X172621566Y-149365579D02*
X172573947Y-149317960D01*
X172573947Y-149317960D02*
X172478709Y-149270341D01*
X172478709Y-149270341D02*
X172288233Y-149222722D01*
X172288233Y-149222722D02*
X172192995Y-149175103D01*
X172192995Y-149175103D02*
X172145376Y-149127484D01*
X172145376Y-149127484D02*
X172097757Y-149032246D01*
X172097757Y-149032246D02*
X172097757Y-148937008D01*
X172097757Y-148937008D02*
X172145376Y-148841770D01*
X172145376Y-148841770D02*
X172192995Y-148794151D01*
X172192995Y-148794151D02*
X172288233Y-148746532D01*
X172288233Y-148746532D02*
X172526328Y-148746532D01*
X172526328Y-148746532D02*
X172669185Y-148794151D01*
X173621566Y-149746532D02*
X173050138Y-149746532D01*
X173335852Y-149746532D02*
X173335852Y-148746532D01*
X173335852Y-148746532D02*
X173240614Y-148889389D01*
X173240614Y-148889389D02*
X173145376Y-148984627D01*
X173145376Y-148984627D02*
X173050138Y-149032246D01*
X174002519Y-148841770D02*
X174050138Y-148794151D01*
X174050138Y-148794151D02*
X174145376Y-148746532D01*
X174145376Y-148746532D02*
X174383471Y-148746532D01*
X174383471Y-148746532D02*
X174478709Y-148794151D01*
X174478709Y-148794151D02*
X174526328Y-148841770D01*
X174526328Y-148841770D02*
X174573947Y-148937008D01*
X174573947Y-148937008D02*
X174573947Y-149032246D01*
X174573947Y-149032246D02*
X174526328Y-149175103D01*
X174526328Y-149175103D02*
X173954900Y-149746532D01*
X173954900Y-149746532D02*
X174573947Y-149746532D01*
X110954819Y-129414285D02*
X109954819Y-129414285D01*
X109954819Y-129414285D02*
X109954819Y-129176190D01*
X109954819Y-129176190D02*
X110002438Y-129033333D01*
X110002438Y-129033333D02*
X110097676Y-128938095D01*
X110097676Y-128938095D02*
X110192914Y-128890476D01*
X110192914Y-128890476D02*
X110383390Y-128842857D01*
X110383390Y-128842857D02*
X110526247Y-128842857D01*
X110526247Y-128842857D02*
X110716723Y-128890476D01*
X110716723Y-128890476D02*
X110811961Y-128938095D01*
X110811961Y-128938095D02*
X110907200Y-129033333D01*
X110907200Y-129033333D02*
X110954819Y-129176190D01*
X110954819Y-129176190D02*
X110954819Y-129414285D01*
X110050057Y-128461904D02*
X110002438Y-128414285D01*
X110002438Y-128414285D02*
X109954819Y-128319047D01*
X109954819Y-128319047D02*
X109954819Y-128080952D01*
X109954819Y-128080952D02*
X110002438Y-127985714D01*
X110002438Y-127985714D02*
X110050057Y-127938095D01*
X110050057Y-127938095D02*
X110145295Y-127890476D01*
X110145295Y-127890476D02*
X110240533Y-127890476D01*
X110240533Y-127890476D02*
X110383390Y-127938095D01*
X110383390Y-127938095D02*
X110954819Y-128509523D01*
X110954819Y-128509523D02*
X110954819Y-127890476D01*
X109954819Y-126985714D02*
X109954819Y-127461904D01*
X109954819Y-127461904D02*
X110431009Y-127509523D01*
X110431009Y-127509523D02*
X110383390Y-127461904D01*
X110383390Y-127461904D02*
X110335771Y-127366666D01*
X110335771Y-127366666D02*
X110335771Y-127128571D01*
X110335771Y-127128571D02*
X110383390Y-127033333D01*
X110383390Y-127033333D02*
X110431009Y-126985714D01*
X110431009Y-126985714D02*
X110526247Y-126938095D01*
X110526247Y-126938095D02*
X110764342Y-126938095D01*
X110764342Y-126938095D02*
X110859580Y-126985714D01*
X110859580Y-126985714D02*
X110907200Y-127033333D01*
X110907200Y-127033333D02*
X110954819Y-127128571D01*
X110954819Y-127128571D02*
X110954819Y-127366666D01*
X110954819Y-127366666D02*
X110907200Y-127461904D01*
X110907200Y-127461904D02*
X110859580Y-127509523D01*
X134201905Y-186077200D02*
X134344762Y-186124819D01*
X134344762Y-186124819D02*
X134582857Y-186124819D01*
X134582857Y-186124819D02*
X134678095Y-186077200D01*
X134678095Y-186077200D02*
X134725714Y-186029580D01*
X134725714Y-186029580D02*
X134773333Y-185934342D01*
X134773333Y-185934342D02*
X134773333Y-185839104D01*
X134773333Y-185839104D02*
X134725714Y-185743866D01*
X134725714Y-185743866D02*
X134678095Y-185696247D01*
X134678095Y-185696247D02*
X134582857Y-185648628D01*
X134582857Y-185648628D02*
X134392381Y-185601009D01*
X134392381Y-185601009D02*
X134297143Y-185553390D01*
X134297143Y-185553390D02*
X134249524Y-185505771D01*
X134249524Y-185505771D02*
X134201905Y-185410533D01*
X134201905Y-185410533D02*
X134201905Y-185315295D01*
X134201905Y-185315295D02*
X134249524Y-185220057D01*
X134249524Y-185220057D02*
X134297143Y-185172438D01*
X134297143Y-185172438D02*
X134392381Y-185124819D01*
X134392381Y-185124819D02*
X134630476Y-185124819D01*
X134630476Y-185124819D02*
X134773333Y-185172438D01*
X135154286Y-185220057D02*
X135201905Y-185172438D01*
X135201905Y-185172438D02*
X135297143Y-185124819D01*
X135297143Y-185124819D02*
X135535238Y-185124819D01*
X135535238Y-185124819D02*
X135630476Y-185172438D01*
X135630476Y-185172438D02*
X135678095Y-185220057D01*
X135678095Y-185220057D02*
X135725714Y-185315295D01*
X135725714Y-185315295D02*
X135725714Y-185410533D01*
X135725714Y-185410533D02*
X135678095Y-185553390D01*
X135678095Y-185553390D02*
X135106667Y-186124819D01*
X135106667Y-186124819D02*
X135725714Y-186124819D01*
X136059048Y-185124819D02*
X136678095Y-185124819D01*
X136678095Y-185124819D02*
X136344762Y-185505771D01*
X136344762Y-185505771D02*
X136487619Y-185505771D01*
X136487619Y-185505771D02*
X136582857Y-185553390D01*
X136582857Y-185553390D02*
X136630476Y-185601009D01*
X136630476Y-185601009D02*
X136678095Y-185696247D01*
X136678095Y-185696247D02*
X136678095Y-185934342D01*
X136678095Y-185934342D02*
X136630476Y-186029580D01*
X136630476Y-186029580D02*
X136582857Y-186077200D01*
X136582857Y-186077200D02*
X136487619Y-186124819D01*
X136487619Y-186124819D02*
X136201905Y-186124819D01*
X136201905Y-186124819D02*
X136106667Y-186077200D01*
X136106667Y-186077200D02*
X136059048Y-186029580D01*
X110954819Y-167614285D02*
X109954819Y-167614285D01*
X109954819Y-167614285D02*
X109954819Y-167376190D01*
X109954819Y-167376190D02*
X110002438Y-167233333D01*
X110002438Y-167233333D02*
X110097676Y-167138095D01*
X110097676Y-167138095D02*
X110192914Y-167090476D01*
X110192914Y-167090476D02*
X110383390Y-167042857D01*
X110383390Y-167042857D02*
X110526247Y-167042857D01*
X110526247Y-167042857D02*
X110716723Y-167090476D01*
X110716723Y-167090476D02*
X110811961Y-167138095D01*
X110811961Y-167138095D02*
X110907200Y-167233333D01*
X110907200Y-167233333D02*
X110954819Y-167376190D01*
X110954819Y-167376190D02*
X110954819Y-167614285D01*
X110050057Y-166661904D02*
X110002438Y-166614285D01*
X110002438Y-166614285D02*
X109954819Y-166519047D01*
X109954819Y-166519047D02*
X109954819Y-166280952D01*
X109954819Y-166280952D02*
X110002438Y-166185714D01*
X110002438Y-166185714D02*
X110050057Y-166138095D01*
X110050057Y-166138095D02*
X110145295Y-166090476D01*
X110145295Y-166090476D02*
X110240533Y-166090476D01*
X110240533Y-166090476D02*
X110383390Y-166138095D01*
X110383390Y-166138095D02*
X110954819Y-166709523D01*
X110954819Y-166709523D02*
X110954819Y-166090476D01*
X109954819Y-165757142D02*
X109954819Y-165090476D01*
X109954819Y-165090476D02*
X110954819Y-165519047D01*
X210573947Y-175698913D02*
X210716804Y-175746532D01*
X210716804Y-175746532D02*
X210954899Y-175746532D01*
X210954899Y-175746532D02*
X211050137Y-175698913D01*
X211050137Y-175698913D02*
X211097756Y-175651293D01*
X211097756Y-175651293D02*
X211145375Y-175556055D01*
X211145375Y-175556055D02*
X211145375Y-175460817D01*
X211145375Y-175460817D02*
X211097756Y-175365579D01*
X211097756Y-175365579D02*
X211050137Y-175317960D01*
X211050137Y-175317960D02*
X210954899Y-175270341D01*
X210954899Y-175270341D02*
X210764423Y-175222722D01*
X210764423Y-175222722D02*
X210669185Y-175175103D01*
X210669185Y-175175103D02*
X210621566Y-175127484D01*
X210621566Y-175127484D02*
X210573947Y-175032246D01*
X210573947Y-175032246D02*
X210573947Y-174937008D01*
X210573947Y-174937008D02*
X210621566Y-174841770D01*
X210621566Y-174841770D02*
X210669185Y-174794151D01*
X210669185Y-174794151D02*
X210764423Y-174746532D01*
X210764423Y-174746532D02*
X211002518Y-174746532D01*
X211002518Y-174746532D02*
X211145375Y-174794151D01*
X212002518Y-175079865D02*
X212002518Y-175746532D01*
X211764423Y-174698913D02*
X211526328Y-175413198D01*
X211526328Y-175413198D02*
X212145375Y-175413198D01*
X233955247Y-206826552D02*
X233089222Y-206326552D01*
X233089222Y-206326552D02*
X233208269Y-206120355D01*
X233208269Y-206120355D02*
X233320937Y-206020447D01*
X233320937Y-206020447D02*
X233451035Y-205985587D01*
X233451035Y-205985587D02*
X233557323Y-205991967D01*
X233557323Y-205991967D02*
X233746090Y-206045966D01*
X233746090Y-206045966D02*
X233869808Y-206117394D01*
X233869808Y-206117394D02*
X234010955Y-206253872D01*
X234010955Y-206253872D02*
X234069624Y-206342730D01*
X234069624Y-206342730D02*
X234104484Y-206472828D01*
X234104484Y-206472828D02*
X234074295Y-206620355D01*
X234074295Y-206620355D02*
X233955247Y-206826552D01*
X234479056Y-205919287D02*
X234574295Y-205754330D01*
X234574295Y-205754330D02*
X234580674Y-205648042D01*
X234580674Y-205648042D02*
X234563245Y-205582993D01*
X234563245Y-205582993D02*
X234487146Y-205429086D01*
X234487146Y-205429086D02*
X234345998Y-205292608D01*
X234345998Y-205292608D02*
X234016084Y-205102132D01*
X234016084Y-205102132D02*
X233909795Y-205095752D01*
X233909795Y-205095752D02*
X233844747Y-205113182D01*
X233844747Y-205113182D02*
X233755888Y-205171851D01*
X233755888Y-205171851D02*
X233660650Y-205336809D01*
X233660650Y-205336809D02*
X233654270Y-205443097D01*
X233654270Y-205443097D02*
X233671700Y-205508145D01*
X233671700Y-205508145D02*
X233730369Y-205597004D01*
X233730369Y-205597004D02*
X233936566Y-205716051D01*
X233936566Y-205716051D02*
X234042854Y-205722431D01*
X234042854Y-205722431D02*
X234107903Y-205705001D01*
X234107903Y-205705001D02*
X234196761Y-205646332D01*
X234196761Y-205646332D02*
X234291999Y-205481375D01*
X234291999Y-205481375D02*
X234298379Y-205375087D01*
X234298379Y-205375087D02*
X234280949Y-205310038D01*
X234280949Y-205310038D02*
X234222280Y-205221180D01*
X217504859Y-200025320D02*
X217622814Y-200118927D01*
X217622814Y-200118927D02*
X217846551Y-200200361D01*
X217846551Y-200200361D02*
X217952332Y-200188187D01*
X217952332Y-200188187D02*
X218013366Y-200159726D01*
X218013366Y-200159726D02*
X218090687Y-200086518D01*
X218090687Y-200086518D02*
X218123260Y-199997024D01*
X218123260Y-199997024D02*
X218111086Y-199891243D01*
X218111086Y-199891243D02*
X218082625Y-199830209D01*
X218082625Y-199830209D02*
X218009418Y-199752888D01*
X218009418Y-199752888D02*
X217846715Y-199642994D01*
X217846715Y-199642994D02*
X217773507Y-199565673D01*
X217773507Y-199565673D02*
X217745047Y-199504639D01*
X217745047Y-199504639D02*
X217732873Y-199398858D01*
X217732873Y-199398858D02*
X217765446Y-199309364D01*
X217765446Y-199309364D02*
X217842767Y-199236156D01*
X217842767Y-199236156D02*
X217903801Y-199207695D01*
X217903801Y-199207695D02*
X218009582Y-199195521D01*
X218009582Y-199195521D02*
X218233318Y-199276955D01*
X218233318Y-199276955D02*
X218351273Y-199370562D01*
X218920485Y-200591241D02*
X218383518Y-200395801D01*
X218652002Y-200493521D02*
X218994022Y-199553828D01*
X218994022Y-199553828D02*
X218855667Y-199655497D01*
X218855667Y-199655497D02*
X218733599Y-199712418D01*
X218733599Y-199712418D02*
X218627818Y-199724592D01*
X219953950Y-200257939D02*
X219725936Y-200884401D01*
X219860507Y-199818528D02*
X219392470Y-200408303D01*
X219392470Y-200408303D02*
X219974185Y-200620030D01*
X245139819Y-146928333D02*
X245854104Y-146928333D01*
X245854104Y-146928333D02*
X245996961Y-146975952D01*
X245996961Y-146975952D02*
X246092200Y-147071190D01*
X246092200Y-147071190D02*
X246139819Y-147214047D01*
X246139819Y-147214047D02*
X246139819Y-147309285D01*
X246139819Y-145928333D02*
X246139819Y-146499761D01*
X246139819Y-146214047D02*
X245139819Y-146214047D01*
X245139819Y-146214047D02*
X245282676Y-146309285D01*
X245282676Y-146309285D02*
X245377914Y-146404523D01*
X245377914Y-146404523D02*
X245425533Y-146499761D01*
X148954819Y-155714285D02*
X147954819Y-155714285D01*
X147954819Y-155714285D02*
X147954819Y-155476190D01*
X147954819Y-155476190D02*
X148002438Y-155333333D01*
X148002438Y-155333333D02*
X148097676Y-155238095D01*
X148097676Y-155238095D02*
X148192914Y-155190476D01*
X148192914Y-155190476D02*
X148383390Y-155142857D01*
X148383390Y-155142857D02*
X148526247Y-155142857D01*
X148526247Y-155142857D02*
X148716723Y-155190476D01*
X148716723Y-155190476D02*
X148811961Y-155238095D01*
X148811961Y-155238095D02*
X148907200Y-155333333D01*
X148907200Y-155333333D02*
X148954819Y-155476190D01*
X148954819Y-155476190D02*
X148954819Y-155714285D01*
X148954819Y-154190476D02*
X148954819Y-154761904D01*
X148954819Y-154476190D02*
X147954819Y-154476190D01*
X147954819Y-154476190D02*
X148097676Y-154571428D01*
X148097676Y-154571428D02*
X148192914Y-154666666D01*
X148192914Y-154666666D02*
X148240533Y-154761904D01*
X147954819Y-153857142D02*
X147954819Y-153190476D01*
X147954819Y-153190476D02*
X148954819Y-153619047D01*
X231354819Y-182090475D02*
X230354819Y-182090475D01*
X230354819Y-182090475D02*
X230354819Y-181852380D01*
X230354819Y-181852380D02*
X230402438Y-181709523D01*
X230402438Y-181709523D02*
X230497676Y-181614285D01*
X230497676Y-181614285D02*
X230592914Y-181566666D01*
X230592914Y-181566666D02*
X230783390Y-181519047D01*
X230783390Y-181519047D02*
X230926247Y-181519047D01*
X230926247Y-181519047D02*
X231116723Y-181566666D01*
X231116723Y-181566666D02*
X231211961Y-181614285D01*
X231211961Y-181614285D02*
X231307200Y-181709523D01*
X231307200Y-181709523D02*
X231354819Y-181852380D01*
X231354819Y-181852380D02*
X231354819Y-182090475D01*
X231354819Y-180519047D02*
X230878628Y-180852380D01*
X231354819Y-181090475D02*
X230354819Y-181090475D01*
X230354819Y-181090475D02*
X230354819Y-180709523D01*
X230354819Y-180709523D02*
X230402438Y-180614285D01*
X230402438Y-180614285D02*
X230450057Y-180566666D01*
X230450057Y-180566666D02*
X230545295Y-180519047D01*
X230545295Y-180519047D02*
X230688152Y-180519047D01*
X230688152Y-180519047D02*
X230783390Y-180566666D01*
X230783390Y-180566666D02*
X230831009Y-180614285D01*
X230831009Y-180614285D02*
X230878628Y-180709523D01*
X230878628Y-180709523D02*
X230878628Y-181090475D01*
X230831009Y-180090475D02*
X230831009Y-179757142D01*
X231354819Y-179614285D02*
X231354819Y-180090475D01*
X231354819Y-180090475D02*
X230354819Y-180090475D01*
X230354819Y-180090475D02*
X230354819Y-179614285D01*
X231354819Y-178661904D02*
X231354819Y-179233332D01*
X231354819Y-178947618D02*
X230354819Y-178947618D01*
X230354819Y-178947618D02*
X230497676Y-179042856D01*
X230497676Y-179042856D02*
X230592914Y-179138094D01*
X230592914Y-179138094D02*
X230640533Y-179233332D01*
X248491666Y-161904819D02*
X248491666Y-162619104D01*
X248491666Y-162619104D02*
X248444047Y-162761961D01*
X248444047Y-162761961D02*
X248348809Y-162857200D01*
X248348809Y-162857200D02*
X248205952Y-162904819D01*
X248205952Y-162904819D02*
X248110714Y-162904819D01*
X248920238Y-162000057D02*
X248967857Y-161952438D01*
X248967857Y-161952438D02*
X249063095Y-161904819D01*
X249063095Y-161904819D02*
X249301190Y-161904819D01*
X249301190Y-161904819D02*
X249396428Y-161952438D01*
X249396428Y-161952438D02*
X249444047Y-162000057D01*
X249444047Y-162000057D02*
X249491666Y-162095295D01*
X249491666Y-162095295D02*
X249491666Y-162190533D01*
X249491666Y-162190533D02*
X249444047Y-162333390D01*
X249444047Y-162333390D02*
X248872619Y-162904819D01*
X248872619Y-162904819D02*
X249491666Y-162904819D01*
X186954819Y-157238094D02*
X185954819Y-157238094D01*
X185954819Y-157238094D02*
X185954819Y-156999999D01*
X185954819Y-156999999D02*
X186002438Y-156857142D01*
X186002438Y-156857142D02*
X186097676Y-156761904D01*
X186097676Y-156761904D02*
X186192914Y-156714285D01*
X186192914Y-156714285D02*
X186383390Y-156666666D01*
X186383390Y-156666666D02*
X186526247Y-156666666D01*
X186526247Y-156666666D02*
X186716723Y-156714285D01*
X186716723Y-156714285D02*
X186811961Y-156761904D01*
X186811961Y-156761904D02*
X186907200Y-156857142D01*
X186907200Y-156857142D02*
X186954819Y-156999999D01*
X186954819Y-156999999D02*
X186954819Y-157238094D01*
X185954819Y-156333332D02*
X185954819Y-155666666D01*
X185954819Y-155666666D02*
X186954819Y-156095237D01*
X148964819Y-175294285D02*
X147964819Y-175294285D01*
X147964819Y-175294285D02*
X147964819Y-175056190D01*
X147964819Y-175056190D02*
X148012438Y-174913333D01*
X148012438Y-174913333D02*
X148107676Y-174818095D01*
X148107676Y-174818095D02*
X148202914Y-174770476D01*
X148202914Y-174770476D02*
X148393390Y-174722857D01*
X148393390Y-174722857D02*
X148536247Y-174722857D01*
X148536247Y-174722857D02*
X148726723Y-174770476D01*
X148726723Y-174770476D02*
X148821961Y-174818095D01*
X148821961Y-174818095D02*
X148917200Y-174913333D01*
X148917200Y-174913333D02*
X148964819Y-175056190D01*
X148964819Y-175056190D02*
X148964819Y-175294285D01*
X148964819Y-173770476D02*
X148964819Y-174341904D01*
X148964819Y-174056190D02*
X147964819Y-174056190D01*
X147964819Y-174056190D02*
X148107676Y-174151428D01*
X148107676Y-174151428D02*
X148202914Y-174246666D01*
X148202914Y-174246666D02*
X148250533Y-174341904D01*
X148393390Y-173199047D02*
X148345771Y-173294285D01*
X148345771Y-173294285D02*
X148298152Y-173341904D01*
X148298152Y-173341904D02*
X148202914Y-173389523D01*
X148202914Y-173389523D02*
X148155295Y-173389523D01*
X148155295Y-173389523D02*
X148060057Y-173341904D01*
X148060057Y-173341904D02*
X148012438Y-173294285D01*
X148012438Y-173294285D02*
X147964819Y-173199047D01*
X147964819Y-173199047D02*
X147964819Y-173008571D01*
X147964819Y-173008571D02*
X148012438Y-172913333D01*
X148012438Y-172913333D02*
X148060057Y-172865714D01*
X148060057Y-172865714D02*
X148155295Y-172818095D01*
X148155295Y-172818095D02*
X148202914Y-172818095D01*
X148202914Y-172818095D02*
X148298152Y-172865714D01*
X148298152Y-172865714D02*
X148345771Y-172913333D01*
X148345771Y-172913333D02*
X148393390Y-173008571D01*
X148393390Y-173008571D02*
X148393390Y-173199047D01*
X148393390Y-173199047D02*
X148441009Y-173294285D01*
X148441009Y-173294285D02*
X148488628Y-173341904D01*
X148488628Y-173341904D02*
X148583866Y-173389523D01*
X148583866Y-173389523D02*
X148774342Y-173389523D01*
X148774342Y-173389523D02*
X148869580Y-173341904D01*
X148869580Y-173341904D02*
X148917200Y-173294285D01*
X148917200Y-173294285D02*
X148964819Y-173199047D01*
X148964819Y-173199047D02*
X148964819Y-173008571D01*
X148964819Y-173008571D02*
X148917200Y-172913333D01*
X148917200Y-172913333D02*
X148869580Y-172865714D01*
X148869580Y-172865714D02*
X148774342Y-172818095D01*
X148774342Y-172818095D02*
X148583866Y-172818095D01*
X148583866Y-172818095D02*
X148488628Y-172865714D01*
X148488628Y-172865714D02*
X148441009Y-172913333D01*
X148441009Y-172913333D02*
X148393390Y-173008571D01*
X191573947Y-156698913D02*
X191716804Y-156746532D01*
X191716804Y-156746532D02*
X191954899Y-156746532D01*
X191954899Y-156746532D02*
X192050137Y-156698913D01*
X192050137Y-156698913D02*
X192097756Y-156651293D01*
X192097756Y-156651293D02*
X192145375Y-156556055D01*
X192145375Y-156556055D02*
X192145375Y-156460817D01*
X192145375Y-156460817D02*
X192097756Y-156365579D01*
X192097756Y-156365579D02*
X192050137Y-156317960D01*
X192050137Y-156317960D02*
X191954899Y-156270341D01*
X191954899Y-156270341D02*
X191764423Y-156222722D01*
X191764423Y-156222722D02*
X191669185Y-156175103D01*
X191669185Y-156175103D02*
X191621566Y-156127484D01*
X191621566Y-156127484D02*
X191573947Y-156032246D01*
X191573947Y-156032246D02*
X191573947Y-155937008D01*
X191573947Y-155937008D02*
X191621566Y-155841770D01*
X191621566Y-155841770D02*
X191669185Y-155794151D01*
X191669185Y-155794151D02*
X191764423Y-155746532D01*
X191764423Y-155746532D02*
X192002518Y-155746532D01*
X192002518Y-155746532D02*
X192145375Y-155794151D01*
X192478709Y-155746532D02*
X193145375Y-155746532D01*
X193145375Y-155746532D02*
X192716804Y-156746532D01*
X148934819Y-118614285D02*
X147934819Y-118614285D01*
X147934819Y-118614285D02*
X147934819Y-118376190D01*
X147934819Y-118376190D02*
X147982438Y-118233333D01*
X147982438Y-118233333D02*
X148077676Y-118138095D01*
X148077676Y-118138095D02*
X148172914Y-118090476D01*
X148172914Y-118090476D02*
X148363390Y-118042857D01*
X148363390Y-118042857D02*
X148506247Y-118042857D01*
X148506247Y-118042857D02*
X148696723Y-118090476D01*
X148696723Y-118090476D02*
X148791961Y-118138095D01*
X148791961Y-118138095D02*
X148887200Y-118233333D01*
X148887200Y-118233333D02*
X148934819Y-118376190D01*
X148934819Y-118376190D02*
X148934819Y-118614285D01*
X148934819Y-117090476D02*
X148934819Y-117661904D01*
X148934819Y-117376190D02*
X147934819Y-117376190D01*
X147934819Y-117376190D02*
X148077676Y-117471428D01*
X148077676Y-117471428D02*
X148172914Y-117566666D01*
X148172914Y-117566666D02*
X148220533Y-117661904D01*
X147934819Y-116185714D02*
X147934819Y-116661904D01*
X147934819Y-116661904D02*
X148411009Y-116709523D01*
X148411009Y-116709523D02*
X148363390Y-116661904D01*
X148363390Y-116661904D02*
X148315771Y-116566666D01*
X148315771Y-116566666D02*
X148315771Y-116328571D01*
X148315771Y-116328571D02*
X148363390Y-116233333D01*
X148363390Y-116233333D02*
X148411009Y-116185714D01*
X148411009Y-116185714D02*
X148506247Y-116138095D01*
X148506247Y-116138095D02*
X148744342Y-116138095D01*
X148744342Y-116138095D02*
X148839580Y-116185714D01*
X148839580Y-116185714D02*
X148887200Y-116233333D01*
X148887200Y-116233333D02*
X148934819Y-116328571D01*
X148934819Y-116328571D02*
X148934819Y-116566666D01*
X148934819Y-116566666D02*
X148887200Y-116661904D01*
X148887200Y-116661904D02*
X148839580Y-116709523D01*
X167954819Y-150714285D02*
X166954819Y-150714285D01*
X166954819Y-150714285D02*
X166954819Y-150476190D01*
X166954819Y-150476190D02*
X167002438Y-150333333D01*
X167002438Y-150333333D02*
X167097676Y-150238095D01*
X167097676Y-150238095D02*
X167192914Y-150190476D01*
X167192914Y-150190476D02*
X167383390Y-150142857D01*
X167383390Y-150142857D02*
X167526247Y-150142857D01*
X167526247Y-150142857D02*
X167716723Y-150190476D01*
X167716723Y-150190476D02*
X167811961Y-150238095D01*
X167811961Y-150238095D02*
X167907200Y-150333333D01*
X167907200Y-150333333D02*
X167954819Y-150476190D01*
X167954819Y-150476190D02*
X167954819Y-150714285D01*
X167954819Y-149190476D02*
X167954819Y-149761904D01*
X167954819Y-149476190D02*
X166954819Y-149476190D01*
X166954819Y-149476190D02*
X167097676Y-149571428D01*
X167097676Y-149571428D02*
X167192914Y-149666666D01*
X167192914Y-149666666D02*
X167240533Y-149761904D01*
X167050057Y-148809523D02*
X167002438Y-148761904D01*
X167002438Y-148761904D02*
X166954819Y-148666666D01*
X166954819Y-148666666D02*
X166954819Y-148428571D01*
X166954819Y-148428571D02*
X167002438Y-148333333D01*
X167002438Y-148333333D02*
X167050057Y-148285714D01*
X167050057Y-148285714D02*
X167145295Y-148238095D01*
X167145295Y-148238095D02*
X167240533Y-148238095D01*
X167240533Y-148238095D02*
X167383390Y-148285714D01*
X167383390Y-148285714D02*
X167954819Y-148857142D01*
X167954819Y-148857142D02*
X167954819Y-148238095D01*
X129954819Y-129414285D02*
X128954819Y-129414285D01*
X128954819Y-129414285D02*
X128954819Y-129176190D01*
X128954819Y-129176190D02*
X129002438Y-129033333D01*
X129002438Y-129033333D02*
X129097676Y-128938095D01*
X129097676Y-128938095D02*
X129192914Y-128890476D01*
X129192914Y-128890476D02*
X129383390Y-128842857D01*
X129383390Y-128842857D02*
X129526247Y-128842857D01*
X129526247Y-128842857D02*
X129716723Y-128890476D01*
X129716723Y-128890476D02*
X129811961Y-128938095D01*
X129811961Y-128938095D02*
X129907200Y-129033333D01*
X129907200Y-129033333D02*
X129954819Y-129176190D01*
X129954819Y-129176190D02*
X129954819Y-129414285D01*
X129050057Y-128461904D02*
X129002438Y-128414285D01*
X129002438Y-128414285D02*
X128954819Y-128319047D01*
X128954819Y-128319047D02*
X128954819Y-128080952D01*
X128954819Y-128080952D02*
X129002438Y-127985714D01*
X129002438Y-127985714D02*
X129050057Y-127938095D01*
X129050057Y-127938095D02*
X129145295Y-127890476D01*
X129145295Y-127890476D02*
X129240533Y-127890476D01*
X129240533Y-127890476D02*
X129383390Y-127938095D01*
X129383390Y-127938095D02*
X129954819Y-128509523D01*
X129954819Y-128509523D02*
X129954819Y-127890476D01*
X128954819Y-127271428D02*
X128954819Y-127176190D01*
X128954819Y-127176190D02*
X129002438Y-127080952D01*
X129002438Y-127080952D02*
X129050057Y-127033333D01*
X129050057Y-127033333D02*
X129145295Y-126985714D01*
X129145295Y-126985714D02*
X129335771Y-126938095D01*
X129335771Y-126938095D02*
X129573866Y-126938095D01*
X129573866Y-126938095D02*
X129764342Y-126985714D01*
X129764342Y-126985714D02*
X129859580Y-127033333D01*
X129859580Y-127033333D02*
X129907200Y-127080952D01*
X129907200Y-127080952D02*
X129954819Y-127176190D01*
X129954819Y-127176190D02*
X129954819Y-127271428D01*
X129954819Y-127271428D02*
X129907200Y-127366666D01*
X129907200Y-127366666D02*
X129859580Y-127414285D01*
X129859580Y-127414285D02*
X129764342Y-127461904D01*
X129764342Y-127461904D02*
X129573866Y-127509523D01*
X129573866Y-127509523D02*
X129335771Y-127509523D01*
X129335771Y-127509523D02*
X129145295Y-127461904D01*
X129145295Y-127461904D02*
X129050057Y-127414285D01*
X129050057Y-127414285D02*
X129002438Y-127366666D01*
X129002438Y-127366666D02*
X128954819Y-127271428D01*
X198322102Y-196468284D02*
X198454519Y-196539987D01*
X198454519Y-196539987D02*
X198688997Y-196581332D01*
X198688997Y-196581332D02*
X198791058Y-196550974D01*
X198791058Y-196550974D02*
X198846222Y-196512347D01*
X198846222Y-196512347D02*
X198909656Y-196426825D01*
X198909656Y-196426825D02*
X198926194Y-196333034D01*
X198926194Y-196333034D02*
X198895836Y-196230974D01*
X198895836Y-196230974D02*
X198857209Y-196175809D01*
X198857209Y-196175809D02*
X198771687Y-196112376D01*
X198771687Y-196112376D02*
X198592374Y-196032404D01*
X198592374Y-196032404D02*
X198506851Y-195968971D01*
X198506851Y-195968971D02*
X198468225Y-195913806D01*
X198468225Y-195913806D02*
X198437867Y-195811746D01*
X198437867Y-195811746D02*
X198454405Y-195717955D01*
X198454405Y-195717955D02*
X198517838Y-195632432D01*
X198517838Y-195632432D02*
X198573003Y-195593806D01*
X198573003Y-195593806D02*
X198675063Y-195563448D01*
X198675063Y-195563448D02*
X198909541Y-195604793D01*
X198909541Y-195604793D02*
X199041959Y-195676495D01*
X199814492Y-196779787D02*
X199251745Y-196680559D01*
X199533118Y-196730173D02*
X199706767Y-195745365D01*
X199706767Y-195745365D02*
X199588169Y-195869514D01*
X199588169Y-195869514D02*
X199477839Y-195946767D01*
X199477839Y-195946767D02*
X199375779Y-195977125D01*
X200283448Y-196862476D02*
X200471031Y-196895552D01*
X200471031Y-196895552D02*
X200573091Y-196865194D01*
X200573091Y-196865194D02*
X200628255Y-196826568D01*
X200628255Y-196826568D02*
X200746854Y-196702419D01*
X200746854Y-196702419D02*
X200826825Y-196523105D01*
X200826825Y-196523105D02*
X200892977Y-196147941D01*
X200892977Y-196147941D02*
X200862619Y-196045880D01*
X200862619Y-196045880D02*
X200823992Y-195990716D01*
X200823992Y-195990716D02*
X200738470Y-195927282D01*
X200738470Y-195927282D02*
X200550888Y-195894206D01*
X200550888Y-195894206D02*
X200448827Y-195924564D01*
X200448827Y-195924564D02*
X200393663Y-195963191D01*
X200393663Y-195963191D02*
X200330229Y-196048713D01*
X200330229Y-196048713D02*
X200288885Y-196283191D01*
X200288885Y-196283191D02*
X200319242Y-196385251D01*
X200319242Y-196385251D02*
X200357869Y-196440416D01*
X200357869Y-196440416D02*
X200443391Y-196503849D01*
X200443391Y-196503849D02*
X200630974Y-196536925D01*
X200630974Y-196536925D02*
X200733034Y-196506568D01*
X200733034Y-196506568D02*
X200788198Y-196467941D01*
X200788198Y-196467941D02*
X200851632Y-196382419D01*
X115097757Y-166698913D02*
X115240614Y-166746532D01*
X115240614Y-166746532D02*
X115478709Y-166746532D01*
X115478709Y-166746532D02*
X115573947Y-166698913D01*
X115573947Y-166698913D02*
X115621566Y-166651293D01*
X115621566Y-166651293D02*
X115669185Y-166556055D01*
X115669185Y-166556055D02*
X115669185Y-166460817D01*
X115669185Y-166460817D02*
X115621566Y-166365579D01*
X115621566Y-166365579D02*
X115573947Y-166317960D01*
X115573947Y-166317960D02*
X115478709Y-166270341D01*
X115478709Y-166270341D02*
X115288233Y-166222722D01*
X115288233Y-166222722D02*
X115192995Y-166175103D01*
X115192995Y-166175103D02*
X115145376Y-166127484D01*
X115145376Y-166127484D02*
X115097757Y-166032246D01*
X115097757Y-166032246D02*
X115097757Y-165937008D01*
X115097757Y-165937008D02*
X115145376Y-165841770D01*
X115145376Y-165841770D02*
X115192995Y-165794151D01*
X115192995Y-165794151D02*
X115288233Y-165746532D01*
X115288233Y-165746532D02*
X115526328Y-165746532D01*
X115526328Y-165746532D02*
X115669185Y-165794151D01*
X116050138Y-165841770D02*
X116097757Y-165794151D01*
X116097757Y-165794151D02*
X116192995Y-165746532D01*
X116192995Y-165746532D02*
X116431090Y-165746532D01*
X116431090Y-165746532D02*
X116526328Y-165794151D01*
X116526328Y-165794151D02*
X116573947Y-165841770D01*
X116573947Y-165841770D02*
X116621566Y-165937008D01*
X116621566Y-165937008D02*
X116621566Y-166032246D01*
X116621566Y-166032246D02*
X116573947Y-166175103D01*
X116573947Y-166175103D02*
X116002519Y-166746532D01*
X116002519Y-166746532D02*
X116621566Y-166746532D01*
X116954900Y-165746532D02*
X117621566Y-165746532D01*
X117621566Y-165746532D02*
X117192995Y-166746532D01*
X152754819Y-196614285D02*
X151754819Y-196614285D01*
X151754819Y-196614285D02*
X151754819Y-196376190D01*
X151754819Y-196376190D02*
X151802438Y-196233333D01*
X151802438Y-196233333D02*
X151897676Y-196138095D01*
X151897676Y-196138095D02*
X151992914Y-196090476D01*
X151992914Y-196090476D02*
X152183390Y-196042857D01*
X152183390Y-196042857D02*
X152326247Y-196042857D01*
X152326247Y-196042857D02*
X152516723Y-196090476D01*
X152516723Y-196090476D02*
X152611961Y-196138095D01*
X152611961Y-196138095D02*
X152707200Y-196233333D01*
X152707200Y-196233333D02*
X152754819Y-196376190D01*
X152754819Y-196376190D02*
X152754819Y-196614285D01*
X151850057Y-195661904D02*
X151802438Y-195614285D01*
X151802438Y-195614285D02*
X151754819Y-195519047D01*
X151754819Y-195519047D02*
X151754819Y-195280952D01*
X151754819Y-195280952D02*
X151802438Y-195185714D01*
X151802438Y-195185714D02*
X151850057Y-195138095D01*
X151850057Y-195138095D02*
X151945295Y-195090476D01*
X151945295Y-195090476D02*
X152040533Y-195090476D01*
X152040533Y-195090476D02*
X152183390Y-195138095D01*
X152183390Y-195138095D02*
X152754819Y-195709523D01*
X152754819Y-195709523D02*
X152754819Y-195090476D01*
X152754819Y-194614285D02*
X152754819Y-194423809D01*
X152754819Y-194423809D02*
X152707200Y-194328571D01*
X152707200Y-194328571D02*
X152659580Y-194280952D01*
X152659580Y-194280952D02*
X152516723Y-194185714D01*
X152516723Y-194185714D02*
X152326247Y-194138095D01*
X152326247Y-194138095D02*
X151945295Y-194138095D01*
X151945295Y-194138095D02*
X151850057Y-194185714D01*
X151850057Y-194185714D02*
X151802438Y-194233333D01*
X151802438Y-194233333D02*
X151754819Y-194328571D01*
X151754819Y-194328571D02*
X151754819Y-194519047D01*
X151754819Y-194519047D02*
X151802438Y-194614285D01*
X151802438Y-194614285D02*
X151850057Y-194661904D01*
X151850057Y-194661904D02*
X151945295Y-194709523D01*
X151945295Y-194709523D02*
X152183390Y-194709523D01*
X152183390Y-194709523D02*
X152278628Y-194661904D01*
X152278628Y-194661904D02*
X152326247Y-194614285D01*
X152326247Y-194614285D02*
X152373866Y-194519047D01*
X152373866Y-194519047D02*
X152373866Y-194328571D01*
X152373866Y-194328571D02*
X152326247Y-194233333D01*
X152326247Y-194233333D02*
X152278628Y-194185714D01*
X152278628Y-194185714D02*
X152183390Y-194138095D01*
X205954819Y-157338094D02*
X204954819Y-157338094D01*
X204954819Y-157338094D02*
X204954819Y-157099999D01*
X204954819Y-157099999D02*
X205002438Y-156957142D01*
X205002438Y-156957142D02*
X205097676Y-156861904D01*
X205097676Y-156861904D02*
X205192914Y-156814285D01*
X205192914Y-156814285D02*
X205383390Y-156766666D01*
X205383390Y-156766666D02*
X205526247Y-156766666D01*
X205526247Y-156766666D02*
X205716723Y-156814285D01*
X205716723Y-156814285D02*
X205811961Y-156861904D01*
X205811961Y-156861904D02*
X205907200Y-156957142D01*
X205907200Y-156957142D02*
X205954819Y-157099999D01*
X205954819Y-157099999D02*
X205954819Y-157338094D01*
X204954819Y-156433332D02*
X204954819Y-155814285D01*
X204954819Y-155814285D02*
X205335771Y-156147618D01*
X205335771Y-156147618D02*
X205335771Y-156004761D01*
X205335771Y-156004761D02*
X205383390Y-155909523D01*
X205383390Y-155909523D02*
X205431009Y-155861904D01*
X205431009Y-155861904D02*
X205526247Y-155814285D01*
X205526247Y-155814285D02*
X205764342Y-155814285D01*
X205764342Y-155814285D02*
X205859580Y-155861904D01*
X205859580Y-155861904D02*
X205907200Y-155909523D01*
X205907200Y-155909523D02*
X205954819Y-156004761D01*
X205954819Y-156004761D02*
X205954819Y-156290475D01*
X205954819Y-156290475D02*
X205907200Y-156385713D01*
X205907200Y-156385713D02*
X205859580Y-156433332D01*
X167954819Y-169714285D02*
X166954819Y-169714285D01*
X166954819Y-169714285D02*
X166954819Y-169476190D01*
X166954819Y-169476190D02*
X167002438Y-169333333D01*
X167002438Y-169333333D02*
X167097676Y-169238095D01*
X167097676Y-169238095D02*
X167192914Y-169190476D01*
X167192914Y-169190476D02*
X167383390Y-169142857D01*
X167383390Y-169142857D02*
X167526247Y-169142857D01*
X167526247Y-169142857D02*
X167716723Y-169190476D01*
X167716723Y-169190476D02*
X167811961Y-169238095D01*
X167811961Y-169238095D02*
X167907200Y-169333333D01*
X167907200Y-169333333D02*
X167954819Y-169476190D01*
X167954819Y-169476190D02*
X167954819Y-169714285D01*
X167954819Y-168190476D02*
X167954819Y-168761904D01*
X167954819Y-168476190D02*
X166954819Y-168476190D01*
X166954819Y-168476190D02*
X167097676Y-168571428D01*
X167097676Y-168571428D02*
X167192914Y-168666666D01*
X167192914Y-168666666D02*
X167240533Y-168761904D01*
X166954819Y-167857142D02*
X166954819Y-167238095D01*
X166954819Y-167238095D02*
X167335771Y-167571428D01*
X167335771Y-167571428D02*
X167335771Y-167428571D01*
X167335771Y-167428571D02*
X167383390Y-167333333D01*
X167383390Y-167333333D02*
X167431009Y-167285714D01*
X167431009Y-167285714D02*
X167526247Y-167238095D01*
X167526247Y-167238095D02*
X167764342Y-167238095D01*
X167764342Y-167238095D02*
X167859580Y-167285714D01*
X167859580Y-167285714D02*
X167907200Y-167333333D01*
X167907200Y-167333333D02*
X167954819Y-167428571D01*
X167954819Y-167428571D02*
X167954819Y-167714285D01*
X167954819Y-167714285D02*
X167907200Y-167809523D01*
X167907200Y-167809523D02*
X167859580Y-167857142D01*
X186954819Y-119238094D02*
X185954819Y-119238094D01*
X185954819Y-119238094D02*
X185954819Y-118999999D01*
X185954819Y-118999999D02*
X186002438Y-118857142D01*
X186002438Y-118857142D02*
X186097676Y-118761904D01*
X186097676Y-118761904D02*
X186192914Y-118714285D01*
X186192914Y-118714285D02*
X186383390Y-118666666D01*
X186383390Y-118666666D02*
X186526247Y-118666666D01*
X186526247Y-118666666D02*
X186716723Y-118714285D01*
X186716723Y-118714285D02*
X186811961Y-118761904D01*
X186811961Y-118761904D02*
X186907200Y-118857142D01*
X186907200Y-118857142D02*
X186954819Y-118999999D01*
X186954819Y-118999999D02*
X186954819Y-119238094D01*
X185954819Y-117761904D02*
X185954819Y-118238094D01*
X185954819Y-118238094D02*
X186431009Y-118285713D01*
X186431009Y-118285713D02*
X186383390Y-118238094D01*
X186383390Y-118238094D02*
X186335771Y-118142856D01*
X186335771Y-118142856D02*
X186335771Y-117904761D01*
X186335771Y-117904761D02*
X186383390Y-117809523D01*
X186383390Y-117809523D02*
X186431009Y-117761904D01*
X186431009Y-117761904D02*
X186526247Y-117714285D01*
X186526247Y-117714285D02*
X186764342Y-117714285D01*
X186764342Y-117714285D02*
X186859580Y-117761904D01*
X186859580Y-117761904D02*
X186907200Y-117809523D01*
X186907200Y-117809523D02*
X186954819Y-117904761D01*
X186954819Y-117904761D02*
X186954819Y-118142856D01*
X186954819Y-118142856D02*
X186907200Y-118238094D01*
X186907200Y-118238094D02*
X186859580Y-118285713D01*
X134097757Y-128698913D02*
X134240614Y-128746532D01*
X134240614Y-128746532D02*
X134478709Y-128746532D01*
X134478709Y-128746532D02*
X134573947Y-128698913D01*
X134573947Y-128698913D02*
X134621566Y-128651293D01*
X134621566Y-128651293D02*
X134669185Y-128556055D01*
X134669185Y-128556055D02*
X134669185Y-128460817D01*
X134669185Y-128460817D02*
X134621566Y-128365579D01*
X134621566Y-128365579D02*
X134573947Y-128317960D01*
X134573947Y-128317960D02*
X134478709Y-128270341D01*
X134478709Y-128270341D02*
X134288233Y-128222722D01*
X134288233Y-128222722D02*
X134192995Y-128175103D01*
X134192995Y-128175103D02*
X134145376Y-128127484D01*
X134145376Y-128127484D02*
X134097757Y-128032246D01*
X134097757Y-128032246D02*
X134097757Y-127937008D01*
X134097757Y-127937008D02*
X134145376Y-127841770D01*
X134145376Y-127841770D02*
X134192995Y-127794151D01*
X134192995Y-127794151D02*
X134288233Y-127746532D01*
X134288233Y-127746532D02*
X134526328Y-127746532D01*
X134526328Y-127746532D02*
X134669185Y-127794151D01*
X135050138Y-127841770D02*
X135097757Y-127794151D01*
X135097757Y-127794151D02*
X135192995Y-127746532D01*
X135192995Y-127746532D02*
X135431090Y-127746532D01*
X135431090Y-127746532D02*
X135526328Y-127794151D01*
X135526328Y-127794151D02*
X135573947Y-127841770D01*
X135573947Y-127841770D02*
X135621566Y-127937008D01*
X135621566Y-127937008D02*
X135621566Y-128032246D01*
X135621566Y-128032246D02*
X135573947Y-128175103D01*
X135573947Y-128175103D02*
X135002519Y-128746532D01*
X135002519Y-128746532D02*
X135621566Y-128746532D01*
X136240614Y-127746532D02*
X136335852Y-127746532D01*
X136335852Y-127746532D02*
X136431090Y-127794151D01*
X136431090Y-127794151D02*
X136478709Y-127841770D01*
X136478709Y-127841770D02*
X136526328Y-127937008D01*
X136526328Y-127937008D02*
X136573947Y-128127484D01*
X136573947Y-128127484D02*
X136573947Y-128365579D01*
X136573947Y-128365579D02*
X136526328Y-128556055D01*
X136526328Y-128556055D02*
X136478709Y-128651293D01*
X136478709Y-128651293D02*
X136431090Y-128698913D01*
X136431090Y-128698913D02*
X136335852Y-128746532D01*
X136335852Y-128746532D02*
X136240614Y-128746532D01*
X136240614Y-128746532D02*
X136145376Y-128698913D01*
X136145376Y-128698913D02*
X136097757Y-128651293D01*
X136097757Y-128651293D02*
X136050138Y-128556055D01*
X136050138Y-128556055D02*
X136002519Y-128365579D01*
X136002519Y-128365579D02*
X136002519Y-128127484D01*
X136002519Y-128127484D02*
X136050138Y-127937008D01*
X136050138Y-127937008D02*
X136097757Y-127841770D01*
X136097757Y-127841770D02*
X136145376Y-127794151D01*
X136145376Y-127794151D02*
X136240614Y-127746532D01*
X191573947Y-175698913D02*
X191716804Y-175746532D01*
X191716804Y-175746532D02*
X191954899Y-175746532D01*
X191954899Y-175746532D02*
X192050137Y-175698913D01*
X192050137Y-175698913D02*
X192097756Y-175651293D01*
X192097756Y-175651293D02*
X192145375Y-175556055D01*
X192145375Y-175556055D02*
X192145375Y-175460817D01*
X192145375Y-175460817D02*
X192097756Y-175365579D01*
X192097756Y-175365579D02*
X192050137Y-175317960D01*
X192050137Y-175317960D02*
X191954899Y-175270341D01*
X191954899Y-175270341D02*
X191764423Y-175222722D01*
X191764423Y-175222722D02*
X191669185Y-175175103D01*
X191669185Y-175175103D02*
X191621566Y-175127484D01*
X191621566Y-175127484D02*
X191573947Y-175032246D01*
X191573947Y-175032246D02*
X191573947Y-174937008D01*
X191573947Y-174937008D02*
X191621566Y-174841770D01*
X191621566Y-174841770D02*
X191669185Y-174794151D01*
X191669185Y-174794151D02*
X191764423Y-174746532D01*
X191764423Y-174746532D02*
X192002518Y-174746532D01*
X192002518Y-174746532D02*
X192145375Y-174794151D01*
X192716804Y-175175103D02*
X192621566Y-175127484D01*
X192621566Y-175127484D02*
X192573947Y-175079865D01*
X192573947Y-175079865D02*
X192526328Y-174984627D01*
X192526328Y-174984627D02*
X192526328Y-174937008D01*
X192526328Y-174937008D02*
X192573947Y-174841770D01*
X192573947Y-174841770D02*
X192621566Y-174794151D01*
X192621566Y-174794151D02*
X192716804Y-174746532D01*
X192716804Y-174746532D02*
X192907280Y-174746532D01*
X192907280Y-174746532D02*
X193002518Y-174794151D01*
X193002518Y-174794151D02*
X193050137Y-174841770D01*
X193050137Y-174841770D02*
X193097756Y-174937008D01*
X193097756Y-174937008D02*
X193097756Y-174984627D01*
X193097756Y-174984627D02*
X193050137Y-175079865D01*
X193050137Y-175079865D02*
X193002518Y-175127484D01*
X193002518Y-175127484D02*
X192907280Y-175175103D01*
X192907280Y-175175103D02*
X192716804Y-175175103D01*
X192716804Y-175175103D02*
X192621566Y-175222722D01*
X192621566Y-175222722D02*
X192573947Y-175270341D01*
X192573947Y-175270341D02*
X192526328Y-175365579D01*
X192526328Y-175365579D02*
X192526328Y-175556055D01*
X192526328Y-175556055D02*
X192573947Y-175651293D01*
X192573947Y-175651293D02*
X192621566Y-175698913D01*
X192621566Y-175698913D02*
X192716804Y-175746532D01*
X192716804Y-175746532D02*
X192907280Y-175746532D01*
X192907280Y-175746532D02*
X193002518Y-175698913D01*
X193002518Y-175698913D02*
X193050137Y-175651293D01*
X193050137Y-175651293D02*
X193097756Y-175556055D01*
X193097756Y-175556055D02*
X193097756Y-175365579D01*
X193097756Y-175365579D02*
X193050137Y-175270341D01*
X193050137Y-175270341D02*
X193002518Y-175222722D01*
X193002518Y-175222722D02*
X192907280Y-175175103D01*
X210573947Y-156698913D02*
X210716804Y-156746532D01*
X210716804Y-156746532D02*
X210954899Y-156746532D01*
X210954899Y-156746532D02*
X211050137Y-156698913D01*
X211050137Y-156698913D02*
X211097756Y-156651293D01*
X211097756Y-156651293D02*
X211145375Y-156556055D01*
X211145375Y-156556055D02*
X211145375Y-156460817D01*
X211145375Y-156460817D02*
X211097756Y-156365579D01*
X211097756Y-156365579D02*
X211050137Y-156317960D01*
X211050137Y-156317960D02*
X210954899Y-156270341D01*
X210954899Y-156270341D02*
X210764423Y-156222722D01*
X210764423Y-156222722D02*
X210669185Y-156175103D01*
X210669185Y-156175103D02*
X210621566Y-156127484D01*
X210621566Y-156127484D02*
X210573947Y-156032246D01*
X210573947Y-156032246D02*
X210573947Y-155937008D01*
X210573947Y-155937008D02*
X210621566Y-155841770D01*
X210621566Y-155841770D02*
X210669185Y-155794151D01*
X210669185Y-155794151D02*
X210764423Y-155746532D01*
X210764423Y-155746532D02*
X211002518Y-155746532D01*
X211002518Y-155746532D02*
X211145375Y-155794151D01*
X211478709Y-155746532D02*
X212097756Y-155746532D01*
X212097756Y-155746532D02*
X211764423Y-156127484D01*
X211764423Y-156127484D02*
X211907280Y-156127484D01*
X211907280Y-156127484D02*
X212002518Y-156175103D01*
X212002518Y-156175103D02*
X212050137Y-156222722D01*
X212050137Y-156222722D02*
X212097756Y-156317960D01*
X212097756Y-156317960D02*
X212097756Y-156556055D01*
X212097756Y-156556055D02*
X212050137Y-156651293D01*
X212050137Y-156651293D02*
X212002518Y-156698913D01*
X212002518Y-156698913D02*
X211907280Y-156746532D01*
X211907280Y-156746532D02*
X211621566Y-156746532D01*
X211621566Y-156746532D02*
X211526328Y-156698913D01*
X211526328Y-156698913D02*
X211478709Y-156651293D01*
X115097757Y-147698913D02*
X115240614Y-147746532D01*
X115240614Y-147746532D02*
X115478709Y-147746532D01*
X115478709Y-147746532D02*
X115573947Y-147698913D01*
X115573947Y-147698913D02*
X115621566Y-147651293D01*
X115621566Y-147651293D02*
X115669185Y-147556055D01*
X115669185Y-147556055D02*
X115669185Y-147460817D01*
X115669185Y-147460817D02*
X115621566Y-147365579D01*
X115621566Y-147365579D02*
X115573947Y-147317960D01*
X115573947Y-147317960D02*
X115478709Y-147270341D01*
X115478709Y-147270341D02*
X115288233Y-147222722D01*
X115288233Y-147222722D02*
X115192995Y-147175103D01*
X115192995Y-147175103D02*
X115145376Y-147127484D01*
X115145376Y-147127484D02*
X115097757Y-147032246D01*
X115097757Y-147032246D02*
X115097757Y-146937008D01*
X115097757Y-146937008D02*
X115145376Y-146841770D01*
X115145376Y-146841770D02*
X115192995Y-146794151D01*
X115192995Y-146794151D02*
X115288233Y-146746532D01*
X115288233Y-146746532D02*
X115526328Y-146746532D01*
X115526328Y-146746532D02*
X115669185Y-146794151D01*
X116050138Y-146841770D02*
X116097757Y-146794151D01*
X116097757Y-146794151D02*
X116192995Y-146746532D01*
X116192995Y-146746532D02*
X116431090Y-146746532D01*
X116431090Y-146746532D02*
X116526328Y-146794151D01*
X116526328Y-146794151D02*
X116573947Y-146841770D01*
X116573947Y-146841770D02*
X116621566Y-146937008D01*
X116621566Y-146937008D02*
X116621566Y-147032246D01*
X116621566Y-147032246D02*
X116573947Y-147175103D01*
X116573947Y-147175103D02*
X116002519Y-147746532D01*
X116002519Y-147746532D02*
X116621566Y-147746532D01*
X117478709Y-146746532D02*
X117288233Y-146746532D01*
X117288233Y-146746532D02*
X117192995Y-146794151D01*
X117192995Y-146794151D02*
X117145376Y-146841770D01*
X117145376Y-146841770D02*
X117050138Y-146984627D01*
X117050138Y-146984627D02*
X117002519Y-147175103D01*
X117002519Y-147175103D02*
X117002519Y-147556055D01*
X117002519Y-147556055D02*
X117050138Y-147651293D01*
X117050138Y-147651293D02*
X117097757Y-147698913D01*
X117097757Y-147698913D02*
X117192995Y-147746532D01*
X117192995Y-147746532D02*
X117383471Y-147746532D01*
X117383471Y-147746532D02*
X117478709Y-147698913D01*
X117478709Y-147698913D02*
X117526328Y-147651293D01*
X117526328Y-147651293D02*
X117573947Y-147556055D01*
X117573947Y-147556055D02*
X117573947Y-147317960D01*
X117573947Y-147317960D02*
X117526328Y-147222722D01*
X117526328Y-147222722D02*
X117478709Y-147175103D01*
X117478709Y-147175103D02*
X117383471Y-147127484D01*
X117383471Y-147127484D02*
X117192995Y-147127484D01*
X117192995Y-147127484D02*
X117097757Y-147175103D01*
X117097757Y-147175103D02*
X117050138Y-147222722D01*
X117050138Y-147222722D02*
X117002519Y-147317960D01*
X153097757Y-154698913D02*
X153240614Y-154746532D01*
X153240614Y-154746532D02*
X153478709Y-154746532D01*
X153478709Y-154746532D02*
X153573947Y-154698913D01*
X153573947Y-154698913D02*
X153621566Y-154651293D01*
X153621566Y-154651293D02*
X153669185Y-154556055D01*
X153669185Y-154556055D02*
X153669185Y-154460817D01*
X153669185Y-154460817D02*
X153621566Y-154365579D01*
X153621566Y-154365579D02*
X153573947Y-154317960D01*
X153573947Y-154317960D02*
X153478709Y-154270341D01*
X153478709Y-154270341D02*
X153288233Y-154222722D01*
X153288233Y-154222722D02*
X153192995Y-154175103D01*
X153192995Y-154175103D02*
X153145376Y-154127484D01*
X153145376Y-154127484D02*
X153097757Y-154032246D01*
X153097757Y-154032246D02*
X153097757Y-153937008D01*
X153097757Y-153937008D02*
X153145376Y-153841770D01*
X153145376Y-153841770D02*
X153192995Y-153794151D01*
X153192995Y-153794151D02*
X153288233Y-153746532D01*
X153288233Y-153746532D02*
X153526328Y-153746532D01*
X153526328Y-153746532D02*
X153669185Y-153794151D01*
X154621566Y-154746532D02*
X154050138Y-154746532D01*
X154335852Y-154746532D02*
X154335852Y-153746532D01*
X154335852Y-153746532D02*
X154240614Y-153889389D01*
X154240614Y-153889389D02*
X154145376Y-153984627D01*
X154145376Y-153984627D02*
X154050138Y-154032246D01*
X154954900Y-153746532D02*
X155621566Y-153746532D01*
X155621566Y-153746532D02*
X155192995Y-154746532D01*
X186954819Y-138288094D02*
X185954819Y-138288094D01*
X185954819Y-138288094D02*
X185954819Y-138049999D01*
X185954819Y-138049999D02*
X186002438Y-137907142D01*
X186002438Y-137907142D02*
X186097676Y-137811904D01*
X186097676Y-137811904D02*
X186192914Y-137764285D01*
X186192914Y-137764285D02*
X186383390Y-137716666D01*
X186383390Y-137716666D02*
X186526247Y-137716666D01*
X186526247Y-137716666D02*
X186716723Y-137764285D01*
X186716723Y-137764285D02*
X186811961Y-137811904D01*
X186811961Y-137811904D02*
X186907200Y-137907142D01*
X186907200Y-137907142D02*
X186954819Y-138049999D01*
X186954819Y-138049999D02*
X186954819Y-138288094D01*
X185954819Y-136859523D02*
X185954819Y-137049999D01*
X185954819Y-137049999D02*
X186002438Y-137145237D01*
X186002438Y-137145237D02*
X186050057Y-137192856D01*
X186050057Y-137192856D02*
X186192914Y-137288094D01*
X186192914Y-137288094D02*
X186383390Y-137335713D01*
X186383390Y-137335713D02*
X186764342Y-137335713D01*
X186764342Y-137335713D02*
X186859580Y-137288094D01*
X186859580Y-137288094D02*
X186907200Y-137240475D01*
X186907200Y-137240475D02*
X186954819Y-137145237D01*
X186954819Y-137145237D02*
X186954819Y-136954761D01*
X186954819Y-136954761D02*
X186907200Y-136859523D01*
X186907200Y-136859523D02*
X186859580Y-136811904D01*
X186859580Y-136811904D02*
X186764342Y-136764285D01*
X186764342Y-136764285D02*
X186526247Y-136764285D01*
X186526247Y-136764285D02*
X186431009Y-136811904D01*
X186431009Y-136811904D02*
X186383390Y-136859523D01*
X186383390Y-136859523D02*
X186335771Y-136954761D01*
X186335771Y-136954761D02*
X186335771Y-137145237D01*
X186335771Y-137145237D02*
X186383390Y-137240475D01*
X186383390Y-137240475D02*
X186431009Y-137288094D01*
X186431009Y-137288094D02*
X186526247Y-137335713D01*
X167954819Y-131714285D02*
X166954819Y-131714285D01*
X166954819Y-131714285D02*
X166954819Y-131476190D01*
X166954819Y-131476190D02*
X167002438Y-131333333D01*
X167002438Y-131333333D02*
X167097676Y-131238095D01*
X167097676Y-131238095D02*
X167192914Y-131190476D01*
X167192914Y-131190476D02*
X167383390Y-131142857D01*
X167383390Y-131142857D02*
X167526247Y-131142857D01*
X167526247Y-131142857D02*
X167716723Y-131190476D01*
X167716723Y-131190476D02*
X167811961Y-131238095D01*
X167811961Y-131238095D02*
X167907200Y-131333333D01*
X167907200Y-131333333D02*
X167954819Y-131476190D01*
X167954819Y-131476190D02*
X167954819Y-131714285D01*
X167954819Y-130190476D02*
X167954819Y-130761904D01*
X167954819Y-130476190D02*
X166954819Y-130476190D01*
X166954819Y-130476190D02*
X167097676Y-130571428D01*
X167097676Y-130571428D02*
X167192914Y-130666666D01*
X167192914Y-130666666D02*
X167240533Y-130761904D01*
X167954819Y-129238095D02*
X167954819Y-129809523D01*
X167954819Y-129523809D02*
X166954819Y-129523809D01*
X166954819Y-129523809D02*
X167097676Y-129619047D01*
X167097676Y-129619047D02*
X167192914Y-129714285D01*
X167192914Y-129714285D02*
X167240533Y-129809523D01*
X186954819Y-176238094D02*
X185954819Y-176238094D01*
X185954819Y-176238094D02*
X185954819Y-175999999D01*
X185954819Y-175999999D02*
X186002438Y-175857142D01*
X186002438Y-175857142D02*
X186097676Y-175761904D01*
X186097676Y-175761904D02*
X186192914Y-175714285D01*
X186192914Y-175714285D02*
X186383390Y-175666666D01*
X186383390Y-175666666D02*
X186526247Y-175666666D01*
X186526247Y-175666666D02*
X186716723Y-175714285D01*
X186716723Y-175714285D02*
X186811961Y-175761904D01*
X186811961Y-175761904D02*
X186907200Y-175857142D01*
X186907200Y-175857142D02*
X186954819Y-175999999D01*
X186954819Y-175999999D02*
X186954819Y-176238094D01*
X186383390Y-175095237D02*
X186335771Y-175190475D01*
X186335771Y-175190475D02*
X186288152Y-175238094D01*
X186288152Y-175238094D02*
X186192914Y-175285713D01*
X186192914Y-175285713D02*
X186145295Y-175285713D01*
X186145295Y-175285713D02*
X186050057Y-175238094D01*
X186050057Y-175238094D02*
X186002438Y-175190475D01*
X186002438Y-175190475D02*
X185954819Y-175095237D01*
X185954819Y-175095237D02*
X185954819Y-174904761D01*
X185954819Y-174904761D02*
X186002438Y-174809523D01*
X186002438Y-174809523D02*
X186050057Y-174761904D01*
X186050057Y-174761904D02*
X186145295Y-174714285D01*
X186145295Y-174714285D02*
X186192914Y-174714285D01*
X186192914Y-174714285D02*
X186288152Y-174761904D01*
X186288152Y-174761904D02*
X186335771Y-174809523D01*
X186335771Y-174809523D02*
X186383390Y-174904761D01*
X186383390Y-174904761D02*
X186383390Y-175095237D01*
X186383390Y-175095237D02*
X186431009Y-175190475D01*
X186431009Y-175190475D02*
X186478628Y-175238094D01*
X186478628Y-175238094D02*
X186573866Y-175285713D01*
X186573866Y-175285713D02*
X186764342Y-175285713D01*
X186764342Y-175285713D02*
X186859580Y-175238094D01*
X186859580Y-175238094D02*
X186907200Y-175190475D01*
X186907200Y-175190475D02*
X186954819Y-175095237D01*
X186954819Y-175095237D02*
X186954819Y-174904761D01*
X186954819Y-174904761D02*
X186907200Y-174809523D01*
X186907200Y-174809523D02*
X186859580Y-174761904D01*
X186859580Y-174761904D02*
X186764342Y-174714285D01*
X186764342Y-174714285D02*
X186573866Y-174714285D01*
X186573866Y-174714285D02*
X186478628Y-174761904D01*
X186478628Y-174761904D02*
X186431009Y-174809523D01*
X186431009Y-174809523D02*
X186383390Y-174904761D01*
X153097757Y-135698913D02*
X153240614Y-135746532D01*
X153240614Y-135746532D02*
X153478709Y-135746532D01*
X153478709Y-135746532D02*
X153573947Y-135698913D01*
X153573947Y-135698913D02*
X153621566Y-135651293D01*
X153621566Y-135651293D02*
X153669185Y-135556055D01*
X153669185Y-135556055D02*
X153669185Y-135460817D01*
X153669185Y-135460817D02*
X153621566Y-135365579D01*
X153621566Y-135365579D02*
X153573947Y-135317960D01*
X153573947Y-135317960D02*
X153478709Y-135270341D01*
X153478709Y-135270341D02*
X153288233Y-135222722D01*
X153288233Y-135222722D02*
X153192995Y-135175103D01*
X153192995Y-135175103D02*
X153145376Y-135127484D01*
X153145376Y-135127484D02*
X153097757Y-135032246D01*
X153097757Y-135032246D02*
X153097757Y-134937008D01*
X153097757Y-134937008D02*
X153145376Y-134841770D01*
X153145376Y-134841770D02*
X153192995Y-134794151D01*
X153192995Y-134794151D02*
X153288233Y-134746532D01*
X153288233Y-134746532D02*
X153526328Y-134746532D01*
X153526328Y-134746532D02*
X153669185Y-134794151D01*
X154621566Y-135746532D02*
X154050138Y-135746532D01*
X154335852Y-135746532D02*
X154335852Y-134746532D01*
X154335852Y-134746532D02*
X154240614Y-134889389D01*
X154240614Y-134889389D02*
X154145376Y-134984627D01*
X154145376Y-134984627D02*
X154050138Y-135032246D01*
X155478709Y-134746532D02*
X155288233Y-134746532D01*
X155288233Y-134746532D02*
X155192995Y-134794151D01*
X155192995Y-134794151D02*
X155145376Y-134841770D01*
X155145376Y-134841770D02*
X155050138Y-134984627D01*
X155050138Y-134984627D02*
X155002519Y-135175103D01*
X155002519Y-135175103D02*
X155002519Y-135556055D01*
X155002519Y-135556055D02*
X155050138Y-135651293D01*
X155050138Y-135651293D02*
X155097757Y-135698913D01*
X155097757Y-135698913D02*
X155192995Y-135746532D01*
X155192995Y-135746532D02*
X155383471Y-135746532D01*
X155383471Y-135746532D02*
X155478709Y-135698913D01*
X155478709Y-135698913D02*
X155526328Y-135651293D01*
X155526328Y-135651293D02*
X155573947Y-135556055D01*
X155573947Y-135556055D02*
X155573947Y-135317960D01*
X155573947Y-135317960D02*
X155526328Y-135222722D01*
X155526328Y-135222722D02*
X155478709Y-135175103D01*
X155478709Y-135175103D02*
X155383471Y-135127484D01*
X155383471Y-135127484D02*
X155192995Y-135127484D01*
X155192995Y-135127484D02*
X155097757Y-135175103D01*
X155097757Y-135175103D02*
X155050138Y-135222722D01*
X155050138Y-135222722D02*
X155002519Y-135317960D01*
X173654819Y-196614285D02*
X172654819Y-196614285D01*
X172654819Y-196614285D02*
X172654819Y-196376190D01*
X172654819Y-196376190D02*
X172702438Y-196233333D01*
X172702438Y-196233333D02*
X172797676Y-196138095D01*
X172797676Y-196138095D02*
X172892914Y-196090476D01*
X172892914Y-196090476D02*
X173083390Y-196042857D01*
X173083390Y-196042857D02*
X173226247Y-196042857D01*
X173226247Y-196042857D02*
X173416723Y-196090476D01*
X173416723Y-196090476D02*
X173511961Y-196138095D01*
X173511961Y-196138095D02*
X173607200Y-196233333D01*
X173607200Y-196233333D02*
X173654819Y-196376190D01*
X173654819Y-196376190D02*
X173654819Y-196614285D01*
X172750057Y-195661904D02*
X172702438Y-195614285D01*
X172702438Y-195614285D02*
X172654819Y-195519047D01*
X172654819Y-195519047D02*
X172654819Y-195280952D01*
X172654819Y-195280952D02*
X172702438Y-195185714D01*
X172702438Y-195185714D02*
X172750057Y-195138095D01*
X172750057Y-195138095D02*
X172845295Y-195090476D01*
X172845295Y-195090476D02*
X172940533Y-195090476D01*
X172940533Y-195090476D02*
X173083390Y-195138095D01*
X173083390Y-195138095D02*
X173654819Y-195709523D01*
X173654819Y-195709523D02*
X173654819Y-195090476D01*
X172988152Y-194233333D02*
X173654819Y-194233333D01*
X172607200Y-194471428D02*
X173321485Y-194709523D01*
X173321485Y-194709523D02*
X173321485Y-194090476D01*
X129854819Y-167614285D02*
X128854819Y-167614285D01*
X128854819Y-167614285D02*
X128854819Y-167376190D01*
X128854819Y-167376190D02*
X128902438Y-167233333D01*
X128902438Y-167233333D02*
X128997676Y-167138095D01*
X128997676Y-167138095D02*
X129092914Y-167090476D01*
X129092914Y-167090476D02*
X129283390Y-167042857D01*
X129283390Y-167042857D02*
X129426247Y-167042857D01*
X129426247Y-167042857D02*
X129616723Y-167090476D01*
X129616723Y-167090476D02*
X129711961Y-167138095D01*
X129711961Y-167138095D02*
X129807200Y-167233333D01*
X129807200Y-167233333D02*
X129854819Y-167376190D01*
X129854819Y-167376190D02*
X129854819Y-167614285D01*
X128950057Y-166661904D02*
X128902438Y-166614285D01*
X128902438Y-166614285D02*
X128854819Y-166519047D01*
X128854819Y-166519047D02*
X128854819Y-166280952D01*
X128854819Y-166280952D02*
X128902438Y-166185714D01*
X128902438Y-166185714D02*
X128950057Y-166138095D01*
X128950057Y-166138095D02*
X129045295Y-166090476D01*
X129045295Y-166090476D02*
X129140533Y-166090476D01*
X129140533Y-166090476D02*
X129283390Y-166138095D01*
X129283390Y-166138095D02*
X129854819Y-166709523D01*
X129854819Y-166709523D02*
X129854819Y-166090476D01*
X128950057Y-165709523D02*
X128902438Y-165661904D01*
X128902438Y-165661904D02*
X128854819Y-165566666D01*
X128854819Y-165566666D02*
X128854819Y-165328571D01*
X128854819Y-165328571D02*
X128902438Y-165233333D01*
X128902438Y-165233333D02*
X128950057Y-165185714D01*
X128950057Y-165185714D02*
X129045295Y-165138095D01*
X129045295Y-165138095D02*
X129140533Y-165138095D01*
X129140533Y-165138095D02*
X129283390Y-165185714D01*
X129283390Y-165185714D02*
X129854819Y-165757142D01*
X129854819Y-165757142D02*
X129854819Y-165138095D01*
X153031905Y-174097200D02*
X153174762Y-174144819D01*
X153174762Y-174144819D02*
X153412857Y-174144819D01*
X153412857Y-174144819D02*
X153508095Y-174097200D01*
X153508095Y-174097200D02*
X153555714Y-174049580D01*
X153555714Y-174049580D02*
X153603333Y-173954342D01*
X153603333Y-173954342D02*
X153603333Y-173859104D01*
X153603333Y-173859104D02*
X153555714Y-173763866D01*
X153555714Y-173763866D02*
X153508095Y-173716247D01*
X153508095Y-173716247D02*
X153412857Y-173668628D01*
X153412857Y-173668628D02*
X153222381Y-173621009D01*
X153222381Y-173621009D02*
X153127143Y-173573390D01*
X153127143Y-173573390D02*
X153079524Y-173525771D01*
X153079524Y-173525771D02*
X153031905Y-173430533D01*
X153031905Y-173430533D02*
X153031905Y-173335295D01*
X153031905Y-173335295D02*
X153079524Y-173240057D01*
X153079524Y-173240057D02*
X153127143Y-173192438D01*
X153127143Y-173192438D02*
X153222381Y-173144819D01*
X153222381Y-173144819D02*
X153460476Y-173144819D01*
X153460476Y-173144819D02*
X153603333Y-173192438D01*
X154555714Y-174144819D02*
X153984286Y-174144819D01*
X154270000Y-174144819D02*
X154270000Y-173144819D01*
X154270000Y-173144819D02*
X154174762Y-173287676D01*
X154174762Y-173287676D02*
X154079524Y-173382914D01*
X154079524Y-173382914D02*
X153984286Y-173430533D01*
X155127143Y-173573390D02*
X155031905Y-173525771D01*
X155031905Y-173525771D02*
X154984286Y-173478152D01*
X154984286Y-173478152D02*
X154936667Y-173382914D01*
X154936667Y-173382914D02*
X154936667Y-173335295D01*
X154936667Y-173335295D02*
X154984286Y-173240057D01*
X154984286Y-173240057D02*
X155031905Y-173192438D01*
X155031905Y-173192438D02*
X155127143Y-173144819D01*
X155127143Y-173144819D02*
X155317619Y-173144819D01*
X155317619Y-173144819D02*
X155412857Y-173192438D01*
X155412857Y-173192438D02*
X155460476Y-173240057D01*
X155460476Y-173240057D02*
X155508095Y-173335295D01*
X155508095Y-173335295D02*
X155508095Y-173382914D01*
X155508095Y-173382914D02*
X155460476Y-173478152D01*
X155460476Y-173478152D02*
X155412857Y-173525771D01*
X155412857Y-173525771D02*
X155317619Y-173573390D01*
X155317619Y-173573390D02*
X155127143Y-173573390D01*
X155127143Y-173573390D02*
X155031905Y-173621009D01*
X155031905Y-173621009D02*
X154984286Y-173668628D01*
X154984286Y-173668628D02*
X154936667Y-173763866D01*
X154936667Y-173763866D02*
X154936667Y-173954342D01*
X154936667Y-173954342D02*
X154984286Y-174049580D01*
X154984286Y-174049580D02*
X155031905Y-174097200D01*
X155031905Y-174097200D02*
X155127143Y-174144819D01*
X155127143Y-174144819D02*
X155317619Y-174144819D01*
X155317619Y-174144819D02*
X155412857Y-174097200D01*
X155412857Y-174097200D02*
X155460476Y-174049580D01*
X155460476Y-174049580D02*
X155508095Y-173954342D01*
X155508095Y-173954342D02*
X155508095Y-173763866D01*
X155508095Y-173763866D02*
X155460476Y-173668628D01*
X155460476Y-173668628D02*
X155412857Y-173621009D01*
X155412857Y-173621009D02*
X155317619Y-173573390D01*
X156897757Y-195598913D02*
X157040614Y-195646532D01*
X157040614Y-195646532D02*
X157278709Y-195646532D01*
X157278709Y-195646532D02*
X157373947Y-195598913D01*
X157373947Y-195598913D02*
X157421566Y-195551293D01*
X157421566Y-195551293D02*
X157469185Y-195456055D01*
X157469185Y-195456055D02*
X157469185Y-195360817D01*
X157469185Y-195360817D02*
X157421566Y-195265579D01*
X157421566Y-195265579D02*
X157373947Y-195217960D01*
X157373947Y-195217960D02*
X157278709Y-195170341D01*
X157278709Y-195170341D02*
X157088233Y-195122722D01*
X157088233Y-195122722D02*
X156992995Y-195075103D01*
X156992995Y-195075103D02*
X156945376Y-195027484D01*
X156945376Y-195027484D02*
X156897757Y-194932246D01*
X156897757Y-194932246D02*
X156897757Y-194837008D01*
X156897757Y-194837008D02*
X156945376Y-194741770D01*
X156945376Y-194741770D02*
X156992995Y-194694151D01*
X156992995Y-194694151D02*
X157088233Y-194646532D01*
X157088233Y-194646532D02*
X157326328Y-194646532D01*
X157326328Y-194646532D02*
X157469185Y-194694151D01*
X157850138Y-194741770D02*
X157897757Y-194694151D01*
X157897757Y-194694151D02*
X157992995Y-194646532D01*
X157992995Y-194646532D02*
X158231090Y-194646532D01*
X158231090Y-194646532D02*
X158326328Y-194694151D01*
X158326328Y-194694151D02*
X158373947Y-194741770D01*
X158373947Y-194741770D02*
X158421566Y-194837008D01*
X158421566Y-194837008D02*
X158421566Y-194932246D01*
X158421566Y-194932246D02*
X158373947Y-195075103D01*
X158373947Y-195075103D02*
X157802519Y-195646532D01*
X157802519Y-195646532D02*
X158421566Y-195646532D01*
X158897757Y-195646532D02*
X159088233Y-195646532D01*
X159088233Y-195646532D02*
X159183471Y-195598913D01*
X159183471Y-195598913D02*
X159231090Y-195551293D01*
X159231090Y-195551293D02*
X159326328Y-195408436D01*
X159326328Y-195408436D02*
X159373947Y-195217960D01*
X159373947Y-195217960D02*
X159373947Y-194837008D01*
X159373947Y-194837008D02*
X159326328Y-194741770D01*
X159326328Y-194741770D02*
X159278709Y-194694151D01*
X159278709Y-194694151D02*
X159183471Y-194646532D01*
X159183471Y-194646532D02*
X158992995Y-194646532D01*
X158992995Y-194646532D02*
X158897757Y-194694151D01*
X158897757Y-194694151D02*
X158850138Y-194741770D01*
X158850138Y-194741770D02*
X158802519Y-194837008D01*
X158802519Y-194837008D02*
X158802519Y-195075103D01*
X158802519Y-195075103D02*
X158850138Y-195170341D01*
X158850138Y-195170341D02*
X158897757Y-195217960D01*
X158897757Y-195217960D02*
X158992995Y-195265579D01*
X158992995Y-195265579D02*
X159183471Y-195265579D01*
X159183471Y-195265579D02*
X159278709Y-195217960D01*
X159278709Y-195217960D02*
X159326328Y-195170341D01*
X159326328Y-195170341D02*
X159373947Y-195075103D01*
X148964819Y-136894285D02*
X147964819Y-136894285D01*
X147964819Y-136894285D02*
X147964819Y-136656190D01*
X147964819Y-136656190D02*
X148012438Y-136513333D01*
X148012438Y-136513333D02*
X148107676Y-136418095D01*
X148107676Y-136418095D02*
X148202914Y-136370476D01*
X148202914Y-136370476D02*
X148393390Y-136322857D01*
X148393390Y-136322857D02*
X148536247Y-136322857D01*
X148536247Y-136322857D02*
X148726723Y-136370476D01*
X148726723Y-136370476D02*
X148821961Y-136418095D01*
X148821961Y-136418095D02*
X148917200Y-136513333D01*
X148917200Y-136513333D02*
X148964819Y-136656190D01*
X148964819Y-136656190D02*
X148964819Y-136894285D01*
X148964819Y-135370476D02*
X148964819Y-135941904D01*
X148964819Y-135656190D02*
X147964819Y-135656190D01*
X147964819Y-135656190D02*
X148107676Y-135751428D01*
X148107676Y-135751428D02*
X148202914Y-135846666D01*
X148202914Y-135846666D02*
X148250533Y-135941904D01*
X147964819Y-134513333D02*
X147964819Y-134703809D01*
X147964819Y-134703809D02*
X148012438Y-134799047D01*
X148012438Y-134799047D02*
X148060057Y-134846666D01*
X148060057Y-134846666D02*
X148202914Y-134941904D01*
X148202914Y-134941904D02*
X148393390Y-134989523D01*
X148393390Y-134989523D02*
X148774342Y-134989523D01*
X148774342Y-134989523D02*
X148869580Y-134941904D01*
X148869580Y-134941904D02*
X148917200Y-134894285D01*
X148917200Y-134894285D02*
X148964819Y-134799047D01*
X148964819Y-134799047D02*
X148964819Y-134608571D01*
X148964819Y-134608571D02*
X148917200Y-134513333D01*
X148917200Y-134513333D02*
X148869580Y-134465714D01*
X148869580Y-134465714D02*
X148774342Y-134418095D01*
X148774342Y-134418095D02*
X148536247Y-134418095D01*
X148536247Y-134418095D02*
X148441009Y-134465714D01*
X148441009Y-134465714D02*
X148393390Y-134513333D01*
X148393390Y-134513333D02*
X148345771Y-134608571D01*
X148345771Y-134608571D02*
X148345771Y-134799047D01*
X148345771Y-134799047D02*
X148393390Y-134894285D01*
X148393390Y-134894285D02*
X148441009Y-134941904D01*
X148441009Y-134941904D02*
X148536247Y-134989523D01*
%TO.C,RE1*%
D11*
X233769196Y-164111328D02*
X237869196Y-164111328D01*
X233769196Y-166511328D02*
X233769196Y-164111328D01*
X233769196Y-171311328D02*
X233769196Y-168711328D01*
X233769196Y-175911328D02*
X233769196Y-173511328D01*
X237869196Y-175911328D02*
X233769196Y-175911328D01*
X239869196Y-170511328D02*
X239869196Y-169511328D01*
X240369196Y-170011328D02*
X239369196Y-170011328D01*
X241869196Y-164111328D02*
X245969196Y-164111328D01*
X241869196Y-175911328D02*
X245969196Y-175911328D01*
X245969196Y-175911328D02*
X245969196Y-164111328D01*
X247069196Y-174111328D02*
X247369196Y-173811328D01*
X247369196Y-173811328D02*
X247669196Y-174111328D01*
X247669196Y-174111328D02*
X247069196Y-174111328D01*
X242869196Y-170011328D02*
G75*
G02*
X236869196Y-170011328I-3000000J0D01*
G01*
X236869196Y-170011328D02*
G75*
G02*
X242869196Y-170011328I3000000J0D01*
G01*
%TO.C,S10*%
D10*
X170780852Y-102386713D02*
X171780852Y-102386713D01*
X170780852Y-103186713D02*
X175280852Y-103186713D01*
X170780852Y-103386713D02*
X170780852Y-102386713D01*
X170780852Y-103786713D02*
X170780852Y-103186713D01*
X170780852Y-107886713D02*
X170780852Y-107386713D01*
X170780852Y-116386713D02*
X170780852Y-115386713D01*
X171780852Y-116386713D02*
X170780852Y-116386713D01*
X175280852Y-107186713D02*
X175280852Y-107886713D01*
X175280852Y-107886713D02*
X170780852Y-107886713D01*
X175780852Y-102686713D02*
X175780852Y-101686713D01*
X176280852Y-101186713D02*
X175780852Y-101686713D01*
X179280852Y-101186713D02*
X176280852Y-101186713D01*
X179280852Y-105686713D02*
X176780852Y-105686713D01*
X179780852Y-101686713D02*
X179280852Y-101186713D01*
X179780852Y-105186713D02*
X179280852Y-105686713D01*
X183780852Y-102386713D02*
X184780852Y-102386713D01*
X184780852Y-102386713D02*
X184780852Y-103386713D01*
X184780852Y-115386713D02*
X184780852Y-116386713D01*
X184780852Y-116386713D02*
X183780852Y-116386713D01*
X175280852Y-107186713D02*
G75*
G02*
X176780852Y-105686713I1500000J0D01*
G01*
X175780852Y-102686713D02*
G75*
G02*
X175280852Y-103186713I-500000J0D01*
G01*
%TO.C,S24*%
X176480852Y-186286713D02*
X177480852Y-186286713D01*
X176480852Y-187086713D02*
X180980852Y-187086713D01*
X176480852Y-187286713D02*
X176480852Y-186286713D01*
X176480852Y-187686713D02*
X176480852Y-187086713D01*
X176480852Y-191786713D02*
X176480852Y-191286713D01*
X176480852Y-200286713D02*
X176480852Y-199286713D01*
X177480852Y-200286713D02*
X176480852Y-200286713D01*
X180980852Y-191086713D02*
X180980852Y-191786713D01*
X180980852Y-191786713D02*
X176480852Y-191786713D01*
X181480852Y-186586713D02*
X181480852Y-185586713D01*
X181980852Y-185086713D02*
X181480852Y-185586713D01*
X184980852Y-185086713D02*
X181980852Y-185086713D01*
X184980852Y-189586713D02*
X182480852Y-189586713D01*
X185480852Y-185586713D02*
X184980852Y-185086713D01*
X185480852Y-189086713D02*
X184980852Y-189586713D01*
X189480852Y-186286713D02*
X190480852Y-186286713D01*
X190480852Y-186286713D02*
X190480852Y-187286713D01*
X190480852Y-199286713D02*
X190480852Y-200286713D01*
X190480852Y-200286713D02*
X189480852Y-200286713D01*
X180980852Y-191086713D02*
G75*
G02*
X182480852Y-189586713I1500000J0D01*
G01*
X181480852Y-186586713D02*
G75*
G02*
X180980852Y-187086713I-500000J0D01*
G01*
%TO.C,D2*%
D11*
X206500000Y-139860000D02*
X206500000Y-135850000D01*
X206500000Y-139860000D02*
X208500000Y-139860000D01*
X208500000Y-139860000D02*
X208500000Y-135850000D01*
%TO.C,S11*%
D10*
X170780852Y-121386713D02*
X171780852Y-121386713D01*
X170780852Y-122186713D02*
X175280852Y-122186713D01*
X170780852Y-122386713D02*
X170780852Y-121386713D01*
X170780852Y-122786713D02*
X170780852Y-122186713D01*
X170780852Y-126886713D02*
X170780852Y-126386713D01*
X170780852Y-135386713D02*
X170780852Y-134386713D01*
X171780852Y-135386713D02*
X170780852Y-135386713D01*
X175280852Y-126186713D02*
X175280852Y-126886713D01*
X175280852Y-126886713D02*
X170780852Y-126886713D01*
X175780852Y-121686713D02*
X175780852Y-120686713D01*
X176280852Y-120186713D02*
X175780852Y-120686713D01*
X179280852Y-120186713D02*
X176280852Y-120186713D01*
X179280852Y-124686713D02*
X176780852Y-124686713D01*
X179780852Y-120686713D02*
X179280852Y-120186713D01*
X179780852Y-124186713D02*
X179280852Y-124686713D01*
X183780852Y-121386713D02*
X184780852Y-121386713D01*
X184780852Y-121386713D02*
X184780852Y-122386713D01*
X184780852Y-134386713D02*
X184780852Y-135386713D01*
X184780852Y-135386713D02*
X183780852Y-135386713D01*
X175280852Y-126186713D02*
G75*
G02*
X176780852Y-124686713I1500000J0D01*
G01*
X175780852Y-121686713D02*
G75*
G02*
X175280852Y-122186713I-500000J0D01*
G01*
%TO.C,S9*%
X233946304Y-212292185D02*
X234446306Y-211426159D01*
X234812330Y-212792185D02*
X233946304Y-212292185D01*
X238196304Y-204930969D02*
X238446304Y-204497956D01*
X240246304Y-201380265D02*
X240546304Y-200860649D01*
X240446304Y-201033855D02*
X240946304Y-200167829D01*
X240546304Y-200860649D02*
X244443418Y-203110649D01*
X240946304Y-200167829D02*
X241812330Y-200667831D01*
X242093418Y-207180969D02*
X238196304Y-204930969D01*
X242443418Y-206574751D02*
X242093418Y-207180969D01*
X245126431Y-202927637D02*
X245626431Y-202061611D01*
X246070660Y-219292185D02*
X245204634Y-218792183D01*
X246309443Y-201878599D02*
X245626431Y-202061611D01*
X246570660Y-218426159D02*
X246070660Y-219292185D01*
X246657520Y-207275713D02*
X244492457Y-206025713D01*
X247340533Y-207092702D02*
X246657520Y-207275713D01*
X248907520Y-203378599D02*
X246309443Y-201878599D01*
X249090533Y-204061611D02*
X248907520Y-203378599D01*
X252204634Y-206667829D02*
X253070660Y-207167829D01*
X253070660Y-207167829D02*
X252570658Y-208033855D01*
X242443418Y-206574751D02*
G75*
G02*
X244492457Y-206025712I1299039J-750000D01*
G01*
X245126431Y-202927637D02*
G75*
G02*
X244443418Y-203110650I-433013J250000D01*
G01*
%TO.C,JP5*%
D11*
X239800000Y-141720000D02*
X241800000Y-141720000D01*
X239800000Y-144520000D02*
X239800000Y-141720000D01*
X241800000Y-141720000D02*
X241800000Y-144520000D01*
X241800000Y-144520000D02*
X239800000Y-144520000D01*
%TO.C,D19*%
X194369004Y-198168757D02*
X195065333Y-194219678D01*
X194369004Y-198168757D02*
X196338619Y-198516053D01*
X196338619Y-198516053D02*
X197034948Y-194566974D01*
%TO.C,D21*%
X130400000Y-149760000D02*
X130400000Y-145750000D01*
X130400000Y-149760000D02*
X132400000Y-149760000D01*
X132400000Y-149760000D02*
X132400000Y-145750000D01*
%TO.C,S5*%
D10*
X189780852Y-109386713D02*
X190780852Y-109386713D01*
X189780852Y-110186713D02*
X194280852Y-110186713D01*
X189780852Y-110386713D02*
X189780852Y-109386713D01*
X189780852Y-110786713D02*
X189780852Y-110186713D01*
X189780852Y-114886713D02*
X189780852Y-114386713D01*
X189780852Y-123386713D02*
X189780852Y-122386713D01*
X190780852Y-123386713D02*
X189780852Y-123386713D01*
X194280852Y-114186713D02*
X194280852Y-114886713D01*
X194280852Y-114886713D02*
X189780852Y-114886713D01*
X194780852Y-109686713D02*
X194780852Y-108686713D01*
X195280852Y-108186713D02*
X194780852Y-108686713D01*
X198280852Y-108186713D02*
X195280852Y-108186713D01*
X198280852Y-112686713D02*
X195780852Y-112686713D01*
X198780852Y-108686713D02*
X198280852Y-108186713D01*
X198780852Y-112186713D02*
X198280852Y-112686713D01*
X202780852Y-109386713D02*
X203780852Y-109386713D01*
X203780852Y-109386713D02*
X203780852Y-110386713D01*
X203780852Y-122386713D02*
X203780852Y-123386713D01*
X203780852Y-123386713D02*
X202780852Y-123386713D01*
X194280852Y-114186713D02*
G75*
G02*
X195780852Y-112686713I1500000J0D01*
G01*
X194780852Y-109686713D02*
G75*
G02*
X194280852Y-110186713I-500000J0D01*
G01*
%TO.C,JP23*%
D11*
X242600000Y-104100000D02*
X245400000Y-104100000D01*
X242600000Y-106100000D02*
X242600000Y-104100000D01*
X245400000Y-104100000D02*
X245400000Y-106100000D01*
X245400000Y-106100000D02*
X242600000Y-106100000D01*
%TO.C,S25*%
D10*
X113780852Y-119386713D02*
X114780852Y-119386713D01*
X113780852Y-120186713D02*
X118280852Y-120186713D01*
X113780852Y-120386713D02*
X113780852Y-119386713D01*
X113780852Y-120786713D02*
X113780852Y-120186713D01*
X113780852Y-124886713D02*
X113780852Y-124386713D01*
X113780852Y-133386713D02*
X113780852Y-132386713D01*
X114780852Y-133386713D02*
X113780852Y-133386713D01*
X118280852Y-124186713D02*
X118280852Y-124886713D01*
X118280852Y-124886713D02*
X113780852Y-124886713D01*
X118780852Y-119686713D02*
X118780852Y-118686713D01*
X119280852Y-118186713D02*
X118780852Y-118686713D01*
X122280852Y-118186713D02*
X119280852Y-118186713D01*
X122280852Y-122686713D02*
X119780852Y-122686713D01*
X122780852Y-118686713D02*
X122280852Y-118186713D01*
X122780852Y-122186713D02*
X122280852Y-122686713D01*
X126780852Y-119386713D02*
X127780852Y-119386713D01*
X127780852Y-119386713D02*
X127780852Y-120386713D01*
X127780852Y-132386713D02*
X127780852Y-133386713D01*
X127780852Y-133386713D02*
X126780852Y-133386713D01*
X118280852Y-124186713D02*
G75*
G02*
X119780852Y-122686713I1500000J0D01*
G01*
X118780852Y-119686713D02*
G75*
G02*
X118280852Y-120186713I-500000J0D01*
G01*
%TO.C,S2*%
X208780852Y-128386713D02*
X209780852Y-128386713D01*
X208780852Y-129186713D02*
X213280852Y-129186713D01*
X208780852Y-129386713D02*
X208780852Y-128386713D01*
X208780852Y-129786713D02*
X208780852Y-129186713D01*
X208780852Y-133886713D02*
X208780852Y-133386713D01*
X208780852Y-142386713D02*
X208780852Y-141386713D01*
X209780852Y-142386713D02*
X208780852Y-142386713D01*
X213280852Y-133186713D02*
X213280852Y-133886713D01*
X213280852Y-133886713D02*
X208780852Y-133886713D01*
X213780852Y-128686713D02*
X213780852Y-127686713D01*
X214280852Y-127186713D02*
X213780852Y-127686713D01*
X217280852Y-127186713D02*
X214280852Y-127186713D01*
X217280852Y-131686713D02*
X214780852Y-131686713D01*
X217780852Y-127686713D02*
X217280852Y-127186713D01*
X217780852Y-131186713D02*
X217280852Y-131686713D01*
X221780852Y-128386713D02*
X222780852Y-128386713D01*
X222780852Y-128386713D02*
X222780852Y-129386713D01*
X222780852Y-141386713D02*
X222780852Y-142386713D01*
X222780852Y-142386713D02*
X221780852Y-142386713D01*
X213280852Y-133186713D02*
G75*
G02*
X214780852Y-131686713I1500000J0D01*
G01*
X213780852Y-128686713D02*
G75*
G02*
X213280852Y-129186713I-500000J0D01*
G01*
%TO.C,D4*%
D11*
X206500000Y-177860000D02*
X206500000Y-173850000D01*
X206500000Y-177860000D02*
X208500000Y-177860000D01*
X208500000Y-177860000D02*
X208500000Y-173850000D01*
%TO.C,S13*%
D10*
X170780852Y-159386713D02*
X171780852Y-159386713D01*
X170780852Y-160186713D02*
X175280852Y-160186713D01*
X170780852Y-160386713D02*
X170780852Y-159386713D01*
X170780852Y-160786713D02*
X170780852Y-160186713D01*
X170780852Y-164886713D02*
X170780852Y-164386713D01*
X170780852Y-173386713D02*
X170780852Y-172386713D01*
X171780852Y-173386713D02*
X170780852Y-173386713D01*
X175280852Y-164186713D02*
X175280852Y-164886713D01*
X175280852Y-164886713D02*
X170780852Y-164886713D01*
X175780852Y-159686713D02*
X175780852Y-158686713D01*
X176280852Y-158186713D02*
X175780852Y-158686713D01*
X179280852Y-158186713D02*
X176280852Y-158186713D01*
X179280852Y-162686713D02*
X176780852Y-162686713D01*
X179780852Y-158686713D02*
X179280852Y-158186713D01*
X179780852Y-162186713D02*
X179280852Y-162686713D01*
X183780852Y-159386713D02*
X184780852Y-159386713D01*
X184780852Y-159386713D02*
X184780852Y-160386713D01*
X184780852Y-172386713D02*
X184780852Y-173386713D01*
X184780852Y-173386713D02*
X183780852Y-173386713D01*
X175280852Y-164186713D02*
G75*
G02*
X176780852Y-162686713I1500000J0D01*
G01*
X175780852Y-159686713D02*
G75*
G02*
X175280852Y-160186713I-500000J0D01*
G01*
%TO.C,S15*%
X151780852Y-107386713D02*
X152780852Y-107386713D01*
X151780852Y-108186713D02*
X156280852Y-108186713D01*
X151780852Y-108386713D02*
X151780852Y-107386713D01*
X151780852Y-108786713D02*
X151780852Y-108186713D01*
X151780852Y-112886713D02*
X151780852Y-112386713D01*
X151780852Y-121386713D02*
X151780852Y-120386713D01*
X152780852Y-121386713D02*
X151780852Y-121386713D01*
X156280852Y-112186713D02*
X156280852Y-112886713D01*
X156280852Y-112886713D02*
X151780852Y-112886713D01*
X156780852Y-107686713D02*
X156780852Y-106686713D01*
X157280852Y-106186713D02*
X156780852Y-106686713D01*
X160280852Y-106186713D02*
X157280852Y-106186713D01*
X160280852Y-110686713D02*
X157780852Y-110686713D01*
X160780852Y-106686713D02*
X160280852Y-106186713D01*
X160780852Y-110186713D02*
X160280852Y-110686713D01*
X164780852Y-107386713D02*
X165780852Y-107386713D01*
X165780852Y-107386713D02*
X165780852Y-108386713D01*
X165780852Y-120386713D02*
X165780852Y-121386713D01*
X165780852Y-121386713D02*
X164780852Y-121386713D01*
X156280852Y-112186713D02*
G75*
G02*
X157780852Y-110686713I1500000J0D01*
G01*
X156780852Y-107686713D02*
G75*
G02*
X156280852Y-108186713I-500000J0D01*
G01*
%TO.C,S28*%
X113780852Y-176386713D02*
X114780852Y-176386713D01*
X113780852Y-177186713D02*
X118280852Y-177186713D01*
X113780852Y-177386713D02*
X113780852Y-176386713D01*
X113780852Y-177786713D02*
X113780852Y-177186713D01*
X113780852Y-181886713D02*
X113780852Y-181386713D01*
X113780852Y-190386713D02*
X113780852Y-189386713D01*
X114780852Y-190386713D02*
X113780852Y-190386713D01*
X118280852Y-181186713D02*
X118280852Y-181886713D01*
X118280852Y-181886713D02*
X113780852Y-181886713D01*
X118780852Y-176686713D02*
X118780852Y-175686713D01*
X119280852Y-175186713D02*
X118780852Y-175686713D01*
X122280852Y-175186713D02*
X119280852Y-175186713D01*
X122280852Y-179686713D02*
X119780852Y-179686713D01*
X122780852Y-175686713D02*
X122280852Y-175186713D01*
X122780852Y-179186713D02*
X122280852Y-179686713D01*
X126780852Y-176386713D02*
X127780852Y-176386713D01*
X127780852Y-176386713D02*
X127780852Y-177386713D01*
X127780852Y-189386713D02*
X127780852Y-190386713D01*
X127780852Y-190386713D02*
X126780852Y-190386713D01*
X118280852Y-181186713D02*
G75*
G02*
X119780852Y-179686713I1500000J0D01*
G01*
X118780852Y-176686713D02*
G75*
G02*
X118280852Y-177186713I-500000J0D01*
G01*
%TO.C,D14*%
D11*
X213349404Y-201103613D02*
X214720905Y-197335446D01*
X213349404Y-201103613D02*
X215228789Y-201787653D01*
X215228789Y-201787653D02*
X216600290Y-198019486D01*
%TO.C,D1*%
X206400000Y-120860000D02*
X206400000Y-116850000D01*
X206400000Y-120860000D02*
X208400000Y-120860000D01*
X208400000Y-120860000D02*
X208400000Y-116850000D01*
%TO.C,JP13*%
X241000000Y-127475000D02*
X243000000Y-127475000D01*
X241000000Y-130275000D02*
X241000000Y-127475000D01*
X243000000Y-127475000D02*
X243000000Y-130275000D01*
X243000000Y-130275000D02*
X241000000Y-130275000D01*
%TO.C,D28*%
X111500000Y-187860000D02*
X111500000Y-183850000D01*
X111500000Y-187860000D02*
X113500000Y-187860000D01*
X113500000Y-187860000D02*
X113500000Y-183850000D01*
%TO.C,JP2*%
X233600000Y-106590000D02*
X236400000Y-106590000D01*
X233600000Y-108590000D02*
X233600000Y-106590000D01*
X236400000Y-106590000D02*
X236400000Y-108590000D01*
X236400000Y-108590000D02*
X233600000Y-108590000D01*
%TO.C,D23*%
X130500000Y-187860000D02*
X130500000Y-183850000D01*
X130500000Y-187860000D02*
X132500000Y-187860000D01*
X132500000Y-187860000D02*
X132500000Y-183850000D01*
%TO.C,S6*%
D10*
X189780852Y-128386713D02*
X190780852Y-128386713D01*
X189780852Y-129186713D02*
X194280852Y-129186713D01*
X189780852Y-129386713D02*
X189780852Y-128386713D01*
X189780852Y-129786713D02*
X189780852Y-129186713D01*
X189780852Y-133886713D02*
X189780852Y-133386713D01*
X189780852Y-142386713D02*
X189780852Y-141386713D01*
X190780852Y-142386713D02*
X189780852Y-142386713D01*
X194280852Y-133186713D02*
X194280852Y-133886713D01*
X194280852Y-133886713D02*
X189780852Y-133886713D01*
X194780852Y-128686713D02*
X194780852Y-127686713D01*
X195280852Y-127186713D02*
X194780852Y-127686713D01*
X198280852Y-127186713D02*
X195280852Y-127186713D01*
X198280852Y-131686713D02*
X195780852Y-131686713D01*
X198780852Y-127686713D02*
X198280852Y-127186713D01*
X198780852Y-131186713D02*
X198280852Y-131686713D01*
X202780852Y-128386713D02*
X203780852Y-128386713D01*
X203780852Y-128386713D02*
X203780852Y-129386713D01*
X203780852Y-141386713D02*
X203780852Y-142386713D01*
X203780852Y-142386713D02*
X202780852Y-142386713D01*
X194280852Y-133186713D02*
G75*
G02*
X195780852Y-131686713I1500000J0D01*
G01*
X194780852Y-128686713D02*
G75*
G02*
X194280852Y-129186713I-500000J0D01*
G01*
%TO.C,D26*%
D11*
X111500000Y-149760000D02*
X111500000Y-145750000D01*
X111500000Y-149760000D02*
X113500000Y-149760000D01*
X113500000Y-149760000D02*
X113500000Y-145750000D01*
%TO.C,S21*%
D10*
X132780852Y-138386713D02*
X133780852Y-138386713D01*
X132780852Y-139186713D02*
X137280852Y-139186713D01*
X132780852Y-139386713D02*
X132780852Y-138386713D01*
X132780852Y-139786713D02*
X132780852Y-139186713D01*
X132780852Y-143886713D02*
X132780852Y-143386713D01*
X132780852Y-152386713D02*
X132780852Y-151386713D01*
X133780852Y-152386713D02*
X132780852Y-152386713D01*
X137280852Y-143186713D02*
X137280852Y-143886713D01*
X137280852Y-143886713D02*
X132780852Y-143886713D01*
X137780852Y-138686713D02*
X137780852Y-137686713D01*
X138280852Y-137186713D02*
X137780852Y-137686713D01*
X141280852Y-137186713D02*
X138280852Y-137186713D01*
X141280852Y-141686713D02*
X138780852Y-141686713D01*
X141780852Y-137686713D02*
X141280852Y-137186713D01*
X141780852Y-141186713D02*
X141280852Y-141686713D01*
X145780852Y-138386713D02*
X146780852Y-138386713D01*
X146780852Y-138386713D02*
X146780852Y-139386713D01*
X146780852Y-151386713D02*
X146780852Y-152386713D01*
X146780852Y-152386713D02*
X145780852Y-152386713D01*
X137280852Y-143186713D02*
G75*
G02*
X138780852Y-141686713I1500000J0D01*
G01*
X137780852Y-138686713D02*
G75*
G02*
X137280852Y-139186713I-500000J0D01*
G01*
%TO.C,JP11*%
D11*
X235900000Y-127475000D02*
X237900000Y-127475000D01*
X235900000Y-130275000D02*
X235900000Y-127475000D01*
X237900000Y-127475000D02*
X237900000Y-130275000D01*
X237900000Y-130275000D02*
X235900000Y-130275000D01*
%TO.C,S1*%
D10*
X208780852Y-109386713D02*
X209780852Y-109386713D01*
X208780852Y-110186713D02*
X213280852Y-110186713D01*
X208780852Y-110386713D02*
X208780852Y-109386713D01*
X208780852Y-110786713D02*
X208780852Y-110186713D01*
X208780852Y-114886713D02*
X208780852Y-114386713D01*
X208780852Y-123386713D02*
X208780852Y-122386713D01*
X209780852Y-123386713D02*
X208780852Y-123386713D01*
X213280852Y-114186713D02*
X213280852Y-114886713D01*
X213280852Y-114886713D02*
X208780852Y-114886713D01*
X213780852Y-109686713D02*
X213780852Y-108686713D01*
X214280852Y-108186713D02*
X213780852Y-108686713D01*
X217280852Y-108186713D02*
X214280852Y-108186713D01*
X217280852Y-112686713D02*
X214780852Y-112686713D01*
X217780852Y-108686713D02*
X217280852Y-108186713D01*
X217780852Y-112186713D02*
X217280852Y-112686713D01*
X221780852Y-109386713D02*
X222780852Y-109386713D01*
X222780852Y-109386713D02*
X222780852Y-110386713D01*
X222780852Y-122386713D02*
X222780852Y-123386713D01*
X222780852Y-123386713D02*
X221780852Y-123386713D01*
X213280852Y-114186713D02*
G75*
G02*
X214780852Y-112686713I1500000J0D01*
G01*
X213780852Y-109686713D02*
G75*
G02*
X213280852Y-110186713I-500000J0D01*
G01*
%TO.C,D10*%
D11*
X168500000Y-113960000D02*
X168500000Y-109950000D01*
X168500000Y-113960000D02*
X170500000Y-113960000D01*
X170500000Y-113960000D02*
X170500000Y-109950000D01*
%TO.C,S22*%
D10*
X132780852Y-157386713D02*
X133780852Y-157386713D01*
X132780852Y-158186713D02*
X137280852Y-158186713D01*
X132780852Y-158386713D02*
X132780852Y-157386713D01*
X132780852Y-158786713D02*
X132780852Y-158186713D01*
X132780852Y-162886713D02*
X132780852Y-162386713D01*
X132780852Y-171386713D02*
X132780852Y-170386713D01*
X133780852Y-171386713D02*
X132780852Y-171386713D01*
X137280852Y-162186713D02*
X137280852Y-162886713D01*
X137280852Y-162886713D02*
X132780852Y-162886713D01*
X137780852Y-157686713D02*
X137780852Y-156686713D01*
X138280852Y-156186713D02*
X137780852Y-156686713D01*
X141280852Y-156186713D02*
X138280852Y-156186713D01*
X141280852Y-160686713D02*
X138780852Y-160686713D01*
X141780852Y-156686713D02*
X141280852Y-156186713D01*
X141780852Y-160186713D02*
X141280852Y-160686713D01*
X145780852Y-157386713D02*
X146780852Y-157386713D01*
X146780852Y-157386713D02*
X146780852Y-158386713D01*
X146780852Y-170386713D02*
X146780852Y-171386713D01*
X146780852Y-171386713D02*
X145780852Y-171386713D01*
X137280852Y-162186713D02*
G75*
G02*
X138780852Y-160686713I1500000J0D01*
G01*
X137780852Y-157686713D02*
G75*
G02*
X137280852Y-158186713I-500000J0D01*
G01*
%TO.C,S12*%
X170780852Y-140386713D02*
X171780852Y-140386713D01*
X170780852Y-141186713D02*
X175280852Y-141186713D01*
X170780852Y-141386713D02*
X170780852Y-140386713D01*
X170780852Y-141786713D02*
X170780852Y-141186713D01*
X170780852Y-145886713D02*
X170780852Y-145386713D01*
X170780852Y-154386713D02*
X170780852Y-153386713D01*
X171780852Y-154386713D02*
X170780852Y-154386713D01*
X175280852Y-145186713D02*
X175280852Y-145886713D01*
X175280852Y-145886713D02*
X170780852Y-145886713D01*
X175780852Y-140686713D02*
X175780852Y-139686713D01*
X176280852Y-139186713D02*
X175780852Y-139686713D01*
X179280852Y-139186713D02*
X176280852Y-139186713D01*
X179280852Y-143686713D02*
X176780852Y-143686713D01*
X179780852Y-139686713D02*
X179280852Y-139186713D01*
X179780852Y-143186713D02*
X179280852Y-143686713D01*
X183780852Y-140386713D02*
X184780852Y-140386713D01*
X184780852Y-140386713D02*
X184780852Y-141386713D01*
X184780852Y-153386713D02*
X184780852Y-154386713D01*
X184780852Y-154386713D02*
X183780852Y-154386713D01*
X175280852Y-145186713D02*
G75*
G02*
X176780852Y-143686713I1500000J0D01*
G01*
X175780852Y-140686713D02*
G75*
G02*
X175280852Y-141186713I-500000J0D01*
G01*
%TO.C,D25*%
D11*
X111500000Y-130560000D02*
X111500000Y-126550000D01*
X111500000Y-130560000D02*
X113500000Y-130560000D01*
X113500000Y-130560000D02*
X113500000Y-126550000D01*
%TO.C,S23*%
D10*
X132780852Y-176386713D02*
X133780852Y-176386713D01*
X132780852Y-177186713D02*
X137280852Y-177186713D01*
X132780852Y-177386713D02*
X132780852Y-176386713D01*
X132780852Y-177786713D02*
X132780852Y-177186713D01*
X132780852Y-181886713D02*
X132780852Y-181386713D01*
X132780852Y-190386713D02*
X132780852Y-189386713D01*
X133780852Y-190386713D02*
X132780852Y-190386713D01*
X137280852Y-181186713D02*
X137280852Y-181886713D01*
X137280852Y-181886713D02*
X132780852Y-181886713D01*
X137780852Y-176686713D02*
X137780852Y-175686713D01*
X138280852Y-175186713D02*
X137780852Y-175686713D01*
X141280852Y-175186713D02*
X138280852Y-175186713D01*
X141280852Y-179686713D02*
X138780852Y-179686713D01*
X141780852Y-175686713D02*
X141280852Y-175186713D01*
X141780852Y-179186713D02*
X141280852Y-179686713D01*
X145780852Y-176386713D02*
X146780852Y-176386713D01*
X146780852Y-176386713D02*
X146780852Y-177386713D01*
X146780852Y-189386713D02*
X146780852Y-190386713D01*
X146780852Y-190386713D02*
X145780852Y-190386713D01*
X137280852Y-181186713D02*
G75*
G02*
X138780852Y-179686713I1500000J0D01*
G01*
X137780852Y-176686713D02*
G75*
G02*
X137280852Y-177186713I-500000J0D01*
G01*
%TO.C,JP6*%
D11*
X234700000Y-141730000D02*
X236700000Y-141730000D01*
X234700000Y-144530000D02*
X234700000Y-141730000D01*
X236700000Y-141730000D02*
X236700000Y-144530000D01*
X236700000Y-144530000D02*
X234700000Y-144530000D01*
%TO.C,D27*%
X111500000Y-168760000D02*
X111500000Y-164750000D01*
X111500000Y-168760000D02*
X113500000Y-168760000D01*
X113500000Y-168760000D02*
X113500000Y-164750000D01*
%TO.C,S4*%
D10*
X208780852Y-166386713D02*
X209780852Y-166386713D01*
X208780852Y-167186713D02*
X213280852Y-167186713D01*
X208780852Y-167386713D02*
X208780852Y-166386713D01*
X208780852Y-167786713D02*
X208780852Y-167186713D01*
X208780852Y-171886713D02*
X208780852Y-171386713D01*
X208780852Y-180386713D02*
X208780852Y-179386713D01*
X209780852Y-180386713D02*
X208780852Y-180386713D01*
X213280852Y-171186713D02*
X213280852Y-171886713D01*
X213280852Y-171886713D02*
X208780852Y-171886713D01*
X213780852Y-166686713D02*
X213780852Y-165686713D01*
X214280852Y-165186713D02*
X213780852Y-165686713D01*
X217280852Y-165186713D02*
X214280852Y-165186713D01*
X217280852Y-169686713D02*
X214780852Y-169686713D01*
X217780852Y-165686713D02*
X217280852Y-165186713D01*
X217780852Y-169186713D02*
X217280852Y-169686713D01*
X221780852Y-166386713D02*
X222780852Y-166386713D01*
X222780852Y-166386713D02*
X222780852Y-167386713D01*
X222780852Y-179386713D02*
X222780852Y-180386713D01*
X222780852Y-180386713D02*
X221780852Y-180386713D01*
X213280852Y-171186713D02*
G75*
G02*
X214780852Y-169686713I1500000J0D01*
G01*
X213780852Y-166686713D02*
G75*
G02*
X213280852Y-167186713I-500000J0D01*
G01*
%TO.C,D9*%
D11*
X233384385Y-208703754D02*
X235116435Y-209703754D01*
X233384385Y-208703754D02*
X235389385Y-205230992D01*
X235116435Y-209703754D02*
X237121435Y-206230992D01*
%TO.C,S14*%
D10*
X214664052Y-203980003D02*
X215006072Y-203040311D01*
X215603744Y-204322023D02*
X214664052Y-203980003D01*
X217571223Y-195992616D02*
X217742233Y-195522770D01*
X218973505Y-192139876D02*
X219178718Y-191576061D01*
X219110314Y-191763999D02*
X219452334Y-190824307D01*
X219178718Y-191576061D02*
X223407334Y-193115151D01*
X219452334Y-190824307D02*
X220392026Y-191166327D01*
X221799840Y-197531707D02*
X217571223Y-195992616D01*
X222039254Y-196873922D02*
X221799840Y-197531707D01*
X224048191Y-192816315D02*
X224390211Y-191876623D01*
X225031067Y-191577786D02*
X224390211Y-191876623D01*
X226311054Y-196832464D02*
X223961823Y-195977413D01*
X226951911Y-196533627D02*
X226311054Y-196832464D01*
X227819748Y-208768285D02*
X226880056Y-208426265D01*
X227850145Y-192603847D02*
X225031067Y-191577786D01*
X228148981Y-193244703D02*
X227850145Y-192603847D01*
X228161768Y-207828593D02*
X227819748Y-208768285D01*
X231668338Y-195270569D02*
X232608030Y-195612589D01*
X232608030Y-195612589D02*
X232266010Y-196552281D01*
X222039254Y-196873922D02*
G75*
G02*
X223961823Y-195977413I1409537J-513026D01*
G01*
X224048191Y-192816315D02*
G75*
G02*
X223407334Y-193115152I-469847J171010D01*
G01*
%TO.C,J1*%
D11*
X234305000Y-145215000D02*
X234305000Y-147975000D01*
X242035000Y-145215000D02*
X234305000Y-145215000D01*
X242035000Y-145215000D02*
X242035000Y-147975000D01*
X242035000Y-147975000D02*
X234305000Y-147975000D01*
X243305000Y-145215000D02*
X244685000Y-145215000D01*
X244685000Y-145215000D02*
X244685000Y-146595000D01*
%TO.C,D17*%
X149500000Y-156860000D02*
X149500000Y-152850000D01*
X149500000Y-156860000D02*
X151500000Y-156860000D01*
X151500000Y-156860000D02*
X151500000Y-152850000D01*
%TO.C,DRE1*%
X231900000Y-182760000D02*
X231900000Y-178750000D01*
X231900000Y-182760000D02*
X233900000Y-182760000D01*
X233900000Y-182760000D02*
X233900000Y-178750000D01*
%TO.C,J2*%
X247875000Y-161430000D02*
X249795000Y-161430000D01*
X249795000Y-152270000D02*
X247875000Y-152270000D01*
X251805000Y-152270000D02*
X253510000Y-152270000D01*
X253510000Y-152270000D02*
X253510000Y-161430000D01*
X253510000Y-161430000D02*
X251805000Y-161430000D01*
%TO.C,D7*%
X187500000Y-158860000D02*
X187500000Y-154850000D01*
X187500000Y-158860000D02*
X189500000Y-158860000D01*
X189500000Y-158860000D02*
X189500000Y-154850000D01*
%TO.C,JP7*%
X237250000Y-141725000D02*
X239250000Y-141725000D01*
X237250000Y-144525000D02*
X237250000Y-141725000D01*
X239250000Y-141725000D02*
X239250000Y-144525000D01*
X239250000Y-144525000D02*
X237250000Y-144525000D01*
%TO.C,D18*%
X149500000Y-175860000D02*
X149500000Y-171850000D01*
X149500000Y-175860000D02*
X151500000Y-175860000D01*
X151500000Y-175860000D02*
X151500000Y-171850000D01*
%TO.C,S7*%
D10*
X189780852Y-147386713D02*
X190780852Y-147386713D01*
X189780852Y-148186713D02*
X194280852Y-148186713D01*
X189780852Y-148386713D02*
X189780852Y-147386713D01*
X189780852Y-148786713D02*
X189780852Y-148186713D01*
X189780852Y-152886713D02*
X189780852Y-152386713D01*
X189780852Y-161386713D02*
X189780852Y-160386713D01*
X190780852Y-161386713D02*
X189780852Y-161386713D01*
X194280852Y-152186713D02*
X194280852Y-152886713D01*
X194280852Y-152886713D02*
X189780852Y-152886713D01*
X194780852Y-147686713D02*
X194780852Y-146686713D01*
X195280852Y-146186713D02*
X194780852Y-146686713D01*
X198280852Y-146186713D02*
X195280852Y-146186713D01*
X198280852Y-150686713D02*
X195780852Y-150686713D01*
X198780852Y-146686713D02*
X198280852Y-146186713D01*
X198780852Y-150186713D02*
X198280852Y-150686713D01*
X202780852Y-147386713D02*
X203780852Y-147386713D01*
X203780852Y-147386713D02*
X203780852Y-148386713D01*
X203780852Y-160386713D02*
X203780852Y-161386713D01*
X203780852Y-161386713D02*
X202780852Y-161386713D01*
X194280852Y-152186713D02*
G75*
G02*
X195780852Y-150686713I1500000J0D01*
G01*
X194780852Y-147686713D02*
G75*
G02*
X194280852Y-148186713I-500000J0D01*
G01*
%TO.C,D15*%
D11*
X149500000Y-118960000D02*
X149500000Y-114950000D01*
X149500000Y-118960000D02*
X151500000Y-118960000D01*
X151500000Y-118960000D02*
X151500000Y-114950000D01*
%TO.C,D12*%
X168500000Y-151860000D02*
X168500000Y-147850000D01*
X168500000Y-151860000D02*
X170500000Y-151860000D01*
X170500000Y-151860000D02*
X170500000Y-147850000D01*
%TO.C,JP1*%
X233600000Y-104090000D02*
X236400000Y-104090000D01*
X233600000Y-106090000D02*
X233600000Y-104090000D01*
X236400000Y-104090000D02*
X236400000Y-106090000D01*
X236400000Y-106090000D02*
X233600000Y-106090000D01*
%TO.C,D20*%
X130500000Y-130560000D02*
X130500000Y-126550000D01*
X130500000Y-130560000D02*
X132500000Y-130560000D01*
X132500000Y-130560000D02*
X132500000Y-126550000D01*
%TO.C,JP3*%
X233600000Y-109110000D02*
X236400000Y-109110000D01*
X233600000Y-111110000D02*
X233600000Y-109110000D01*
X236400000Y-109110000D02*
X236400000Y-111110000D01*
X236400000Y-111110000D02*
X233600000Y-111110000D01*
%TO.C,S19*%
D10*
X196211174Y-200856188D02*
X196384823Y-199871380D01*
X197195982Y-201029836D02*
X196211174Y-200856188D01*
X197687184Y-192485322D02*
X197774008Y-191992918D01*
X198399142Y-188447610D02*
X198503330Y-187856726D01*
X198468601Y-188053687D02*
X198642249Y-187068879D01*
X198503330Y-187856726D02*
X202934965Y-188638142D01*
X198642249Y-187068879D02*
X199627057Y-187242528D01*
X202118819Y-193266739D02*
X197687184Y-192485322D01*
X202240373Y-192577373D02*
X202118819Y-193266739D01*
X203514193Y-188232563D02*
X203687841Y-187247755D01*
X204267069Y-186842175D02*
X203687841Y-187247755D01*
X206440076Y-191794755D02*
X203978057Y-191360634D01*
X207019304Y-191389175D02*
X206440076Y-191794755D01*
X207221493Y-187363120D02*
X204267069Y-186842175D01*
X207627072Y-187942348D02*
X207221493Y-187363120D01*
X209998483Y-203287263D02*
X209013675Y-203113614D01*
X210172131Y-202302455D02*
X209998483Y-203287263D01*
X211444750Y-189326306D02*
X212429558Y-189499954D01*
X212429558Y-189499954D02*
X212255909Y-190484762D01*
X202240373Y-192577373D02*
G75*
G02*
X203978057Y-191360635I1477211J-260473D01*
G01*
X203514193Y-188232563D02*
G75*
G02*
X202934965Y-188638143I-492404J86824D01*
G01*
%TO.C,S27*%
X113780852Y-157386713D02*
X114780852Y-157386713D01*
X113780852Y-158186713D02*
X118280852Y-158186713D01*
X113780852Y-158386713D02*
X113780852Y-157386713D01*
X113780852Y-158786713D02*
X113780852Y-158186713D01*
X113780852Y-162886713D02*
X113780852Y-162386713D01*
X113780852Y-171386713D02*
X113780852Y-170386713D01*
X114780852Y-171386713D02*
X113780852Y-171386713D01*
X118280852Y-162186713D02*
X118280852Y-162886713D01*
X118280852Y-162886713D02*
X113780852Y-162886713D01*
X118780852Y-157686713D02*
X118780852Y-156686713D01*
X119280852Y-156186713D02*
X118780852Y-156686713D01*
X122280852Y-156186713D02*
X119280852Y-156186713D01*
X122280852Y-160686713D02*
X119780852Y-160686713D01*
X122780852Y-156686713D02*
X122280852Y-156186713D01*
X122780852Y-160186713D02*
X122280852Y-160686713D01*
X126780852Y-157386713D02*
X127780852Y-157386713D01*
X127780852Y-157386713D02*
X127780852Y-158386713D01*
X127780852Y-170386713D02*
X127780852Y-171386713D01*
X127780852Y-171386713D02*
X126780852Y-171386713D01*
X118280852Y-162186713D02*
G75*
G02*
X119780852Y-160686713I1500000J0D01*
G01*
X118780852Y-157686713D02*
G75*
G02*
X118280852Y-158186713I-500000J0D01*
G01*
%TO.C,D29*%
D11*
X153300000Y-197760000D02*
X153300000Y-193750000D01*
X153300000Y-197760000D02*
X155300000Y-197760000D01*
X155300000Y-197760000D02*
X155300000Y-193750000D01*
%TO.C,JP22*%
X242597196Y-106597196D02*
X245397196Y-106597196D01*
X242597196Y-108597196D02*
X242597196Y-106597196D01*
X245397196Y-106597196D02*
X245397196Y-108597196D01*
X245397196Y-108597196D02*
X242597196Y-108597196D01*
%TO.C,D3*%
X206500000Y-158960000D02*
X206500000Y-154950000D01*
X206500000Y-158960000D02*
X208500000Y-158960000D01*
X208500000Y-158960000D02*
X208500000Y-154950000D01*
%TO.C,D13*%
X168500000Y-170860000D02*
X168500000Y-166850000D01*
X168500000Y-170860000D02*
X170500000Y-170860000D01*
X170500000Y-170860000D02*
X170500000Y-166850000D01*
%TO.C,D5*%
X187500000Y-120860000D02*
X187500000Y-116850000D01*
X187500000Y-120860000D02*
X189500000Y-120860000D01*
X189500000Y-120860000D02*
X189500000Y-116850000D01*
%TO.C,S20*%
D10*
X132780852Y-119386713D02*
X133780852Y-119386713D01*
X132780852Y-120186713D02*
X137280852Y-120186713D01*
X132780852Y-120386713D02*
X132780852Y-119386713D01*
X132780852Y-120786713D02*
X132780852Y-120186713D01*
X132780852Y-124886713D02*
X132780852Y-124386713D01*
X132780852Y-133386713D02*
X132780852Y-132386713D01*
X133780852Y-133386713D02*
X132780852Y-133386713D01*
X137280852Y-124186713D02*
X137280852Y-124886713D01*
X137280852Y-124886713D02*
X132780852Y-124886713D01*
X137780852Y-119686713D02*
X137780852Y-118686713D01*
X138280852Y-118186713D02*
X137780852Y-118686713D01*
X141280852Y-118186713D02*
X138280852Y-118186713D01*
X141280852Y-122686713D02*
X138780852Y-122686713D01*
X141780852Y-118686713D02*
X141280852Y-118186713D01*
X141780852Y-122186713D02*
X141280852Y-122686713D01*
X145780852Y-119386713D02*
X146780852Y-119386713D01*
X146780852Y-119386713D02*
X146780852Y-120386713D01*
X146780852Y-132386713D02*
X146780852Y-133386713D01*
X146780852Y-133386713D02*
X145780852Y-133386713D01*
X137280852Y-124186713D02*
G75*
G02*
X138780852Y-122686713I1500000J0D01*
G01*
X137780852Y-119686713D02*
G75*
G02*
X137280852Y-120186713I-500000J0D01*
G01*
%TO.C,S8*%
X189780852Y-166386713D02*
X190780852Y-166386713D01*
X189780852Y-167186713D02*
X194280852Y-167186713D01*
X189780852Y-167386713D02*
X189780852Y-166386713D01*
X189780852Y-167786713D02*
X189780852Y-167186713D01*
X189780852Y-171886713D02*
X189780852Y-171386713D01*
X189780852Y-180386713D02*
X189780852Y-179386713D01*
X190780852Y-180386713D02*
X189780852Y-180386713D01*
X194280852Y-171186713D02*
X194280852Y-171886713D01*
X194280852Y-171886713D02*
X189780852Y-171886713D01*
X194780852Y-166686713D02*
X194780852Y-165686713D01*
X195280852Y-165186713D02*
X194780852Y-165686713D01*
X198280852Y-165186713D02*
X195280852Y-165186713D01*
X198280852Y-169686713D02*
X195780852Y-169686713D01*
X198780852Y-165686713D02*
X198280852Y-165186713D01*
X198780852Y-169186713D02*
X198280852Y-169686713D01*
X202780852Y-166386713D02*
X203780852Y-166386713D01*
X203780852Y-166386713D02*
X203780852Y-167386713D01*
X203780852Y-179386713D02*
X203780852Y-180386713D01*
X203780852Y-180386713D02*
X202780852Y-180386713D01*
X194280852Y-171186713D02*
G75*
G02*
X195780852Y-169686713I1500000J0D01*
G01*
X194780852Y-166686713D02*
G75*
G02*
X194280852Y-167186713I-500000J0D01*
G01*
%TO.C,S3*%
X208780852Y-147386713D02*
X209780852Y-147386713D01*
X208780852Y-148186713D02*
X213280852Y-148186713D01*
X208780852Y-148386713D02*
X208780852Y-147386713D01*
X208780852Y-148786713D02*
X208780852Y-148186713D01*
X208780852Y-152886713D02*
X208780852Y-152386713D01*
X208780852Y-161386713D02*
X208780852Y-160386713D01*
X209780852Y-161386713D02*
X208780852Y-161386713D01*
X213280852Y-152186713D02*
X213280852Y-152886713D01*
X213280852Y-152886713D02*
X208780852Y-152886713D01*
X213780852Y-147686713D02*
X213780852Y-146686713D01*
X214280852Y-146186713D02*
X213780852Y-146686713D01*
X217280852Y-146186713D02*
X214280852Y-146186713D01*
X217280852Y-150686713D02*
X214780852Y-150686713D01*
X217780852Y-146686713D02*
X217280852Y-146186713D01*
X217780852Y-150186713D02*
X217280852Y-150686713D01*
X221780852Y-147386713D02*
X222780852Y-147386713D01*
X222780852Y-147386713D02*
X222780852Y-148386713D01*
X222780852Y-160386713D02*
X222780852Y-161386713D01*
X222780852Y-161386713D02*
X221780852Y-161386713D01*
X213280852Y-152186713D02*
G75*
G02*
X214780852Y-150686713I1500000J0D01*
G01*
X213780852Y-147686713D02*
G75*
G02*
X213280852Y-148186713I-500000J0D01*
G01*
%TO.C,S26*%
X113780852Y-138386713D02*
X114780852Y-138386713D01*
X113780852Y-139186713D02*
X118280852Y-139186713D01*
X113780852Y-139386713D02*
X113780852Y-138386713D01*
X113780852Y-139786713D02*
X113780852Y-139186713D01*
X113780852Y-143886713D02*
X113780852Y-143386713D01*
X113780852Y-152386713D02*
X113780852Y-151386713D01*
X114780852Y-152386713D02*
X113780852Y-152386713D01*
X118280852Y-143186713D02*
X118280852Y-143886713D01*
X118280852Y-143886713D02*
X113780852Y-143886713D01*
X118780852Y-138686713D02*
X118780852Y-137686713D01*
X119280852Y-137186713D02*
X118780852Y-137686713D01*
X122280852Y-137186713D02*
X119280852Y-137186713D01*
X122280852Y-141686713D02*
X119780852Y-141686713D01*
X122780852Y-137686713D02*
X122280852Y-137186713D01*
X122780852Y-141186713D02*
X122280852Y-141686713D01*
X126780852Y-138386713D02*
X127780852Y-138386713D01*
X127780852Y-138386713D02*
X127780852Y-139386713D01*
X127780852Y-151386713D02*
X127780852Y-152386713D01*
X127780852Y-152386713D02*
X126780852Y-152386713D01*
X118280852Y-143186713D02*
G75*
G02*
X119780852Y-141686713I1500000J0D01*
G01*
X118780852Y-138686713D02*
G75*
G02*
X118280852Y-139186713I-500000J0D01*
G01*
%TO.C,JP4*%
D11*
X242350000Y-141730000D02*
X244350000Y-141730000D01*
X242350000Y-144530000D02*
X242350000Y-141730000D01*
X244350000Y-141730000D02*
X244350000Y-144530000D01*
X244350000Y-144530000D02*
X242350000Y-144530000D01*
%TO.C,S17*%
D10*
X151780852Y-145386713D02*
X152780852Y-145386713D01*
X151780852Y-146186713D02*
X156280852Y-146186713D01*
X151780852Y-146386713D02*
X151780852Y-145386713D01*
X151780852Y-146786713D02*
X151780852Y-146186713D01*
X151780852Y-150886713D02*
X151780852Y-150386713D01*
X151780852Y-159386713D02*
X151780852Y-158386713D01*
X152780852Y-159386713D02*
X151780852Y-159386713D01*
X156280852Y-150186713D02*
X156280852Y-150886713D01*
X156280852Y-150886713D02*
X151780852Y-150886713D01*
X156780852Y-145686713D02*
X156780852Y-144686713D01*
X157280852Y-144186713D02*
X156780852Y-144686713D01*
X160280852Y-144186713D02*
X157280852Y-144186713D01*
X160280852Y-148686713D02*
X157780852Y-148686713D01*
X160780852Y-144686713D02*
X160280852Y-144186713D01*
X160780852Y-148186713D02*
X160280852Y-148686713D01*
X164780852Y-145386713D02*
X165780852Y-145386713D01*
X165780852Y-145386713D02*
X165780852Y-146386713D01*
X165780852Y-158386713D02*
X165780852Y-159386713D01*
X165780852Y-159386713D02*
X164780852Y-159386713D01*
X156280852Y-150186713D02*
G75*
G02*
X157780852Y-148686713I1500000J0D01*
G01*
X156780852Y-145686713D02*
G75*
G02*
X156280852Y-146186713I-500000J0D01*
G01*
%TO.C,D6*%
D11*
X187500000Y-139910000D02*
X187500000Y-135900000D01*
X187500000Y-139910000D02*
X189500000Y-139910000D01*
X189500000Y-139910000D02*
X189500000Y-135900000D01*
%TO.C,D11*%
X168500000Y-132860000D02*
X168500000Y-128850000D01*
X168500000Y-132860000D02*
X170500000Y-132860000D01*
X170500000Y-132860000D02*
X170500000Y-128850000D01*
%TO.C,D8*%
X187500000Y-177860000D02*
X187500000Y-173850000D01*
X187500000Y-177860000D02*
X189500000Y-177860000D01*
X189500000Y-177860000D02*
X189500000Y-173850000D01*
%TO.C,S16*%
D10*
X151780852Y-126386713D02*
X152780852Y-126386713D01*
X151780852Y-127186713D02*
X156280852Y-127186713D01*
X151780852Y-127386713D02*
X151780852Y-126386713D01*
X151780852Y-127786713D02*
X151780852Y-127186713D01*
X151780852Y-131886713D02*
X151780852Y-131386713D01*
X151780852Y-140386713D02*
X151780852Y-139386713D01*
X152780852Y-140386713D02*
X151780852Y-140386713D01*
X156280852Y-131186713D02*
X156280852Y-131886713D01*
X156280852Y-131886713D02*
X151780852Y-131886713D01*
X156780852Y-126686713D02*
X156780852Y-125686713D01*
X157280852Y-125186713D02*
X156780852Y-125686713D01*
X160280852Y-125186713D02*
X157280852Y-125186713D01*
X160280852Y-129686713D02*
X157780852Y-129686713D01*
X160780852Y-125686713D02*
X160280852Y-125186713D01*
X160780852Y-129186713D02*
X160280852Y-129686713D01*
X164780852Y-126386713D02*
X165780852Y-126386713D01*
X165780852Y-126386713D02*
X165780852Y-127386713D01*
X165780852Y-139386713D02*
X165780852Y-140386713D01*
X165780852Y-140386713D02*
X164780852Y-140386713D01*
X156280852Y-131186713D02*
G75*
G02*
X157780852Y-129686713I1500000J0D01*
G01*
X156780852Y-126686713D02*
G75*
G02*
X156280852Y-127186713I-500000J0D01*
G01*
%TO.C,D24*%
D11*
X174200000Y-197760000D02*
X174200000Y-193750000D01*
X174200000Y-197760000D02*
X176200000Y-197760000D01*
X176200000Y-197760000D02*
X176200000Y-193750000D01*
%TO.C,D22*%
X130400000Y-168760000D02*
X130400000Y-164750000D01*
X130400000Y-168760000D02*
X132400000Y-168760000D01*
X132400000Y-168760000D02*
X132400000Y-164750000D01*
%TO.C,JP21*%
X242600000Y-109100000D02*
X245400000Y-109100000D01*
X242600000Y-111100000D02*
X242600000Y-109100000D01*
X245400000Y-109100000D02*
X245400000Y-111100000D01*
X245400000Y-111100000D02*
X242600000Y-111100000D01*
%TO.C,S18*%
D10*
X151780852Y-164386713D02*
X152780852Y-164386713D01*
X151780852Y-165186713D02*
X156280852Y-165186713D01*
X151780852Y-165386713D02*
X151780852Y-164386713D01*
X151780852Y-165786713D02*
X151780852Y-165186713D01*
X151780852Y-169886713D02*
X151780852Y-169386713D01*
X151780852Y-178386713D02*
X151780852Y-177386713D01*
X152780852Y-178386713D02*
X151780852Y-178386713D01*
X156280852Y-169186713D02*
X156280852Y-169886713D01*
X156280852Y-169886713D02*
X151780852Y-169886713D01*
X156780852Y-164686713D02*
X156780852Y-163686713D01*
X157280852Y-163186713D02*
X156780852Y-163686713D01*
X160280852Y-163186713D02*
X157280852Y-163186713D01*
X160280852Y-167686713D02*
X157780852Y-167686713D01*
X160780852Y-163686713D02*
X160280852Y-163186713D01*
X160780852Y-167186713D02*
X160280852Y-167686713D01*
X164780852Y-164386713D02*
X165780852Y-164386713D01*
X165780852Y-164386713D02*
X165780852Y-165386713D01*
X165780852Y-177386713D02*
X165780852Y-178386713D01*
X165780852Y-178386713D02*
X164780852Y-178386713D01*
X156280852Y-169186713D02*
G75*
G02*
X157780852Y-167686713I1500000J0D01*
G01*
X156780852Y-164686713D02*
G75*
G02*
X156280852Y-165186713I-500000J0D01*
G01*
%TO.C,S29*%
X155580852Y-186286713D02*
X156580852Y-186286713D01*
X155580852Y-187086713D02*
X160080852Y-187086713D01*
X155580852Y-187286713D02*
X155580852Y-186286713D01*
X155580852Y-187686713D02*
X155580852Y-187086713D01*
X155580852Y-191786713D02*
X155580852Y-191286713D01*
X155580852Y-200286713D02*
X155580852Y-199286713D01*
X156580852Y-200286713D02*
X155580852Y-200286713D01*
X160080852Y-191086713D02*
X160080852Y-191786713D01*
X160080852Y-191786713D02*
X155580852Y-191786713D01*
X160580852Y-186586713D02*
X160580852Y-185586713D01*
X161080852Y-185086713D02*
X160580852Y-185586713D01*
X164080852Y-185086713D02*
X161080852Y-185086713D01*
X164080852Y-189586713D02*
X161580852Y-189586713D01*
X164580852Y-185586713D02*
X164080852Y-185086713D01*
X164580852Y-189086713D02*
X164080852Y-189586713D01*
X168580852Y-186286713D02*
X169580852Y-186286713D01*
X169580852Y-186286713D02*
X169580852Y-187286713D01*
X169580852Y-199286713D02*
X169580852Y-200286713D01*
X169580852Y-200286713D02*
X168580852Y-200286713D01*
X160080852Y-191086713D02*
G75*
G02*
X161580852Y-189586713I1500000J0D01*
G01*
X160580852Y-186586713D02*
G75*
G02*
X160080852Y-187086713I-500000J0D01*
G01*
%TO.C,D16*%
D11*
X149500000Y-137860000D02*
X149500000Y-133850000D01*
X149500000Y-137860000D02*
X151500000Y-137860000D01*
X151500000Y-137860000D02*
X151500000Y-133850000D01*
%TD*%
M02*
