%TF.GenerationSoftware,KiCad,Pcbnew,10.0.2*%
%TF.CreationDate,2026-09-28T16:12:47+02:00*%
%TF.ProjectId,Sylkaboard,53796c6b-6162-46f6-9172-642e6b696361,v1.0.0*%
%TF.SameCoordinates,Original*%
%TF.FileFunction,Legend,Top*%
%TF.FilePolarity,Positive*%
%FSLAX46Y46*%
G04 Gerber Fmt 4.6, Leading zero omitted, Abs format (unit mm)*
G04 Created by KiCad (PCBNEW 10.0.2) date 2026-09-28 16:12:47*
%MOMM*%
%LPD*%
G01*
G04 APERTURE LIST*
%ADD10C,0.150000*%
%ADD11C,0.120000*%
G04 APERTURE END LIST*
D10*
X233225350Y-148683152D02*
X233225350Y-149349819D01*
X232987255Y-148302200D02*
X232749160Y-149016485D01*
X232749160Y-149016485D02*
X233368207Y-149016485D01*
X233749160Y-149349819D02*
X233749160Y-148349819D01*
X233749160Y-148349819D02*
X234130112Y-148349819D01*
X234130112Y-148349819D02*
X234225350Y-148397438D01*
X234225350Y-148397438D02*
X234272969Y-148445057D01*
X234272969Y-148445057D02*
X234320588Y-148540295D01*
X234320588Y-148540295D02*
X234320588Y-148683152D01*
X234320588Y-148683152D02*
X234272969Y-148778390D01*
X234272969Y-148778390D02*
X234225350Y-148826009D01*
X234225350Y-148826009D02*
X234130112Y-148873628D01*
X234130112Y-148873628D02*
X233749160Y-148873628D01*
X235463446Y-149302200D02*
X235606303Y-149349819D01*
X235606303Y-149349819D02*
X235844398Y-149349819D01*
X235844398Y-149349819D02*
X235939636Y-149302200D01*
X235939636Y-149302200D02*
X235987255Y-149254580D01*
X235987255Y-149254580D02*
X236034874Y-149159342D01*
X236034874Y-149159342D02*
X236034874Y-149064104D01*
X236034874Y-149064104D02*
X235987255Y-148968866D01*
X235987255Y-148968866D02*
X235939636Y-148921247D01*
X235939636Y-148921247D02*
X235844398Y-148873628D01*
X235844398Y-148873628D02*
X235653922Y-148826009D01*
X235653922Y-148826009D02*
X235558684Y-148778390D01*
X235558684Y-148778390D02*
X235511065Y-148730771D01*
X235511065Y-148730771D02*
X235463446Y-148635533D01*
X235463446Y-148635533D02*
X235463446Y-148540295D01*
X235463446Y-148540295D02*
X235511065Y-148445057D01*
X235511065Y-148445057D02*
X235558684Y-148397438D01*
X235558684Y-148397438D02*
X235653922Y-148349819D01*
X235653922Y-148349819D02*
X235892017Y-148349819D01*
X235892017Y-148349819D02*
X236034874Y-148397438D01*
X236606303Y-149349819D02*
X236511065Y-149302200D01*
X236511065Y-149302200D02*
X236463446Y-149254580D01*
X236463446Y-149254580D02*
X236415827Y-149159342D01*
X236415827Y-149159342D02*
X236415827Y-148873628D01*
X236415827Y-148873628D02*
X236463446Y-148778390D01*
X236463446Y-148778390D02*
X236511065Y-148730771D01*
X236511065Y-148730771D02*
X236606303Y-148683152D01*
X236606303Y-148683152D02*
X236749160Y-148683152D01*
X236749160Y-148683152D02*
X236844398Y-148730771D01*
X236844398Y-148730771D02*
X236892017Y-148778390D01*
X236892017Y-148778390D02*
X236939636Y-148873628D01*
X236939636Y-148873628D02*
X236939636Y-149159342D01*
X236939636Y-149159342D02*
X236892017Y-149254580D01*
X236892017Y-149254580D02*
X236844398Y-149302200D01*
X236844398Y-149302200D02*
X236749160Y-149349819D01*
X236749160Y-149349819D02*
X236606303Y-149349819D01*
X237796779Y-149302200D02*
X237701541Y-149349819D01*
X237701541Y-149349819D02*
X237511065Y-149349819D01*
X237511065Y-149349819D02*
X237415827Y-149302200D01*
X237415827Y-149302200D02*
X237368208Y-149254580D01*
X237368208Y-149254580D02*
X237320589Y-149159342D01*
X237320589Y-149159342D02*
X237320589Y-148873628D01*
X237320589Y-148873628D02*
X237368208Y-148778390D01*
X237368208Y-148778390D02*
X237415827Y-148730771D01*
X237415827Y-148730771D02*
X237511065Y-148683152D01*
X237511065Y-148683152D02*
X237701541Y-148683152D01*
X237701541Y-148683152D02*
X237796779Y-148730771D01*
X238225351Y-149349819D02*
X238225351Y-148349819D01*
X238320589Y-148968866D02*
X238606303Y-149349819D01*
X238606303Y-148683152D02*
X238225351Y-149064104D01*
X239415827Y-149302200D02*
X239320589Y-149349819D01*
X239320589Y-149349819D02*
X239130113Y-149349819D01*
X239130113Y-149349819D02*
X239034875Y-149302200D01*
X239034875Y-149302200D02*
X238987256Y-149206961D01*
X238987256Y-149206961D02*
X238987256Y-148826009D01*
X238987256Y-148826009D02*
X239034875Y-148730771D01*
X239034875Y-148730771D02*
X239130113Y-148683152D01*
X239130113Y-148683152D02*
X239320589Y-148683152D01*
X239320589Y-148683152D02*
X239415827Y-148730771D01*
X239415827Y-148730771D02*
X239463446Y-148826009D01*
X239463446Y-148826009D02*
X239463446Y-148921247D01*
X239463446Y-148921247D02*
X238987256Y-149016485D01*
X239749161Y-148683152D02*
X240130113Y-148683152D01*
X239892018Y-148349819D02*
X239892018Y-149206961D01*
X239892018Y-149206961D02*
X239939637Y-149302200D01*
X239939637Y-149302200D02*
X240034875Y-149349819D01*
X240034875Y-149349819D02*
X240130113Y-149349819D01*
X247806779Y-159319819D02*
X247806779Y-160129342D01*
X247806779Y-160129342D02*
X247854398Y-160224580D01*
X247854398Y-160224580D02*
X247902017Y-160272200D01*
X247902017Y-160272200D02*
X247997255Y-160319819D01*
X247997255Y-160319819D02*
X248187731Y-160319819D01*
X248187731Y-160319819D02*
X248282969Y-160272200D01*
X248282969Y-160272200D02*
X248330588Y-160224580D01*
X248330588Y-160224580D02*
X248378207Y-160129342D01*
X248378207Y-160129342D02*
X248378207Y-159319819D01*
X248806779Y-160272200D02*
X248949636Y-160319819D01*
X248949636Y-160319819D02*
X249187731Y-160319819D01*
X249187731Y-160319819D02*
X249282969Y-160272200D01*
X249282969Y-160272200D02*
X249330588Y-160224580D01*
X249330588Y-160224580D02*
X249378207Y-160129342D01*
X249378207Y-160129342D02*
X249378207Y-160034104D01*
X249378207Y-160034104D02*
X249330588Y-159938866D01*
X249330588Y-159938866D02*
X249282969Y-159891247D01*
X249282969Y-159891247D02*
X249187731Y-159843628D01*
X249187731Y-159843628D02*
X248997255Y-159796009D01*
X248997255Y-159796009D02*
X248902017Y-159748390D01*
X248902017Y-159748390D02*
X248854398Y-159700771D01*
X248854398Y-159700771D02*
X248806779Y-159605533D01*
X248806779Y-159605533D02*
X248806779Y-159510295D01*
X248806779Y-159510295D02*
X248854398Y-159415057D01*
X248854398Y-159415057D02*
X248902017Y-159367438D01*
X248902017Y-159367438D02*
X248997255Y-159319819D01*
X248997255Y-159319819D02*
X249235350Y-159319819D01*
X249235350Y-159319819D02*
X249378207Y-159367438D01*
X250140112Y-159796009D02*
X250282969Y-159843628D01*
X250282969Y-159843628D02*
X250330588Y-159891247D01*
X250330588Y-159891247D02*
X250378207Y-159986485D01*
X250378207Y-159986485D02*
X250378207Y-160129342D01*
X250378207Y-160129342D02*
X250330588Y-160224580D01*
X250330588Y-160224580D02*
X250282969Y-160272200D01*
X250282969Y-160272200D02*
X250187731Y-160319819D01*
X250187731Y-160319819D02*
X249806779Y-160319819D01*
X249806779Y-160319819D02*
X249806779Y-159319819D01*
X249806779Y-159319819D02*
X250140112Y-159319819D01*
X250140112Y-159319819D02*
X250235350Y-159367438D01*
X250235350Y-159367438D02*
X250282969Y-159415057D01*
X250282969Y-159415057D02*
X250330588Y-159510295D01*
X250330588Y-159510295D02*
X250330588Y-159605533D01*
X250330588Y-159605533D02*
X250282969Y-159700771D01*
X250282969Y-159700771D02*
X250235350Y-159748390D01*
X250235350Y-159748390D02*
X250140112Y-159796009D01*
X250140112Y-159796009D02*
X249806779Y-159796009D01*
X250806779Y-159938866D02*
X251568684Y-159938866D01*
X252616302Y-160224580D02*
X252568683Y-160272200D01*
X252568683Y-160272200D02*
X252425826Y-160319819D01*
X252425826Y-160319819D02*
X252330588Y-160319819D01*
X252330588Y-160319819D02*
X252187731Y-160272200D01*
X252187731Y-160272200D02*
X252092493Y-160176961D01*
X252092493Y-160176961D02*
X252044874Y-160081723D01*
X252044874Y-160081723D02*
X251997255Y-159891247D01*
X251997255Y-159891247D02*
X251997255Y-159748390D01*
X251997255Y-159748390D02*
X252044874Y-159557914D01*
X252044874Y-159557914D02*
X252092493Y-159462676D01*
X252092493Y-159462676D02*
X252187731Y-159367438D01*
X252187731Y-159367438D02*
X252330588Y-159319819D01*
X252330588Y-159319819D02*
X252425826Y-159319819D01*
X252425826Y-159319819D02*
X252568683Y-159367438D01*
X252568683Y-159367438D02*
X252616302Y-159415057D01*
X230459951Y-104455000D02*
G75*
G02*
X231480000Y-103425000I1030049J0D01*
G01*
X230478892Y-126046106D02*
X230460000Y-104455000D01*
X231350509Y-126916247D02*
G75*
G02*
X230478935Y-126046107I-11809J859747D01*
G01*
X231368779Y-126933680D02*
X247450000Y-126960000D01*
X247579491Y-103468753D02*
X231480000Y-103425000D01*
X247579491Y-103468753D02*
G75*
G02*
X248451065Y-104338893I11809J-859747D01*
G01*
X248451108Y-104338894D02*
X248470000Y-125930000D01*
X248470049Y-125930000D02*
G75*
G02*
X247450000Y-126960000I-1030049J0D01*
G01*
X238860588Y-149647830D02*
X238765350Y-149600211D01*
X238765350Y-149600211D02*
X238622493Y-149600211D01*
X238622493Y-149600211D02*
X238479636Y-149647830D01*
X238479636Y-149647830D02*
X238384398Y-149743068D01*
X238384398Y-149743068D02*
X238336779Y-149838306D01*
X238336779Y-149838306D02*
X238289160Y-150028782D01*
X238289160Y-150028782D02*
X238289160Y-150171639D01*
X238289160Y-150171639D02*
X238336779Y-150362115D01*
X238336779Y-150362115D02*
X238384398Y-150457353D01*
X238384398Y-150457353D02*
X238479636Y-150552592D01*
X238479636Y-150552592D02*
X238622493Y-150600211D01*
X238622493Y-150600211D02*
X238717731Y-150600211D01*
X238717731Y-150600211D02*
X238860588Y-150552592D01*
X238860588Y-150552592D02*
X238908207Y-150504972D01*
X238908207Y-150504972D02*
X238908207Y-150171639D01*
X238908207Y-150171639D02*
X238717731Y-150171639D01*
X239336779Y-150600211D02*
X239336779Y-149600211D01*
X239336779Y-149600211D02*
X239908207Y-150600211D01*
X239908207Y-150600211D02*
X239908207Y-149600211D01*
X240384398Y-150600211D02*
X240384398Y-149600211D01*
X240384398Y-149600211D02*
X240622493Y-149600211D01*
X240622493Y-149600211D02*
X240765350Y-149647830D01*
X240765350Y-149647830D02*
X240860588Y-149743068D01*
X240860588Y-149743068D02*
X240908207Y-149838306D01*
X240908207Y-149838306D02*
X240955826Y-150028782D01*
X240955826Y-150028782D02*
X240955826Y-150171639D01*
X240955826Y-150171639D02*
X240908207Y-150362115D01*
X240908207Y-150362115D02*
X240860588Y-150457353D01*
X240860588Y-150457353D02*
X240765350Y-150552592D01*
X240765350Y-150552592D02*
X240622493Y-150600211D01*
X240622493Y-150600211D02*
X240384398Y-150600211D01*
X238336779Y-151829202D02*
X239098684Y-151829202D01*
X238717731Y-152210155D02*
X238717731Y-151448250D01*
X240051064Y-151210155D02*
X239574874Y-151210155D01*
X239574874Y-151210155D02*
X239527255Y-151686345D01*
X239527255Y-151686345D02*
X239574874Y-151638726D01*
X239574874Y-151638726D02*
X239670112Y-151591107D01*
X239670112Y-151591107D02*
X239908207Y-151591107D01*
X239908207Y-151591107D02*
X240003445Y-151638726D01*
X240003445Y-151638726D02*
X240051064Y-151686345D01*
X240051064Y-151686345D02*
X240098683Y-151781583D01*
X240098683Y-151781583D02*
X240098683Y-152019678D01*
X240098683Y-152019678D02*
X240051064Y-152114916D01*
X240051064Y-152114916D02*
X240003445Y-152162536D01*
X240003445Y-152162536D02*
X239908207Y-152210155D01*
X239908207Y-152210155D02*
X239670112Y-152210155D01*
X239670112Y-152210155D02*
X239574874Y-152162536D01*
X239574874Y-152162536D02*
X239527255Y-152114916D01*
X240384398Y-151210155D02*
X240717731Y-152210155D01*
X240717731Y-152210155D02*
X241051064Y-151210155D01*
X238193922Y-152820099D02*
X238765350Y-152820099D01*
X238479636Y-153820099D02*
X238479636Y-152820099D01*
X239003446Y-152820099D02*
X239670112Y-153820099D01*
X239670112Y-152820099D02*
X239003446Y-153820099D01*
X238908207Y-155430043D02*
X238574874Y-154953852D01*
X238336779Y-155430043D02*
X238336779Y-154430043D01*
X238336779Y-154430043D02*
X238717731Y-154430043D01*
X238717731Y-154430043D02*
X238812969Y-154477662D01*
X238812969Y-154477662D02*
X238860588Y-154525281D01*
X238860588Y-154525281D02*
X238908207Y-154620519D01*
X238908207Y-154620519D02*
X238908207Y-154763376D01*
X238908207Y-154763376D02*
X238860588Y-154858614D01*
X238860588Y-154858614D02*
X238812969Y-154906233D01*
X238812969Y-154906233D02*
X238717731Y-154953852D01*
X238717731Y-154953852D02*
X238336779Y-154953852D01*
X239241541Y-154430043D02*
X239908207Y-155430043D01*
X239908207Y-154430043D02*
X239241541Y-155430043D01*
X238193922Y-156039987D02*
X238765350Y-156039987D01*
X238479636Y-157039987D02*
X238479636Y-156039987D01*
X239003446Y-156039987D02*
X239670112Y-157039987D01*
X239670112Y-156039987D02*
X239003446Y-157039987D01*
X238908207Y-158649931D02*
X238574874Y-158173740D01*
X238336779Y-158649931D02*
X238336779Y-157649931D01*
X238336779Y-157649931D02*
X238717731Y-157649931D01*
X238717731Y-157649931D02*
X238812969Y-157697550D01*
X238812969Y-157697550D02*
X238860588Y-157745169D01*
X238860588Y-157745169D02*
X238908207Y-157840407D01*
X238908207Y-157840407D02*
X238908207Y-157983264D01*
X238908207Y-157983264D02*
X238860588Y-158078502D01*
X238860588Y-158078502D02*
X238812969Y-158126121D01*
X238812969Y-158126121D02*
X238717731Y-158173740D01*
X238717731Y-158173740D02*
X238336779Y-158173740D01*
X239241541Y-157649931D02*
X239908207Y-158649931D01*
X239908207Y-157649931D02*
X239241541Y-158649931D01*
X238336779Y-159878922D02*
X239098684Y-159878922D01*
X238717731Y-160259875D02*
X238717731Y-159497970D01*
X240051064Y-159259875D02*
X239574874Y-159259875D01*
X239574874Y-159259875D02*
X239527255Y-159736065D01*
X239527255Y-159736065D02*
X239574874Y-159688446D01*
X239574874Y-159688446D02*
X239670112Y-159640827D01*
X239670112Y-159640827D02*
X239908207Y-159640827D01*
X239908207Y-159640827D02*
X240003445Y-159688446D01*
X240003445Y-159688446D02*
X240051064Y-159736065D01*
X240051064Y-159736065D02*
X240098683Y-159831303D01*
X240098683Y-159831303D02*
X240098683Y-160069398D01*
X240098683Y-160069398D02*
X240051064Y-160164636D01*
X240051064Y-160164636D02*
X240003445Y-160212256D01*
X240003445Y-160212256D02*
X239908207Y-160259875D01*
X239908207Y-160259875D02*
X239670112Y-160259875D01*
X239670112Y-160259875D02*
X239574874Y-160212256D01*
X239574874Y-160212256D02*
X239527255Y-160164636D01*
X240384398Y-159259875D02*
X240717731Y-160259875D01*
X240717731Y-160259875D02*
X241051064Y-159259875D01*
X238860588Y-160917438D02*
X238765350Y-160869819D01*
X238765350Y-160869819D02*
X238622493Y-160869819D01*
X238622493Y-160869819D02*
X238479636Y-160917438D01*
X238479636Y-160917438D02*
X238384398Y-161012676D01*
X238384398Y-161012676D02*
X238336779Y-161107914D01*
X238336779Y-161107914D02*
X238289160Y-161298390D01*
X238289160Y-161298390D02*
X238289160Y-161441247D01*
X238289160Y-161441247D02*
X238336779Y-161631723D01*
X238336779Y-161631723D02*
X238384398Y-161726961D01*
X238384398Y-161726961D02*
X238479636Y-161822200D01*
X238479636Y-161822200D02*
X238622493Y-161869819D01*
X238622493Y-161869819D02*
X238717731Y-161869819D01*
X238717731Y-161869819D02*
X238860588Y-161822200D01*
X238860588Y-161822200D02*
X238908207Y-161774580D01*
X238908207Y-161774580D02*
X238908207Y-161441247D01*
X238908207Y-161441247D02*
X238717731Y-161441247D01*
X239336779Y-161869819D02*
X239336779Y-160869819D01*
X239336779Y-160869819D02*
X239908207Y-161869819D01*
X239908207Y-161869819D02*
X239908207Y-160869819D01*
X240384398Y-161869819D02*
X240384398Y-160869819D01*
X240384398Y-160869819D02*
X240622493Y-160869819D01*
X240622493Y-160869819D02*
X240765350Y-160917438D01*
X240765350Y-160917438D02*
X240860588Y-161012676D01*
X240860588Y-161012676D02*
X240908207Y-161107914D01*
X240908207Y-161107914D02*
X240955826Y-161298390D01*
X240955826Y-161298390D02*
X240955826Y-161441247D01*
X240955826Y-161441247D02*
X240908207Y-161631723D01*
X240908207Y-161631723D02*
X240860588Y-161726961D01*
X240860588Y-161726961D02*
X240765350Y-161822200D01*
X240765350Y-161822200D02*
X240622493Y-161869819D01*
X240622493Y-161869819D02*
X240384398Y-161869819D01*
X247071541Y-157904819D02*
X247738207Y-158904819D01*
X247738207Y-157904819D02*
X247071541Y-158904819D01*
X247101541Y-154804819D02*
X247768207Y-155804819D01*
X247768207Y-154804819D02*
X247101541Y-155804819D01*
X171191905Y-111857200D02*
X171334762Y-111904819D01*
X171334762Y-111904819D02*
X171572857Y-111904819D01*
X171572857Y-111904819D02*
X171668095Y-111857200D01*
X171668095Y-111857200D02*
X171715714Y-111809580D01*
X171715714Y-111809580D02*
X171763333Y-111714342D01*
X171763333Y-111714342D02*
X171763333Y-111619104D01*
X171763333Y-111619104D02*
X171715714Y-111523866D01*
X171715714Y-111523866D02*
X171668095Y-111476247D01*
X171668095Y-111476247D02*
X171572857Y-111428628D01*
X171572857Y-111428628D02*
X171382381Y-111381009D01*
X171382381Y-111381009D02*
X171287143Y-111333390D01*
X171287143Y-111333390D02*
X171239524Y-111285771D01*
X171239524Y-111285771D02*
X171191905Y-111190533D01*
X171191905Y-111190533D02*
X171191905Y-111095295D01*
X171191905Y-111095295D02*
X171239524Y-111000057D01*
X171239524Y-111000057D02*
X171287143Y-110952438D01*
X171287143Y-110952438D02*
X171382381Y-110904819D01*
X171382381Y-110904819D02*
X171620476Y-110904819D01*
X171620476Y-110904819D02*
X171763333Y-110952438D01*
X172715714Y-111904819D02*
X172144286Y-111904819D01*
X172430000Y-111904819D02*
X172430000Y-110904819D01*
X172430000Y-110904819D02*
X172334762Y-111047676D01*
X172334762Y-111047676D02*
X172239524Y-111142914D01*
X172239524Y-111142914D02*
X172144286Y-111190533D01*
X173334762Y-110904819D02*
X173430000Y-110904819D01*
X173430000Y-110904819D02*
X173525238Y-110952438D01*
X173525238Y-110952438D02*
X173572857Y-111000057D01*
X173572857Y-111000057D02*
X173620476Y-111095295D01*
X173620476Y-111095295D02*
X173668095Y-111285771D01*
X173668095Y-111285771D02*
X173668095Y-111523866D01*
X173668095Y-111523866D02*
X173620476Y-111714342D01*
X173620476Y-111714342D02*
X173572857Y-111809580D01*
X173572857Y-111809580D02*
X173525238Y-111857200D01*
X173525238Y-111857200D02*
X173430000Y-111904819D01*
X173430000Y-111904819D02*
X173334762Y-111904819D01*
X173334762Y-111904819D02*
X173239524Y-111857200D01*
X173239524Y-111857200D02*
X173191905Y-111809580D01*
X173191905Y-111809580D02*
X173144286Y-111714342D01*
X173144286Y-111714342D02*
X173096667Y-111523866D01*
X173096667Y-111523866D02*
X173096667Y-111285771D01*
X173096667Y-111285771D02*
X173144286Y-111095295D01*
X173144286Y-111095295D02*
X173191905Y-111000057D01*
X173191905Y-111000057D02*
X173239524Y-110952438D01*
X173239524Y-110952438D02*
X173334762Y-110904819D01*
X242940952Y-178654819D02*
X242607619Y-178178628D01*
X242369524Y-178654819D02*
X242369524Y-177654819D01*
X242369524Y-177654819D02*
X242750476Y-177654819D01*
X242750476Y-177654819D02*
X242845714Y-177702438D01*
X242845714Y-177702438D02*
X242893333Y-177750057D01*
X242893333Y-177750057D02*
X242940952Y-177845295D01*
X242940952Y-177845295D02*
X242940952Y-177988152D01*
X242940952Y-177988152D02*
X242893333Y-178083390D01*
X242893333Y-178083390D02*
X242845714Y-178131009D01*
X242845714Y-178131009D02*
X242750476Y-178178628D01*
X242750476Y-178178628D02*
X242369524Y-178178628D01*
X243369524Y-178131009D02*
X243702857Y-178131009D01*
X243845714Y-178654819D02*
X243369524Y-178654819D01*
X243369524Y-178654819D02*
X243369524Y-177654819D01*
X243369524Y-177654819D02*
X243845714Y-177654819D01*
X244798095Y-178654819D02*
X244226667Y-178654819D01*
X244512381Y-178654819D02*
X244512381Y-177654819D01*
X244512381Y-177654819D02*
X244417143Y-177797676D01*
X244417143Y-177797676D02*
X244321905Y-177892914D01*
X244321905Y-177892914D02*
X244226667Y-177940533D01*
X177421905Y-195987200D02*
X177564762Y-196034819D01*
X177564762Y-196034819D02*
X177802857Y-196034819D01*
X177802857Y-196034819D02*
X177898095Y-195987200D01*
X177898095Y-195987200D02*
X177945714Y-195939580D01*
X177945714Y-195939580D02*
X177993333Y-195844342D01*
X177993333Y-195844342D02*
X177993333Y-195749104D01*
X177993333Y-195749104D02*
X177945714Y-195653866D01*
X177945714Y-195653866D02*
X177898095Y-195606247D01*
X177898095Y-195606247D02*
X177802857Y-195558628D01*
X177802857Y-195558628D02*
X177612381Y-195511009D01*
X177612381Y-195511009D02*
X177517143Y-195463390D01*
X177517143Y-195463390D02*
X177469524Y-195415771D01*
X177469524Y-195415771D02*
X177421905Y-195320533D01*
X177421905Y-195320533D02*
X177421905Y-195225295D01*
X177421905Y-195225295D02*
X177469524Y-195130057D01*
X177469524Y-195130057D02*
X177517143Y-195082438D01*
X177517143Y-195082438D02*
X177612381Y-195034819D01*
X177612381Y-195034819D02*
X177850476Y-195034819D01*
X177850476Y-195034819D02*
X177993333Y-195082438D01*
X178374286Y-195130057D02*
X178421905Y-195082438D01*
X178421905Y-195082438D02*
X178517143Y-195034819D01*
X178517143Y-195034819D02*
X178755238Y-195034819D01*
X178755238Y-195034819D02*
X178850476Y-195082438D01*
X178850476Y-195082438D02*
X178898095Y-195130057D01*
X178898095Y-195130057D02*
X178945714Y-195225295D01*
X178945714Y-195225295D02*
X178945714Y-195320533D01*
X178945714Y-195320533D02*
X178898095Y-195463390D01*
X178898095Y-195463390D02*
X178326667Y-196034819D01*
X178326667Y-196034819D02*
X178945714Y-196034819D01*
X179802857Y-195368152D02*
X179802857Y-196034819D01*
X179564762Y-194987200D02*
X179326667Y-195701485D01*
X179326667Y-195701485D02*
X179945714Y-195701485D01*
X205954819Y-138238094D02*
X204954819Y-138238094D01*
X204954819Y-138238094D02*
X204954819Y-137999999D01*
X204954819Y-137999999D02*
X205002438Y-137857142D01*
X205002438Y-137857142D02*
X205097676Y-137761904D01*
X205097676Y-137761904D02*
X205192914Y-137714285D01*
X205192914Y-137714285D02*
X205383390Y-137666666D01*
X205383390Y-137666666D02*
X205526247Y-137666666D01*
X205526247Y-137666666D02*
X205716723Y-137714285D01*
X205716723Y-137714285D02*
X205811961Y-137761904D01*
X205811961Y-137761904D02*
X205907200Y-137857142D01*
X205907200Y-137857142D02*
X205954819Y-137999999D01*
X205954819Y-137999999D02*
X205954819Y-138238094D01*
X205050057Y-137285713D02*
X205002438Y-137238094D01*
X205002438Y-137238094D02*
X204954819Y-137142856D01*
X204954819Y-137142856D02*
X204954819Y-136904761D01*
X204954819Y-136904761D02*
X205002438Y-136809523D01*
X205002438Y-136809523D02*
X205050057Y-136761904D01*
X205050057Y-136761904D02*
X205145295Y-136714285D01*
X205145295Y-136714285D02*
X205240533Y-136714285D01*
X205240533Y-136714285D02*
X205383390Y-136761904D01*
X205383390Y-136761904D02*
X205954819Y-137333332D01*
X205954819Y-137333332D02*
X205954819Y-136714285D01*
X171311905Y-130977200D02*
X171454762Y-131024819D01*
X171454762Y-131024819D02*
X171692857Y-131024819D01*
X171692857Y-131024819D02*
X171788095Y-130977200D01*
X171788095Y-130977200D02*
X171835714Y-130929580D01*
X171835714Y-130929580D02*
X171883333Y-130834342D01*
X171883333Y-130834342D02*
X171883333Y-130739104D01*
X171883333Y-130739104D02*
X171835714Y-130643866D01*
X171835714Y-130643866D02*
X171788095Y-130596247D01*
X171788095Y-130596247D02*
X171692857Y-130548628D01*
X171692857Y-130548628D02*
X171502381Y-130501009D01*
X171502381Y-130501009D02*
X171407143Y-130453390D01*
X171407143Y-130453390D02*
X171359524Y-130405771D01*
X171359524Y-130405771D02*
X171311905Y-130310533D01*
X171311905Y-130310533D02*
X171311905Y-130215295D01*
X171311905Y-130215295D02*
X171359524Y-130120057D01*
X171359524Y-130120057D02*
X171407143Y-130072438D01*
X171407143Y-130072438D02*
X171502381Y-130024819D01*
X171502381Y-130024819D02*
X171740476Y-130024819D01*
X171740476Y-130024819D02*
X171883333Y-130072438D01*
X172835714Y-131024819D02*
X172264286Y-131024819D01*
X172550000Y-131024819D02*
X172550000Y-130024819D01*
X172550000Y-130024819D02*
X172454762Y-130167676D01*
X172454762Y-130167676D02*
X172359524Y-130262914D01*
X172359524Y-130262914D02*
X172264286Y-130310533D01*
X173788095Y-131024819D02*
X173216667Y-131024819D01*
X173502381Y-131024819D02*
X173502381Y-130024819D01*
X173502381Y-130024819D02*
X173407143Y-130167676D01*
X173407143Y-130167676D02*
X173311905Y-130262914D01*
X173311905Y-130262914D02*
X173216667Y-130310533D01*
X237746571Y-209061693D02*
X237846479Y-209174361D01*
X237846479Y-209174361D02*
X238052675Y-209293408D01*
X238052675Y-209293408D02*
X238158964Y-209299788D01*
X238158964Y-209299788D02*
X238224012Y-209282358D01*
X238224012Y-209282358D02*
X238312871Y-209223689D01*
X238312871Y-209223689D02*
X238360490Y-209141210D01*
X238360490Y-209141210D02*
X238366870Y-209034922D01*
X238366870Y-209034922D02*
X238349440Y-208969873D01*
X238349440Y-208969873D02*
X238290771Y-208881015D01*
X238290771Y-208881015D02*
X238149623Y-208744538D01*
X238149623Y-208744538D02*
X238090954Y-208655679D01*
X238090954Y-208655679D02*
X238073524Y-208590631D01*
X238073524Y-208590631D02*
X238079904Y-208484342D01*
X238079904Y-208484342D02*
X238127523Y-208401864D01*
X238127523Y-208401864D02*
X238216381Y-208343195D01*
X238216381Y-208343195D02*
X238281430Y-208325765D01*
X238281430Y-208325765D02*
X238387718Y-208332145D01*
X238387718Y-208332145D02*
X238593915Y-208451192D01*
X238593915Y-208451192D02*
X238693823Y-208563860D01*
X238630026Y-209626741D02*
X238794983Y-209721980D01*
X238794983Y-209721980D02*
X238901271Y-209728359D01*
X238901271Y-209728359D02*
X238966320Y-209710930D01*
X238966320Y-209710930D02*
X239120227Y-209634831D01*
X239120227Y-209634831D02*
X239256705Y-209493683D01*
X239256705Y-209493683D02*
X239447181Y-209163769D01*
X239447181Y-209163769D02*
X239453561Y-209057480D01*
X239453561Y-209057480D02*
X239436131Y-208992432D01*
X239436131Y-208992432D02*
X239377462Y-208903573D01*
X239377462Y-208903573D02*
X239212504Y-208808335D01*
X239212504Y-208808335D02*
X239106216Y-208801955D01*
X239106216Y-208801955D02*
X239041167Y-208819385D01*
X239041167Y-208819385D02*
X238952309Y-208878054D01*
X238952309Y-208878054D02*
X238833261Y-209084251D01*
X238833261Y-209084251D02*
X238826882Y-209190539D01*
X238826882Y-209190539D02*
X238844312Y-209255588D01*
X238844312Y-209255588D02*
X238902981Y-209344446D01*
X238902981Y-209344446D02*
X239067938Y-209439684D01*
X239067938Y-209439684D02*
X239174226Y-209446064D01*
X239174226Y-209446064D02*
X239239275Y-209428634D01*
X239239275Y-209428634D02*
X239328133Y-209369965D01*
X194031055Y-196945779D02*
X193046248Y-196772131D01*
X193046248Y-196772131D02*
X193087592Y-196537653D01*
X193087592Y-196537653D02*
X193159295Y-196405235D01*
X193159295Y-196405235D02*
X193269624Y-196327982D01*
X193269624Y-196327982D02*
X193371684Y-196297624D01*
X193371684Y-196297624D02*
X193567536Y-196283804D01*
X193567536Y-196283804D02*
X193708222Y-196308611D01*
X193708222Y-196308611D02*
X193887536Y-196388583D01*
X193887536Y-196388583D02*
X193973058Y-196452016D01*
X193973058Y-196452016D02*
X194050311Y-196562345D01*
X194050311Y-196562345D02*
X194072400Y-196711301D01*
X194072400Y-196711301D02*
X194031055Y-196945779D01*
X194295662Y-195445120D02*
X194196435Y-196007867D01*
X194246048Y-195726493D02*
X193261241Y-195552845D01*
X193261241Y-195552845D02*
X193385389Y-195671443D01*
X193385389Y-195671443D02*
X193462643Y-195781772D01*
X193462643Y-195781772D02*
X193493000Y-195883832D01*
X194378352Y-194976163D02*
X194411428Y-194788581D01*
X194411428Y-194788581D02*
X194381070Y-194686521D01*
X194381070Y-194686521D02*
X194342443Y-194631356D01*
X194342443Y-194631356D02*
X194218294Y-194512758D01*
X194218294Y-194512758D02*
X194038981Y-194432787D01*
X194038981Y-194432787D02*
X193663816Y-194366635D01*
X193663816Y-194366635D02*
X193561756Y-194396993D01*
X193561756Y-194396993D02*
X193506591Y-194435619D01*
X193506591Y-194435619D02*
X193443158Y-194521142D01*
X193443158Y-194521142D02*
X193410082Y-194708724D01*
X193410082Y-194708724D02*
X193440440Y-194810784D01*
X193440440Y-194810784D02*
X193479066Y-194865949D01*
X193479066Y-194865949D02*
X193564588Y-194929382D01*
X193564588Y-194929382D02*
X193799066Y-194970727D01*
X193799066Y-194970727D02*
X193901127Y-194940369D01*
X193901127Y-194940369D02*
X193956291Y-194901743D01*
X193956291Y-194901743D02*
X194019725Y-194816221D01*
X194019725Y-194816221D02*
X194052801Y-194628638D01*
X194052801Y-194628638D02*
X194022443Y-194526578D01*
X194022443Y-194526578D02*
X193983816Y-194471413D01*
X193983816Y-194471413D02*
X193898294Y-194407980D01*
X129854819Y-148614285D02*
X128854819Y-148614285D01*
X128854819Y-148614285D02*
X128854819Y-148376190D01*
X128854819Y-148376190D02*
X128902438Y-148233333D01*
X128902438Y-148233333D02*
X128997676Y-148138095D01*
X128997676Y-148138095D02*
X129092914Y-148090476D01*
X129092914Y-148090476D02*
X129283390Y-148042857D01*
X129283390Y-148042857D02*
X129426247Y-148042857D01*
X129426247Y-148042857D02*
X129616723Y-148090476D01*
X129616723Y-148090476D02*
X129711961Y-148138095D01*
X129711961Y-148138095D02*
X129807200Y-148233333D01*
X129807200Y-148233333D02*
X129854819Y-148376190D01*
X129854819Y-148376190D02*
X129854819Y-148614285D01*
X128950057Y-147661904D02*
X128902438Y-147614285D01*
X128902438Y-147614285D02*
X128854819Y-147519047D01*
X128854819Y-147519047D02*
X128854819Y-147280952D01*
X128854819Y-147280952D02*
X128902438Y-147185714D01*
X128902438Y-147185714D02*
X128950057Y-147138095D01*
X128950057Y-147138095D02*
X129045295Y-147090476D01*
X129045295Y-147090476D02*
X129140533Y-147090476D01*
X129140533Y-147090476D02*
X129283390Y-147138095D01*
X129283390Y-147138095D02*
X129854819Y-147709523D01*
X129854819Y-147709523D02*
X129854819Y-147090476D01*
X129854819Y-146138095D02*
X129854819Y-146709523D01*
X129854819Y-146423809D02*
X128854819Y-146423809D01*
X128854819Y-146423809D02*
X128997676Y-146519047D01*
X128997676Y-146519047D02*
X129092914Y-146614285D01*
X129092914Y-146614285D02*
X129140533Y-146709523D01*
X190388095Y-119097200D02*
X190530952Y-119144819D01*
X190530952Y-119144819D02*
X190769047Y-119144819D01*
X190769047Y-119144819D02*
X190864285Y-119097200D01*
X190864285Y-119097200D02*
X190911904Y-119049580D01*
X190911904Y-119049580D02*
X190959523Y-118954342D01*
X190959523Y-118954342D02*
X190959523Y-118859104D01*
X190959523Y-118859104D02*
X190911904Y-118763866D01*
X190911904Y-118763866D02*
X190864285Y-118716247D01*
X190864285Y-118716247D02*
X190769047Y-118668628D01*
X190769047Y-118668628D02*
X190578571Y-118621009D01*
X190578571Y-118621009D02*
X190483333Y-118573390D01*
X190483333Y-118573390D02*
X190435714Y-118525771D01*
X190435714Y-118525771D02*
X190388095Y-118430533D01*
X190388095Y-118430533D02*
X190388095Y-118335295D01*
X190388095Y-118335295D02*
X190435714Y-118240057D01*
X190435714Y-118240057D02*
X190483333Y-118192438D01*
X190483333Y-118192438D02*
X190578571Y-118144819D01*
X190578571Y-118144819D02*
X190816666Y-118144819D01*
X190816666Y-118144819D02*
X190959523Y-118192438D01*
X191864285Y-118144819D02*
X191388095Y-118144819D01*
X191388095Y-118144819D02*
X191340476Y-118621009D01*
X191340476Y-118621009D02*
X191388095Y-118573390D01*
X191388095Y-118573390D02*
X191483333Y-118525771D01*
X191483333Y-118525771D02*
X191721428Y-118525771D01*
X191721428Y-118525771D02*
X191816666Y-118573390D01*
X191816666Y-118573390D02*
X191864285Y-118621009D01*
X191864285Y-118621009D02*
X191911904Y-118716247D01*
X191911904Y-118716247D02*
X191911904Y-118954342D01*
X191911904Y-118954342D02*
X191864285Y-119049580D01*
X191864285Y-119049580D02*
X191816666Y-119097200D01*
X191816666Y-119097200D02*
X191721428Y-119144819D01*
X191721428Y-119144819D02*
X191483333Y-119144819D01*
X191483333Y-119144819D02*
X191388095Y-119097200D01*
X191388095Y-119097200D02*
X191340476Y-119049580D01*
X114371905Y-129227200D02*
X114514762Y-129274819D01*
X114514762Y-129274819D02*
X114752857Y-129274819D01*
X114752857Y-129274819D02*
X114848095Y-129227200D01*
X114848095Y-129227200D02*
X114895714Y-129179580D01*
X114895714Y-129179580D02*
X114943333Y-129084342D01*
X114943333Y-129084342D02*
X114943333Y-128989104D01*
X114943333Y-128989104D02*
X114895714Y-128893866D01*
X114895714Y-128893866D02*
X114848095Y-128846247D01*
X114848095Y-128846247D02*
X114752857Y-128798628D01*
X114752857Y-128798628D02*
X114562381Y-128751009D01*
X114562381Y-128751009D02*
X114467143Y-128703390D01*
X114467143Y-128703390D02*
X114419524Y-128655771D01*
X114419524Y-128655771D02*
X114371905Y-128560533D01*
X114371905Y-128560533D02*
X114371905Y-128465295D01*
X114371905Y-128465295D02*
X114419524Y-128370057D01*
X114419524Y-128370057D02*
X114467143Y-128322438D01*
X114467143Y-128322438D02*
X114562381Y-128274819D01*
X114562381Y-128274819D02*
X114800476Y-128274819D01*
X114800476Y-128274819D02*
X114943333Y-128322438D01*
X115324286Y-128370057D02*
X115371905Y-128322438D01*
X115371905Y-128322438D02*
X115467143Y-128274819D01*
X115467143Y-128274819D02*
X115705238Y-128274819D01*
X115705238Y-128274819D02*
X115800476Y-128322438D01*
X115800476Y-128322438D02*
X115848095Y-128370057D01*
X115848095Y-128370057D02*
X115895714Y-128465295D01*
X115895714Y-128465295D02*
X115895714Y-128560533D01*
X115895714Y-128560533D02*
X115848095Y-128703390D01*
X115848095Y-128703390D02*
X115276667Y-129274819D01*
X115276667Y-129274819D02*
X115895714Y-129274819D01*
X116800476Y-128274819D02*
X116324286Y-128274819D01*
X116324286Y-128274819D02*
X116276667Y-128751009D01*
X116276667Y-128751009D02*
X116324286Y-128703390D01*
X116324286Y-128703390D02*
X116419524Y-128655771D01*
X116419524Y-128655771D02*
X116657619Y-128655771D01*
X116657619Y-128655771D02*
X116752857Y-128703390D01*
X116752857Y-128703390D02*
X116800476Y-128751009D01*
X116800476Y-128751009D02*
X116848095Y-128846247D01*
X116848095Y-128846247D02*
X116848095Y-129084342D01*
X116848095Y-129084342D02*
X116800476Y-129179580D01*
X116800476Y-129179580D02*
X116752857Y-129227200D01*
X116752857Y-129227200D02*
X116657619Y-129274819D01*
X116657619Y-129274819D02*
X116419524Y-129274819D01*
X116419524Y-129274819D02*
X116324286Y-129227200D01*
X116324286Y-129227200D02*
X116276667Y-129179580D01*
X209598095Y-138027200D02*
X209740952Y-138074819D01*
X209740952Y-138074819D02*
X209979047Y-138074819D01*
X209979047Y-138074819D02*
X210074285Y-138027200D01*
X210074285Y-138027200D02*
X210121904Y-137979580D01*
X210121904Y-137979580D02*
X210169523Y-137884342D01*
X210169523Y-137884342D02*
X210169523Y-137789104D01*
X210169523Y-137789104D02*
X210121904Y-137693866D01*
X210121904Y-137693866D02*
X210074285Y-137646247D01*
X210074285Y-137646247D02*
X209979047Y-137598628D01*
X209979047Y-137598628D02*
X209788571Y-137551009D01*
X209788571Y-137551009D02*
X209693333Y-137503390D01*
X209693333Y-137503390D02*
X209645714Y-137455771D01*
X209645714Y-137455771D02*
X209598095Y-137360533D01*
X209598095Y-137360533D02*
X209598095Y-137265295D01*
X209598095Y-137265295D02*
X209645714Y-137170057D01*
X209645714Y-137170057D02*
X209693333Y-137122438D01*
X209693333Y-137122438D02*
X209788571Y-137074819D01*
X209788571Y-137074819D02*
X210026666Y-137074819D01*
X210026666Y-137074819D02*
X210169523Y-137122438D01*
X210550476Y-137170057D02*
X210598095Y-137122438D01*
X210598095Y-137122438D02*
X210693333Y-137074819D01*
X210693333Y-137074819D02*
X210931428Y-137074819D01*
X210931428Y-137074819D02*
X211026666Y-137122438D01*
X211026666Y-137122438D02*
X211074285Y-137170057D01*
X211074285Y-137170057D02*
X211121904Y-137265295D01*
X211121904Y-137265295D02*
X211121904Y-137360533D01*
X211121904Y-137360533D02*
X211074285Y-137503390D01*
X211074285Y-137503390D02*
X210502857Y-138074819D01*
X210502857Y-138074819D02*
X211121904Y-138074819D01*
X205954819Y-176238094D02*
X204954819Y-176238094D01*
X204954819Y-176238094D02*
X204954819Y-175999999D01*
X204954819Y-175999999D02*
X205002438Y-175857142D01*
X205002438Y-175857142D02*
X205097676Y-175761904D01*
X205097676Y-175761904D02*
X205192914Y-175714285D01*
X205192914Y-175714285D02*
X205383390Y-175666666D01*
X205383390Y-175666666D02*
X205526247Y-175666666D01*
X205526247Y-175666666D02*
X205716723Y-175714285D01*
X205716723Y-175714285D02*
X205811961Y-175761904D01*
X205811961Y-175761904D02*
X205907200Y-175857142D01*
X205907200Y-175857142D02*
X205954819Y-175999999D01*
X205954819Y-175999999D02*
X205954819Y-176238094D01*
X205288152Y-174809523D02*
X205954819Y-174809523D01*
X204907200Y-175047618D02*
X205621485Y-175285713D01*
X205621485Y-175285713D02*
X205621485Y-174666666D01*
X171121905Y-169187200D02*
X171264762Y-169234819D01*
X171264762Y-169234819D02*
X171502857Y-169234819D01*
X171502857Y-169234819D02*
X171598095Y-169187200D01*
X171598095Y-169187200D02*
X171645714Y-169139580D01*
X171645714Y-169139580D02*
X171693333Y-169044342D01*
X171693333Y-169044342D02*
X171693333Y-168949104D01*
X171693333Y-168949104D02*
X171645714Y-168853866D01*
X171645714Y-168853866D02*
X171598095Y-168806247D01*
X171598095Y-168806247D02*
X171502857Y-168758628D01*
X171502857Y-168758628D02*
X171312381Y-168711009D01*
X171312381Y-168711009D02*
X171217143Y-168663390D01*
X171217143Y-168663390D02*
X171169524Y-168615771D01*
X171169524Y-168615771D02*
X171121905Y-168520533D01*
X171121905Y-168520533D02*
X171121905Y-168425295D01*
X171121905Y-168425295D02*
X171169524Y-168330057D01*
X171169524Y-168330057D02*
X171217143Y-168282438D01*
X171217143Y-168282438D02*
X171312381Y-168234819D01*
X171312381Y-168234819D02*
X171550476Y-168234819D01*
X171550476Y-168234819D02*
X171693333Y-168282438D01*
X172645714Y-169234819D02*
X172074286Y-169234819D01*
X172360000Y-169234819D02*
X172360000Y-168234819D01*
X172360000Y-168234819D02*
X172264762Y-168377676D01*
X172264762Y-168377676D02*
X172169524Y-168472914D01*
X172169524Y-168472914D02*
X172074286Y-168520533D01*
X172979048Y-168234819D02*
X173598095Y-168234819D01*
X173598095Y-168234819D02*
X173264762Y-168615771D01*
X173264762Y-168615771D02*
X173407619Y-168615771D01*
X173407619Y-168615771D02*
X173502857Y-168663390D01*
X173502857Y-168663390D02*
X173550476Y-168711009D01*
X173550476Y-168711009D02*
X173598095Y-168806247D01*
X173598095Y-168806247D02*
X173598095Y-169044342D01*
X173598095Y-169044342D02*
X173550476Y-169139580D01*
X173550476Y-169139580D02*
X173502857Y-169187200D01*
X173502857Y-169187200D02*
X173407619Y-169234819D01*
X173407619Y-169234819D02*
X173121905Y-169234819D01*
X173121905Y-169234819D02*
X173026667Y-169187200D01*
X173026667Y-169187200D02*
X172979048Y-169139580D01*
X152171905Y-117347200D02*
X152314762Y-117394819D01*
X152314762Y-117394819D02*
X152552857Y-117394819D01*
X152552857Y-117394819D02*
X152648095Y-117347200D01*
X152648095Y-117347200D02*
X152695714Y-117299580D01*
X152695714Y-117299580D02*
X152743333Y-117204342D01*
X152743333Y-117204342D02*
X152743333Y-117109104D01*
X152743333Y-117109104D02*
X152695714Y-117013866D01*
X152695714Y-117013866D02*
X152648095Y-116966247D01*
X152648095Y-116966247D02*
X152552857Y-116918628D01*
X152552857Y-116918628D02*
X152362381Y-116871009D01*
X152362381Y-116871009D02*
X152267143Y-116823390D01*
X152267143Y-116823390D02*
X152219524Y-116775771D01*
X152219524Y-116775771D02*
X152171905Y-116680533D01*
X152171905Y-116680533D02*
X152171905Y-116585295D01*
X152171905Y-116585295D02*
X152219524Y-116490057D01*
X152219524Y-116490057D02*
X152267143Y-116442438D01*
X152267143Y-116442438D02*
X152362381Y-116394819D01*
X152362381Y-116394819D02*
X152600476Y-116394819D01*
X152600476Y-116394819D02*
X152743333Y-116442438D01*
X153695714Y-117394819D02*
X153124286Y-117394819D01*
X153410000Y-117394819D02*
X153410000Y-116394819D01*
X153410000Y-116394819D02*
X153314762Y-116537676D01*
X153314762Y-116537676D02*
X153219524Y-116632914D01*
X153219524Y-116632914D02*
X153124286Y-116680533D01*
X154600476Y-116394819D02*
X154124286Y-116394819D01*
X154124286Y-116394819D02*
X154076667Y-116871009D01*
X154076667Y-116871009D02*
X154124286Y-116823390D01*
X154124286Y-116823390D02*
X154219524Y-116775771D01*
X154219524Y-116775771D02*
X154457619Y-116775771D01*
X154457619Y-116775771D02*
X154552857Y-116823390D01*
X154552857Y-116823390D02*
X154600476Y-116871009D01*
X154600476Y-116871009D02*
X154648095Y-116966247D01*
X154648095Y-116966247D02*
X154648095Y-117204342D01*
X154648095Y-117204342D02*
X154600476Y-117299580D01*
X154600476Y-117299580D02*
X154552857Y-117347200D01*
X154552857Y-117347200D02*
X154457619Y-117394819D01*
X154457619Y-117394819D02*
X154219524Y-117394819D01*
X154219524Y-117394819D02*
X154124286Y-117347200D01*
X154124286Y-117347200D02*
X154076667Y-117299580D01*
X114511905Y-186137200D02*
X114654762Y-186184819D01*
X114654762Y-186184819D02*
X114892857Y-186184819D01*
X114892857Y-186184819D02*
X114988095Y-186137200D01*
X114988095Y-186137200D02*
X115035714Y-186089580D01*
X115035714Y-186089580D02*
X115083333Y-185994342D01*
X115083333Y-185994342D02*
X115083333Y-185899104D01*
X115083333Y-185899104D02*
X115035714Y-185803866D01*
X115035714Y-185803866D02*
X114988095Y-185756247D01*
X114988095Y-185756247D02*
X114892857Y-185708628D01*
X114892857Y-185708628D02*
X114702381Y-185661009D01*
X114702381Y-185661009D02*
X114607143Y-185613390D01*
X114607143Y-185613390D02*
X114559524Y-185565771D01*
X114559524Y-185565771D02*
X114511905Y-185470533D01*
X114511905Y-185470533D02*
X114511905Y-185375295D01*
X114511905Y-185375295D02*
X114559524Y-185280057D01*
X114559524Y-185280057D02*
X114607143Y-185232438D01*
X114607143Y-185232438D02*
X114702381Y-185184819D01*
X114702381Y-185184819D02*
X114940476Y-185184819D01*
X114940476Y-185184819D02*
X115083333Y-185232438D01*
X115464286Y-185280057D02*
X115511905Y-185232438D01*
X115511905Y-185232438D02*
X115607143Y-185184819D01*
X115607143Y-185184819D02*
X115845238Y-185184819D01*
X115845238Y-185184819D02*
X115940476Y-185232438D01*
X115940476Y-185232438D02*
X115988095Y-185280057D01*
X115988095Y-185280057D02*
X116035714Y-185375295D01*
X116035714Y-185375295D02*
X116035714Y-185470533D01*
X116035714Y-185470533D02*
X115988095Y-185613390D01*
X115988095Y-185613390D02*
X115416667Y-186184819D01*
X115416667Y-186184819D02*
X116035714Y-186184819D01*
X116607143Y-185613390D02*
X116511905Y-185565771D01*
X116511905Y-185565771D02*
X116464286Y-185518152D01*
X116464286Y-185518152D02*
X116416667Y-185422914D01*
X116416667Y-185422914D02*
X116416667Y-185375295D01*
X116416667Y-185375295D02*
X116464286Y-185280057D01*
X116464286Y-185280057D02*
X116511905Y-185232438D01*
X116511905Y-185232438D02*
X116607143Y-185184819D01*
X116607143Y-185184819D02*
X116797619Y-185184819D01*
X116797619Y-185184819D02*
X116892857Y-185232438D01*
X116892857Y-185232438D02*
X116940476Y-185280057D01*
X116940476Y-185280057D02*
X116988095Y-185375295D01*
X116988095Y-185375295D02*
X116988095Y-185422914D01*
X116988095Y-185422914D02*
X116940476Y-185518152D01*
X116940476Y-185518152D02*
X116892857Y-185565771D01*
X116892857Y-185565771D02*
X116797619Y-185613390D01*
X116797619Y-185613390D02*
X116607143Y-185613390D01*
X116607143Y-185613390D02*
X116511905Y-185661009D01*
X116511905Y-185661009D02*
X116464286Y-185708628D01*
X116464286Y-185708628D02*
X116416667Y-185803866D01*
X116416667Y-185803866D02*
X116416667Y-185994342D01*
X116416667Y-185994342D02*
X116464286Y-186089580D01*
X116464286Y-186089580D02*
X116511905Y-186137200D01*
X116511905Y-186137200D02*
X116607143Y-186184819D01*
X116607143Y-186184819D02*
X116797619Y-186184819D01*
X116797619Y-186184819D02*
X116892857Y-186137200D01*
X116892857Y-186137200D02*
X116940476Y-186089580D01*
X116940476Y-186089580D02*
X116988095Y-185994342D01*
X116988095Y-185994342D02*
X116988095Y-185803866D01*
X116988095Y-185803866D02*
X116940476Y-185708628D01*
X116940476Y-185708628D02*
X116892857Y-185661009D01*
X116892857Y-185661009D02*
X116797619Y-185613390D01*
X214422302Y-200668275D02*
X213482610Y-200326255D01*
X213482610Y-200326255D02*
X213564043Y-200102519D01*
X213564043Y-200102519D02*
X213657650Y-199984564D01*
X213657650Y-199984564D02*
X213779718Y-199927642D01*
X213779718Y-199927642D02*
X213885500Y-199915468D01*
X213885500Y-199915468D02*
X214080775Y-199935868D01*
X214080775Y-199935868D02*
X214215017Y-199984728D01*
X214215017Y-199984728D02*
X214377719Y-200094622D01*
X214377719Y-200094622D02*
X214450927Y-200171942D01*
X214450927Y-200171942D02*
X214507849Y-200294010D01*
X214507849Y-200294010D02*
X214503736Y-200444539D01*
X214503736Y-200444539D02*
X214422302Y-200668275D01*
X214943476Y-199236363D02*
X214748036Y-199773330D01*
X214845756Y-199504846D02*
X213906063Y-199162826D01*
X213906063Y-199162826D02*
X214007732Y-199301181D01*
X214007732Y-199301181D02*
X214064653Y-199423248D01*
X214064653Y-199423248D02*
X214076827Y-199529030D01*
X214610174Y-198202898D02*
X215236636Y-198430912D01*
X214170763Y-198296341D02*
X214760538Y-198764378D01*
X214760538Y-198764378D02*
X214972265Y-198182663D01*
X205854819Y-119238094D02*
X204854819Y-119238094D01*
X204854819Y-119238094D02*
X204854819Y-118999999D01*
X204854819Y-118999999D02*
X204902438Y-118857142D01*
X204902438Y-118857142D02*
X204997676Y-118761904D01*
X204997676Y-118761904D02*
X205092914Y-118714285D01*
X205092914Y-118714285D02*
X205283390Y-118666666D01*
X205283390Y-118666666D02*
X205426247Y-118666666D01*
X205426247Y-118666666D02*
X205616723Y-118714285D01*
X205616723Y-118714285D02*
X205711961Y-118761904D01*
X205711961Y-118761904D02*
X205807200Y-118857142D01*
X205807200Y-118857142D02*
X205854819Y-118999999D01*
X205854819Y-118999999D02*
X205854819Y-119238094D01*
X205854819Y-117714285D02*
X205854819Y-118285713D01*
X205854819Y-117999999D02*
X204854819Y-117999999D01*
X204854819Y-117999999D02*
X204997676Y-118095237D01*
X204997676Y-118095237D02*
X205092914Y-118190475D01*
X205092914Y-118190475D02*
X205140533Y-118285713D01*
X110954819Y-186714285D02*
X109954819Y-186714285D01*
X109954819Y-186714285D02*
X109954819Y-186476190D01*
X109954819Y-186476190D02*
X110002438Y-186333333D01*
X110002438Y-186333333D02*
X110097676Y-186238095D01*
X110097676Y-186238095D02*
X110192914Y-186190476D01*
X110192914Y-186190476D02*
X110383390Y-186142857D01*
X110383390Y-186142857D02*
X110526247Y-186142857D01*
X110526247Y-186142857D02*
X110716723Y-186190476D01*
X110716723Y-186190476D02*
X110811961Y-186238095D01*
X110811961Y-186238095D02*
X110907200Y-186333333D01*
X110907200Y-186333333D02*
X110954819Y-186476190D01*
X110954819Y-186476190D02*
X110954819Y-186714285D01*
X110050057Y-185761904D02*
X110002438Y-185714285D01*
X110002438Y-185714285D02*
X109954819Y-185619047D01*
X109954819Y-185619047D02*
X109954819Y-185380952D01*
X109954819Y-185380952D02*
X110002438Y-185285714D01*
X110002438Y-185285714D02*
X110050057Y-185238095D01*
X110050057Y-185238095D02*
X110145295Y-185190476D01*
X110145295Y-185190476D02*
X110240533Y-185190476D01*
X110240533Y-185190476D02*
X110383390Y-185238095D01*
X110383390Y-185238095D02*
X110954819Y-185809523D01*
X110954819Y-185809523D02*
X110954819Y-185190476D01*
X110383390Y-184619047D02*
X110335771Y-184714285D01*
X110335771Y-184714285D02*
X110288152Y-184761904D01*
X110288152Y-184761904D02*
X110192914Y-184809523D01*
X110192914Y-184809523D02*
X110145295Y-184809523D01*
X110145295Y-184809523D02*
X110050057Y-184761904D01*
X110050057Y-184761904D02*
X110002438Y-184714285D01*
X110002438Y-184714285D02*
X109954819Y-184619047D01*
X109954819Y-184619047D02*
X109954819Y-184428571D01*
X109954819Y-184428571D02*
X110002438Y-184333333D01*
X110002438Y-184333333D02*
X110050057Y-184285714D01*
X110050057Y-184285714D02*
X110145295Y-184238095D01*
X110145295Y-184238095D02*
X110192914Y-184238095D01*
X110192914Y-184238095D02*
X110288152Y-184285714D01*
X110288152Y-184285714D02*
X110335771Y-184333333D01*
X110335771Y-184333333D02*
X110383390Y-184428571D01*
X110383390Y-184428571D02*
X110383390Y-184619047D01*
X110383390Y-184619047D02*
X110431009Y-184714285D01*
X110431009Y-184714285D02*
X110478628Y-184761904D01*
X110478628Y-184761904D02*
X110573866Y-184809523D01*
X110573866Y-184809523D02*
X110764342Y-184809523D01*
X110764342Y-184809523D02*
X110859580Y-184761904D01*
X110859580Y-184761904D02*
X110907200Y-184714285D01*
X110907200Y-184714285D02*
X110954819Y-184619047D01*
X110954819Y-184619047D02*
X110954819Y-184428571D01*
X110954819Y-184428571D02*
X110907200Y-184333333D01*
X110907200Y-184333333D02*
X110859580Y-184285714D01*
X110859580Y-184285714D02*
X110764342Y-184238095D01*
X110764342Y-184238095D02*
X110573866Y-184238095D01*
X110573866Y-184238095D02*
X110478628Y-184285714D01*
X110478628Y-184285714D02*
X110431009Y-184333333D01*
X110431009Y-184333333D02*
X110383390Y-184428571D01*
X129954819Y-186714285D02*
X128954819Y-186714285D01*
X128954819Y-186714285D02*
X128954819Y-186476190D01*
X128954819Y-186476190D02*
X129002438Y-186333333D01*
X129002438Y-186333333D02*
X129097676Y-186238095D01*
X129097676Y-186238095D02*
X129192914Y-186190476D01*
X129192914Y-186190476D02*
X129383390Y-186142857D01*
X129383390Y-186142857D02*
X129526247Y-186142857D01*
X129526247Y-186142857D02*
X129716723Y-186190476D01*
X129716723Y-186190476D02*
X129811961Y-186238095D01*
X129811961Y-186238095D02*
X129907200Y-186333333D01*
X129907200Y-186333333D02*
X129954819Y-186476190D01*
X129954819Y-186476190D02*
X129954819Y-186714285D01*
X129050057Y-185761904D02*
X129002438Y-185714285D01*
X129002438Y-185714285D02*
X128954819Y-185619047D01*
X128954819Y-185619047D02*
X128954819Y-185380952D01*
X128954819Y-185380952D02*
X129002438Y-185285714D01*
X129002438Y-185285714D02*
X129050057Y-185238095D01*
X129050057Y-185238095D02*
X129145295Y-185190476D01*
X129145295Y-185190476D02*
X129240533Y-185190476D01*
X129240533Y-185190476D02*
X129383390Y-185238095D01*
X129383390Y-185238095D02*
X129954819Y-185809523D01*
X129954819Y-185809523D02*
X129954819Y-185190476D01*
X128954819Y-184857142D02*
X128954819Y-184238095D01*
X128954819Y-184238095D02*
X129335771Y-184571428D01*
X129335771Y-184571428D02*
X129335771Y-184428571D01*
X129335771Y-184428571D02*
X129383390Y-184333333D01*
X129383390Y-184333333D02*
X129431009Y-184285714D01*
X129431009Y-184285714D02*
X129526247Y-184238095D01*
X129526247Y-184238095D02*
X129764342Y-184238095D01*
X129764342Y-184238095D02*
X129859580Y-184285714D01*
X129859580Y-184285714D02*
X129907200Y-184333333D01*
X129907200Y-184333333D02*
X129954819Y-184428571D01*
X129954819Y-184428571D02*
X129954819Y-184714285D01*
X129954819Y-184714285D02*
X129907200Y-184809523D01*
X129907200Y-184809523D02*
X129859580Y-184857142D01*
X190788095Y-138117200D02*
X190930952Y-138164819D01*
X190930952Y-138164819D02*
X191169047Y-138164819D01*
X191169047Y-138164819D02*
X191264285Y-138117200D01*
X191264285Y-138117200D02*
X191311904Y-138069580D01*
X191311904Y-138069580D02*
X191359523Y-137974342D01*
X191359523Y-137974342D02*
X191359523Y-137879104D01*
X191359523Y-137879104D02*
X191311904Y-137783866D01*
X191311904Y-137783866D02*
X191264285Y-137736247D01*
X191264285Y-137736247D02*
X191169047Y-137688628D01*
X191169047Y-137688628D02*
X190978571Y-137641009D01*
X190978571Y-137641009D02*
X190883333Y-137593390D01*
X190883333Y-137593390D02*
X190835714Y-137545771D01*
X190835714Y-137545771D02*
X190788095Y-137450533D01*
X190788095Y-137450533D02*
X190788095Y-137355295D01*
X190788095Y-137355295D02*
X190835714Y-137260057D01*
X190835714Y-137260057D02*
X190883333Y-137212438D01*
X190883333Y-137212438D02*
X190978571Y-137164819D01*
X190978571Y-137164819D02*
X191216666Y-137164819D01*
X191216666Y-137164819D02*
X191359523Y-137212438D01*
X192216666Y-137164819D02*
X192026190Y-137164819D01*
X192026190Y-137164819D02*
X191930952Y-137212438D01*
X191930952Y-137212438D02*
X191883333Y-137260057D01*
X191883333Y-137260057D02*
X191788095Y-137402914D01*
X191788095Y-137402914D02*
X191740476Y-137593390D01*
X191740476Y-137593390D02*
X191740476Y-137974342D01*
X191740476Y-137974342D02*
X191788095Y-138069580D01*
X191788095Y-138069580D02*
X191835714Y-138117200D01*
X191835714Y-138117200D02*
X191930952Y-138164819D01*
X191930952Y-138164819D02*
X192121428Y-138164819D01*
X192121428Y-138164819D02*
X192216666Y-138117200D01*
X192216666Y-138117200D02*
X192264285Y-138069580D01*
X192264285Y-138069580D02*
X192311904Y-137974342D01*
X192311904Y-137974342D02*
X192311904Y-137736247D01*
X192311904Y-137736247D02*
X192264285Y-137641009D01*
X192264285Y-137641009D02*
X192216666Y-137593390D01*
X192216666Y-137593390D02*
X192121428Y-137545771D01*
X192121428Y-137545771D02*
X191930952Y-137545771D01*
X191930952Y-137545771D02*
X191835714Y-137593390D01*
X191835714Y-137593390D02*
X191788095Y-137641009D01*
X191788095Y-137641009D02*
X191740476Y-137736247D01*
X110954819Y-148614285D02*
X109954819Y-148614285D01*
X109954819Y-148614285D02*
X109954819Y-148376190D01*
X109954819Y-148376190D02*
X110002438Y-148233333D01*
X110002438Y-148233333D02*
X110097676Y-148138095D01*
X110097676Y-148138095D02*
X110192914Y-148090476D01*
X110192914Y-148090476D02*
X110383390Y-148042857D01*
X110383390Y-148042857D02*
X110526247Y-148042857D01*
X110526247Y-148042857D02*
X110716723Y-148090476D01*
X110716723Y-148090476D02*
X110811961Y-148138095D01*
X110811961Y-148138095D02*
X110907200Y-148233333D01*
X110907200Y-148233333D02*
X110954819Y-148376190D01*
X110954819Y-148376190D02*
X110954819Y-148614285D01*
X110050057Y-147661904D02*
X110002438Y-147614285D01*
X110002438Y-147614285D02*
X109954819Y-147519047D01*
X109954819Y-147519047D02*
X109954819Y-147280952D01*
X109954819Y-147280952D02*
X110002438Y-147185714D01*
X110002438Y-147185714D02*
X110050057Y-147138095D01*
X110050057Y-147138095D02*
X110145295Y-147090476D01*
X110145295Y-147090476D02*
X110240533Y-147090476D01*
X110240533Y-147090476D02*
X110383390Y-147138095D01*
X110383390Y-147138095D02*
X110954819Y-147709523D01*
X110954819Y-147709523D02*
X110954819Y-147090476D01*
X109954819Y-146233333D02*
X109954819Y-146423809D01*
X109954819Y-146423809D02*
X110002438Y-146519047D01*
X110002438Y-146519047D02*
X110050057Y-146566666D01*
X110050057Y-146566666D02*
X110192914Y-146661904D01*
X110192914Y-146661904D02*
X110383390Y-146709523D01*
X110383390Y-146709523D02*
X110764342Y-146709523D01*
X110764342Y-146709523D02*
X110859580Y-146661904D01*
X110859580Y-146661904D02*
X110907200Y-146614285D01*
X110907200Y-146614285D02*
X110954819Y-146519047D01*
X110954819Y-146519047D02*
X110954819Y-146328571D01*
X110954819Y-146328571D02*
X110907200Y-146233333D01*
X110907200Y-146233333D02*
X110859580Y-146185714D01*
X110859580Y-146185714D02*
X110764342Y-146138095D01*
X110764342Y-146138095D02*
X110526247Y-146138095D01*
X110526247Y-146138095D02*
X110431009Y-146185714D01*
X110431009Y-146185714D02*
X110383390Y-146233333D01*
X110383390Y-146233333D02*
X110335771Y-146328571D01*
X110335771Y-146328571D02*
X110335771Y-146519047D01*
X110335771Y-146519047D02*
X110383390Y-146614285D01*
X110383390Y-146614285D02*
X110431009Y-146661904D01*
X110431009Y-146661904D02*
X110526247Y-146709523D01*
X133471905Y-148217200D02*
X133614762Y-148264819D01*
X133614762Y-148264819D02*
X133852857Y-148264819D01*
X133852857Y-148264819D02*
X133948095Y-148217200D01*
X133948095Y-148217200D02*
X133995714Y-148169580D01*
X133995714Y-148169580D02*
X134043333Y-148074342D01*
X134043333Y-148074342D02*
X134043333Y-147979104D01*
X134043333Y-147979104D02*
X133995714Y-147883866D01*
X133995714Y-147883866D02*
X133948095Y-147836247D01*
X133948095Y-147836247D02*
X133852857Y-147788628D01*
X133852857Y-147788628D02*
X133662381Y-147741009D01*
X133662381Y-147741009D02*
X133567143Y-147693390D01*
X133567143Y-147693390D02*
X133519524Y-147645771D01*
X133519524Y-147645771D02*
X133471905Y-147550533D01*
X133471905Y-147550533D02*
X133471905Y-147455295D01*
X133471905Y-147455295D02*
X133519524Y-147360057D01*
X133519524Y-147360057D02*
X133567143Y-147312438D01*
X133567143Y-147312438D02*
X133662381Y-147264819D01*
X133662381Y-147264819D02*
X133900476Y-147264819D01*
X133900476Y-147264819D02*
X134043333Y-147312438D01*
X134424286Y-147360057D02*
X134471905Y-147312438D01*
X134471905Y-147312438D02*
X134567143Y-147264819D01*
X134567143Y-147264819D02*
X134805238Y-147264819D01*
X134805238Y-147264819D02*
X134900476Y-147312438D01*
X134900476Y-147312438D02*
X134948095Y-147360057D01*
X134948095Y-147360057D02*
X134995714Y-147455295D01*
X134995714Y-147455295D02*
X134995714Y-147550533D01*
X134995714Y-147550533D02*
X134948095Y-147693390D01*
X134948095Y-147693390D02*
X134376667Y-148264819D01*
X134376667Y-148264819D02*
X134995714Y-148264819D01*
X135948095Y-148264819D02*
X135376667Y-148264819D01*
X135662381Y-148264819D02*
X135662381Y-147264819D01*
X135662381Y-147264819D02*
X135567143Y-147407676D01*
X135567143Y-147407676D02*
X135471905Y-147502914D01*
X135471905Y-147502914D02*
X135376667Y-147550533D01*
X209778095Y-118917200D02*
X209920952Y-118964819D01*
X209920952Y-118964819D02*
X210159047Y-118964819D01*
X210159047Y-118964819D02*
X210254285Y-118917200D01*
X210254285Y-118917200D02*
X210301904Y-118869580D01*
X210301904Y-118869580D02*
X210349523Y-118774342D01*
X210349523Y-118774342D02*
X210349523Y-118679104D01*
X210349523Y-118679104D02*
X210301904Y-118583866D01*
X210301904Y-118583866D02*
X210254285Y-118536247D01*
X210254285Y-118536247D02*
X210159047Y-118488628D01*
X210159047Y-118488628D02*
X209968571Y-118441009D01*
X209968571Y-118441009D02*
X209873333Y-118393390D01*
X209873333Y-118393390D02*
X209825714Y-118345771D01*
X209825714Y-118345771D02*
X209778095Y-118250533D01*
X209778095Y-118250533D02*
X209778095Y-118155295D01*
X209778095Y-118155295D02*
X209825714Y-118060057D01*
X209825714Y-118060057D02*
X209873333Y-118012438D01*
X209873333Y-118012438D02*
X209968571Y-117964819D01*
X209968571Y-117964819D02*
X210206666Y-117964819D01*
X210206666Y-117964819D02*
X210349523Y-118012438D01*
X211301904Y-118964819D02*
X210730476Y-118964819D01*
X211016190Y-118964819D02*
X211016190Y-117964819D01*
X211016190Y-117964819D02*
X210920952Y-118107676D01*
X210920952Y-118107676D02*
X210825714Y-118202914D01*
X210825714Y-118202914D02*
X210730476Y-118250533D01*
X167954819Y-112814285D02*
X166954819Y-112814285D01*
X166954819Y-112814285D02*
X166954819Y-112576190D01*
X166954819Y-112576190D02*
X167002438Y-112433333D01*
X167002438Y-112433333D02*
X167097676Y-112338095D01*
X167097676Y-112338095D02*
X167192914Y-112290476D01*
X167192914Y-112290476D02*
X167383390Y-112242857D01*
X167383390Y-112242857D02*
X167526247Y-112242857D01*
X167526247Y-112242857D02*
X167716723Y-112290476D01*
X167716723Y-112290476D02*
X167811961Y-112338095D01*
X167811961Y-112338095D02*
X167907200Y-112433333D01*
X167907200Y-112433333D02*
X167954819Y-112576190D01*
X167954819Y-112576190D02*
X167954819Y-112814285D01*
X167954819Y-111290476D02*
X167954819Y-111861904D01*
X167954819Y-111576190D02*
X166954819Y-111576190D01*
X166954819Y-111576190D02*
X167097676Y-111671428D01*
X167097676Y-111671428D02*
X167192914Y-111766666D01*
X167192914Y-111766666D02*
X167240533Y-111861904D01*
X166954819Y-110671428D02*
X166954819Y-110576190D01*
X166954819Y-110576190D02*
X167002438Y-110480952D01*
X167002438Y-110480952D02*
X167050057Y-110433333D01*
X167050057Y-110433333D02*
X167145295Y-110385714D01*
X167145295Y-110385714D02*
X167335771Y-110338095D01*
X167335771Y-110338095D02*
X167573866Y-110338095D01*
X167573866Y-110338095D02*
X167764342Y-110385714D01*
X167764342Y-110385714D02*
X167859580Y-110433333D01*
X167859580Y-110433333D02*
X167907200Y-110480952D01*
X167907200Y-110480952D02*
X167954819Y-110576190D01*
X167954819Y-110576190D02*
X167954819Y-110671428D01*
X167954819Y-110671428D02*
X167907200Y-110766666D01*
X167907200Y-110766666D02*
X167859580Y-110814285D01*
X167859580Y-110814285D02*
X167764342Y-110861904D01*
X167764342Y-110861904D02*
X167573866Y-110909523D01*
X167573866Y-110909523D02*
X167335771Y-110909523D01*
X167335771Y-110909523D02*
X167145295Y-110861904D01*
X167145295Y-110861904D02*
X167050057Y-110814285D01*
X167050057Y-110814285D02*
X167002438Y-110766666D01*
X167002438Y-110766666D02*
X166954819Y-110671428D01*
X133201905Y-167227200D02*
X133344762Y-167274819D01*
X133344762Y-167274819D02*
X133582857Y-167274819D01*
X133582857Y-167274819D02*
X133678095Y-167227200D01*
X133678095Y-167227200D02*
X133725714Y-167179580D01*
X133725714Y-167179580D02*
X133773333Y-167084342D01*
X133773333Y-167084342D02*
X133773333Y-166989104D01*
X133773333Y-166989104D02*
X133725714Y-166893866D01*
X133725714Y-166893866D02*
X133678095Y-166846247D01*
X133678095Y-166846247D02*
X133582857Y-166798628D01*
X133582857Y-166798628D02*
X133392381Y-166751009D01*
X133392381Y-166751009D02*
X133297143Y-166703390D01*
X133297143Y-166703390D02*
X133249524Y-166655771D01*
X133249524Y-166655771D02*
X133201905Y-166560533D01*
X133201905Y-166560533D02*
X133201905Y-166465295D01*
X133201905Y-166465295D02*
X133249524Y-166370057D01*
X133249524Y-166370057D02*
X133297143Y-166322438D01*
X133297143Y-166322438D02*
X133392381Y-166274819D01*
X133392381Y-166274819D02*
X133630476Y-166274819D01*
X133630476Y-166274819D02*
X133773333Y-166322438D01*
X134154286Y-166370057D02*
X134201905Y-166322438D01*
X134201905Y-166322438D02*
X134297143Y-166274819D01*
X134297143Y-166274819D02*
X134535238Y-166274819D01*
X134535238Y-166274819D02*
X134630476Y-166322438D01*
X134630476Y-166322438D02*
X134678095Y-166370057D01*
X134678095Y-166370057D02*
X134725714Y-166465295D01*
X134725714Y-166465295D02*
X134725714Y-166560533D01*
X134725714Y-166560533D02*
X134678095Y-166703390D01*
X134678095Y-166703390D02*
X134106667Y-167274819D01*
X134106667Y-167274819D02*
X134725714Y-167274819D01*
X135106667Y-166370057D02*
X135154286Y-166322438D01*
X135154286Y-166322438D02*
X135249524Y-166274819D01*
X135249524Y-166274819D02*
X135487619Y-166274819D01*
X135487619Y-166274819D02*
X135582857Y-166322438D01*
X135582857Y-166322438D02*
X135630476Y-166370057D01*
X135630476Y-166370057D02*
X135678095Y-166465295D01*
X135678095Y-166465295D02*
X135678095Y-166560533D01*
X135678095Y-166560533D02*
X135630476Y-166703390D01*
X135630476Y-166703390D02*
X135059048Y-167274819D01*
X135059048Y-167274819D02*
X135678095Y-167274819D01*
X171267757Y-149978913D02*
X171410614Y-150026532D01*
X171410614Y-150026532D02*
X171648709Y-150026532D01*
X171648709Y-150026532D02*
X171743947Y-149978913D01*
X171743947Y-149978913D02*
X171791566Y-149931293D01*
X171791566Y-149931293D02*
X171839185Y-149836055D01*
X171839185Y-149836055D02*
X171839185Y-149740817D01*
X171839185Y-149740817D02*
X171791566Y-149645579D01*
X171791566Y-149645579D02*
X171743947Y-149597960D01*
X171743947Y-149597960D02*
X171648709Y-149550341D01*
X171648709Y-149550341D02*
X171458233Y-149502722D01*
X171458233Y-149502722D02*
X171362995Y-149455103D01*
X171362995Y-149455103D02*
X171315376Y-149407484D01*
X171315376Y-149407484D02*
X171267757Y-149312246D01*
X171267757Y-149312246D02*
X171267757Y-149217008D01*
X171267757Y-149217008D02*
X171315376Y-149121770D01*
X171315376Y-149121770D02*
X171362995Y-149074151D01*
X171362995Y-149074151D02*
X171458233Y-149026532D01*
X171458233Y-149026532D02*
X171696328Y-149026532D01*
X171696328Y-149026532D02*
X171839185Y-149074151D01*
X172791566Y-150026532D02*
X172220138Y-150026532D01*
X172505852Y-150026532D02*
X172505852Y-149026532D01*
X172505852Y-149026532D02*
X172410614Y-149169389D01*
X172410614Y-149169389D02*
X172315376Y-149264627D01*
X172315376Y-149264627D02*
X172220138Y-149312246D01*
X173172519Y-149121770D02*
X173220138Y-149074151D01*
X173220138Y-149074151D02*
X173315376Y-149026532D01*
X173315376Y-149026532D02*
X173553471Y-149026532D01*
X173553471Y-149026532D02*
X173648709Y-149074151D01*
X173648709Y-149074151D02*
X173696328Y-149121770D01*
X173696328Y-149121770D02*
X173743947Y-149217008D01*
X173743947Y-149217008D02*
X173743947Y-149312246D01*
X173743947Y-149312246D02*
X173696328Y-149455103D01*
X173696328Y-149455103D02*
X173124900Y-150026532D01*
X173124900Y-150026532D02*
X173743947Y-150026532D01*
X110954819Y-129414285D02*
X109954819Y-129414285D01*
X109954819Y-129414285D02*
X109954819Y-129176190D01*
X109954819Y-129176190D02*
X110002438Y-129033333D01*
X110002438Y-129033333D02*
X110097676Y-128938095D01*
X110097676Y-128938095D02*
X110192914Y-128890476D01*
X110192914Y-128890476D02*
X110383390Y-128842857D01*
X110383390Y-128842857D02*
X110526247Y-128842857D01*
X110526247Y-128842857D02*
X110716723Y-128890476D01*
X110716723Y-128890476D02*
X110811961Y-128938095D01*
X110811961Y-128938095D02*
X110907200Y-129033333D01*
X110907200Y-129033333D02*
X110954819Y-129176190D01*
X110954819Y-129176190D02*
X110954819Y-129414285D01*
X110050057Y-128461904D02*
X110002438Y-128414285D01*
X110002438Y-128414285D02*
X109954819Y-128319047D01*
X109954819Y-128319047D02*
X109954819Y-128080952D01*
X109954819Y-128080952D02*
X110002438Y-127985714D01*
X110002438Y-127985714D02*
X110050057Y-127938095D01*
X110050057Y-127938095D02*
X110145295Y-127890476D01*
X110145295Y-127890476D02*
X110240533Y-127890476D01*
X110240533Y-127890476D02*
X110383390Y-127938095D01*
X110383390Y-127938095D02*
X110954819Y-128509523D01*
X110954819Y-128509523D02*
X110954819Y-127890476D01*
X109954819Y-126985714D02*
X109954819Y-127461904D01*
X109954819Y-127461904D02*
X110431009Y-127509523D01*
X110431009Y-127509523D02*
X110383390Y-127461904D01*
X110383390Y-127461904D02*
X110335771Y-127366666D01*
X110335771Y-127366666D02*
X110335771Y-127128571D01*
X110335771Y-127128571D02*
X110383390Y-127033333D01*
X110383390Y-127033333D02*
X110431009Y-126985714D01*
X110431009Y-126985714D02*
X110526247Y-126938095D01*
X110526247Y-126938095D02*
X110764342Y-126938095D01*
X110764342Y-126938095D02*
X110859580Y-126985714D01*
X110859580Y-126985714D02*
X110907200Y-127033333D01*
X110907200Y-127033333D02*
X110954819Y-127128571D01*
X110954819Y-127128571D02*
X110954819Y-127366666D01*
X110954819Y-127366666D02*
X110907200Y-127461904D01*
X110907200Y-127461904D02*
X110859580Y-127509523D01*
X133291905Y-186187200D02*
X133434762Y-186234819D01*
X133434762Y-186234819D02*
X133672857Y-186234819D01*
X133672857Y-186234819D02*
X133768095Y-186187200D01*
X133768095Y-186187200D02*
X133815714Y-186139580D01*
X133815714Y-186139580D02*
X133863333Y-186044342D01*
X133863333Y-186044342D02*
X133863333Y-185949104D01*
X133863333Y-185949104D02*
X133815714Y-185853866D01*
X133815714Y-185853866D02*
X133768095Y-185806247D01*
X133768095Y-185806247D02*
X133672857Y-185758628D01*
X133672857Y-185758628D02*
X133482381Y-185711009D01*
X133482381Y-185711009D02*
X133387143Y-185663390D01*
X133387143Y-185663390D02*
X133339524Y-185615771D01*
X133339524Y-185615771D02*
X133291905Y-185520533D01*
X133291905Y-185520533D02*
X133291905Y-185425295D01*
X133291905Y-185425295D02*
X133339524Y-185330057D01*
X133339524Y-185330057D02*
X133387143Y-185282438D01*
X133387143Y-185282438D02*
X133482381Y-185234819D01*
X133482381Y-185234819D02*
X133720476Y-185234819D01*
X133720476Y-185234819D02*
X133863333Y-185282438D01*
X134244286Y-185330057D02*
X134291905Y-185282438D01*
X134291905Y-185282438D02*
X134387143Y-185234819D01*
X134387143Y-185234819D02*
X134625238Y-185234819D01*
X134625238Y-185234819D02*
X134720476Y-185282438D01*
X134720476Y-185282438D02*
X134768095Y-185330057D01*
X134768095Y-185330057D02*
X134815714Y-185425295D01*
X134815714Y-185425295D02*
X134815714Y-185520533D01*
X134815714Y-185520533D02*
X134768095Y-185663390D01*
X134768095Y-185663390D02*
X134196667Y-186234819D01*
X134196667Y-186234819D02*
X134815714Y-186234819D01*
X135149048Y-185234819D02*
X135768095Y-185234819D01*
X135768095Y-185234819D02*
X135434762Y-185615771D01*
X135434762Y-185615771D02*
X135577619Y-185615771D01*
X135577619Y-185615771D02*
X135672857Y-185663390D01*
X135672857Y-185663390D02*
X135720476Y-185711009D01*
X135720476Y-185711009D02*
X135768095Y-185806247D01*
X135768095Y-185806247D02*
X135768095Y-186044342D01*
X135768095Y-186044342D02*
X135720476Y-186139580D01*
X135720476Y-186139580D02*
X135672857Y-186187200D01*
X135672857Y-186187200D02*
X135577619Y-186234819D01*
X135577619Y-186234819D02*
X135291905Y-186234819D01*
X135291905Y-186234819D02*
X135196667Y-186187200D01*
X135196667Y-186187200D02*
X135149048Y-186139580D01*
X110954819Y-167614285D02*
X109954819Y-167614285D01*
X109954819Y-167614285D02*
X109954819Y-167376190D01*
X109954819Y-167376190D02*
X110002438Y-167233333D01*
X110002438Y-167233333D02*
X110097676Y-167138095D01*
X110097676Y-167138095D02*
X110192914Y-167090476D01*
X110192914Y-167090476D02*
X110383390Y-167042857D01*
X110383390Y-167042857D02*
X110526247Y-167042857D01*
X110526247Y-167042857D02*
X110716723Y-167090476D01*
X110716723Y-167090476D02*
X110811961Y-167138095D01*
X110811961Y-167138095D02*
X110907200Y-167233333D01*
X110907200Y-167233333D02*
X110954819Y-167376190D01*
X110954819Y-167376190D02*
X110954819Y-167614285D01*
X110050057Y-166661904D02*
X110002438Y-166614285D01*
X110002438Y-166614285D02*
X109954819Y-166519047D01*
X109954819Y-166519047D02*
X109954819Y-166280952D01*
X109954819Y-166280952D02*
X110002438Y-166185714D01*
X110002438Y-166185714D02*
X110050057Y-166138095D01*
X110050057Y-166138095D02*
X110145295Y-166090476D01*
X110145295Y-166090476D02*
X110240533Y-166090476D01*
X110240533Y-166090476D02*
X110383390Y-166138095D01*
X110383390Y-166138095D02*
X110954819Y-166709523D01*
X110954819Y-166709523D02*
X110954819Y-166090476D01*
X109954819Y-165757142D02*
X109954819Y-165090476D01*
X109954819Y-165090476D02*
X110954819Y-165519047D01*
X209568095Y-175927200D02*
X209710952Y-175974819D01*
X209710952Y-175974819D02*
X209949047Y-175974819D01*
X209949047Y-175974819D02*
X210044285Y-175927200D01*
X210044285Y-175927200D02*
X210091904Y-175879580D01*
X210091904Y-175879580D02*
X210139523Y-175784342D01*
X210139523Y-175784342D02*
X210139523Y-175689104D01*
X210139523Y-175689104D02*
X210091904Y-175593866D01*
X210091904Y-175593866D02*
X210044285Y-175546247D01*
X210044285Y-175546247D02*
X209949047Y-175498628D01*
X209949047Y-175498628D02*
X209758571Y-175451009D01*
X209758571Y-175451009D02*
X209663333Y-175403390D01*
X209663333Y-175403390D02*
X209615714Y-175355771D01*
X209615714Y-175355771D02*
X209568095Y-175260533D01*
X209568095Y-175260533D02*
X209568095Y-175165295D01*
X209568095Y-175165295D02*
X209615714Y-175070057D01*
X209615714Y-175070057D02*
X209663333Y-175022438D01*
X209663333Y-175022438D02*
X209758571Y-174974819D01*
X209758571Y-174974819D02*
X209996666Y-174974819D01*
X209996666Y-174974819D02*
X210139523Y-175022438D01*
X210996666Y-175308152D02*
X210996666Y-175974819D01*
X210758571Y-174927200D02*
X210520476Y-175641485D01*
X210520476Y-175641485D02*
X211139523Y-175641485D01*
X233955247Y-206826552D02*
X233089222Y-206326552D01*
X233089222Y-206326552D02*
X233208269Y-206120355D01*
X233208269Y-206120355D02*
X233320937Y-206020447D01*
X233320937Y-206020447D02*
X233451035Y-205985587D01*
X233451035Y-205985587D02*
X233557323Y-205991967D01*
X233557323Y-205991967D02*
X233746090Y-206045966D01*
X233746090Y-206045966D02*
X233869808Y-206117394D01*
X233869808Y-206117394D02*
X234010955Y-206253872D01*
X234010955Y-206253872D02*
X234069624Y-206342730D01*
X234069624Y-206342730D02*
X234104484Y-206472828D01*
X234104484Y-206472828D02*
X234074295Y-206620355D01*
X234074295Y-206620355D02*
X233955247Y-206826552D01*
X234479056Y-205919287D02*
X234574295Y-205754330D01*
X234574295Y-205754330D02*
X234580674Y-205648042D01*
X234580674Y-205648042D02*
X234563245Y-205582993D01*
X234563245Y-205582993D02*
X234487146Y-205429086D01*
X234487146Y-205429086D02*
X234345998Y-205292608D01*
X234345998Y-205292608D02*
X234016084Y-205102132D01*
X234016084Y-205102132D02*
X233909795Y-205095752D01*
X233909795Y-205095752D02*
X233844747Y-205113182D01*
X233844747Y-205113182D02*
X233755888Y-205171851D01*
X233755888Y-205171851D02*
X233660650Y-205336809D01*
X233660650Y-205336809D02*
X233654270Y-205443097D01*
X233654270Y-205443097D02*
X233671700Y-205508145D01*
X233671700Y-205508145D02*
X233730369Y-205597004D01*
X233730369Y-205597004D02*
X233936566Y-205716051D01*
X233936566Y-205716051D02*
X234042854Y-205722431D01*
X234042854Y-205722431D02*
X234107903Y-205705001D01*
X234107903Y-205705001D02*
X234196761Y-205646332D01*
X234196761Y-205646332D02*
X234291999Y-205481375D01*
X234291999Y-205481375D02*
X234298379Y-205375087D01*
X234298379Y-205375087D02*
X234280949Y-205310038D01*
X234280949Y-205310038D02*
X234222280Y-205221180D01*
X217887300Y-201189189D02*
X218005255Y-201282796D01*
X218005255Y-201282796D02*
X218228992Y-201364230D01*
X218228992Y-201364230D02*
X218334773Y-201352056D01*
X218334773Y-201352056D02*
X218395807Y-201323595D01*
X218395807Y-201323595D02*
X218473128Y-201250387D01*
X218473128Y-201250387D02*
X218505701Y-201160893D01*
X218505701Y-201160893D02*
X218493527Y-201055112D01*
X218493527Y-201055112D02*
X218465066Y-200994078D01*
X218465066Y-200994078D02*
X218391859Y-200916757D01*
X218391859Y-200916757D02*
X218229156Y-200806863D01*
X218229156Y-200806863D02*
X218155948Y-200729542D01*
X218155948Y-200729542D02*
X218127488Y-200668508D01*
X218127488Y-200668508D02*
X218115314Y-200562727D01*
X218115314Y-200562727D02*
X218147887Y-200473233D01*
X218147887Y-200473233D02*
X218225208Y-200400025D01*
X218225208Y-200400025D02*
X218286242Y-200371564D01*
X218286242Y-200371564D02*
X218392023Y-200359390D01*
X218392023Y-200359390D02*
X218615759Y-200440824D01*
X218615759Y-200440824D02*
X218733714Y-200534431D01*
X219302926Y-201755110D02*
X218765959Y-201559670D01*
X219034443Y-201657390D02*
X219376463Y-200717697D01*
X219376463Y-200717697D02*
X219238108Y-200819366D01*
X219238108Y-200819366D02*
X219116040Y-200876287D01*
X219116040Y-200876287D02*
X219010259Y-200888461D01*
X220336391Y-201421808D02*
X220108377Y-202048270D01*
X220242948Y-200982397D02*
X219774911Y-201572172D01*
X219774911Y-201572172D02*
X220356626Y-201783899D01*
X245139819Y-146928333D02*
X245854104Y-146928333D01*
X245854104Y-146928333D02*
X245996961Y-146975952D01*
X245996961Y-146975952D02*
X246092200Y-147071190D01*
X246092200Y-147071190D02*
X246139819Y-147214047D01*
X246139819Y-147214047D02*
X246139819Y-147309285D01*
X246139819Y-145928333D02*
X246139819Y-146499761D01*
X246139819Y-146214047D02*
X245139819Y-146214047D01*
X245139819Y-146214047D02*
X245282676Y-146309285D01*
X245282676Y-146309285D02*
X245377914Y-146404523D01*
X245377914Y-146404523D02*
X245425533Y-146499761D01*
X148984819Y-156344285D02*
X147984819Y-156344285D01*
X147984819Y-156344285D02*
X147984819Y-156106190D01*
X147984819Y-156106190D02*
X148032438Y-155963333D01*
X148032438Y-155963333D02*
X148127676Y-155868095D01*
X148127676Y-155868095D02*
X148222914Y-155820476D01*
X148222914Y-155820476D02*
X148413390Y-155772857D01*
X148413390Y-155772857D02*
X148556247Y-155772857D01*
X148556247Y-155772857D02*
X148746723Y-155820476D01*
X148746723Y-155820476D02*
X148841961Y-155868095D01*
X148841961Y-155868095D02*
X148937200Y-155963333D01*
X148937200Y-155963333D02*
X148984819Y-156106190D01*
X148984819Y-156106190D02*
X148984819Y-156344285D01*
X148984819Y-154820476D02*
X148984819Y-155391904D01*
X148984819Y-155106190D02*
X147984819Y-155106190D01*
X147984819Y-155106190D02*
X148127676Y-155201428D01*
X148127676Y-155201428D02*
X148222914Y-155296666D01*
X148222914Y-155296666D02*
X148270533Y-155391904D01*
X147984819Y-154487142D02*
X147984819Y-153820476D01*
X147984819Y-153820476D02*
X148984819Y-154249047D01*
X231035623Y-181779147D02*
X230035623Y-181779147D01*
X230035623Y-181779147D02*
X230035623Y-181541052D01*
X230035623Y-181541052D02*
X230083242Y-181398195D01*
X230083242Y-181398195D02*
X230178480Y-181302957D01*
X230178480Y-181302957D02*
X230273718Y-181255338D01*
X230273718Y-181255338D02*
X230464194Y-181207719D01*
X230464194Y-181207719D02*
X230607051Y-181207719D01*
X230607051Y-181207719D02*
X230797527Y-181255338D01*
X230797527Y-181255338D02*
X230892765Y-181302957D01*
X230892765Y-181302957D02*
X230988004Y-181398195D01*
X230988004Y-181398195D02*
X231035623Y-181541052D01*
X231035623Y-181541052D02*
X231035623Y-181779147D01*
X231035623Y-180207719D02*
X230559432Y-180541052D01*
X231035623Y-180779147D02*
X230035623Y-180779147D01*
X230035623Y-180779147D02*
X230035623Y-180398195D01*
X230035623Y-180398195D02*
X230083242Y-180302957D01*
X230083242Y-180302957D02*
X230130861Y-180255338D01*
X230130861Y-180255338D02*
X230226099Y-180207719D01*
X230226099Y-180207719D02*
X230368956Y-180207719D01*
X230368956Y-180207719D02*
X230464194Y-180255338D01*
X230464194Y-180255338D02*
X230511813Y-180302957D01*
X230511813Y-180302957D02*
X230559432Y-180398195D01*
X230559432Y-180398195D02*
X230559432Y-180779147D01*
X230511813Y-179779147D02*
X230511813Y-179445814D01*
X231035623Y-179302957D02*
X231035623Y-179779147D01*
X231035623Y-179779147D02*
X230035623Y-179779147D01*
X230035623Y-179779147D02*
X230035623Y-179302957D01*
X231035623Y-178350576D02*
X231035623Y-178922004D01*
X231035623Y-178636290D02*
X230035623Y-178636290D01*
X230035623Y-178636290D02*
X230178480Y-178731528D01*
X230178480Y-178731528D02*
X230273718Y-178826766D01*
X230273718Y-178826766D02*
X230321337Y-178922004D01*
X249406666Y-162514819D02*
X249406666Y-163229104D01*
X249406666Y-163229104D02*
X249359047Y-163371961D01*
X249359047Y-163371961D02*
X249263809Y-163467200D01*
X249263809Y-163467200D02*
X249120952Y-163514819D01*
X249120952Y-163514819D02*
X249025714Y-163514819D01*
X249835238Y-162610057D02*
X249882857Y-162562438D01*
X249882857Y-162562438D02*
X249978095Y-162514819D01*
X249978095Y-162514819D02*
X250216190Y-162514819D01*
X250216190Y-162514819D02*
X250311428Y-162562438D01*
X250311428Y-162562438D02*
X250359047Y-162610057D01*
X250359047Y-162610057D02*
X250406666Y-162705295D01*
X250406666Y-162705295D02*
X250406666Y-162800533D01*
X250406666Y-162800533D02*
X250359047Y-162943390D01*
X250359047Y-162943390D02*
X249787619Y-163514819D01*
X249787619Y-163514819D02*
X250406666Y-163514819D01*
X187164819Y-157288094D02*
X186164819Y-157288094D01*
X186164819Y-157288094D02*
X186164819Y-157049999D01*
X186164819Y-157049999D02*
X186212438Y-156907142D01*
X186212438Y-156907142D02*
X186307676Y-156811904D01*
X186307676Y-156811904D02*
X186402914Y-156764285D01*
X186402914Y-156764285D02*
X186593390Y-156716666D01*
X186593390Y-156716666D02*
X186736247Y-156716666D01*
X186736247Y-156716666D02*
X186926723Y-156764285D01*
X186926723Y-156764285D02*
X187021961Y-156811904D01*
X187021961Y-156811904D02*
X187117200Y-156907142D01*
X187117200Y-156907142D02*
X187164819Y-157049999D01*
X187164819Y-157049999D02*
X187164819Y-157288094D01*
X186164819Y-156383332D02*
X186164819Y-155716666D01*
X186164819Y-155716666D02*
X187164819Y-156145237D01*
X148964819Y-175294285D02*
X147964819Y-175294285D01*
X147964819Y-175294285D02*
X147964819Y-175056190D01*
X147964819Y-175056190D02*
X148012438Y-174913333D01*
X148012438Y-174913333D02*
X148107676Y-174818095D01*
X148107676Y-174818095D02*
X148202914Y-174770476D01*
X148202914Y-174770476D02*
X148393390Y-174722857D01*
X148393390Y-174722857D02*
X148536247Y-174722857D01*
X148536247Y-174722857D02*
X148726723Y-174770476D01*
X148726723Y-174770476D02*
X148821961Y-174818095D01*
X148821961Y-174818095D02*
X148917200Y-174913333D01*
X148917200Y-174913333D02*
X148964819Y-175056190D01*
X148964819Y-175056190D02*
X148964819Y-175294285D01*
X148964819Y-173770476D02*
X148964819Y-174341904D01*
X148964819Y-174056190D02*
X147964819Y-174056190D01*
X147964819Y-174056190D02*
X148107676Y-174151428D01*
X148107676Y-174151428D02*
X148202914Y-174246666D01*
X148202914Y-174246666D02*
X148250533Y-174341904D01*
X148393390Y-173199047D02*
X148345771Y-173294285D01*
X148345771Y-173294285D02*
X148298152Y-173341904D01*
X148298152Y-173341904D02*
X148202914Y-173389523D01*
X148202914Y-173389523D02*
X148155295Y-173389523D01*
X148155295Y-173389523D02*
X148060057Y-173341904D01*
X148060057Y-173341904D02*
X148012438Y-173294285D01*
X148012438Y-173294285D02*
X147964819Y-173199047D01*
X147964819Y-173199047D02*
X147964819Y-173008571D01*
X147964819Y-173008571D02*
X148012438Y-172913333D01*
X148012438Y-172913333D02*
X148060057Y-172865714D01*
X148060057Y-172865714D02*
X148155295Y-172818095D01*
X148155295Y-172818095D02*
X148202914Y-172818095D01*
X148202914Y-172818095D02*
X148298152Y-172865714D01*
X148298152Y-172865714D02*
X148345771Y-172913333D01*
X148345771Y-172913333D02*
X148393390Y-173008571D01*
X148393390Y-173008571D02*
X148393390Y-173199047D01*
X148393390Y-173199047D02*
X148441009Y-173294285D01*
X148441009Y-173294285D02*
X148488628Y-173341904D01*
X148488628Y-173341904D02*
X148583866Y-173389523D01*
X148583866Y-173389523D02*
X148774342Y-173389523D01*
X148774342Y-173389523D02*
X148869580Y-173341904D01*
X148869580Y-173341904D02*
X148917200Y-173294285D01*
X148917200Y-173294285D02*
X148964819Y-173199047D01*
X148964819Y-173199047D02*
X148964819Y-173008571D01*
X148964819Y-173008571D02*
X148917200Y-172913333D01*
X148917200Y-172913333D02*
X148869580Y-172865714D01*
X148869580Y-172865714D02*
X148774342Y-172818095D01*
X148774342Y-172818095D02*
X148583866Y-172818095D01*
X148583866Y-172818095D02*
X148488628Y-172865714D01*
X148488628Y-172865714D02*
X148441009Y-172913333D01*
X148441009Y-172913333D02*
X148393390Y-173008571D01*
X190518095Y-157147200D02*
X190660952Y-157194819D01*
X190660952Y-157194819D02*
X190899047Y-157194819D01*
X190899047Y-157194819D02*
X190994285Y-157147200D01*
X190994285Y-157147200D02*
X191041904Y-157099580D01*
X191041904Y-157099580D02*
X191089523Y-157004342D01*
X191089523Y-157004342D02*
X191089523Y-156909104D01*
X191089523Y-156909104D02*
X191041904Y-156813866D01*
X191041904Y-156813866D02*
X190994285Y-156766247D01*
X190994285Y-156766247D02*
X190899047Y-156718628D01*
X190899047Y-156718628D02*
X190708571Y-156671009D01*
X190708571Y-156671009D02*
X190613333Y-156623390D01*
X190613333Y-156623390D02*
X190565714Y-156575771D01*
X190565714Y-156575771D02*
X190518095Y-156480533D01*
X190518095Y-156480533D02*
X190518095Y-156385295D01*
X190518095Y-156385295D02*
X190565714Y-156290057D01*
X190565714Y-156290057D02*
X190613333Y-156242438D01*
X190613333Y-156242438D02*
X190708571Y-156194819D01*
X190708571Y-156194819D02*
X190946666Y-156194819D01*
X190946666Y-156194819D02*
X191089523Y-156242438D01*
X191422857Y-156194819D02*
X192089523Y-156194819D01*
X192089523Y-156194819D02*
X191660952Y-157194819D01*
X148984819Y-118654285D02*
X147984819Y-118654285D01*
X147984819Y-118654285D02*
X147984819Y-118416190D01*
X147984819Y-118416190D02*
X148032438Y-118273333D01*
X148032438Y-118273333D02*
X148127676Y-118178095D01*
X148127676Y-118178095D02*
X148222914Y-118130476D01*
X148222914Y-118130476D02*
X148413390Y-118082857D01*
X148413390Y-118082857D02*
X148556247Y-118082857D01*
X148556247Y-118082857D02*
X148746723Y-118130476D01*
X148746723Y-118130476D02*
X148841961Y-118178095D01*
X148841961Y-118178095D02*
X148937200Y-118273333D01*
X148937200Y-118273333D02*
X148984819Y-118416190D01*
X148984819Y-118416190D02*
X148984819Y-118654285D01*
X148984819Y-117130476D02*
X148984819Y-117701904D01*
X148984819Y-117416190D02*
X147984819Y-117416190D01*
X147984819Y-117416190D02*
X148127676Y-117511428D01*
X148127676Y-117511428D02*
X148222914Y-117606666D01*
X148222914Y-117606666D02*
X148270533Y-117701904D01*
X147984819Y-116225714D02*
X147984819Y-116701904D01*
X147984819Y-116701904D02*
X148461009Y-116749523D01*
X148461009Y-116749523D02*
X148413390Y-116701904D01*
X148413390Y-116701904D02*
X148365771Y-116606666D01*
X148365771Y-116606666D02*
X148365771Y-116368571D01*
X148365771Y-116368571D02*
X148413390Y-116273333D01*
X148413390Y-116273333D02*
X148461009Y-116225714D01*
X148461009Y-116225714D02*
X148556247Y-116178095D01*
X148556247Y-116178095D02*
X148794342Y-116178095D01*
X148794342Y-116178095D02*
X148889580Y-116225714D01*
X148889580Y-116225714D02*
X148937200Y-116273333D01*
X148937200Y-116273333D02*
X148984819Y-116368571D01*
X148984819Y-116368571D02*
X148984819Y-116606666D01*
X148984819Y-116606666D02*
X148937200Y-116701904D01*
X148937200Y-116701904D02*
X148889580Y-116749523D01*
X167954819Y-150714285D02*
X166954819Y-150714285D01*
X166954819Y-150714285D02*
X166954819Y-150476190D01*
X166954819Y-150476190D02*
X167002438Y-150333333D01*
X167002438Y-150333333D02*
X167097676Y-150238095D01*
X167097676Y-150238095D02*
X167192914Y-150190476D01*
X167192914Y-150190476D02*
X167383390Y-150142857D01*
X167383390Y-150142857D02*
X167526247Y-150142857D01*
X167526247Y-150142857D02*
X167716723Y-150190476D01*
X167716723Y-150190476D02*
X167811961Y-150238095D01*
X167811961Y-150238095D02*
X167907200Y-150333333D01*
X167907200Y-150333333D02*
X167954819Y-150476190D01*
X167954819Y-150476190D02*
X167954819Y-150714285D01*
X167954819Y-149190476D02*
X167954819Y-149761904D01*
X167954819Y-149476190D02*
X166954819Y-149476190D01*
X166954819Y-149476190D02*
X167097676Y-149571428D01*
X167097676Y-149571428D02*
X167192914Y-149666666D01*
X167192914Y-149666666D02*
X167240533Y-149761904D01*
X167050057Y-148809523D02*
X167002438Y-148761904D01*
X167002438Y-148761904D02*
X166954819Y-148666666D01*
X166954819Y-148666666D02*
X166954819Y-148428571D01*
X166954819Y-148428571D02*
X167002438Y-148333333D01*
X167002438Y-148333333D02*
X167050057Y-148285714D01*
X167050057Y-148285714D02*
X167145295Y-148238095D01*
X167145295Y-148238095D02*
X167240533Y-148238095D01*
X167240533Y-148238095D02*
X167383390Y-148285714D01*
X167383390Y-148285714D02*
X167954819Y-148857142D01*
X167954819Y-148857142D02*
X167954819Y-148238095D01*
X129954819Y-129414285D02*
X128954819Y-129414285D01*
X128954819Y-129414285D02*
X128954819Y-129176190D01*
X128954819Y-129176190D02*
X129002438Y-129033333D01*
X129002438Y-129033333D02*
X129097676Y-128938095D01*
X129097676Y-128938095D02*
X129192914Y-128890476D01*
X129192914Y-128890476D02*
X129383390Y-128842857D01*
X129383390Y-128842857D02*
X129526247Y-128842857D01*
X129526247Y-128842857D02*
X129716723Y-128890476D01*
X129716723Y-128890476D02*
X129811961Y-128938095D01*
X129811961Y-128938095D02*
X129907200Y-129033333D01*
X129907200Y-129033333D02*
X129954819Y-129176190D01*
X129954819Y-129176190D02*
X129954819Y-129414285D01*
X129050057Y-128461904D02*
X129002438Y-128414285D01*
X129002438Y-128414285D02*
X128954819Y-128319047D01*
X128954819Y-128319047D02*
X128954819Y-128080952D01*
X128954819Y-128080952D02*
X129002438Y-127985714D01*
X129002438Y-127985714D02*
X129050057Y-127938095D01*
X129050057Y-127938095D02*
X129145295Y-127890476D01*
X129145295Y-127890476D02*
X129240533Y-127890476D01*
X129240533Y-127890476D02*
X129383390Y-127938095D01*
X129383390Y-127938095D02*
X129954819Y-128509523D01*
X129954819Y-128509523D02*
X129954819Y-127890476D01*
X128954819Y-127271428D02*
X128954819Y-127176190D01*
X128954819Y-127176190D02*
X129002438Y-127080952D01*
X129002438Y-127080952D02*
X129050057Y-127033333D01*
X129050057Y-127033333D02*
X129145295Y-126985714D01*
X129145295Y-126985714D02*
X129335771Y-126938095D01*
X129335771Y-126938095D02*
X129573866Y-126938095D01*
X129573866Y-126938095D02*
X129764342Y-126985714D01*
X129764342Y-126985714D02*
X129859580Y-127033333D01*
X129859580Y-127033333D02*
X129907200Y-127080952D01*
X129907200Y-127080952D02*
X129954819Y-127176190D01*
X129954819Y-127176190D02*
X129954819Y-127271428D01*
X129954819Y-127271428D02*
X129907200Y-127366666D01*
X129907200Y-127366666D02*
X129859580Y-127414285D01*
X129859580Y-127414285D02*
X129764342Y-127461904D01*
X129764342Y-127461904D02*
X129573866Y-127509523D01*
X129573866Y-127509523D02*
X129335771Y-127509523D01*
X129335771Y-127509523D02*
X129145295Y-127461904D01*
X129145295Y-127461904D02*
X129050057Y-127414285D01*
X129050057Y-127414285D02*
X129002438Y-127366666D01*
X129002438Y-127366666D02*
X128954819Y-127271428D01*
X198322102Y-196468284D02*
X198454519Y-196539987D01*
X198454519Y-196539987D02*
X198688997Y-196581332D01*
X198688997Y-196581332D02*
X198791058Y-196550974D01*
X198791058Y-196550974D02*
X198846222Y-196512347D01*
X198846222Y-196512347D02*
X198909656Y-196426825D01*
X198909656Y-196426825D02*
X198926194Y-196333034D01*
X198926194Y-196333034D02*
X198895836Y-196230974D01*
X198895836Y-196230974D02*
X198857209Y-196175809D01*
X198857209Y-196175809D02*
X198771687Y-196112376D01*
X198771687Y-196112376D02*
X198592374Y-196032404D01*
X198592374Y-196032404D02*
X198506851Y-195968971D01*
X198506851Y-195968971D02*
X198468225Y-195913806D01*
X198468225Y-195913806D02*
X198437867Y-195811746D01*
X198437867Y-195811746D02*
X198454405Y-195717955D01*
X198454405Y-195717955D02*
X198517838Y-195632432D01*
X198517838Y-195632432D02*
X198573003Y-195593806D01*
X198573003Y-195593806D02*
X198675063Y-195563448D01*
X198675063Y-195563448D02*
X198909541Y-195604793D01*
X198909541Y-195604793D02*
X199041959Y-195676495D01*
X199814492Y-196779787D02*
X199251745Y-196680559D01*
X199533118Y-196730173D02*
X199706767Y-195745365D01*
X199706767Y-195745365D02*
X199588169Y-195869514D01*
X199588169Y-195869514D02*
X199477839Y-195946767D01*
X199477839Y-195946767D02*
X199375779Y-195977125D01*
X200283448Y-196862476D02*
X200471031Y-196895552D01*
X200471031Y-196895552D02*
X200573091Y-196865194D01*
X200573091Y-196865194D02*
X200628255Y-196826568D01*
X200628255Y-196826568D02*
X200746854Y-196702419D01*
X200746854Y-196702419D02*
X200826825Y-196523105D01*
X200826825Y-196523105D02*
X200892977Y-196147941D01*
X200892977Y-196147941D02*
X200862619Y-196045880D01*
X200862619Y-196045880D02*
X200823992Y-195990716D01*
X200823992Y-195990716D02*
X200738470Y-195927282D01*
X200738470Y-195927282D02*
X200550888Y-195894206D01*
X200550888Y-195894206D02*
X200448827Y-195924564D01*
X200448827Y-195924564D02*
X200393663Y-195963191D01*
X200393663Y-195963191D02*
X200330229Y-196048713D01*
X200330229Y-196048713D02*
X200288885Y-196283191D01*
X200288885Y-196283191D02*
X200319242Y-196385251D01*
X200319242Y-196385251D02*
X200357869Y-196440416D01*
X200357869Y-196440416D02*
X200443391Y-196503849D01*
X200443391Y-196503849D02*
X200630974Y-196536925D01*
X200630974Y-196536925D02*
X200733034Y-196506568D01*
X200733034Y-196506568D02*
X200788198Y-196467941D01*
X200788198Y-196467941D02*
X200851632Y-196382419D01*
X114241905Y-167297200D02*
X114384762Y-167344819D01*
X114384762Y-167344819D02*
X114622857Y-167344819D01*
X114622857Y-167344819D02*
X114718095Y-167297200D01*
X114718095Y-167297200D02*
X114765714Y-167249580D01*
X114765714Y-167249580D02*
X114813333Y-167154342D01*
X114813333Y-167154342D02*
X114813333Y-167059104D01*
X114813333Y-167059104D02*
X114765714Y-166963866D01*
X114765714Y-166963866D02*
X114718095Y-166916247D01*
X114718095Y-166916247D02*
X114622857Y-166868628D01*
X114622857Y-166868628D02*
X114432381Y-166821009D01*
X114432381Y-166821009D02*
X114337143Y-166773390D01*
X114337143Y-166773390D02*
X114289524Y-166725771D01*
X114289524Y-166725771D02*
X114241905Y-166630533D01*
X114241905Y-166630533D02*
X114241905Y-166535295D01*
X114241905Y-166535295D02*
X114289524Y-166440057D01*
X114289524Y-166440057D02*
X114337143Y-166392438D01*
X114337143Y-166392438D02*
X114432381Y-166344819D01*
X114432381Y-166344819D02*
X114670476Y-166344819D01*
X114670476Y-166344819D02*
X114813333Y-166392438D01*
X115194286Y-166440057D02*
X115241905Y-166392438D01*
X115241905Y-166392438D02*
X115337143Y-166344819D01*
X115337143Y-166344819D02*
X115575238Y-166344819D01*
X115575238Y-166344819D02*
X115670476Y-166392438D01*
X115670476Y-166392438D02*
X115718095Y-166440057D01*
X115718095Y-166440057D02*
X115765714Y-166535295D01*
X115765714Y-166535295D02*
X115765714Y-166630533D01*
X115765714Y-166630533D02*
X115718095Y-166773390D01*
X115718095Y-166773390D02*
X115146667Y-167344819D01*
X115146667Y-167344819D02*
X115765714Y-167344819D01*
X116099048Y-166344819D02*
X116765714Y-166344819D01*
X116765714Y-166344819D02*
X116337143Y-167344819D01*
X152754819Y-196614285D02*
X151754819Y-196614285D01*
X151754819Y-196614285D02*
X151754819Y-196376190D01*
X151754819Y-196376190D02*
X151802438Y-196233333D01*
X151802438Y-196233333D02*
X151897676Y-196138095D01*
X151897676Y-196138095D02*
X151992914Y-196090476D01*
X151992914Y-196090476D02*
X152183390Y-196042857D01*
X152183390Y-196042857D02*
X152326247Y-196042857D01*
X152326247Y-196042857D02*
X152516723Y-196090476D01*
X152516723Y-196090476D02*
X152611961Y-196138095D01*
X152611961Y-196138095D02*
X152707200Y-196233333D01*
X152707200Y-196233333D02*
X152754819Y-196376190D01*
X152754819Y-196376190D02*
X152754819Y-196614285D01*
X151850057Y-195661904D02*
X151802438Y-195614285D01*
X151802438Y-195614285D02*
X151754819Y-195519047D01*
X151754819Y-195519047D02*
X151754819Y-195280952D01*
X151754819Y-195280952D02*
X151802438Y-195185714D01*
X151802438Y-195185714D02*
X151850057Y-195138095D01*
X151850057Y-195138095D02*
X151945295Y-195090476D01*
X151945295Y-195090476D02*
X152040533Y-195090476D01*
X152040533Y-195090476D02*
X152183390Y-195138095D01*
X152183390Y-195138095D02*
X152754819Y-195709523D01*
X152754819Y-195709523D02*
X152754819Y-195090476D01*
X152754819Y-194614285D02*
X152754819Y-194423809D01*
X152754819Y-194423809D02*
X152707200Y-194328571D01*
X152707200Y-194328571D02*
X152659580Y-194280952D01*
X152659580Y-194280952D02*
X152516723Y-194185714D01*
X152516723Y-194185714D02*
X152326247Y-194138095D01*
X152326247Y-194138095D02*
X151945295Y-194138095D01*
X151945295Y-194138095D02*
X151850057Y-194185714D01*
X151850057Y-194185714D02*
X151802438Y-194233333D01*
X151802438Y-194233333D02*
X151754819Y-194328571D01*
X151754819Y-194328571D02*
X151754819Y-194519047D01*
X151754819Y-194519047D02*
X151802438Y-194614285D01*
X151802438Y-194614285D02*
X151850057Y-194661904D01*
X151850057Y-194661904D02*
X151945295Y-194709523D01*
X151945295Y-194709523D02*
X152183390Y-194709523D01*
X152183390Y-194709523D02*
X152278628Y-194661904D01*
X152278628Y-194661904D02*
X152326247Y-194614285D01*
X152326247Y-194614285D02*
X152373866Y-194519047D01*
X152373866Y-194519047D02*
X152373866Y-194328571D01*
X152373866Y-194328571D02*
X152326247Y-194233333D01*
X152326247Y-194233333D02*
X152278628Y-194185714D01*
X152278628Y-194185714D02*
X152183390Y-194138095D01*
X205954819Y-157338094D02*
X204954819Y-157338094D01*
X204954819Y-157338094D02*
X204954819Y-157099999D01*
X204954819Y-157099999D02*
X205002438Y-156957142D01*
X205002438Y-156957142D02*
X205097676Y-156861904D01*
X205097676Y-156861904D02*
X205192914Y-156814285D01*
X205192914Y-156814285D02*
X205383390Y-156766666D01*
X205383390Y-156766666D02*
X205526247Y-156766666D01*
X205526247Y-156766666D02*
X205716723Y-156814285D01*
X205716723Y-156814285D02*
X205811961Y-156861904D01*
X205811961Y-156861904D02*
X205907200Y-156957142D01*
X205907200Y-156957142D02*
X205954819Y-157099999D01*
X205954819Y-157099999D02*
X205954819Y-157338094D01*
X204954819Y-156433332D02*
X204954819Y-155814285D01*
X204954819Y-155814285D02*
X205335771Y-156147618D01*
X205335771Y-156147618D02*
X205335771Y-156004761D01*
X205335771Y-156004761D02*
X205383390Y-155909523D01*
X205383390Y-155909523D02*
X205431009Y-155861904D01*
X205431009Y-155861904D02*
X205526247Y-155814285D01*
X205526247Y-155814285D02*
X205764342Y-155814285D01*
X205764342Y-155814285D02*
X205859580Y-155861904D01*
X205859580Y-155861904D02*
X205907200Y-155909523D01*
X205907200Y-155909523D02*
X205954819Y-156004761D01*
X205954819Y-156004761D02*
X205954819Y-156290475D01*
X205954819Y-156290475D02*
X205907200Y-156385713D01*
X205907200Y-156385713D02*
X205859580Y-156433332D01*
X167954819Y-169714285D02*
X166954819Y-169714285D01*
X166954819Y-169714285D02*
X166954819Y-169476190D01*
X166954819Y-169476190D02*
X167002438Y-169333333D01*
X167002438Y-169333333D02*
X167097676Y-169238095D01*
X167097676Y-169238095D02*
X167192914Y-169190476D01*
X167192914Y-169190476D02*
X167383390Y-169142857D01*
X167383390Y-169142857D02*
X167526247Y-169142857D01*
X167526247Y-169142857D02*
X167716723Y-169190476D01*
X167716723Y-169190476D02*
X167811961Y-169238095D01*
X167811961Y-169238095D02*
X167907200Y-169333333D01*
X167907200Y-169333333D02*
X167954819Y-169476190D01*
X167954819Y-169476190D02*
X167954819Y-169714285D01*
X167954819Y-168190476D02*
X167954819Y-168761904D01*
X167954819Y-168476190D02*
X166954819Y-168476190D01*
X166954819Y-168476190D02*
X167097676Y-168571428D01*
X167097676Y-168571428D02*
X167192914Y-168666666D01*
X167192914Y-168666666D02*
X167240533Y-168761904D01*
X166954819Y-167857142D02*
X166954819Y-167238095D01*
X166954819Y-167238095D02*
X167335771Y-167571428D01*
X167335771Y-167571428D02*
X167335771Y-167428571D01*
X167335771Y-167428571D02*
X167383390Y-167333333D01*
X167383390Y-167333333D02*
X167431009Y-167285714D01*
X167431009Y-167285714D02*
X167526247Y-167238095D01*
X167526247Y-167238095D02*
X167764342Y-167238095D01*
X167764342Y-167238095D02*
X167859580Y-167285714D01*
X167859580Y-167285714D02*
X167907200Y-167333333D01*
X167907200Y-167333333D02*
X167954819Y-167428571D01*
X167954819Y-167428571D02*
X167954819Y-167714285D01*
X167954819Y-167714285D02*
X167907200Y-167809523D01*
X167907200Y-167809523D02*
X167859580Y-167857142D01*
X186954819Y-119238094D02*
X185954819Y-119238094D01*
X185954819Y-119238094D02*
X185954819Y-118999999D01*
X185954819Y-118999999D02*
X186002438Y-118857142D01*
X186002438Y-118857142D02*
X186097676Y-118761904D01*
X186097676Y-118761904D02*
X186192914Y-118714285D01*
X186192914Y-118714285D02*
X186383390Y-118666666D01*
X186383390Y-118666666D02*
X186526247Y-118666666D01*
X186526247Y-118666666D02*
X186716723Y-118714285D01*
X186716723Y-118714285D02*
X186811961Y-118761904D01*
X186811961Y-118761904D02*
X186907200Y-118857142D01*
X186907200Y-118857142D02*
X186954819Y-118999999D01*
X186954819Y-118999999D02*
X186954819Y-119238094D01*
X185954819Y-117761904D02*
X185954819Y-118238094D01*
X185954819Y-118238094D02*
X186431009Y-118285713D01*
X186431009Y-118285713D02*
X186383390Y-118238094D01*
X186383390Y-118238094D02*
X186335771Y-118142856D01*
X186335771Y-118142856D02*
X186335771Y-117904761D01*
X186335771Y-117904761D02*
X186383390Y-117809523D01*
X186383390Y-117809523D02*
X186431009Y-117761904D01*
X186431009Y-117761904D02*
X186526247Y-117714285D01*
X186526247Y-117714285D02*
X186764342Y-117714285D01*
X186764342Y-117714285D02*
X186859580Y-117761904D01*
X186859580Y-117761904D02*
X186907200Y-117809523D01*
X186907200Y-117809523D02*
X186954819Y-117904761D01*
X186954819Y-117904761D02*
X186954819Y-118142856D01*
X186954819Y-118142856D02*
X186907200Y-118238094D01*
X186907200Y-118238094D02*
X186859580Y-118285713D01*
X133381905Y-129107200D02*
X133524762Y-129154819D01*
X133524762Y-129154819D02*
X133762857Y-129154819D01*
X133762857Y-129154819D02*
X133858095Y-129107200D01*
X133858095Y-129107200D02*
X133905714Y-129059580D01*
X133905714Y-129059580D02*
X133953333Y-128964342D01*
X133953333Y-128964342D02*
X133953333Y-128869104D01*
X133953333Y-128869104D02*
X133905714Y-128773866D01*
X133905714Y-128773866D02*
X133858095Y-128726247D01*
X133858095Y-128726247D02*
X133762857Y-128678628D01*
X133762857Y-128678628D02*
X133572381Y-128631009D01*
X133572381Y-128631009D02*
X133477143Y-128583390D01*
X133477143Y-128583390D02*
X133429524Y-128535771D01*
X133429524Y-128535771D02*
X133381905Y-128440533D01*
X133381905Y-128440533D02*
X133381905Y-128345295D01*
X133381905Y-128345295D02*
X133429524Y-128250057D01*
X133429524Y-128250057D02*
X133477143Y-128202438D01*
X133477143Y-128202438D02*
X133572381Y-128154819D01*
X133572381Y-128154819D02*
X133810476Y-128154819D01*
X133810476Y-128154819D02*
X133953333Y-128202438D01*
X134334286Y-128250057D02*
X134381905Y-128202438D01*
X134381905Y-128202438D02*
X134477143Y-128154819D01*
X134477143Y-128154819D02*
X134715238Y-128154819D01*
X134715238Y-128154819D02*
X134810476Y-128202438D01*
X134810476Y-128202438D02*
X134858095Y-128250057D01*
X134858095Y-128250057D02*
X134905714Y-128345295D01*
X134905714Y-128345295D02*
X134905714Y-128440533D01*
X134905714Y-128440533D02*
X134858095Y-128583390D01*
X134858095Y-128583390D02*
X134286667Y-129154819D01*
X134286667Y-129154819D02*
X134905714Y-129154819D01*
X135524762Y-128154819D02*
X135620000Y-128154819D01*
X135620000Y-128154819D02*
X135715238Y-128202438D01*
X135715238Y-128202438D02*
X135762857Y-128250057D01*
X135762857Y-128250057D02*
X135810476Y-128345295D01*
X135810476Y-128345295D02*
X135858095Y-128535771D01*
X135858095Y-128535771D02*
X135858095Y-128773866D01*
X135858095Y-128773866D02*
X135810476Y-128964342D01*
X135810476Y-128964342D02*
X135762857Y-129059580D01*
X135762857Y-129059580D02*
X135715238Y-129107200D01*
X135715238Y-129107200D02*
X135620000Y-129154819D01*
X135620000Y-129154819D02*
X135524762Y-129154819D01*
X135524762Y-129154819D02*
X135429524Y-129107200D01*
X135429524Y-129107200D02*
X135381905Y-129059580D01*
X135381905Y-129059580D02*
X135334286Y-128964342D01*
X135334286Y-128964342D02*
X135286667Y-128773866D01*
X135286667Y-128773866D02*
X135286667Y-128535771D01*
X135286667Y-128535771D02*
X135334286Y-128345295D01*
X135334286Y-128345295D02*
X135381905Y-128250057D01*
X135381905Y-128250057D02*
X135429524Y-128202438D01*
X135429524Y-128202438D02*
X135524762Y-128154819D01*
X190848095Y-176107200D02*
X190990952Y-176154819D01*
X190990952Y-176154819D02*
X191229047Y-176154819D01*
X191229047Y-176154819D02*
X191324285Y-176107200D01*
X191324285Y-176107200D02*
X191371904Y-176059580D01*
X191371904Y-176059580D02*
X191419523Y-175964342D01*
X191419523Y-175964342D02*
X191419523Y-175869104D01*
X191419523Y-175869104D02*
X191371904Y-175773866D01*
X191371904Y-175773866D02*
X191324285Y-175726247D01*
X191324285Y-175726247D02*
X191229047Y-175678628D01*
X191229047Y-175678628D02*
X191038571Y-175631009D01*
X191038571Y-175631009D02*
X190943333Y-175583390D01*
X190943333Y-175583390D02*
X190895714Y-175535771D01*
X190895714Y-175535771D02*
X190848095Y-175440533D01*
X190848095Y-175440533D02*
X190848095Y-175345295D01*
X190848095Y-175345295D02*
X190895714Y-175250057D01*
X190895714Y-175250057D02*
X190943333Y-175202438D01*
X190943333Y-175202438D02*
X191038571Y-175154819D01*
X191038571Y-175154819D02*
X191276666Y-175154819D01*
X191276666Y-175154819D02*
X191419523Y-175202438D01*
X191990952Y-175583390D02*
X191895714Y-175535771D01*
X191895714Y-175535771D02*
X191848095Y-175488152D01*
X191848095Y-175488152D02*
X191800476Y-175392914D01*
X191800476Y-175392914D02*
X191800476Y-175345295D01*
X191800476Y-175345295D02*
X191848095Y-175250057D01*
X191848095Y-175250057D02*
X191895714Y-175202438D01*
X191895714Y-175202438D02*
X191990952Y-175154819D01*
X191990952Y-175154819D02*
X192181428Y-175154819D01*
X192181428Y-175154819D02*
X192276666Y-175202438D01*
X192276666Y-175202438D02*
X192324285Y-175250057D01*
X192324285Y-175250057D02*
X192371904Y-175345295D01*
X192371904Y-175345295D02*
X192371904Y-175392914D01*
X192371904Y-175392914D02*
X192324285Y-175488152D01*
X192324285Y-175488152D02*
X192276666Y-175535771D01*
X192276666Y-175535771D02*
X192181428Y-175583390D01*
X192181428Y-175583390D02*
X191990952Y-175583390D01*
X191990952Y-175583390D02*
X191895714Y-175631009D01*
X191895714Y-175631009D02*
X191848095Y-175678628D01*
X191848095Y-175678628D02*
X191800476Y-175773866D01*
X191800476Y-175773866D02*
X191800476Y-175964342D01*
X191800476Y-175964342D02*
X191848095Y-176059580D01*
X191848095Y-176059580D02*
X191895714Y-176107200D01*
X191895714Y-176107200D02*
X191990952Y-176154819D01*
X191990952Y-176154819D02*
X192181428Y-176154819D01*
X192181428Y-176154819D02*
X192276666Y-176107200D01*
X192276666Y-176107200D02*
X192324285Y-176059580D01*
X192324285Y-176059580D02*
X192371904Y-175964342D01*
X192371904Y-175964342D02*
X192371904Y-175773866D01*
X192371904Y-175773866D02*
X192324285Y-175678628D01*
X192324285Y-175678628D02*
X192276666Y-175631009D01*
X192276666Y-175631009D02*
X192181428Y-175583390D01*
X209748095Y-157087200D02*
X209890952Y-157134819D01*
X209890952Y-157134819D02*
X210129047Y-157134819D01*
X210129047Y-157134819D02*
X210224285Y-157087200D01*
X210224285Y-157087200D02*
X210271904Y-157039580D01*
X210271904Y-157039580D02*
X210319523Y-156944342D01*
X210319523Y-156944342D02*
X210319523Y-156849104D01*
X210319523Y-156849104D02*
X210271904Y-156753866D01*
X210271904Y-156753866D02*
X210224285Y-156706247D01*
X210224285Y-156706247D02*
X210129047Y-156658628D01*
X210129047Y-156658628D02*
X209938571Y-156611009D01*
X209938571Y-156611009D02*
X209843333Y-156563390D01*
X209843333Y-156563390D02*
X209795714Y-156515771D01*
X209795714Y-156515771D02*
X209748095Y-156420533D01*
X209748095Y-156420533D02*
X209748095Y-156325295D01*
X209748095Y-156325295D02*
X209795714Y-156230057D01*
X209795714Y-156230057D02*
X209843333Y-156182438D01*
X209843333Y-156182438D02*
X209938571Y-156134819D01*
X209938571Y-156134819D02*
X210176666Y-156134819D01*
X210176666Y-156134819D02*
X210319523Y-156182438D01*
X210652857Y-156134819D02*
X211271904Y-156134819D01*
X211271904Y-156134819D02*
X210938571Y-156515771D01*
X210938571Y-156515771D02*
X211081428Y-156515771D01*
X211081428Y-156515771D02*
X211176666Y-156563390D01*
X211176666Y-156563390D02*
X211224285Y-156611009D01*
X211224285Y-156611009D02*
X211271904Y-156706247D01*
X211271904Y-156706247D02*
X211271904Y-156944342D01*
X211271904Y-156944342D02*
X211224285Y-157039580D01*
X211224285Y-157039580D02*
X211176666Y-157087200D01*
X211176666Y-157087200D02*
X211081428Y-157134819D01*
X211081428Y-157134819D02*
X210795714Y-157134819D01*
X210795714Y-157134819D02*
X210700476Y-157087200D01*
X210700476Y-157087200D02*
X210652857Y-157039580D01*
X114281905Y-148147200D02*
X114424762Y-148194819D01*
X114424762Y-148194819D02*
X114662857Y-148194819D01*
X114662857Y-148194819D02*
X114758095Y-148147200D01*
X114758095Y-148147200D02*
X114805714Y-148099580D01*
X114805714Y-148099580D02*
X114853333Y-148004342D01*
X114853333Y-148004342D02*
X114853333Y-147909104D01*
X114853333Y-147909104D02*
X114805714Y-147813866D01*
X114805714Y-147813866D02*
X114758095Y-147766247D01*
X114758095Y-147766247D02*
X114662857Y-147718628D01*
X114662857Y-147718628D02*
X114472381Y-147671009D01*
X114472381Y-147671009D02*
X114377143Y-147623390D01*
X114377143Y-147623390D02*
X114329524Y-147575771D01*
X114329524Y-147575771D02*
X114281905Y-147480533D01*
X114281905Y-147480533D02*
X114281905Y-147385295D01*
X114281905Y-147385295D02*
X114329524Y-147290057D01*
X114329524Y-147290057D02*
X114377143Y-147242438D01*
X114377143Y-147242438D02*
X114472381Y-147194819D01*
X114472381Y-147194819D02*
X114710476Y-147194819D01*
X114710476Y-147194819D02*
X114853333Y-147242438D01*
X115234286Y-147290057D02*
X115281905Y-147242438D01*
X115281905Y-147242438D02*
X115377143Y-147194819D01*
X115377143Y-147194819D02*
X115615238Y-147194819D01*
X115615238Y-147194819D02*
X115710476Y-147242438D01*
X115710476Y-147242438D02*
X115758095Y-147290057D01*
X115758095Y-147290057D02*
X115805714Y-147385295D01*
X115805714Y-147385295D02*
X115805714Y-147480533D01*
X115805714Y-147480533D02*
X115758095Y-147623390D01*
X115758095Y-147623390D02*
X115186667Y-148194819D01*
X115186667Y-148194819D02*
X115805714Y-148194819D01*
X116662857Y-147194819D02*
X116472381Y-147194819D01*
X116472381Y-147194819D02*
X116377143Y-147242438D01*
X116377143Y-147242438D02*
X116329524Y-147290057D01*
X116329524Y-147290057D02*
X116234286Y-147432914D01*
X116234286Y-147432914D02*
X116186667Y-147623390D01*
X116186667Y-147623390D02*
X116186667Y-148004342D01*
X116186667Y-148004342D02*
X116234286Y-148099580D01*
X116234286Y-148099580D02*
X116281905Y-148147200D01*
X116281905Y-148147200D02*
X116377143Y-148194819D01*
X116377143Y-148194819D02*
X116567619Y-148194819D01*
X116567619Y-148194819D02*
X116662857Y-148147200D01*
X116662857Y-148147200D02*
X116710476Y-148099580D01*
X116710476Y-148099580D02*
X116758095Y-148004342D01*
X116758095Y-148004342D02*
X116758095Y-147766247D01*
X116758095Y-147766247D02*
X116710476Y-147671009D01*
X116710476Y-147671009D02*
X116662857Y-147623390D01*
X116662857Y-147623390D02*
X116567619Y-147575771D01*
X116567619Y-147575771D02*
X116377143Y-147575771D01*
X116377143Y-147575771D02*
X116281905Y-147623390D01*
X116281905Y-147623390D02*
X116234286Y-147671009D01*
X116234286Y-147671009D02*
X116186667Y-147766247D01*
X152391905Y-155457200D02*
X152534762Y-155504819D01*
X152534762Y-155504819D02*
X152772857Y-155504819D01*
X152772857Y-155504819D02*
X152868095Y-155457200D01*
X152868095Y-155457200D02*
X152915714Y-155409580D01*
X152915714Y-155409580D02*
X152963333Y-155314342D01*
X152963333Y-155314342D02*
X152963333Y-155219104D01*
X152963333Y-155219104D02*
X152915714Y-155123866D01*
X152915714Y-155123866D02*
X152868095Y-155076247D01*
X152868095Y-155076247D02*
X152772857Y-155028628D01*
X152772857Y-155028628D02*
X152582381Y-154981009D01*
X152582381Y-154981009D02*
X152487143Y-154933390D01*
X152487143Y-154933390D02*
X152439524Y-154885771D01*
X152439524Y-154885771D02*
X152391905Y-154790533D01*
X152391905Y-154790533D02*
X152391905Y-154695295D01*
X152391905Y-154695295D02*
X152439524Y-154600057D01*
X152439524Y-154600057D02*
X152487143Y-154552438D01*
X152487143Y-154552438D02*
X152582381Y-154504819D01*
X152582381Y-154504819D02*
X152820476Y-154504819D01*
X152820476Y-154504819D02*
X152963333Y-154552438D01*
X153915714Y-155504819D02*
X153344286Y-155504819D01*
X153630000Y-155504819D02*
X153630000Y-154504819D01*
X153630000Y-154504819D02*
X153534762Y-154647676D01*
X153534762Y-154647676D02*
X153439524Y-154742914D01*
X153439524Y-154742914D02*
X153344286Y-154790533D01*
X154249048Y-154504819D02*
X154915714Y-154504819D01*
X154915714Y-154504819D02*
X154487143Y-155504819D01*
X186954819Y-138288094D02*
X185954819Y-138288094D01*
X185954819Y-138288094D02*
X185954819Y-138049999D01*
X185954819Y-138049999D02*
X186002438Y-137907142D01*
X186002438Y-137907142D02*
X186097676Y-137811904D01*
X186097676Y-137811904D02*
X186192914Y-137764285D01*
X186192914Y-137764285D02*
X186383390Y-137716666D01*
X186383390Y-137716666D02*
X186526247Y-137716666D01*
X186526247Y-137716666D02*
X186716723Y-137764285D01*
X186716723Y-137764285D02*
X186811961Y-137811904D01*
X186811961Y-137811904D02*
X186907200Y-137907142D01*
X186907200Y-137907142D02*
X186954819Y-138049999D01*
X186954819Y-138049999D02*
X186954819Y-138288094D01*
X185954819Y-136859523D02*
X185954819Y-137049999D01*
X185954819Y-137049999D02*
X186002438Y-137145237D01*
X186002438Y-137145237D02*
X186050057Y-137192856D01*
X186050057Y-137192856D02*
X186192914Y-137288094D01*
X186192914Y-137288094D02*
X186383390Y-137335713D01*
X186383390Y-137335713D02*
X186764342Y-137335713D01*
X186764342Y-137335713D02*
X186859580Y-137288094D01*
X186859580Y-137288094D02*
X186907200Y-137240475D01*
X186907200Y-137240475D02*
X186954819Y-137145237D01*
X186954819Y-137145237D02*
X186954819Y-136954761D01*
X186954819Y-136954761D02*
X186907200Y-136859523D01*
X186907200Y-136859523D02*
X186859580Y-136811904D01*
X186859580Y-136811904D02*
X186764342Y-136764285D01*
X186764342Y-136764285D02*
X186526247Y-136764285D01*
X186526247Y-136764285D02*
X186431009Y-136811904D01*
X186431009Y-136811904D02*
X186383390Y-136859523D01*
X186383390Y-136859523D02*
X186335771Y-136954761D01*
X186335771Y-136954761D02*
X186335771Y-137145237D01*
X186335771Y-137145237D02*
X186383390Y-137240475D01*
X186383390Y-137240475D02*
X186431009Y-137288094D01*
X186431009Y-137288094D02*
X186526247Y-137335713D01*
X167954819Y-131714285D02*
X166954819Y-131714285D01*
X166954819Y-131714285D02*
X166954819Y-131476190D01*
X166954819Y-131476190D02*
X167002438Y-131333333D01*
X167002438Y-131333333D02*
X167097676Y-131238095D01*
X167097676Y-131238095D02*
X167192914Y-131190476D01*
X167192914Y-131190476D02*
X167383390Y-131142857D01*
X167383390Y-131142857D02*
X167526247Y-131142857D01*
X167526247Y-131142857D02*
X167716723Y-131190476D01*
X167716723Y-131190476D02*
X167811961Y-131238095D01*
X167811961Y-131238095D02*
X167907200Y-131333333D01*
X167907200Y-131333333D02*
X167954819Y-131476190D01*
X167954819Y-131476190D02*
X167954819Y-131714285D01*
X167954819Y-130190476D02*
X167954819Y-130761904D01*
X167954819Y-130476190D02*
X166954819Y-130476190D01*
X166954819Y-130476190D02*
X167097676Y-130571428D01*
X167097676Y-130571428D02*
X167192914Y-130666666D01*
X167192914Y-130666666D02*
X167240533Y-130761904D01*
X167954819Y-129238095D02*
X167954819Y-129809523D01*
X167954819Y-129523809D02*
X166954819Y-129523809D01*
X166954819Y-129523809D02*
X167097676Y-129619047D01*
X167097676Y-129619047D02*
X167192914Y-129714285D01*
X167192914Y-129714285D02*
X167240533Y-129809523D01*
X186954819Y-176238094D02*
X185954819Y-176238094D01*
X185954819Y-176238094D02*
X185954819Y-175999999D01*
X185954819Y-175999999D02*
X186002438Y-175857142D01*
X186002438Y-175857142D02*
X186097676Y-175761904D01*
X186097676Y-175761904D02*
X186192914Y-175714285D01*
X186192914Y-175714285D02*
X186383390Y-175666666D01*
X186383390Y-175666666D02*
X186526247Y-175666666D01*
X186526247Y-175666666D02*
X186716723Y-175714285D01*
X186716723Y-175714285D02*
X186811961Y-175761904D01*
X186811961Y-175761904D02*
X186907200Y-175857142D01*
X186907200Y-175857142D02*
X186954819Y-175999999D01*
X186954819Y-175999999D02*
X186954819Y-176238094D01*
X186383390Y-175095237D02*
X186335771Y-175190475D01*
X186335771Y-175190475D02*
X186288152Y-175238094D01*
X186288152Y-175238094D02*
X186192914Y-175285713D01*
X186192914Y-175285713D02*
X186145295Y-175285713D01*
X186145295Y-175285713D02*
X186050057Y-175238094D01*
X186050057Y-175238094D02*
X186002438Y-175190475D01*
X186002438Y-175190475D02*
X185954819Y-175095237D01*
X185954819Y-175095237D02*
X185954819Y-174904761D01*
X185954819Y-174904761D02*
X186002438Y-174809523D01*
X186002438Y-174809523D02*
X186050057Y-174761904D01*
X186050057Y-174761904D02*
X186145295Y-174714285D01*
X186145295Y-174714285D02*
X186192914Y-174714285D01*
X186192914Y-174714285D02*
X186288152Y-174761904D01*
X186288152Y-174761904D02*
X186335771Y-174809523D01*
X186335771Y-174809523D02*
X186383390Y-174904761D01*
X186383390Y-174904761D02*
X186383390Y-175095237D01*
X186383390Y-175095237D02*
X186431009Y-175190475D01*
X186431009Y-175190475D02*
X186478628Y-175238094D01*
X186478628Y-175238094D02*
X186573866Y-175285713D01*
X186573866Y-175285713D02*
X186764342Y-175285713D01*
X186764342Y-175285713D02*
X186859580Y-175238094D01*
X186859580Y-175238094D02*
X186907200Y-175190475D01*
X186907200Y-175190475D02*
X186954819Y-175095237D01*
X186954819Y-175095237D02*
X186954819Y-174904761D01*
X186954819Y-174904761D02*
X186907200Y-174809523D01*
X186907200Y-174809523D02*
X186859580Y-174761904D01*
X186859580Y-174761904D02*
X186764342Y-174714285D01*
X186764342Y-174714285D02*
X186573866Y-174714285D01*
X186573866Y-174714285D02*
X186478628Y-174761904D01*
X186478628Y-174761904D02*
X186431009Y-174809523D01*
X186431009Y-174809523D02*
X186383390Y-174904761D01*
X152531905Y-136267200D02*
X152674762Y-136314819D01*
X152674762Y-136314819D02*
X152912857Y-136314819D01*
X152912857Y-136314819D02*
X153008095Y-136267200D01*
X153008095Y-136267200D02*
X153055714Y-136219580D01*
X153055714Y-136219580D02*
X153103333Y-136124342D01*
X153103333Y-136124342D02*
X153103333Y-136029104D01*
X153103333Y-136029104D02*
X153055714Y-135933866D01*
X153055714Y-135933866D02*
X153008095Y-135886247D01*
X153008095Y-135886247D02*
X152912857Y-135838628D01*
X152912857Y-135838628D02*
X152722381Y-135791009D01*
X152722381Y-135791009D02*
X152627143Y-135743390D01*
X152627143Y-135743390D02*
X152579524Y-135695771D01*
X152579524Y-135695771D02*
X152531905Y-135600533D01*
X152531905Y-135600533D02*
X152531905Y-135505295D01*
X152531905Y-135505295D02*
X152579524Y-135410057D01*
X152579524Y-135410057D02*
X152627143Y-135362438D01*
X152627143Y-135362438D02*
X152722381Y-135314819D01*
X152722381Y-135314819D02*
X152960476Y-135314819D01*
X152960476Y-135314819D02*
X153103333Y-135362438D01*
X154055714Y-136314819D02*
X153484286Y-136314819D01*
X153770000Y-136314819D02*
X153770000Y-135314819D01*
X153770000Y-135314819D02*
X153674762Y-135457676D01*
X153674762Y-135457676D02*
X153579524Y-135552914D01*
X153579524Y-135552914D02*
X153484286Y-135600533D01*
X154912857Y-135314819D02*
X154722381Y-135314819D01*
X154722381Y-135314819D02*
X154627143Y-135362438D01*
X154627143Y-135362438D02*
X154579524Y-135410057D01*
X154579524Y-135410057D02*
X154484286Y-135552914D01*
X154484286Y-135552914D02*
X154436667Y-135743390D01*
X154436667Y-135743390D02*
X154436667Y-136124342D01*
X154436667Y-136124342D02*
X154484286Y-136219580D01*
X154484286Y-136219580D02*
X154531905Y-136267200D01*
X154531905Y-136267200D02*
X154627143Y-136314819D01*
X154627143Y-136314819D02*
X154817619Y-136314819D01*
X154817619Y-136314819D02*
X154912857Y-136267200D01*
X154912857Y-136267200D02*
X154960476Y-136219580D01*
X154960476Y-136219580D02*
X155008095Y-136124342D01*
X155008095Y-136124342D02*
X155008095Y-135886247D01*
X155008095Y-135886247D02*
X154960476Y-135791009D01*
X154960476Y-135791009D02*
X154912857Y-135743390D01*
X154912857Y-135743390D02*
X154817619Y-135695771D01*
X154817619Y-135695771D02*
X154627143Y-135695771D01*
X154627143Y-135695771D02*
X154531905Y-135743390D01*
X154531905Y-135743390D02*
X154484286Y-135791009D01*
X154484286Y-135791009D02*
X154436667Y-135886247D01*
X173654819Y-196614285D02*
X172654819Y-196614285D01*
X172654819Y-196614285D02*
X172654819Y-196376190D01*
X172654819Y-196376190D02*
X172702438Y-196233333D01*
X172702438Y-196233333D02*
X172797676Y-196138095D01*
X172797676Y-196138095D02*
X172892914Y-196090476D01*
X172892914Y-196090476D02*
X173083390Y-196042857D01*
X173083390Y-196042857D02*
X173226247Y-196042857D01*
X173226247Y-196042857D02*
X173416723Y-196090476D01*
X173416723Y-196090476D02*
X173511961Y-196138095D01*
X173511961Y-196138095D02*
X173607200Y-196233333D01*
X173607200Y-196233333D02*
X173654819Y-196376190D01*
X173654819Y-196376190D02*
X173654819Y-196614285D01*
X172750057Y-195661904D02*
X172702438Y-195614285D01*
X172702438Y-195614285D02*
X172654819Y-195519047D01*
X172654819Y-195519047D02*
X172654819Y-195280952D01*
X172654819Y-195280952D02*
X172702438Y-195185714D01*
X172702438Y-195185714D02*
X172750057Y-195138095D01*
X172750057Y-195138095D02*
X172845295Y-195090476D01*
X172845295Y-195090476D02*
X172940533Y-195090476D01*
X172940533Y-195090476D02*
X173083390Y-195138095D01*
X173083390Y-195138095D02*
X173654819Y-195709523D01*
X173654819Y-195709523D02*
X173654819Y-195090476D01*
X172988152Y-194233333D02*
X173654819Y-194233333D01*
X172607200Y-194471428D02*
X173321485Y-194709523D01*
X173321485Y-194709523D02*
X173321485Y-194090476D01*
X129854819Y-167614285D02*
X128854819Y-167614285D01*
X128854819Y-167614285D02*
X128854819Y-167376190D01*
X128854819Y-167376190D02*
X128902438Y-167233333D01*
X128902438Y-167233333D02*
X128997676Y-167138095D01*
X128997676Y-167138095D02*
X129092914Y-167090476D01*
X129092914Y-167090476D02*
X129283390Y-167042857D01*
X129283390Y-167042857D02*
X129426247Y-167042857D01*
X129426247Y-167042857D02*
X129616723Y-167090476D01*
X129616723Y-167090476D02*
X129711961Y-167138095D01*
X129711961Y-167138095D02*
X129807200Y-167233333D01*
X129807200Y-167233333D02*
X129854819Y-167376190D01*
X129854819Y-167376190D02*
X129854819Y-167614285D01*
X128950057Y-166661904D02*
X128902438Y-166614285D01*
X128902438Y-166614285D02*
X128854819Y-166519047D01*
X128854819Y-166519047D02*
X128854819Y-166280952D01*
X128854819Y-166280952D02*
X128902438Y-166185714D01*
X128902438Y-166185714D02*
X128950057Y-166138095D01*
X128950057Y-166138095D02*
X129045295Y-166090476D01*
X129045295Y-166090476D02*
X129140533Y-166090476D01*
X129140533Y-166090476D02*
X129283390Y-166138095D01*
X129283390Y-166138095D02*
X129854819Y-166709523D01*
X129854819Y-166709523D02*
X129854819Y-166090476D01*
X128950057Y-165709523D02*
X128902438Y-165661904D01*
X128902438Y-165661904D02*
X128854819Y-165566666D01*
X128854819Y-165566666D02*
X128854819Y-165328571D01*
X128854819Y-165328571D02*
X128902438Y-165233333D01*
X128902438Y-165233333D02*
X128950057Y-165185714D01*
X128950057Y-165185714D02*
X129045295Y-165138095D01*
X129045295Y-165138095D02*
X129140533Y-165138095D01*
X129140533Y-165138095D02*
X129283390Y-165185714D01*
X129283390Y-165185714D02*
X129854819Y-165757142D01*
X129854819Y-165757142D02*
X129854819Y-165138095D01*
X152261905Y-174097200D02*
X152404762Y-174144819D01*
X152404762Y-174144819D02*
X152642857Y-174144819D01*
X152642857Y-174144819D02*
X152738095Y-174097200D01*
X152738095Y-174097200D02*
X152785714Y-174049580D01*
X152785714Y-174049580D02*
X152833333Y-173954342D01*
X152833333Y-173954342D02*
X152833333Y-173859104D01*
X152833333Y-173859104D02*
X152785714Y-173763866D01*
X152785714Y-173763866D02*
X152738095Y-173716247D01*
X152738095Y-173716247D02*
X152642857Y-173668628D01*
X152642857Y-173668628D02*
X152452381Y-173621009D01*
X152452381Y-173621009D02*
X152357143Y-173573390D01*
X152357143Y-173573390D02*
X152309524Y-173525771D01*
X152309524Y-173525771D02*
X152261905Y-173430533D01*
X152261905Y-173430533D02*
X152261905Y-173335295D01*
X152261905Y-173335295D02*
X152309524Y-173240057D01*
X152309524Y-173240057D02*
X152357143Y-173192438D01*
X152357143Y-173192438D02*
X152452381Y-173144819D01*
X152452381Y-173144819D02*
X152690476Y-173144819D01*
X152690476Y-173144819D02*
X152833333Y-173192438D01*
X153785714Y-174144819D02*
X153214286Y-174144819D01*
X153500000Y-174144819D02*
X153500000Y-173144819D01*
X153500000Y-173144819D02*
X153404762Y-173287676D01*
X153404762Y-173287676D02*
X153309524Y-173382914D01*
X153309524Y-173382914D02*
X153214286Y-173430533D01*
X154357143Y-173573390D02*
X154261905Y-173525771D01*
X154261905Y-173525771D02*
X154214286Y-173478152D01*
X154214286Y-173478152D02*
X154166667Y-173382914D01*
X154166667Y-173382914D02*
X154166667Y-173335295D01*
X154166667Y-173335295D02*
X154214286Y-173240057D01*
X154214286Y-173240057D02*
X154261905Y-173192438D01*
X154261905Y-173192438D02*
X154357143Y-173144819D01*
X154357143Y-173144819D02*
X154547619Y-173144819D01*
X154547619Y-173144819D02*
X154642857Y-173192438D01*
X154642857Y-173192438D02*
X154690476Y-173240057D01*
X154690476Y-173240057D02*
X154738095Y-173335295D01*
X154738095Y-173335295D02*
X154738095Y-173382914D01*
X154738095Y-173382914D02*
X154690476Y-173478152D01*
X154690476Y-173478152D02*
X154642857Y-173525771D01*
X154642857Y-173525771D02*
X154547619Y-173573390D01*
X154547619Y-173573390D02*
X154357143Y-173573390D01*
X154357143Y-173573390D02*
X154261905Y-173621009D01*
X154261905Y-173621009D02*
X154214286Y-173668628D01*
X154214286Y-173668628D02*
X154166667Y-173763866D01*
X154166667Y-173763866D02*
X154166667Y-173954342D01*
X154166667Y-173954342D02*
X154214286Y-174049580D01*
X154214286Y-174049580D02*
X154261905Y-174097200D01*
X154261905Y-174097200D02*
X154357143Y-174144819D01*
X154357143Y-174144819D02*
X154547619Y-174144819D01*
X154547619Y-174144819D02*
X154642857Y-174097200D01*
X154642857Y-174097200D02*
X154690476Y-174049580D01*
X154690476Y-174049580D02*
X154738095Y-173954342D01*
X154738095Y-173954342D02*
X154738095Y-173763866D01*
X154738095Y-173763866D02*
X154690476Y-173668628D01*
X154690476Y-173668628D02*
X154642857Y-173621009D01*
X154642857Y-173621009D02*
X154547619Y-173573390D01*
X156181905Y-195947200D02*
X156324762Y-195994819D01*
X156324762Y-195994819D02*
X156562857Y-195994819D01*
X156562857Y-195994819D02*
X156658095Y-195947200D01*
X156658095Y-195947200D02*
X156705714Y-195899580D01*
X156705714Y-195899580D02*
X156753333Y-195804342D01*
X156753333Y-195804342D02*
X156753333Y-195709104D01*
X156753333Y-195709104D02*
X156705714Y-195613866D01*
X156705714Y-195613866D02*
X156658095Y-195566247D01*
X156658095Y-195566247D02*
X156562857Y-195518628D01*
X156562857Y-195518628D02*
X156372381Y-195471009D01*
X156372381Y-195471009D02*
X156277143Y-195423390D01*
X156277143Y-195423390D02*
X156229524Y-195375771D01*
X156229524Y-195375771D02*
X156181905Y-195280533D01*
X156181905Y-195280533D02*
X156181905Y-195185295D01*
X156181905Y-195185295D02*
X156229524Y-195090057D01*
X156229524Y-195090057D02*
X156277143Y-195042438D01*
X156277143Y-195042438D02*
X156372381Y-194994819D01*
X156372381Y-194994819D02*
X156610476Y-194994819D01*
X156610476Y-194994819D02*
X156753333Y-195042438D01*
X157134286Y-195090057D02*
X157181905Y-195042438D01*
X157181905Y-195042438D02*
X157277143Y-194994819D01*
X157277143Y-194994819D02*
X157515238Y-194994819D01*
X157515238Y-194994819D02*
X157610476Y-195042438D01*
X157610476Y-195042438D02*
X157658095Y-195090057D01*
X157658095Y-195090057D02*
X157705714Y-195185295D01*
X157705714Y-195185295D02*
X157705714Y-195280533D01*
X157705714Y-195280533D02*
X157658095Y-195423390D01*
X157658095Y-195423390D02*
X157086667Y-195994819D01*
X157086667Y-195994819D02*
X157705714Y-195994819D01*
X158181905Y-195994819D02*
X158372381Y-195994819D01*
X158372381Y-195994819D02*
X158467619Y-195947200D01*
X158467619Y-195947200D02*
X158515238Y-195899580D01*
X158515238Y-195899580D02*
X158610476Y-195756723D01*
X158610476Y-195756723D02*
X158658095Y-195566247D01*
X158658095Y-195566247D02*
X158658095Y-195185295D01*
X158658095Y-195185295D02*
X158610476Y-195090057D01*
X158610476Y-195090057D02*
X158562857Y-195042438D01*
X158562857Y-195042438D02*
X158467619Y-194994819D01*
X158467619Y-194994819D02*
X158277143Y-194994819D01*
X158277143Y-194994819D02*
X158181905Y-195042438D01*
X158181905Y-195042438D02*
X158134286Y-195090057D01*
X158134286Y-195090057D02*
X158086667Y-195185295D01*
X158086667Y-195185295D02*
X158086667Y-195423390D01*
X158086667Y-195423390D02*
X158134286Y-195518628D01*
X158134286Y-195518628D02*
X158181905Y-195566247D01*
X158181905Y-195566247D02*
X158277143Y-195613866D01*
X158277143Y-195613866D02*
X158467619Y-195613866D01*
X158467619Y-195613866D02*
X158562857Y-195566247D01*
X158562857Y-195566247D02*
X158610476Y-195518628D01*
X158610476Y-195518628D02*
X158658095Y-195423390D01*
X148964819Y-136894285D02*
X147964819Y-136894285D01*
X147964819Y-136894285D02*
X147964819Y-136656190D01*
X147964819Y-136656190D02*
X148012438Y-136513333D01*
X148012438Y-136513333D02*
X148107676Y-136418095D01*
X148107676Y-136418095D02*
X148202914Y-136370476D01*
X148202914Y-136370476D02*
X148393390Y-136322857D01*
X148393390Y-136322857D02*
X148536247Y-136322857D01*
X148536247Y-136322857D02*
X148726723Y-136370476D01*
X148726723Y-136370476D02*
X148821961Y-136418095D01*
X148821961Y-136418095D02*
X148917200Y-136513333D01*
X148917200Y-136513333D02*
X148964819Y-136656190D01*
X148964819Y-136656190D02*
X148964819Y-136894285D01*
X148964819Y-135370476D02*
X148964819Y-135941904D01*
X148964819Y-135656190D02*
X147964819Y-135656190D01*
X147964819Y-135656190D02*
X148107676Y-135751428D01*
X148107676Y-135751428D02*
X148202914Y-135846666D01*
X148202914Y-135846666D02*
X148250533Y-135941904D01*
X147964819Y-134513333D02*
X147964819Y-134703809D01*
X147964819Y-134703809D02*
X148012438Y-134799047D01*
X148012438Y-134799047D02*
X148060057Y-134846666D01*
X148060057Y-134846666D02*
X148202914Y-134941904D01*
X148202914Y-134941904D02*
X148393390Y-134989523D01*
X148393390Y-134989523D02*
X148774342Y-134989523D01*
X148774342Y-134989523D02*
X148869580Y-134941904D01*
X148869580Y-134941904D02*
X148917200Y-134894285D01*
X148917200Y-134894285D02*
X148964819Y-134799047D01*
X148964819Y-134799047D02*
X148964819Y-134608571D01*
X148964819Y-134608571D02*
X148917200Y-134513333D01*
X148917200Y-134513333D02*
X148869580Y-134465714D01*
X148869580Y-134465714D02*
X148774342Y-134418095D01*
X148774342Y-134418095D02*
X148536247Y-134418095D01*
X148536247Y-134418095D02*
X148441009Y-134465714D01*
X148441009Y-134465714D02*
X148393390Y-134513333D01*
X148393390Y-134513333D02*
X148345771Y-134608571D01*
X148345771Y-134608571D02*
X148345771Y-134799047D01*
X148345771Y-134799047D02*
X148393390Y-134894285D01*
X148393390Y-134894285D02*
X148441009Y-134941904D01*
X148441009Y-134941904D02*
X148536247Y-134989523D01*
X235748095Y-114664819D02*
X235748095Y-115474342D01*
X235748095Y-115474342D02*
X235795714Y-115569580D01*
X235795714Y-115569580D02*
X235843333Y-115617200D01*
X235843333Y-115617200D02*
X235938571Y-115664819D01*
X235938571Y-115664819D02*
X236129047Y-115664819D01*
X236129047Y-115664819D02*
X236224285Y-115617200D01*
X236224285Y-115617200D02*
X236271904Y-115569580D01*
X236271904Y-115569580D02*
X236319523Y-115474342D01*
X236319523Y-115474342D02*
X236319523Y-114664819D01*
X237319523Y-115664819D02*
X236748095Y-115664819D01*
X237033809Y-115664819D02*
X237033809Y-114664819D01*
X237033809Y-114664819D02*
X236938571Y-114807676D01*
X236938571Y-114807676D02*
X236843333Y-114902914D01*
X236843333Y-114902914D02*
X236748095Y-114950533D01*
%TO.C,S10*%
X170780852Y-102386713D02*
X171780852Y-102386713D01*
X170780852Y-103186713D02*
X175280852Y-103186713D01*
X170780852Y-103386713D02*
X170780852Y-102386713D01*
X170780852Y-103786713D02*
X170780852Y-103186713D01*
X170780852Y-107886713D02*
X170780852Y-107386713D01*
X170780852Y-116386713D02*
X170780852Y-115386713D01*
X171780852Y-116386713D02*
X170780852Y-116386713D01*
X175280852Y-107186713D02*
X175280852Y-107886713D01*
X175280852Y-107886713D02*
X170780852Y-107886713D01*
X175780852Y-102686713D02*
X175780852Y-101686713D01*
X176280852Y-101186713D02*
X175780852Y-101686713D01*
X179280852Y-101186713D02*
X176280852Y-101186713D01*
X179280852Y-105686713D02*
X176780852Y-105686713D01*
X179780852Y-101686713D02*
X179280852Y-101186713D01*
X179780852Y-105186713D02*
X179280852Y-105686713D01*
X183780852Y-102386713D02*
X184780852Y-102386713D01*
X184780852Y-102386713D02*
X184780852Y-103386713D01*
X184780852Y-115386713D02*
X184780852Y-116386713D01*
X184780852Y-116386713D02*
X183780852Y-116386713D01*
X175280852Y-107186713D02*
G75*
G02*
X176780852Y-105686713I1500000J0D01*
G01*
X175780852Y-102686713D02*
G75*
G02*
X175280852Y-103186713I-500000J0D01*
G01*
%TO.C,RE1*%
D11*
X233450000Y-163800000D02*
X237550000Y-163800000D01*
X233450000Y-166200000D02*
X233450000Y-163800000D01*
X233450000Y-171000000D02*
X233450000Y-168400000D01*
X233450000Y-175600000D02*
X233450000Y-173200000D01*
X237550000Y-175600000D02*
X233450000Y-175600000D01*
X239550000Y-170200000D02*
X239550000Y-169200000D01*
X240050000Y-169700000D02*
X239050000Y-169700000D01*
X241550000Y-163800000D02*
X245650000Y-163800000D01*
X241550000Y-175600000D02*
X245650000Y-175600000D01*
X245650000Y-175600000D02*
X245650000Y-163800000D01*
X246750000Y-173800000D02*
X247050000Y-173500000D01*
X247050000Y-173500000D02*
X247350000Y-173800000D01*
X247350000Y-173800000D02*
X246750000Y-173800000D01*
X242550000Y-169700000D02*
G75*
G02*
X236550000Y-169700000I-3000000J0D01*
G01*
X236550000Y-169700000D02*
G75*
G02*
X242550000Y-169700000I3000000J0D01*
G01*
%TO.C,S24*%
D10*
X176480852Y-186286713D02*
X177480852Y-186286713D01*
X176480852Y-187086713D02*
X180980852Y-187086713D01*
X176480852Y-187286713D02*
X176480852Y-186286713D01*
X176480852Y-187686713D02*
X176480852Y-187086713D01*
X176480852Y-191786713D02*
X176480852Y-191286713D01*
X176480852Y-200286713D02*
X176480852Y-199286713D01*
X177480852Y-200286713D02*
X176480852Y-200286713D01*
X180980852Y-191086713D02*
X180980852Y-191786713D01*
X180980852Y-191786713D02*
X176480852Y-191786713D01*
X181480852Y-186586713D02*
X181480852Y-185586713D01*
X181980852Y-185086713D02*
X181480852Y-185586713D01*
X184980852Y-185086713D02*
X181980852Y-185086713D01*
X184980852Y-189586713D02*
X182480852Y-189586713D01*
X185480852Y-185586713D02*
X184980852Y-185086713D01*
X185480852Y-189086713D02*
X184980852Y-189586713D01*
X189480852Y-186286713D02*
X190480852Y-186286713D01*
X190480852Y-186286713D02*
X190480852Y-187286713D01*
X190480852Y-199286713D02*
X190480852Y-200286713D01*
X190480852Y-200286713D02*
X189480852Y-200286713D01*
X180980852Y-191086713D02*
G75*
G02*
X182480852Y-189586713I1500000J0D01*
G01*
X181480852Y-186586713D02*
G75*
G02*
X180980852Y-187086713I-500000J0D01*
G01*
%TO.C,D2*%
D11*
X206500000Y-139860000D02*
X206500000Y-135850000D01*
X206500000Y-139860000D02*
X208500000Y-139860000D01*
X208500000Y-139860000D02*
X208500000Y-135850000D01*
%TO.C,S11*%
D10*
X170780852Y-121386713D02*
X171780852Y-121386713D01*
X170780852Y-122186713D02*
X175280852Y-122186713D01*
X170780852Y-122386713D02*
X170780852Y-121386713D01*
X170780852Y-122786713D02*
X170780852Y-122186713D01*
X170780852Y-126886713D02*
X170780852Y-126386713D01*
X170780852Y-135386713D02*
X170780852Y-134386713D01*
X171780852Y-135386713D02*
X170780852Y-135386713D01*
X175280852Y-126186713D02*
X175280852Y-126886713D01*
X175280852Y-126886713D02*
X170780852Y-126886713D01*
X175780852Y-121686713D02*
X175780852Y-120686713D01*
X176280852Y-120186713D02*
X175780852Y-120686713D01*
X179280852Y-120186713D02*
X176280852Y-120186713D01*
X179280852Y-124686713D02*
X176780852Y-124686713D01*
X179780852Y-120686713D02*
X179280852Y-120186713D01*
X179780852Y-124186713D02*
X179280852Y-124686713D01*
X183780852Y-121386713D02*
X184780852Y-121386713D01*
X184780852Y-121386713D02*
X184780852Y-122386713D01*
X184780852Y-134386713D02*
X184780852Y-135386713D01*
X184780852Y-135386713D02*
X183780852Y-135386713D01*
X175280852Y-126186713D02*
G75*
G02*
X176780852Y-124686713I1500000J0D01*
G01*
X175780852Y-121686713D02*
G75*
G02*
X175280852Y-122186713I-500000J0D01*
G01*
%TO.C,S9*%
X233946304Y-212292185D02*
X234446304Y-211426159D01*
X234812330Y-212792185D02*
X233946304Y-212292185D01*
X238196304Y-204930969D02*
X238446304Y-204497956D01*
X240246304Y-201380265D02*
X240546304Y-200860649D01*
X240446304Y-201033855D02*
X240946304Y-200167829D01*
X240546304Y-200860649D02*
X244443418Y-203110649D01*
X240946304Y-200167829D02*
X241812330Y-200667829D01*
X242093418Y-207180969D02*
X238196304Y-204930969D01*
X242443418Y-206574751D02*
X242093418Y-207180969D01*
X245126431Y-202927637D02*
X245626431Y-202061611D01*
X246070660Y-219292185D02*
X245204634Y-218792185D01*
X246309444Y-201878599D02*
X245626431Y-202061611D01*
X246570660Y-218426159D02*
X246070660Y-219292185D01*
X246657520Y-207275713D02*
X244492457Y-206025713D01*
X247340533Y-207092700D02*
X246657520Y-207275713D01*
X248907520Y-203378599D02*
X246309444Y-201878599D01*
X249090533Y-204061611D02*
X248907520Y-203378599D01*
X252204634Y-206667829D02*
X253070660Y-207167829D01*
X253070660Y-207167829D02*
X252570660Y-208033855D01*
X242443418Y-206574751D02*
G75*
G02*
X244492457Y-206025712I1299039J-750000D01*
G01*
X245126431Y-202927637D02*
G75*
G02*
X244443418Y-203110650I-433013J250000D01*
G01*
%TO.C,JP5*%
D11*
X239800000Y-141720000D02*
X241800000Y-141720000D01*
X239800000Y-144520000D02*
X239800000Y-141720000D01*
X241800000Y-141720000D02*
X241800000Y-144520000D01*
X241800000Y-144520000D02*
X239800000Y-144520000D01*
%TO.C,D19*%
X194369004Y-198168757D02*
X195065333Y-194219678D01*
X194369004Y-198168757D02*
X196338619Y-198516053D01*
X196338619Y-198516053D02*
X197034948Y-194566974D01*
%TO.C,D21*%
X130400000Y-149760000D02*
X130400000Y-145750000D01*
X130400000Y-149760000D02*
X132400000Y-149760000D01*
X132400000Y-149760000D02*
X132400000Y-145750000D01*
%TO.C,S5*%
D10*
X189780852Y-109386713D02*
X190780852Y-109386713D01*
X189780852Y-110186713D02*
X194280852Y-110186713D01*
X189780852Y-110386713D02*
X189780852Y-109386713D01*
X189780852Y-110786713D02*
X189780852Y-110186713D01*
X189780852Y-114886713D02*
X189780852Y-114386713D01*
X189780852Y-123386713D02*
X189780852Y-122386713D01*
X190780852Y-123386713D02*
X189780852Y-123386713D01*
X194280852Y-114186713D02*
X194280852Y-114886713D01*
X194280852Y-114886713D02*
X189780852Y-114886713D01*
X194780852Y-109686713D02*
X194780852Y-108686713D01*
X195280852Y-108186713D02*
X194780852Y-108686713D01*
X198280852Y-108186713D02*
X195280852Y-108186713D01*
X198280852Y-112686713D02*
X195780852Y-112686713D01*
X198780852Y-108686713D02*
X198280852Y-108186713D01*
X198780852Y-112186713D02*
X198280852Y-112686713D01*
X202780852Y-109386713D02*
X203780852Y-109386713D01*
X203780852Y-109386713D02*
X203780852Y-110386713D01*
X203780852Y-122386713D02*
X203780852Y-123386713D01*
X203780852Y-123386713D02*
X202780852Y-123386713D01*
X194280852Y-114186713D02*
G75*
G02*
X195780852Y-112686713I1500000J0D01*
G01*
X194780852Y-109686713D02*
G75*
G02*
X194280852Y-110186713I-500000J0D01*
G01*
%TO.C,JP23*%
D11*
X242600000Y-104100000D02*
X245400000Y-104100000D01*
X242600000Y-106100000D02*
X242600000Y-104100000D01*
X245400000Y-104100000D02*
X245400000Y-106100000D01*
X245400000Y-106100000D02*
X242600000Y-106100000D01*
%TO.C,S25*%
D10*
X113780852Y-119386713D02*
X114780852Y-119386713D01*
X113780852Y-120186713D02*
X118280852Y-120186713D01*
X113780852Y-120386713D02*
X113780852Y-119386713D01*
X113780852Y-120786713D02*
X113780852Y-120186713D01*
X113780852Y-124886713D02*
X113780852Y-124386713D01*
X113780852Y-133386713D02*
X113780852Y-132386713D01*
X114780852Y-133386713D02*
X113780852Y-133386713D01*
X118280852Y-124186713D02*
X118280852Y-124886713D01*
X118280852Y-124886713D02*
X113780852Y-124886713D01*
X118780852Y-119686713D02*
X118780852Y-118686713D01*
X119280852Y-118186713D02*
X118780852Y-118686713D01*
X122280852Y-118186713D02*
X119280852Y-118186713D01*
X122280852Y-122686713D02*
X119780852Y-122686713D01*
X122780852Y-118686713D02*
X122280852Y-118186713D01*
X122780852Y-122186713D02*
X122280852Y-122686713D01*
X126780852Y-119386713D02*
X127780852Y-119386713D01*
X127780852Y-119386713D02*
X127780852Y-120386713D01*
X127780852Y-132386713D02*
X127780852Y-133386713D01*
X127780852Y-133386713D02*
X126780852Y-133386713D01*
X118280852Y-124186713D02*
G75*
G02*
X119780852Y-122686713I1500000J0D01*
G01*
X118780852Y-119686713D02*
G75*
G02*
X118280852Y-120186713I-500000J0D01*
G01*
%TO.C,S2*%
X208780852Y-128386713D02*
X209780852Y-128386713D01*
X208780852Y-129186713D02*
X213280852Y-129186713D01*
X208780852Y-129386713D02*
X208780852Y-128386713D01*
X208780852Y-129786713D02*
X208780852Y-129186713D01*
X208780852Y-133886713D02*
X208780852Y-133386713D01*
X208780852Y-142386713D02*
X208780852Y-141386713D01*
X209780852Y-142386713D02*
X208780852Y-142386713D01*
X213280852Y-133186713D02*
X213280852Y-133886713D01*
X213280852Y-133886713D02*
X208780852Y-133886713D01*
X213780852Y-128686713D02*
X213780852Y-127686713D01*
X214280852Y-127186713D02*
X213780852Y-127686713D01*
X217280852Y-127186713D02*
X214280852Y-127186713D01*
X217280852Y-131686713D02*
X214780852Y-131686713D01*
X217780852Y-127686713D02*
X217280852Y-127186713D01*
X217780852Y-131186713D02*
X217280852Y-131686713D01*
X221780852Y-128386713D02*
X222780852Y-128386713D01*
X222780852Y-128386713D02*
X222780852Y-129386713D01*
X222780852Y-141386713D02*
X222780852Y-142386713D01*
X222780852Y-142386713D02*
X221780852Y-142386713D01*
X213280852Y-133186713D02*
G75*
G02*
X214780852Y-131686713I1500000J0D01*
G01*
X213780852Y-128686713D02*
G75*
G02*
X213280852Y-129186713I-500000J0D01*
G01*
%TO.C,D4*%
D11*
X206500000Y-177860000D02*
X206500000Y-173850000D01*
X206500000Y-177860000D02*
X208500000Y-177860000D01*
X208500000Y-177860000D02*
X208500000Y-173850000D01*
%TO.C,S13*%
D10*
X170780852Y-159386713D02*
X171780852Y-159386713D01*
X170780852Y-160186713D02*
X175280852Y-160186713D01*
X170780852Y-160386713D02*
X170780852Y-159386713D01*
X170780852Y-160786713D02*
X170780852Y-160186713D01*
X170780852Y-164886713D02*
X170780852Y-164386713D01*
X170780852Y-173386713D02*
X170780852Y-172386713D01*
X171780852Y-173386713D02*
X170780852Y-173386713D01*
X175280852Y-164186713D02*
X175280852Y-164886713D01*
X175280852Y-164886713D02*
X170780852Y-164886713D01*
X175780852Y-159686713D02*
X175780852Y-158686713D01*
X176280852Y-158186713D02*
X175780852Y-158686713D01*
X179280852Y-158186713D02*
X176280852Y-158186713D01*
X179280852Y-162686713D02*
X176780852Y-162686713D01*
X179780852Y-158686713D02*
X179280852Y-158186713D01*
X179780852Y-162186713D02*
X179280852Y-162686713D01*
X183780852Y-159386713D02*
X184780852Y-159386713D01*
X184780852Y-159386713D02*
X184780852Y-160386713D01*
X184780852Y-172386713D02*
X184780852Y-173386713D01*
X184780852Y-173386713D02*
X183780852Y-173386713D01*
X175280852Y-164186713D02*
G75*
G02*
X176780852Y-162686713I1500000J0D01*
G01*
X175780852Y-159686713D02*
G75*
G02*
X175280852Y-160186713I-500000J0D01*
G01*
%TO.C,S15*%
X151780852Y-107386713D02*
X152780852Y-107386713D01*
X151780852Y-108186713D02*
X156280852Y-108186713D01*
X151780852Y-108386713D02*
X151780852Y-107386713D01*
X151780852Y-108786713D02*
X151780852Y-108186713D01*
X151780852Y-112886713D02*
X151780852Y-112386713D01*
X151780852Y-121386713D02*
X151780852Y-120386713D01*
X152780852Y-121386713D02*
X151780852Y-121386713D01*
X156280852Y-112186713D02*
X156280852Y-112886713D01*
X156280852Y-112886713D02*
X151780852Y-112886713D01*
X156780852Y-107686713D02*
X156780852Y-106686713D01*
X157280852Y-106186713D02*
X156780852Y-106686713D01*
X160280852Y-106186713D02*
X157280852Y-106186713D01*
X160280852Y-110686713D02*
X157780852Y-110686713D01*
X160780852Y-106686713D02*
X160280852Y-106186713D01*
X160780852Y-110186713D02*
X160280852Y-110686713D01*
X164780852Y-107386713D02*
X165780852Y-107386713D01*
X165780852Y-107386713D02*
X165780852Y-108386713D01*
X165780852Y-120386713D02*
X165780852Y-121386713D01*
X165780852Y-121386713D02*
X164780852Y-121386713D01*
X156280852Y-112186713D02*
G75*
G02*
X157780852Y-110686713I1500000J0D01*
G01*
X156780852Y-107686713D02*
G75*
G02*
X156280852Y-108186713I-500000J0D01*
G01*
%TO.C,S28*%
X113780852Y-176386713D02*
X114780852Y-176386713D01*
X113780852Y-177186713D02*
X118280852Y-177186713D01*
X113780852Y-177386713D02*
X113780852Y-176386713D01*
X113780852Y-177786713D02*
X113780852Y-177186713D01*
X113780852Y-181886713D02*
X113780852Y-181386713D01*
X113780852Y-190386713D02*
X113780852Y-189386713D01*
X114780852Y-190386713D02*
X113780852Y-190386713D01*
X118280852Y-181186713D02*
X118280852Y-181886713D01*
X118280852Y-181886713D02*
X113780852Y-181886713D01*
X118780852Y-176686713D02*
X118780852Y-175686713D01*
X119280852Y-175186713D02*
X118780852Y-175686713D01*
X122280852Y-175186713D02*
X119280852Y-175186713D01*
X122280852Y-179686713D02*
X119780852Y-179686713D01*
X122780852Y-175686713D02*
X122280852Y-175186713D01*
X122780852Y-179186713D02*
X122280852Y-179686713D01*
X126780852Y-176386713D02*
X127780852Y-176386713D01*
X127780852Y-176386713D02*
X127780852Y-177386713D01*
X127780852Y-189386713D02*
X127780852Y-190386713D01*
X127780852Y-190386713D02*
X126780852Y-190386713D01*
X118280852Y-181186713D02*
G75*
G02*
X119780852Y-179686713I1500000J0D01*
G01*
X118780852Y-176686713D02*
G75*
G02*
X118280852Y-177186713I-500000J0D01*
G01*
%TO.C,D14*%
D11*
X214363363Y-202047317D02*
X215734864Y-198279150D01*
X214363363Y-202047317D02*
X216242748Y-202731358D01*
X216242748Y-202731358D02*
X217614249Y-198963190D01*
%TO.C,D1*%
X206400000Y-120860000D02*
X206400000Y-116850000D01*
X206400000Y-120860000D02*
X208400000Y-120860000D01*
X208400000Y-120860000D02*
X208400000Y-116850000D01*
%TO.C,JP13*%
X241000000Y-127475000D02*
X243000000Y-127475000D01*
X241000000Y-130275000D02*
X241000000Y-127475000D01*
X243000000Y-127475000D02*
X243000000Y-130275000D01*
X243000000Y-130275000D02*
X241000000Y-130275000D01*
%TO.C,D28*%
X111500000Y-187860000D02*
X111500000Y-183850000D01*
X111500000Y-187860000D02*
X113500000Y-187860000D01*
X113500000Y-187860000D02*
X113500000Y-183850000D01*
%TO.C,JP2*%
X233600000Y-106590000D02*
X236400000Y-106590000D01*
X233600000Y-108590000D02*
X233600000Y-106590000D01*
X236400000Y-106590000D02*
X236400000Y-108590000D01*
X236400000Y-108590000D02*
X233600000Y-108590000D01*
%TO.C,D23*%
X130500000Y-187860000D02*
X130500000Y-183850000D01*
X130500000Y-187860000D02*
X132500000Y-187860000D01*
X132500000Y-187860000D02*
X132500000Y-183850000D01*
%TO.C,S6*%
D10*
X189780852Y-128386713D02*
X190780852Y-128386713D01*
X189780852Y-129186713D02*
X194280852Y-129186713D01*
X189780852Y-129386713D02*
X189780852Y-128386713D01*
X189780852Y-129786713D02*
X189780852Y-129186713D01*
X189780852Y-133886713D02*
X189780852Y-133386713D01*
X189780852Y-142386713D02*
X189780852Y-141386713D01*
X190780852Y-142386713D02*
X189780852Y-142386713D01*
X194280852Y-133186713D02*
X194280852Y-133886713D01*
X194280852Y-133886713D02*
X189780852Y-133886713D01*
X194780852Y-128686713D02*
X194780852Y-127686713D01*
X195280852Y-127186713D02*
X194780852Y-127686713D01*
X198280852Y-127186713D02*
X195280852Y-127186713D01*
X198280852Y-131686713D02*
X195780852Y-131686713D01*
X198780852Y-127686713D02*
X198280852Y-127186713D01*
X198780852Y-131186713D02*
X198280852Y-131686713D01*
X202780852Y-128386713D02*
X203780852Y-128386713D01*
X203780852Y-128386713D02*
X203780852Y-129386713D01*
X203780852Y-141386713D02*
X203780852Y-142386713D01*
X203780852Y-142386713D02*
X202780852Y-142386713D01*
X194280852Y-133186713D02*
G75*
G02*
X195780852Y-131686713I1500000J0D01*
G01*
X194780852Y-128686713D02*
G75*
G02*
X194280852Y-129186713I-500000J0D01*
G01*
%TO.C,D26*%
D11*
X111500000Y-149760000D02*
X111500000Y-145750000D01*
X111500000Y-149760000D02*
X113500000Y-149760000D01*
X113500000Y-149760000D02*
X113500000Y-145750000D01*
%TO.C,S21*%
D10*
X132780852Y-138386713D02*
X133780852Y-138386713D01*
X132780852Y-139186713D02*
X137280852Y-139186713D01*
X132780852Y-139386713D02*
X132780852Y-138386713D01*
X132780852Y-139786713D02*
X132780852Y-139186713D01*
X132780852Y-143886713D02*
X132780852Y-143386713D01*
X132780852Y-152386713D02*
X132780852Y-151386713D01*
X133780852Y-152386713D02*
X132780852Y-152386713D01*
X137280852Y-143186713D02*
X137280852Y-143886713D01*
X137280852Y-143886713D02*
X132780852Y-143886713D01*
X137780852Y-138686713D02*
X137780852Y-137686713D01*
X138280852Y-137186713D02*
X137780852Y-137686713D01*
X141280852Y-137186713D02*
X138280852Y-137186713D01*
X141280852Y-141686713D02*
X138780852Y-141686713D01*
X141780852Y-137686713D02*
X141280852Y-137186713D01*
X141780852Y-141186713D02*
X141280852Y-141686713D01*
X145780852Y-138386713D02*
X146780852Y-138386713D01*
X146780852Y-138386713D02*
X146780852Y-139386713D01*
X146780852Y-151386713D02*
X146780852Y-152386713D01*
X146780852Y-152386713D02*
X145780852Y-152386713D01*
X137280852Y-143186713D02*
G75*
G02*
X138780852Y-141686713I1500000J0D01*
G01*
X137780852Y-138686713D02*
G75*
G02*
X137280852Y-139186713I-500000J0D01*
G01*
%TO.C,JP11*%
D11*
X235900000Y-127475000D02*
X237900000Y-127475000D01*
X235900000Y-130275000D02*
X235900000Y-127475000D01*
X237900000Y-127475000D02*
X237900000Y-130275000D01*
X237900000Y-130275000D02*
X235900000Y-130275000D01*
%TO.C,S1*%
D10*
X208780852Y-109386713D02*
X209780852Y-109386713D01*
X208780852Y-110186713D02*
X213280852Y-110186713D01*
X208780852Y-110386713D02*
X208780852Y-109386713D01*
X208780852Y-110786713D02*
X208780852Y-110186713D01*
X208780852Y-114886713D02*
X208780852Y-114386713D01*
X208780852Y-123386713D02*
X208780852Y-122386713D01*
X209780852Y-123386713D02*
X208780852Y-123386713D01*
X213280852Y-114186713D02*
X213280852Y-114886713D01*
X213280852Y-114886713D02*
X208780852Y-114886713D01*
X213780852Y-109686713D02*
X213780852Y-108686713D01*
X214280852Y-108186713D02*
X213780852Y-108686713D01*
X217280852Y-108186713D02*
X214280852Y-108186713D01*
X217280852Y-112686713D02*
X214780852Y-112686713D01*
X217780852Y-108686713D02*
X217280852Y-108186713D01*
X217780852Y-112186713D02*
X217280852Y-112686713D01*
X221780852Y-109386713D02*
X222780852Y-109386713D01*
X222780852Y-109386713D02*
X222780852Y-110386713D01*
X222780852Y-122386713D02*
X222780852Y-123386713D01*
X222780852Y-123386713D02*
X221780852Y-123386713D01*
X213280852Y-114186713D02*
G75*
G02*
X214780852Y-112686713I1500000J0D01*
G01*
X213780852Y-109686713D02*
G75*
G02*
X213280852Y-110186713I-500000J0D01*
G01*
%TO.C,D10*%
D11*
X168500000Y-113960000D02*
X168500000Y-109950000D01*
X168500000Y-113960000D02*
X170500000Y-113960000D01*
X170500000Y-113960000D02*
X170500000Y-109950000D01*
%TO.C,S22*%
D10*
X132780852Y-157386713D02*
X133780852Y-157386713D01*
X132780852Y-158186713D02*
X137280852Y-158186713D01*
X132780852Y-158386713D02*
X132780852Y-157386713D01*
X132780852Y-158786713D02*
X132780852Y-158186713D01*
X132780852Y-162886713D02*
X132780852Y-162386713D01*
X132780852Y-171386713D02*
X132780852Y-170386713D01*
X133780852Y-171386713D02*
X132780852Y-171386713D01*
X137280852Y-162186713D02*
X137280852Y-162886713D01*
X137280852Y-162886713D02*
X132780852Y-162886713D01*
X137780852Y-157686713D02*
X137780852Y-156686713D01*
X138280852Y-156186713D02*
X137780852Y-156686713D01*
X141280852Y-156186713D02*
X138280852Y-156186713D01*
X141280852Y-160686713D02*
X138780852Y-160686713D01*
X141780852Y-156686713D02*
X141280852Y-156186713D01*
X141780852Y-160186713D02*
X141280852Y-160686713D01*
X145780852Y-157386713D02*
X146780852Y-157386713D01*
X146780852Y-157386713D02*
X146780852Y-158386713D01*
X146780852Y-170386713D02*
X146780852Y-171386713D01*
X146780852Y-171386713D02*
X145780852Y-171386713D01*
X137280852Y-162186713D02*
G75*
G02*
X138780852Y-160686713I1500000J0D01*
G01*
X137780852Y-157686713D02*
G75*
G02*
X137280852Y-158186713I-500000J0D01*
G01*
%TO.C,S12*%
X170780852Y-140386713D02*
X171780852Y-140386713D01*
X170780852Y-141186713D02*
X175280852Y-141186713D01*
X170780852Y-141386713D02*
X170780852Y-140386713D01*
X170780852Y-141786713D02*
X170780852Y-141186713D01*
X170780852Y-145886713D02*
X170780852Y-145386713D01*
X170780852Y-154386713D02*
X170780852Y-153386713D01*
X171780852Y-154386713D02*
X170780852Y-154386713D01*
X175280852Y-145186713D02*
X175280852Y-145886713D01*
X175280852Y-145886713D02*
X170780852Y-145886713D01*
X175780852Y-140686713D02*
X175780852Y-139686713D01*
X176280852Y-139186713D02*
X175780852Y-139686713D01*
X179280852Y-139186713D02*
X176280852Y-139186713D01*
X179280852Y-143686713D02*
X176780852Y-143686713D01*
X179780852Y-139686713D02*
X179280852Y-139186713D01*
X179780852Y-143186713D02*
X179280852Y-143686713D01*
X183780852Y-140386713D02*
X184780852Y-140386713D01*
X184780852Y-140386713D02*
X184780852Y-141386713D01*
X184780852Y-153386713D02*
X184780852Y-154386713D01*
X184780852Y-154386713D02*
X183780852Y-154386713D01*
X175280852Y-145186713D02*
G75*
G02*
X176780852Y-143686713I1500000J0D01*
G01*
X175780852Y-140686713D02*
G75*
G02*
X175280852Y-141186713I-500000J0D01*
G01*
%TO.C,D25*%
D11*
X111500000Y-130560000D02*
X111500000Y-126550000D01*
X111500000Y-130560000D02*
X113500000Y-130560000D01*
X113500000Y-130560000D02*
X113500000Y-126550000D01*
%TO.C,S23*%
D10*
X132780852Y-176386713D02*
X133780852Y-176386713D01*
X132780852Y-177186713D02*
X137280852Y-177186713D01*
X132780852Y-177386713D02*
X132780852Y-176386713D01*
X132780852Y-177786713D02*
X132780852Y-177186713D01*
X132780852Y-181886713D02*
X132780852Y-181386713D01*
X132780852Y-190386713D02*
X132780852Y-189386713D01*
X133780852Y-190386713D02*
X132780852Y-190386713D01*
X137280852Y-181186713D02*
X137280852Y-181886713D01*
X137280852Y-181886713D02*
X132780852Y-181886713D01*
X137780852Y-176686713D02*
X137780852Y-175686713D01*
X138280852Y-175186713D02*
X137780852Y-175686713D01*
X141280852Y-175186713D02*
X138280852Y-175186713D01*
X141280852Y-179686713D02*
X138780852Y-179686713D01*
X141780852Y-175686713D02*
X141280852Y-175186713D01*
X141780852Y-179186713D02*
X141280852Y-179686713D01*
X145780852Y-176386713D02*
X146780852Y-176386713D01*
X146780852Y-176386713D02*
X146780852Y-177386713D01*
X146780852Y-189386713D02*
X146780852Y-190386713D01*
X146780852Y-190386713D02*
X145780852Y-190386713D01*
X137280852Y-181186713D02*
G75*
G02*
X138780852Y-179686713I1500000J0D01*
G01*
X137780852Y-176686713D02*
G75*
G02*
X137280852Y-177186713I-500000J0D01*
G01*
%TO.C,JP6*%
D11*
X234700000Y-141730000D02*
X236700000Y-141730000D01*
X234700000Y-144530000D02*
X234700000Y-141730000D01*
X236700000Y-141730000D02*
X236700000Y-144530000D01*
X236700000Y-144530000D02*
X234700000Y-144530000D01*
%TO.C,D27*%
X111500000Y-168760000D02*
X111500000Y-164750000D01*
X111500000Y-168760000D02*
X113500000Y-168760000D01*
X113500000Y-168760000D02*
X113500000Y-164750000D01*
%TO.C,S4*%
D10*
X208780852Y-166386713D02*
X209780852Y-166386713D01*
X208780852Y-167186713D02*
X213280852Y-167186713D01*
X208780852Y-167386713D02*
X208780852Y-166386713D01*
X208780852Y-167786713D02*
X208780852Y-167186713D01*
X208780852Y-171886713D02*
X208780852Y-171386713D01*
X208780852Y-180386713D02*
X208780852Y-179386713D01*
X209780852Y-180386713D02*
X208780852Y-180386713D01*
X213280852Y-171186713D02*
X213280852Y-171886713D01*
X213280852Y-171886713D02*
X208780852Y-171886713D01*
X213780852Y-166686713D02*
X213780852Y-165686713D01*
X214280852Y-165186713D02*
X213780852Y-165686713D01*
X217280852Y-165186713D02*
X214280852Y-165186713D01*
X217280852Y-169686713D02*
X214780852Y-169686713D01*
X217780852Y-165686713D02*
X217280852Y-165186713D01*
X217780852Y-169186713D02*
X217280852Y-169686713D01*
X221780852Y-166386713D02*
X222780852Y-166386713D01*
X222780852Y-166386713D02*
X222780852Y-167386713D01*
X222780852Y-179386713D02*
X222780852Y-180386713D01*
X222780852Y-180386713D02*
X221780852Y-180386713D01*
X213280852Y-171186713D02*
G75*
G02*
X214780852Y-169686713I1500000J0D01*
G01*
X213780852Y-166686713D02*
G75*
G02*
X213280852Y-167186713I-500000J0D01*
G01*
%TO.C,D9*%
D11*
X233384385Y-208703754D02*
X235116435Y-209703754D01*
X233384385Y-208703754D02*
X235389385Y-205230992D01*
X235116435Y-209703754D02*
X237121435Y-206230992D01*
%TO.C,S14*%
D10*
X215678011Y-204923707D02*
X216020031Y-203984015D01*
X216617703Y-205265727D02*
X215678011Y-204923707D01*
X218585182Y-196936320D02*
X218756192Y-196466474D01*
X219987464Y-193083580D02*
X220192677Y-192519765D01*
X220124273Y-192707703D02*
X220466293Y-191768011D01*
X220192677Y-192519765D02*
X224421293Y-194058855D01*
X220466293Y-191768011D02*
X221405985Y-192110031D01*
X222813799Y-198475411D02*
X218585182Y-196936320D01*
X223053213Y-197817626D02*
X222813799Y-198475411D01*
X225062150Y-193760019D02*
X225404170Y-192820327D01*
X226045026Y-192521490D02*
X225404170Y-192820327D01*
X227325013Y-197776168D02*
X224975782Y-196921117D01*
X227965870Y-197477331D02*
X227325013Y-197776168D01*
X228833707Y-209711989D02*
X227894015Y-209369969D01*
X228864104Y-193547551D02*
X226045026Y-192521490D01*
X229162940Y-194188407D02*
X228864104Y-193547551D01*
X229175727Y-208772297D02*
X228833707Y-209711989D01*
X232682297Y-196214273D02*
X233621989Y-196556293D01*
X233621989Y-196556293D02*
X233279969Y-197495985D01*
X223053213Y-197817626D02*
G75*
G02*
X224975782Y-196921117I1409539J-513030D01*
G01*
X225062150Y-193760019D02*
G75*
G02*
X224421293Y-194058856I-469847J171010D01*
G01*
%TO.C,J1*%
D11*
X234305000Y-145215000D02*
X234305000Y-147975000D01*
X242035000Y-145215000D02*
X234305000Y-145215000D01*
X242035000Y-145215000D02*
X242035000Y-147975000D01*
X242035000Y-147975000D02*
X234305000Y-147975000D01*
X243305000Y-145215000D02*
X244685000Y-145215000D01*
X244685000Y-145215000D02*
X244685000Y-146595000D01*
%TO.C,D17*%
X149500000Y-156860000D02*
X149500000Y-152850000D01*
X149500000Y-156860000D02*
X151500000Y-156860000D01*
X151500000Y-156860000D02*
X151500000Y-152850000D01*
%TO.C,DRE1*%
X231580804Y-182448672D02*
X231580804Y-178438672D01*
X231580804Y-182448672D02*
X233580804Y-182448672D01*
X233580804Y-182448672D02*
X233580804Y-178438672D01*
%TO.C,J2*%
X247865000Y-161430000D02*
X249785000Y-161430000D01*
X249785000Y-152270000D02*
X247865000Y-152270000D01*
X251795000Y-152270000D02*
X253500000Y-152270000D01*
X253500000Y-152270000D02*
X253500000Y-161430000D01*
X253500000Y-161430000D02*
X251795000Y-161430000D01*
%TO.C,D7*%
X187500000Y-158860000D02*
X187500000Y-154850000D01*
X187500000Y-158860000D02*
X189500000Y-158860000D01*
X189500000Y-158860000D02*
X189500000Y-154850000D01*
%TO.C,JP7*%
X237250000Y-141725000D02*
X239250000Y-141725000D01*
X237250000Y-144525000D02*
X237250000Y-141725000D01*
X239250000Y-141725000D02*
X239250000Y-144525000D01*
X239250000Y-144525000D02*
X237250000Y-144525000D01*
%TO.C,D18*%
X149500000Y-175860000D02*
X149500000Y-171850000D01*
X149500000Y-175860000D02*
X151500000Y-175860000D01*
X151500000Y-175860000D02*
X151500000Y-171850000D01*
%TO.C,S7*%
D10*
X189780852Y-147386713D02*
X190780852Y-147386713D01*
X189780852Y-148186713D02*
X194280852Y-148186713D01*
X189780852Y-148386713D02*
X189780852Y-147386713D01*
X189780852Y-148786713D02*
X189780852Y-148186713D01*
X189780852Y-152886713D02*
X189780852Y-152386713D01*
X189780852Y-161386713D02*
X189780852Y-160386713D01*
X190780852Y-161386713D02*
X189780852Y-161386713D01*
X194280852Y-152186713D02*
X194280852Y-152886713D01*
X194280852Y-152886713D02*
X189780852Y-152886713D01*
X194780852Y-147686713D02*
X194780852Y-146686713D01*
X195280852Y-146186713D02*
X194780852Y-146686713D01*
X198280852Y-146186713D02*
X195280852Y-146186713D01*
X198280852Y-150686713D02*
X195780852Y-150686713D01*
X198780852Y-146686713D02*
X198280852Y-146186713D01*
X198780852Y-150186713D02*
X198280852Y-150686713D01*
X202780852Y-147386713D02*
X203780852Y-147386713D01*
X203780852Y-147386713D02*
X203780852Y-148386713D01*
X203780852Y-160386713D02*
X203780852Y-161386713D01*
X203780852Y-161386713D02*
X202780852Y-161386713D01*
X194280852Y-152186713D02*
G75*
G02*
X195780852Y-150686713I1500000J0D01*
G01*
X194780852Y-147686713D02*
G75*
G02*
X194280852Y-148186713I-500000J0D01*
G01*
%TO.C,D15*%
D11*
X149500000Y-118960000D02*
X149500000Y-114950000D01*
X149500000Y-118960000D02*
X151500000Y-118960000D01*
X151500000Y-118960000D02*
X151500000Y-114950000D01*
%TO.C,D12*%
X168500000Y-151860000D02*
X168500000Y-147850000D01*
X168500000Y-151860000D02*
X170500000Y-151860000D01*
X170500000Y-151860000D02*
X170500000Y-147850000D01*
%TO.C,JP1*%
X233600000Y-104090000D02*
X236400000Y-104090000D01*
X233600000Y-106090000D02*
X233600000Y-104090000D01*
X236400000Y-104090000D02*
X236400000Y-106090000D01*
X236400000Y-106090000D02*
X233600000Y-106090000D01*
%TO.C,D20*%
X130500000Y-130560000D02*
X130500000Y-126550000D01*
X130500000Y-130560000D02*
X132500000Y-130560000D01*
X132500000Y-130560000D02*
X132500000Y-126550000D01*
%TO.C,JP3*%
X233600000Y-109110000D02*
X236400000Y-109110000D01*
X233600000Y-111110000D02*
X233600000Y-109110000D01*
X236400000Y-109110000D02*
X236400000Y-111110000D01*
X236400000Y-111110000D02*
X233600000Y-111110000D01*
%TO.C,S19*%
D10*
X196211174Y-200856188D02*
X196384823Y-199871380D01*
X197195982Y-201029836D02*
X196211174Y-200856188D01*
X197687184Y-192485322D02*
X197774008Y-191992918D01*
X198399142Y-188447610D02*
X198503330Y-187856726D01*
X198468601Y-188053687D02*
X198642249Y-187068879D01*
X198503330Y-187856726D02*
X202934965Y-188638142D01*
X198642249Y-187068879D02*
X199627057Y-187242528D01*
X202118819Y-193266739D02*
X197687184Y-192485322D01*
X202240373Y-192577373D02*
X202118819Y-193266739D01*
X203514193Y-188232563D02*
X203687841Y-187247755D01*
X204267069Y-186842175D02*
X203687841Y-187247755D01*
X206440076Y-191794755D02*
X203978057Y-191360634D01*
X207019304Y-191389175D02*
X206440076Y-191794755D01*
X207221493Y-187363120D02*
X204267069Y-186842175D01*
X207627072Y-187942348D02*
X207221493Y-187363120D01*
X209998483Y-203287263D02*
X209013675Y-203113614D01*
X210172131Y-202302455D02*
X209998483Y-203287263D01*
X211444750Y-189326306D02*
X212429558Y-189499954D01*
X212429558Y-189499954D02*
X212255909Y-190484762D01*
X202240373Y-192577373D02*
G75*
G02*
X203978057Y-191360635I1477211J-260473D01*
G01*
X203514193Y-188232563D02*
G75*
G02*
X202934965Y-188638143I-492404J86824D01*
G01*
%TO.C,S27*%
X113780852Y-157386713D02*
X114780852Y-157386713D01*
X113780852Y-158186713D02*
X118280852Y-158186713D01*
X113780852Y-158386713D02*
X113780852Y-157386713D01*
X113780852Y-158786713D02*
X113780852Y-158186713D01*
X113780852Y-162886713D02*
X113780852Y-162386713D01*
X113780852Y-171386713D02*
X113780852Y-170386713D01*
X114780852Y-171386713D02*
X113780852Y-171386713D01*
X118280852Y-162186713D02*
X118280852Y-162886713D01*
X118280852Y-162886713D02*
X113780852Y-162886713D01*
X118780852Y-157686713D02*
X118780852Y-156686713D01*
X119280852Y-156186713D02*
X118780852Y-156686713D01*
X122280852Y-156186713D02*
X119280852Y-156186713D01*
X122280852Y-160686713D02*
X119780852Y-160686713D01*
X122780852Y-156686713D02*
X122280852Y-156186713D01*
X122780852Y-160186713D02*
X122280852Y-160686713D01*
X126780852Y-157386713D02*
X127780852Y-157386713D01*
X127780852Y-157386713D02*
X127780852Y-158386713D01*
X127780852Y-170386713D02*
X127780852Y-171386713D01*
X127780852Y-171386713D02*
X126780852Y-171386713D01*
X118280852Y-162186713D02*
G75*
G02*
X119780852Y-160686713I1500000J0D01*
G01*
X118780852Y-157686713D02*
G75*
G02*
X118280852Y-158186713I-500000J0D01*
G01*
%TO.C,D29*%
D11*
X153300000Y-197760000D02*
X153300000Y-193750000D01*
X153300000Y-197760000D02*
X155300000Y-197760000D01*
X155300000Y-197760000D02*
X155300000Y-193750000D01*
%TO.C,JP22*%
X242597196Y-106597196D02*
X245397196Y-106597196D01*
X242597196Y-108597196D02*
X242597196Y-106597196D01*
X245397196Y-106597196D02*
X245397196Y-108597196D01*
X245397196Y-108597196D02*
X242597196Y-108597196D01*
%TO.C,D3*%
X206500000Y-158960000D02*
X206500000Y-154950000D01*
X206500000Y-158960000D02*
X208500000Y-158960000D01*
X208500000Y-158960000D02*
X208500000Y-154950000D01*
%TO.C,D13*%
X168500000Y-170860000D02*
X168500000Y-166850000D01*
X168500000Y-170860000D02*
X170500000Y-170860000D01*
X170500000Y-170860000D02*
X170500000Y-166850000D01*
%TO.C,D5*%
X187500000Y-120860000D02*
X187500000Y-116850000D01*
X187500000Y-120860000D02*
X189500000Y-120860000D01*
X189500000Y-120860000D02*
X189500000Y-116850000D01*
%TO.C,S20*%
D10*
X132780852Y-119386713D02*
X133780852Y-119386713D01*
X132780852Y-120186713D02*
X137280852Y-120186713D01*
X132780852Y-120386713D02*
X132780852Y-119386713D01*
X132780852Y-120786713D02*
X132780852Y-120186713D01*
X132780852Y-124886713D02*
X132780852Y-124386713D01*
X132780852Y-133386713D02*
X132780852Y-132386713D01*
X133780852Y-133386713D02*
X132780852Y-133386713D01*
X137280852Y-124186713D02*
X137280852Y-124886713D01*
X137280852Y-124886713D02*
X132780852Y-124886713D01*
X137780852Y-119686713D02*
X137780852Y-118686713D01*
X138280852Y-118186713D02*
X137780852Y-118686713D01*
X141280852Y-118186713D02*
X138280852Y-118186713D01*
X141280852Y-122686713D02*
X138780852Y-122686713D01*
X141780852Y-118686713D02*
X141280852Y-118186713D01*
X141780852Y-122186713D02*
X141280852Y-122686713D01*
X145780852Y-119386713D02*
X146780852Y-119386713D01*
X146780852Y-119386713D02*
X146780852Y-120386713D01*
X146780852Y-132386713D02*
X146780852Y-133386713D01*
X146780852Y-133386713D02*
X145780852Y-133386713D01*
X137280852Y-124186713D02*
G75*
G02*
X138780852Y-122686713I1500000J0D01*
G01*
X137780852Y-119686713D02*
G75*
G02*
X137280852Y-120186713I-500000J0D01*
G01*
%TO.C,S8*%
X189780852Y-166386713D02*
X190780852Y-166386713D01*
X189780852Y-167186713D02*
X194280852Y-167186713D01*
X189780852Y-167386713D02*
X189780852Y-166386713D01*
X189780852Y-167786713D02*
X189780852Y-167186713D01*
X189780852Y-171886713D02*
X189780852Y-171386713D01*
X189780852Y-180386713D02*
X189780852Y-179386713D01*
X190780852Y-180386713D02*
X189780852Y-180386713D01*
X194280852Y-171186713D02*
X194280852Y-171886713D01*
X194280852Y-171886713D02*
X189780852Y-171886713D01*
X194780852Y-166686713D02*
X194780852Y-165686713D01*
X195280852Y-165186713D02*
X194780852Y-165686713D01*
X198280852Y-165186713D02*
X195280852Y-165186713D01*
X198280852Y-169686713D02*
X195780852Y-169686713D01*
X198780852Y-165686713D02*
X198280852Y-165186713D01*
X198780852Y-169186713D02*
X198280852Y-169686713D01*
X202780852Y-166386713D02*
X203780852Y-166386713D01*
X203780852Y-166386713D02*
X203780852Y-167386713D01*
X203780852Y-179386713D02*
X203780852Y-180386713D01*
X203780852Y-180386713D02*
X202780852Y-180386713D01*
X194280852Y-171186713D02*
G75*
G02*
X195780852Y-169686713I1500000J0D01*
G01*
X194780852Y-166686713D02*
G75*
G02*
X194280852Y-167186713I-500000J0D01*
G01*
%TO.C,S3*%
X208780852Y-147386713D02*
X209780852Y-147386713D01*
X208780852Y-148186713D02*
X213280852Y-148186713D01*
X208780852Y-148386713D02*
X208780852Y-147386713D01*
X208780852Y-148786713D02*
X208780852Y-148186713D01*
X208780852Y-152886713D02*
X208780852Y-152386713D01*
X208780852Y-161386713D02*
X208780852Y-160386713D01*
X209780852Y-161386713D02*
X208780852Y-161386713D01*
X213280852Y-152186713D02*
X213280852Y-152886713D01*
X213280852Y-152886713D02*
X208780852Y-152886713D01*
X213780852Y-147686713D02*
X213780852Y-146686713D01*
X214280852Y-146186713D02*
X213780852Y-146686713D01*
X217280852Y-146186713D02*
X214280852Y-146186713D01*
X217280852Y-150686713D02*
X214780852Y-150686713D01*
X217780852Y-146686713D02*
X217280852Y-146186713D01*
X217780852Y-150186713D02*
X217280852Y-150686713D01*
X221780852Y-147386713D02*
X222780852Y-147386713D01*
X222780852Y-147386713D02*
X222780852Y-148386713D01*
X222780852Y-160386713D02*
X222780852Y-161386713D01*
X222780852Y-161386713D02*
X221780852Y-161386713D01*
X213280852Y-152186713D02*
G75*
G02*
X214780852Y-150686713I1500000J0D01*
G01*
X213780852Y-147686713D02*
G75*
G02*
X213280852Y-148186713I-500000J0D01*
G01*
%TO.C,S26*%
X113780852Y-138386713D02*
X114780852Y-138386713D01*
X113780852Y-139186713D02*
X118280852Y-139186713D01*
X113780852Y-139386713D02*
X113780852Y-138386713D01*
X113780852Y-139786713D02*
X113780852Y-139186713D01*
X113780852Y-143886713D02*
X113780852Y-143386713D01*
X113780852Y-152386713D02*
X113780852Y-151386713D01*
X114780852Y-152386713D02*
X113780852Y-152386713D01*
X118280852Y-143186713D02*
X118280852Y-143886713D01*
X118280852Y-143886713D02*
X113780852Y-143886713D01*
X118780852Y-138686713D02*
X118780852Y-137686713D01*
X119280852Y-137186713D02*
X118780852Y-137686713D01*
X122280852Y-137186713D02*
X119280852Y-137186713D01*
X122280852Y-141686713D02*
X119780852Y-141686713D01*
X122780852Y-137686713D02*
X122280852Y-137186713D01*
X122780852Y-141186713D02*
X122280852Y-141686713D01*
X126780852Y-138386713D02*
X127780852Y-138386713D01*
X127780852Y-138386713D02*
X127780852Y-139386713D01*
X127780852Y-151386713D02*
X127780852Y-152386713D01*
X127780852Y-152386713D02*
X126780852Y-152386713D01*
X118280852Y-143186713D02*
G75*
G02*
X119780852Y-141686713I1500000J0D01*
G01*
X118780852Y-138686713D02*
G75*
G02*
X118280852Y-139186713I-500000J0D01*
G01*
%TO.C,JP4*%
D11*
X242350000Y-141730000D02*
X244350000Y-141730000D01*
X242350000Y-144530000D02*
X242350000Y-141730000D01*
X244350000Y-141730000D02*
X244350000Y-144530000D01*
X244350000Y-144530000D02*
X242350000Y-144530000D01*
%TO.C,S17*%
D10*
X151780852Y-145386713D02*
X152780852Y-145386713D01*
X151780852Y-146186713D02*
X156280852Y-146186713D01*
X151780852Y-146386713D02*
X151780852Y-145386713D01*
X151780852Y-146786713D02*
X151780852Y-146186713D01*
X151780852Y-150886713D02*
X151780852Y-150386713D01*
X151780852Y-159386713D02*
X151780852Y-158386713D01*
X152780852Y-159386713D02*
X151780852Y-159386713D01*
X156280852Y-150186713D02*
X156280852Y-150886713D01*
X156280852Y-150886713D02*
X151780852Y-150886713D01*
X156780852Y-145686713D02*
X156780852Y-144686713D01*
X157280852Y-144186713D02*
X156780852Y-144686713D01*
X160280852Y-144186713D02*
X157280852Y-144186713D01*
X160280852Y-148686713D02*
X157780852Y-148686713D01*
X160780852Y-144686713D02*
X160280852Y-144186713D01*
X160780852Y-148186713D02*
X160280852Y-148686713D01*
X164780852Y-145386713D02*
X165780852Y-145386713D01*
X165780852Y-145386713D02*
X165780852Y-146386713D01*
X165780852Y-158386713D02*
X165780852Y-159386713D01*
X165780852Y-159386713D02*
X164780852Y-159386713D01*
X156280852Y-150186713D02*
G75*
G02*
X157780852Y-148686713I1500000J0D01*
G01*
X156780852Y-145686713D02*
G75*
G02*
X156280852Y-146186713I-500000J0D01*
G01*
%TO.C,D6*%
D11*
X187500000Y-139910000D02*
X187500000Y-135900000D01*
X187500000Y-139910000D02*
X189500000Y-139910000D01*
X189500000Y-139910000D02*
X189500000Y-135900000D01*
%TO.C,D11*%
X168500000Y-132860000D02*
X168500000Y-128850000D01*
X168500000Y-132860000D02*
X170500000Y-132860000D01*
X170500000Y-132860000D02*
X170500000Y-128850000D01*
%TO.C,D8*%
X187500000Y-177860000D02*
X187500000Y-173850000D01*
X187500000Y-177860000D02*
X189500000Y-177860000D01*
X189500000Y-177860000D02*
X189500000Y-173850000D01*
%TO.C,S16*%
D10*
X151780852Y-126386713D02*
X152780852Y-126386713D01*
X151780852Y-127186713D02*
X156280852Y-127186713D01*
X151780852Y-127386713D02*
X151780852Y-126386713D01*
X151780852Y-127786713D02*
X151780852Y-127186713D01*
X151780852Y-131886713D02*
X151780852Y-131386713D01*
X151780852Y-140386713D02*
X151780852Y-139386713D01*
X152780852Y-140386713D02*
X151780852Y-140386713D01*
X156280852Y-131186713D02*
X156280852Y-131886713D01*
X156280852Y-131886713D02*
X151780852Y-131886713D01*
X156780852Y-126686713D02*
X156780852Y-125686713D01*
X157280852Y-125186713D02*
X156780852Y-125686713D01*
X160280852Y-125186713D02*
X157280852Y-125186713D01*
X160280852Y-129686713D02*
X157780852Y-129686713D01*
X160780852Y-125686713D02*
X160280852Y-125186713D01*
X160780852Y-129186713D02*
X160280852Y-129686713D01*
X164780852Y-126386713D02*
X165780852Y-126386713D01*
X165780852Y-126386713D02*
X165780852Y-127386713D01*
X165780852Y-139386713D02*
X165780852Y-140386713D01*
X165780852Y-140386713D02*
X164780852Y-140386713D01*
X156280852Y-131186713D02*
G75*
G02*
X157780852Y-129686713I1500000J0D01*
G01*
X156780852Y-126686713D02*
G75*
G02*
X156280852Y-127186713I-500000J0D01*
G01*
%TO.C,D24*%
D11*
X174200000Y-197760000D02*
X174200000Y-193750000D01*
X174200000Y-197760000D02*
X176200000Y-197760000D01*
X176200000Y-197760000D02*
X176200000Y-193750000D01*
%TO.C,D22*%
X130400000Y-168760000D02*
X130400000Y-164750000D01*
X130400000Y-168760000D02*
X132400000Y-168760000D01*
X132400000Y-168760000D02*
X132400000Y-164750000D01*
%TO.C,JP21*%
X242600000Y-109100000D02*
X245400000Y-109100000D01*
X242600000Y-111100000D02*
X242600000Y-109100000D01*
X245400000Y-109100000D02*
X245400000Y-111100000D01*
X245400000Y-111100000D02*
X242600000Y-111100000D01*
%TO.C,S18*%
D10*
X151780852Y-164386713D02*
X152780852Y-164386713D01*
X151780852Y-165186713D02*
X156280852Y-165186713D01*
X151780852Y-165386713D02*
X151780852Y-164386713D01*
X151780852Y-165786713D02*
X151780852Y-165186713D01*
X151780852Y-169886713D02*
X151780852Y-169386713D01*
X151780852Y-178386713D02*
X151780852Y-177386713D01*
X152780852Y-178386713D02*
X151780852Y-178386713D01*
X156280852Y-169186713D02*
X156280852Y-169886713D01*
X156280852Y-169886713D02*
X151780852Y-169886713D01*
X156780852Y-164686713D02*
X156780852Y-163686713D01*
X157280852Y-163186713D02*
X156780852Y-163686713D01*
X160280852Y-163186713D02*
X157280852Y-163186713D01*
X160280852Y-167686713D02*
X157780852Y-167686713D01*
X160780852Y-163686713D02*
X160280852Y-163186713D01*
X160780852Y-167186713D02*
X160280852Y-167686713D01*
X164780852Y-164386713D02*
X165780852Y-164386713D01*
X165780852Y-164386713D02*
X165780852Y-165386713D01*
X165780852Y-177386713D02*
X165780852Y-178386713D01*
X165780852Y-178386713D02*
X164780852Y-178386713D01*
X156280852Y-169186713D02*
G75*
G02*
X157780852Y-167686713I1500000J0D01*
G01*
X156780852Y-164686713D02*
G75*
G02*
X156280852Y-165186713I-500000J0D01*
G01*
%TO.C,S29*%
X155580852Y-186286713D02*
X156580852Y-186286713D01*
X155580852Y-187086713D02*
X160080852Y-187086713D01*
X155580852Y-187286713D02*
X155580852Y-186286713D01*
X155580852Y-187686713D02*
X155580852Y-187086713D01*
X155580852Y-191786713D02*
X155580852Y-191286713D01*
X155580852Y-200286713D02*
X155580852Y-199286713D01*
X156580852Y-200286713D02*
X155580852Y-200286713D01*
X160080852Y-191086713D02*
X160080852Y-191786713D01*
X160080852Y-191786713D02*
X155580852Y-191786713D01*
X160580852Y-186586713D02*
X160580852Y-185586713D01*
X161080852Y-185086713D02*
X160580852Y-185586713D01*
X164080852Y-185086713D02*
X161080852Y-185086713D01*
X164080852Y-189586713D02*
X161580852Y-189586713D01*
X164580852Y-185586713D02*
X164080852Y-185086713D01*
X164580852Y-189086713D02*
X164080852Y-189586713D01*
X168580852Y-186286713D02*
X169580852Y-186286713D01*
X169580852Y-186286713D02*
X169580852Y-187286713D01*
X169580852Y-199286713D02*
X169580852Y-200286713D01*
X169580852Y-200286713D02*
X168580852Y-200286713D01*
X160080852Y-191086713D02*
G75*
G02*
X161580852Y-189586713I1500000J0D01*
G01*
X160580852Y-186586713D02*
G75*
G02*
X160080852Y-187086713I-500000J0D01*
G01*
%TO.C,D16*%
D11*
X149500000Y-137860000D02*
X149500000Y-133850000D01*
X149500000Y-137860000D02*
X151500000Y-137860000D01*
X151500000Y-137860000D02*
X151500000Y-133850000D01*
%TD*%
M02*
