%TF.GenerationSoftware,KiCad,Pcbnew,10.0.2*%
%TF.CreationDate,2026-09-23T00:20:27+02:00*%
%TF.ProjectId,Sylkaboard,53796c6b-6162-46f6-9172-642e6b696361,v1.0.0*%
%TF.SameCoordinates,Original*%
%TF.FileFunction,Soldermask,Top*%
%TF.FilePolarity,Negative*%
%FSLAX46Y46*%
G04 Gerber Fmt 4.6, Leading zero omitted, Abs format (unit mm)*
G04 Created by KiCad (PCBNEW 10.0.2) date 2026-09-23 00:20:27*
%MOMM*%
%LPD*%
G01*
G04 APERTURE LIST*
G04 Aperture macros list*
%AMRoundRect*
0 Rectangle with rounded corners*
0 $1 Rounding radius*
0 $2 $3 $4 $5 $6 $7 $8 $9 X,Y pos of 4 corners*
0 Add a 4 corners polygon primitive as box body*
4,1,4,$2,$3,$4,$5,$6,$7,$8,$9,$2,$3,0*
0 Add four circle primitives for the rounded corners*
1,1,$1+$1,$2,$3*
1,1,$1+$1,$4,$5*
1,1,$1+$1,$6,$7*
1,1,$1+$1,$8,$9*
0 Add four rect primitives between the rounded corners*
20,1,$1+$1,$2,$3,$4,$5,0*
20,1,$1+$1,$4,$5,$6,$7,0*
20,1,$1+$1,$6,$7,$8,$9,0*
20,1,$1+$1,$8,$9,$2,$3,0*%
%AMRotRect*
0 Rectangle, with rotation*
0 The origin of the aperture is its center*
0 $1 length*
0 $2 width*
0 $3 Rotation angle, in degrees counterclockwise*
0 Add horizontal line*
21,1,$1,$2,0,0,$3*%
%AMFreePoly0*
4,1,6,1.000000,0.000000,0.500000,-0.750000,-0.500000,-0.750000,-0.500000,0.750000,0.500000,0.750000,1.000000,0.000000,1.000000,0.000000,$1*%
%AMFreePoly1*
4,1,6,0.500000,-0.750000,-0.650000,-0.750000,-0.150000,0.000000,-0.650000,0.750000,0.500000,0.750000,0.500000,-0.750000,0.500000,-0.750000,$1*%
G04 Aperture macros list end*
%ADD10RoundRect,0.225000X0.375000X-0.225000X0.375000X0.225000X-0.375000X0.225000X-0.375000X-0.225000X0*%
%ADD11FreePoly0,90.000000*%
%ADD12FreePoly1,90.000000*%
%ADD13RoundRect,0.225000X0.330232X-0.286700X0.408374X0.156464X-0.330232X0.286700X-0.408374X-0.156464X0*%
%ADD14FreePoly0,180.000000*%
%ADD15FreePoly1,180.000000*%
%ADD16RoundRect,0.225000X0.275430X-0.339688X0.429339X0.083173X-0.275430X0.339688X-0.429339X-0.083173X0*%
%ADD17FreePoly0,270.000000*%
%ADD18FreePoly1,270.000000*%
%ADD19FreePoly0,0.000000*%
%ADD20FreePoly1,0.000000*%
%ADD21RoundRect,0.225000X0.212260X-0.382356X0.437260X0.007356X-0.212260X0.382356X-0.437260X-0.007356X0*%
%ADD22C,1.701800*%
%ADD23C,0.990600*%
%ADD24C,3.000000*%
%ADD25C,3.429000*%
%ADD26R,2.600000X2.600000*%
%ADD27RotRect,2.600000X2.600000X150.000000*%
%ADD28R,2.000000X2.000000*%
%ADD29C,2.000000*%
%ADD30R,3.200000X2.000000*%
%ADD31C,0.650000*%
%ADD32RoundRect,0.150000X0.470000X-0.150000X0.470000X0.150000X-0.470000X0.150000X-0.470000X-0.150000X0*%
%ADD33RoundRect,0.075000X0.545000X-0.075000X0.545000X0.075000X-0.545000X0.075000X-0.545000X-0.075000X0*%
%ADD34O,2.100000X1.000000*%
%ADD35O,1.800000X1.000000*%
%ADD36RotRect,2.600000X2.600000X170.000000*%
%ADD37R,1.700000X1.700000*%
%ADD38C,1.700000*%
%ADD39RotRect,2.600000X2.600000X160.000000*%
%ADD40C,1.712000*%
%ADD41RoundRect,0.102000X0.754000X0.754000X-0.754000X0.754000X-0.754000X-0.754000X0.754000X-0.754000X0*%
G04 APERTURE END LIST*
%TO.C,JP5*%
G36*
X240050000Y-141895000D02*
G01*
X241550000Y-141895000D01*
X241550000Y-144345000D01*
X240050000Y-144345000D01*
X240050000Y-141895000D01*
G37*
%TO.C,JP23*%
G36*
X242775000Y-104350000D02*
G01*
X245225000Y-104350000D01*
X245225000Y-105850000D01*
X242775000Y-105850000D01*
X242775000Y-104350000D01*
G37*
%TO.C,JP13*%
G36*
X241250000Y-127650000D02*
G01*
X242750000Y-127650000D01*
X242750000Y-130100000D01*
X241250000Y-130100000D01*
X241250000Y-127650000D01*
G37*
%TO.C,JP2*%
G36*
X233775000Y-106840000D02*
G01*
X236225000Y-106840000D01*
X236225000Y-108340000D01*
X233775000Y-108340000D01*
X233775000Y-106840000D01*
G37*
%TO.C,JP11*%
G36*
X236150000Y-127650000D02*
G01*
X237650000Y-127650000D01*
X237650000Y-130100000D01*
X236150000Y-130100000D01*
X236150000Y-127650000D01*
G37*
%TO.C,JP6*%
G36*
X234950000Y-141905000D02*
G01*
X236450000Y-141905000D01*
X236450000Y-144355000D01*
X234950000Y-144355000D01*
X234950000Y-141905000D01*
G37*
%TO.C,JP7*%
G36*
X237500000Y-141900000D02*
G01*
X239000000Y-141900000D01*
X239000000Y-144350000D01*
X237500000Y-144350000D01*
X237500000Y-141900000D01*
G37*
%TO.C,JP1*%
G36*
X233775000Y-104340000D02*
G01*
X236225000Y-104340000D01*
X236225000Y-105840000D01*
X233775000Y-105840000D01*
X233775000Y-104340000D01*
G37*
%TO.C,JP3*%
G36*
X233775000Y-109360000D02*
G01*
X236225000Y-109360000D01*
X236225000Y-110860000D01*
X233775000Y-110860000D01*
X233775000Y-109360000D01*
G37*
%TO.C,JP22*%
G36*
X242772196Y-106847196D02*
G01*
X245222196Y-106847196D01*
X245222196Y-108347196D01*
X242772196Y-108347196D01*
X242772196Y-106847196D01*
G37*
%TO.C,JP4*%
G36*
X242600000Y-141905000D02*
G01*
X244100000Y-141905000D01*
X244100000Y-144355000D01*
X242600000Y-144355000D01*
X242600000Y-141905000D01*
G37*
%TO.C,JP21*%
G36*
X242775000Y-109350000D02*
G01*
X245225000Y-109350000D01*
X245225000Y-110850000D01*
X242775000Y-110850000D01*
X242775000Y-109350000D01*
G37*
%TD*%
D10*
%TO.C,D2*%
X207500000Y-139150000D03*
X207500000Y-135850000D03*
%TD*%
D11*
%TO.C,JP5*%
X240800000Y-143845000D03*
D12*
X240800000Y-142395000D03*
%TD*%
D13*
%TO.C,D19*%
X195477102Y-197643192D03*
X196050140Y-194393326D03*
%TD*%
D10*
%TO.C,D21*%
X131400000Y-149050000D03*
X131400000Y-145750000D03*
%TD*%
D14*
%TO.C,JP23*%
X244725000Y-105100000D03*
D15*
X243275000Y-105100000D03*
%TD*%
D10*
%TO.C,D4*%
X207500000Y-177150000D03*
X207500000Y-173850000D03*
%TD*%
D16*
%TO.C,D14*%
X215545890Y-201722156D03*
X216674556Y-198621170D03*
%TD*%
D10*
%TO.C,D1*%
X207400000Y-120150000D03*
X207400000Y-116850000D03*
%TD*%
D17*
%TO.C,JP13*%
X242000000Y-128150000D03*
D18*
X242000000Y-129600000D03*
%TD*%
D10*
%TO.C,D28*%
X112500000Y-187150000D03*
X112500000Y-183850000D03*
%TD*%
D19*
%TO.C,JP2*%
X234275000Y-107590000D03*
D20*
X235725000Y-107590000D03*
%TD*%
D10*
%TO.C,D23*%
X131500000Y-187150000D03*
X131500000Y-183850000D03*
%TD*%
%TO.C,D26*%
X112500000Y-149050000D03*
X112500000Y-145750000D03*
%TD*%
D17*
%TO.C,JP11*%
X236900000Y-128150000D03*
D18*
X236900000Y-129600000D03*
%TD*%
D10*
%TO.C,D10*%
X169500000Y-113250000D03*
X169500000Y-109950000D03*
%TD*%
%TO.C,D25*%
X112500000Y-129850000D03*
X112500000Y-126550000D03*
%TD*%
D11*
%TO.C,JP6*%
X235700000Y-143855000D03*
D12*
X235700000Y-142405000D03*
%TD*%
D10*
%TO.C,D27*%
X112500000Y-168050000D03*
X112500000Y-164750000D03*
%TD*%
D21*
%TO.C,D9*%
X234605410Y-208588876D03*
X236255410Y-205730992D03*
%TD*%
D10*
%TO.C,D17*%
X150500000Y-156150000D03*
X150500000Y-152850000D03*
%TD*%
%TO.C,DRE1*%
X232580804Y-181738672D03*
X232580804Y-178438672D03*
%TD*%
%TO.C,D7*%
X188500000Y-158150000D03*
X188500000Y-154850000D03*
%TD*%
D11*
%TO.C,JP7*%
X238250000Y-143850000D03*
D12*
X238250000Y-142400000D03*
%TD*%
D10*
%TO.C,D18*%
X150500000Y-175150000D03*
X150500000Y-171850000D03*
%TD*%
%TO.C,D15*%
X150500000Y-118250000D03*
X150500000Y-114950000D03*
%TD*%
%TO.C,D12*%
X169500000Y-151150000D03*
X169500000Y-147850000D03*
%TD*%
D19*
%TO.C,JP1*%
X234275000Y-105090000D03*
D20*
X235725000Y-105090000D03*
%TD*%
D10*
%TO.C,D20*%
X131500000Y-129850000D03*
X131500000Y-126550000D03*
%TD*%
D19*
%TO.C,JP3*%
X234275000Y-110110000D03*
D20*
X235725000Y-110110000D03*
%TD*%
D10*
%TO.C,D29*%
X154300000Y-197050000D03*
X154300000Y-193750000D03*
%TD*%
D14*
%TO.C,JP22*%
X244722196Y-107597196D03*
D15*
X243272196Y-107597196D03*
%TD*%
D10*
%TO.C,D3*%
X207500000Y-158250000D03*
X207500000Y-154950000D03*
%TD*%
%TO.C,D13*%
X169500000Y-170150000D03*
X169500000Y-166850000D03*
%TD*%
%TO.C,D5*%
X188500000Y-120150000D03*
X188500000Y-116850000D03*
%TD*%
D11*
%TO.C,JP4*%
X243350000Y-143855000D03*
D12*
X243350000Y-142405000D03*
%TD*%
D10*
%TO.C,D6*%
X188500000Y-139200000D03*
X188500000Y-135900000D03*
%TD*%
%TO.C,D11*%
X169500000Y-132150000D03*
X169500000Y-128850000D03*
%TD*%
%TO.C,D8*%
X188500000Y-177150000D03*
X188500000Y-173850000D03*
%TD*%
%TO.C,D24*%
X175200000Y-197050000D03*
X175200000Y-193750000D03*
%TD*%
%TO.C,D22*%
X131400000Y-168050000D03*
X131400000Y-164750000D03*
%TD*%
D14*
%TO.C,JP21*%
X244725000Y-110100000D03*
D15*
X243275000Y-110100000D03*
%TD*%
D10*
%TO.C,D16*%
X150500000Y-137150000D03*
X150500000Y-133850000D03*
%TD*%
D22*
%TO.C,S1*%
X221280852Y-116386713D03*
D23*
X221000852Y-120586713D03*
D24*
X220780852Y-112636713D03*
D25*
X215780852Y-116386713D03*
D24*
X215780852Y-110436713D03*
X210780852Y-112636713D03*
D23*
X210560852Y-120586713D03*
D22*
X210280852Y-116386713D03*
D26*
X219055852Y-110436713D03*
X207505852Y-112636713D03*
%TD*%
D22*
%TO.C,S21*%
X145280852Y-145386713D03*
D23*
X145000852Y-149586713D03*
D24*
X144780852Y-141636713D03*
D25*
X139780852Y-145386713D03*
D24*
X139780852Y-139436713D03*
X134780852Y-141636713D03*
D23*
X134560852Y-149586713D03*
D22*
X134280852Y-145386713D03*
D26*
X143055852Y-139436713D03*
X131505852Y-141636713D03*
%TD*%
D22*
%TO.C,S6*%
X202280852Y-135386713D03*
D23*
X202000852Y-139586713D03*
D24*
X201780852Y-131636713D03*
D25*
X196780852Y-135386713D03*
D24*
X196780852Y-129436713D03*
X191780852Y-131636713D03*
D23*
X191560852Y-139586713D03*
D22*
X191280852Y-135386713D03*
D26*
X200055852Y-129436713D03*
X188505852Y-131636713D03*
%TD*%
D22*
%TO.C,S22*%
X145280852Y-164386713D03*
D23*
X145000852Y-168586713D03*
D24*
X144780852Y-160636713D03*
D25*
X139780852Y-164386713D03*
D24*
X139780852Y-158436713D03*
X134780852Y-160636713D03*
D23*
X134560852Y-168586713D03*
D22*
X134280852Y-164386713D03*
D26*
X143055852Y-158436713D03*
X131505852Y-160636713D03*
%TD*%
D22*
%TO.C,S28*%
X126280852Y-183386713D03*
D23*
X126000852Y-187586713D03*
D24*
X125780852Y-179636713D03*
D25*
X120780852Y-183386713D03*
D24*
X120780852Y-177436713D03*
X115780852Y-179636713D03*
D23*
X115560852Y-187586713D03*
D22*
X115280852Y-183386713D03*
D26*
X124055852Y-177436713D03*
X112505852Y-179636713D03*
%TD*%
D22*
%TO.C,S13*%
X183280852Y-166386713D03*
D23*
X183000852Y-170586713D03*
D24*
X182780852Y-162636713D03*
D25*
X177780852Y-166386713D03*
D24*
X177780852Y-160436713D03*
X172780852Y-162636713D03*
D23*
X172560852Y-170586713D03*
D22*
X172280852Y-166386713D03*
D26*
X181055852Y-160436713D03*
X169505852Y-162636713D03*
%TD*%
D22*
%TO.C,S9*%
X248271622Y-212480007D03*
D23*
X245929135Y-215977314D03*
D24*
X249713608Y-208982411D03*
D25*
X243508482Y-209730007D03*
D24*
X246483482Y-204577156D03*
X241053355Y-203982412D03*
D23*
X236887829Y-210757313D03*
D22*
X238745342Y-206980007D03*
D27*
X249319715Y-206214656D03*
X238217122Y-202344912D03*
%TD*%
D22*
%TO.C,S11*%
X183280852Y-128386713D03*
D23*
X183000852Y-132586713D03*
D24*
X182780852Y-124636713D03*
D25*
X177780852Y-128386713D03*
D24*
X177780852Y-122436713D03*
X172780852Y-124636713D03*
D23*
X172560852Y-132586713D03*
D22*
X172280852Y-128386713D03*
D26*
X181055852Y-122436713D03*
X169505852Y-124636713D03*
%TD*%
D22*
%TO.C,S15*%
X164280852Y-114386713D03*
D23*
X164000852Y-118586713D03*
D24*
X163780852Y-110636713D03*
D25*
X158780852Y-114386713D03*
D24*
X158780852Y-108436713D03*
X153780852Y-110636713D03*
D23*
X153560852Y-118586713D03*
D22*
X153280852Y-114386713D03*
D26*
X162055852Y-108436713D03*
X150505852Y-110636713D03*
%TD*%
D22*
%TO.C,S2*%
X221280852Y-135386713D03*
D23*
X221000852Y-139586713D03*
D24*
X220780852Y-131636713D03*
D25*
X215780852Y-135386713D03*
D24*
X215780852Y-129436713D03*
X210780852Y-131636713D03*
D23*
X210560852Y-139586713D03*
D22*
X210280852Y-135386713D03*
D26*
X219055852Y-129436713D03*
X207505852Y-131636713D03*
%TD*%
D22*
%TO.C,S25*%
X126280852Y-126386713D03*
D23*
X126000852Y-130586713D03*
D24*
X125780852Y-122636713D03*
D25*
X120780852Y-126386713D03*
D24*
X120780852Y-120436713D03*
X115780852Y-122636713D03*
D23*
X115560852Y-130586713D03*
D22*
X115280852Y-126386713D03*
D26*
X124055852Y-120436713D03*
X112505852Y-122636713D03*
%TD*%
D22*
%TO.C,S5*%
X202280852Y-116386713D03*
D23*
X202000852Y-120586713D03*
D24*
X201780852Y-112636713D03*
D25*
X196780852Y-116386713D03*
D24*
X196780852Y-110436713D03*
X191780852Y-112636713D03*
D23*
X191560852Y-120586713D03*
D22*
X191280852Y-116386713D03*
D26*
X200055852Y-110436713D03*
X188505852Y-112636713D03*
%TD*%
D22*
%TO.C,S24*%
X188980852Y-193286713D03*
D23*
X188700852Y-197486713D03*
D24*
X188480852Y-189536713D03*
D25*
X183480852Y-193286713D03*
D24*
X183480852Y-187336713D03*
X178480852Y-189536713D03*
D23*
X178260852Y-197486713D03*
D22*
X177980852Y-193286713D03*
D26*
X186755852Y-187336713D03*
X175205852Y-189536713D03*
%TD*%
D22*
%TO.C,S10*%
X183280852Y-109386713D03*
D23*
X183000852Y-113586713D03*
D24*
X182780852Y-105636713D03*
D25*
X177780852Y-109386713D03*
D24*
X177780852Y-103436713D03*
X172780852Y-105636713D03*
D23*
X172560852Y-113586713D03*
D22*
X172280852Y-109386713D03*
D26*
X181055852Y-103436713D03*
X169505852Y-105636713D03*
%TD*%
D28*
%TO.C,RE1*%
X247050000Y-172200000D03*
D29*
X247050000Y-167200000D03*
X247050000Y-169700000D03*
D30*
X239550000Y-175300000D03*
X239550000Y-164100000D03*
D29*
X232550000Y-167200000D03*
X232550000Y-172200000D03*
%TD*%
D22*
%TO.C,S27*%
X126280852Y-164386713D03*
D23*
X126000852Y-168586713D03*
D24*
X125780852Y-160636713D03*
D25*
X120780852Y-164386713D03*
D24*
X120780852Y-158436713D03*
X115780852Y-160636713D03*
D23*
X115560852Y-168586713D03*
D22*
X115280852Y-164386713D03*
D26*
X124055852Y-158436713D03*
X112505852Y-160636713D03*
%TD*%
D31*
%TO.C,J2*%
X247120000Y-159740000D03*
X247120000Y-153960000D03*
D32*
X246000000Y-160050000D03*
X246000000Y-159250000D03*
D33*
X246000000Y-158100000D03*
X246000000Y-157100000D03*
X246000000Y-156600000D03*
X246000000Y-155600000D03*
D32*
X246000000Y-154450000D03*
X246000000Y-153650000D03*
X246000000Y-153650000D03*
X246000000Y-154450000D03*
D33*
X246000000Y-155100000D03*
X246000000Y-156100000D03*
X246000000Y-157600000D03*
X246000000Y-158600000D03*
D32*
X246000000Y-159250000D03*
X246000000Y-160050000D03*
D34*
X246600000Y-161170000D03*
D35*
X250800000Y-161170000D03*
D34*
X246600000Y-152530000D03*
D35*
X250800000Y-152530000D03*
%TD*%
D22*
%TO.C,S7*%
X202280852Y-154386713D03*
D23*
X202000852Y-158586713D03*
D24*
X201780852Y-150636713D03*
D25*
X196780852Y-154386713D03*
D24*
X196780852Y-148436713D03*
X191780852Y-150636713D03*
D23*
X191560852Y-158586713D03*
D22*
X191280852Y-154386713D03*
D26*
X200055852Y-148436713D03*
X188505852Y-150636713D03*
%TD*%
D22*
%TO.C,S19*%
X209736809Y-196133136D03*
D23*
X208731740Y-200220707D03*
D24*
X209895585Y-192353283D03*
D25*
X204320366Y-195178071D03*
D24*
X205353573Y-189318465D03*
X200047508Y-190616801D03*
D23*
X198450347Y-198407820D03*
D22*
X198903923Y-194223006D03*
D36*
X208578818Y-189887163D03*
X196822263Y-190048103D03*
%TD*%
D22*
%TO.C,S12*%
X183280852Y-147386713D03*
D23*
X183000852Y-151586713D03*
D24*
X182780852Y-143636713D03*
D25*
X177780852Y-147386713D03*
D24*
X177780852Y-141436713D03*
X172780852Y-143636713D03*
D23*
X172560852Y-151586713D03*
D22*
X172280852Y-147386713D03*
D26*
X181055852Y-141436713D03*
X169505852Y-143636713D03*
%TD*%
D37*
%TO.C,J1*%
X243305000Y-146595000D03*
D38*
X240765000Y-146595000D03*
X238225000Y-146595000D03*
X235685000Y-146595000D03*
%TD*%
D22*
%TO.C,S14*%
X229818309Y-202621111D03*
D23*
X228118711Y-206472054D03*
D24*
X230631039Y-198926253D03*
D25*
X224650000Y-200740000D03*
D24*
X226685020Y-195148829D03*
X221234112Y-195506052D03*
D23*
X218308320Y-202901364D03*
D22*
X219481691Y-198858889D03*
D39*
X229762513Y-196268945D03*
X218156619Y-194385936D03*
%TD*%
D22*
%TO.C,S4*%
X221280852Y-173386713D03*
D23*
X221000852Y-177586713D03*
D24*
X220780852Y-169636713D03*
D25*
X215780852Y-173386713D03*
D24*
X215780852Y-167436713D03*
X210780852Y-169636713D03*
D23*
X210560852Y-177586713D03*
D22*
X210280852Y-173386713D03*
D26*
X219055852Y-167436713D03*
X207505852Y-169636713D03*
%TD*%
D22*
%TO.C,S23*%
X145280852Y-183386713D03*
D23*
X145000852Y-187586713D03*
D24*
X144780852Y-179636713D03*
D25*
X139780852Y-183386713D03*
D24*
X139780852Y-177436713D03*
X134780852Y-179636713D03*
D23*
X134560852Y-187586713D03*
D22*
X134280852Y-183386713D03*
D26*
X143055852Y-177436713D03*
X131505852Y-179636713D03*
%TD*%
D22*
%TO.C,S18*%
X164280852Y-171386713D03*
D23*
X164000852Y-175586713D03*
D24*
X163780852Y-167636713D03*
D25*
X158780852Y-171386713D03*
D24*
X158780852Y-165436713D03*
X153780852Y-167636713D03*
D23*
X153560852Y-175586713D03*
D22*
X153280852Y-171386713D03*
D26*
X162055852Y-165436713D03*
X150505852Y-167636713D03*
%TD*%
D22*
%TO.C,S29*%
X168080852Y-193286713D03*
D23*
X167800852Y-197486713D03*
D24*
X167580852Y-189536713D03*
D25*
X162580852Y-193286713D03*
D24*
X162580852Y-187336713D03*
X157580852Y-189536713D03*
D23*
X157360852Y-197486713D03*
D22*
X157080852Y-193286713D03*
D26*
X165855852Y-187336713D03*
X154305852Y-189536713D03*
%TD*%
D22*
%TO.C,S16*%
X164280852Y-133386713D03*
D23*
X164000852Y-137586713D03*
D24*
X163780852Y-129636713D03*
D25*
X158780852Y-133386713D03*
D24*
X158780852Y-127436713D03*
X153780852Y-129636713D03*
D23*
X153560852Y-137586713D03*
D22*
X153280852Y-133386713D03*
D26*
X162055852Y-127436713D03*
X150505852Y-129636713D03*
%TD*%
D22*
%TO.C,S17*%
X164280852Y-152386713D03*
D23*
X164000852Y-156586713D03*
D24*
X163780852Y-148636713D03*
D25*
X158780852Y-152386713D03*
D24*
X158780852Y-146436713D03*
X153780852Y-148636713D03*
D23*
X153560852Y-156586713D03*
D22*
X153280852Y-152386713D03*
D26*
X162055852Y-146436713D03*
X150505852Y-148636713D03*
%TD*%
D22*
%TO.C,S8*%
X202280852Y-173386713D03*
D23*
X202000852Y-177586713D03*
D24*
X201780852Y-169636713D03*
D25*
X196780852Y-173386713D03*
D24*
X196780852Y-167436713D03*
X191780852Y-169636713D03*
D23*
X191560852Y-177586713D03*
D22*
X191280852Y-173386713D03*
D26*
X200055852Y-167436713D03*
X188505852Y-169636713D03*
%TD*%
D22*
%TO.C,S26*%
X126280852Y-145386713D03*
D23*
X126000852Y-149586713D03*
D24*
X125780852Y-141636713D03*
D25*
X120780852Y-145386713D03*
D24*
X120780852Y-139436713D03*
X115780852Y-141636713D03*
D23*
X115560852Y-149586713D03*
D22*
X115280852Y-145386713D03*
D26*
X124055852Y-139436713D03*
X112505852Y-141636713D03*
%TD*%
D22*
%TO.C,S3*%
X221280852Y-154386713D03*
D23*
X221000852Y-158586713D03*
D24*
X220780852Y-150636713D03*
D25*
X215780852Y-154386713D03*
D24*
X215780852Y-148436713D03*
X210780852Y-150636713D03*
D23*
X210560852Y-158586713D03*
D22*
X210280852Y-154386713D03*
D26*
X219055852Y-148436713D03*
X207505852Y-150636713D03*
%TD*%
D22*
%TO.C,S20*%
X145280852Y-126386713D03*
D23*
X145000852Y-130586713D03*
D24*
X144780852Y-122636713D03*
D25*
X139780852Y-126386713D03*
D24*
X139780852Y-120436713D03*
X134780852Y-122636713D03*
D23*
X134560852Y-130586713D03*
D22*
X134280852Y-126386713D03*
D26*
X143055852Y-120436713D03*
X131505852Y-122636713D03*
%TD*%
D40*
%TO.C,U1*%
X231842500Y-105040000D03*
X231842500Y-107580000D03*
X231842500Y-110120000D03*
X231842500Y-112660000D03*
X231842500Y-115200000D03*
X231842500Y-117740000D03*
X231842500Y-120280000D03*
X231842500Y-122820000D03*
X231842500Y-125360000D03*
X234382500Y-125360000D03*
X236922500Y-125360000D03*
X239462500Y-125360000D03*
X242002500Y-125360000D03*
X244542500Y-125360000D03*
X247082500Y-125360000D03*
X247082500Y-122820000D03*
X247082500Y-120280000D03*
X247082500Y-117740000D03*
X247082500Y-115200000D03*
X247082500Y-112660000D03*
X247082500Y-110120000D03*
D41*
X247082500Y-107580000D03*
D40*
X247082500Y-105040000D03*
%TD*%
M02*
