M48
; DRILL file KiCad 10.0.2 date 2026-09-23T00:20:37
; FORMAT={-:-/ absolute / metric / decimal}
; #@! TF.CreationDate,2026-09-23T00:20:37+02:00
; #@! TF.GenerationSoftware,Kicad,Pcbnew,10.0.2
; #@! TF.FileFunction,NonPlated,1,2,NPTH
FMAT,2
METRIC
; #@! TA.AperFunction,NonPlated,NPTH,ComponentDrill
T1C0.650
; #@! TA.AperFunction,NonPlated,NPTH,ComponentDrill
T2C0.991
; #@! TA.AperFunction,NonPlated,NPTH,ComponentDrill
T3C1.702
; #@! TA.AperFunction,NonPlated,NPTH,ComponentDrill
T4C3.000
; #@! TA.AperFunction,NonPlated,NPTH,ComponentDrill
T5C3.429
%
G90
G05
T1
X247.12Y-153.96
X247.12Y-159.74
T2
X115.561Y-130.587
X115.561Y-149.587
X115.561Y-168.587
X115.561Y-187.587
X126.001Y-130.587
X126.001Y-149.587
X126.001Y-168.587
X126.001Y-187.587
X134.561Y-130.587
X134.561Y-149.587
X134.561Y-168.587
X134.561Y-187.587
X145.001Y-130.587
X145.001Y-149.587
X145.001Y-168.587
X145.001Y-187.587
X153.561Y-118.587
X153.561Y-137.587
X153.561Y-156.587
X153.561Y-175.587
X157.361Y-197.487
X164.001Y-118.587
X164.001Y-137.587
X164.001Y-156.587
X164.001Y-175.587
X167.801Y-197.487
X172.561Y-113.587
X172.561Y-132.587
X172.561Y-151.587
X172.561Y-170.587
X178.261Y-197.487
X183.001Y-113.587
X183.001Y-132.587
X183.001Y-151.587
X183.001Y-170.587
X188.701Y-197.487
X191.561Y-120.587
X191.561Y-139.587
X191.561Y-158.587
X191.561Y-177.587
X198.45Y-198.408
X202.001Y-120.587
X202.001Y-139.587
X202.001Y-158.587
X202.001Y-177.587
X208.732Y-200.221
X210.561Y-120.587
X210.561Y-139.587
X210.561Y-158.587
X210.561Y-177.587
X218.308Y-202.901
X221.001Y-120.587
X221.001Y-139.587
X221.001Y-158.587
X221.001Y-177.587
X228.119Y-206.472
X236.888Y-210.757
X245.929Y-215.977
T3
X115.281Y-126.387
X115.281Y-145.387
X115.281Y-164.387
X115.281Y-183.387
X126.281Y-126.387
X126.281Y-145.387
X126.281Y-164.387
X126.281Y-183.387
X134.281Y-126.387
X134.281Y-145.387
X134.281Y-164.387
X134.281Y-183.387
X145.281Y-126.387
X145.281Y-145.387
X145.281Y-164.387
X145.281Y-183.387
X153.281Y-114.387
X153.281Y-133.387
X153.281Y-152.387
X153.281Y-171.387
X157.081Y-193.287
X164.281Y-114.387
X164.281Y-133.387
X164.281Y-152.387
X164.281Y-171.387
X168.081Y-193.287
X172.281Y-109.387
X172.281Y-128.387
X172.281Y-147.387
X172.281Y-166.387
X177.981Y-193.287
X183.281Y-109.387
X183.281Y-128.387
X183.281Y-147.387
X183.281Y-166.387
X188.981Y-193.287
X191.281Y-116.387
X191.281Y-135.387
X191.281Y-154.387
X191.281Y-173.387
X198.904Y-194.223
X202.281Y-116.387
X202.281Y-135.387
X202.281Y-154.387
X202.281Y-173.387
X209.737Y-196.133
X210.281Y-116.387
X210.281Y-135.387
X210.281Y-154.387
X210.281Y-173.387
X219.482Y-198.859
X221.281Y-116.387
X221.281Y-135.387
X221.281Y-154.387
X221.281Y-173.387
X229.818Y-202.621
X238.745Y-206.98
X248.272Y-212.48
T4
X115.781Y-122.637
X115.781Y-141.637
X115.781Y-160.637
X115.781Y-179.637
X120.781Y-120.437
X120.781Y-139.437
X120.781Y-158.437
X120.781Y-177.437
X125.781Y-122.637
X125.781Y-141.637
X125.781Y-160.637
X125.781Y-179.637
X134.781Y-122.637
X134.781Y-141.637
X134.781Y-160.637
X134.781Y-179.637
X139.781Y-120.437
X139.781Y-139.437
X139.781Y-158.437
X139.781Y-177.437
X144.781Y-122.637
X144.781Y-141.637
X144.781Y-160.637
X144.781Y-179.637
X153.781Y-110.637
X153.781Y-129.637
X153.781Y-148.637
X153.781Y-167.637
X157.581Y-189.537
X158.781Y-108.437
X158.781Y-127.437
X158.781Y-146.437
X158.781Y-165.437
X162.581Y-187.337
X163.781Y-110.637
X163.781Y-129.637
X163.781Y-148.637
X163.781Y-167.637
X167.581Y-189.537
X172.781Y-105.637
X172.781Y-124.637
X172.781Y-143.637
X172.781Y-162.637
X177.781Y-103.437
X177.781Y-122.437
X177.781Y-141.437
X177.781Y-160.437
X178.481Y-189.537
X182.781Y-105.637
X182.781Y-124.637
X182.781Y-143.637
X182.781Y-162.637
X183.481Y-187.337
X188.481Y-189.537
X191.781Y-112.637
X191.781Y-131.637
X191.781Y-150.637
X191.781Y-169.637
X196.781Y-110.437
X196.781Y-129.437
X196.781Y-148.437
X196.781Y-167.437
X200.048Y-190.617
X201.781Y-112.637
X201.781Y-131.637
X201.781Y-150.637
X201.781Y-169.637
X205.354Y-189.318
X209.896Y-192.353
X210.781Y-112.637
X210.781Y-131.637
X210.781Y-150.637
X210.781Y-169.637
X215.781Y-110.437
X215.781Y-129.437
X215.781Y-148.437
X215.781Y-167.437
X220.781Y-112.637
X220.781Y-131.637
X220.781Y-150.637
X220.781Y-169.637
X221.234Y-195.506
X226.685Y-195.149
X230.631Y-198.926
X241.053Y-203.982
X246.483Y-204.577
X249.714Y-208.982
T5
X120.781Y-126.387
X120.781Y-145.387
X120.781Y-164.387
X120.781Y-183.387
X139.781Y-126.387
X139.781Y-145.387
X139.781Y-164.387
X139.781Y-183.387
X158.781Y-114.387
X158.781Y-133.387
X158.781Y-152.387
X158.781Y-171.387
X162.581Y-193.287
X177.781Y-109.387
X177.781Y-128.387
X177.781Y-147.387
X177.781Y-166.387
X183.481Y-193.287
X196.781Y-116.387
X196.781Y-135.387
X196.781Y-154.387
X196.781Y-173.387
X204.32Y-195.178
X215.781Y-116.387
X215.781Y-135.387
X215.781Y-154.387
X215.781Y-173.387
X224.65Y-200.74
X243.508Y-209.73
M30
