M48
; DRILL file KiCad 10.0.2 date 2026-09-22T17:37:21
; FORMAT={-:-/ absolute / metric / decimal}
; #@! TF.CreationDate,2026-09-22T17:37:21+02:00
; #@! TF.GenerationSoftware,Kicad,Pcbnew,10.0.2
; #@! TF.FileFunction,Plated,1,2,PTH
FMAT,2
METRIC
; #@! TA.AperFunction,Plated,PTH,ViaDrill
T1C0.300
; #@! TA.AperFunction,Plated,PTH,ComponentDrill
T2C0.600
; #@! TA.AperFunction,Plated,PTH,ComponentDrill
T3C1.000
; #@! TA.AperFunction,Plated,PTH,ComponentDrill
T4C1.500
%
G90
G05
T1
X111.896Y-134.041
X111.925Y-191.079
X111.946Y-153.141
X111.946Y-172.341
X113.139Y-135.23
X113.201Y-173.533
X113.269Y-192.345
X113.286Y-124.437
X113.3Y-143.437
X113.3Y-162.437
X113.3Y-181.437
X113.36Y-133.74
X113.415Y-154.35
X113.435Y-152.865
X113.435Y-172.065
X113.435Y-190.865
X114.163Y-125.173
X114.216Y-144.199
X114.216Y-182.199
X114.38Y-163.244
X117.031Y-125.25
X117.031Y-133.95
X117.031Y-135.25
X117.031Y-144.25
X117.031Y-153.05
X117.031Y-154.35
X117.031Y-163.25
X117.031Y-172.25
X117.031Y-173.55
X117.031Y-182.25
X117.082Y-184.735
X118.331Y-122.237
X118.331Y-122.95
X118.331Y-133.95
X118.331Y-135.25
X118.331Y-141.237
X118.331Y-141.95
X118.331Y-153.05
X118.331Y-154.35
X118.331Y-160.237
X118.331Y-160.95
X118.331Y-172.25
X118.331Y-173.55
X118.331Y-179.237
X118.34Y-179.95
X118.375Y-184.256
X118.535Y-143.285
X118.535Y-162.285
X118.56Y-181.26
X118.62Y-124.25
X119.009Y-186.681
X119.078Y-160.897
X119.131Y-122.95
X119.131Y-141.95
X119.131Y-179.95
X119.61Y-185.45
X120.786Y-122.678
X120.786Y-123.578
X120.8Y-141.7
X120.8Y-142.6
X120.8Y-179.7
X120.8Y-180.6
X120.9Y-160.7
X120.9Y-161.6
X122.462Y-122.95
X122.462Y-141.95
X122.462Y-179.95
X122.49Y-160.921
X122.94Y-124.26
X122.94Y-162.26
X122.965Y-143.285
X122.965Y-181.285
X123.138Y-141.274
X123.138Y-179.274
X123.2Y-160.237
X123.206Y-122.237
X123.417Y-160.987
X123.44Y-186.86
X123.491Y-142.019
X123.561Y-180.059
X123.569Y-123.065
X123.6Y-185.45
X123.619Y-189.691
X123.909Y-125.181
X123.994Y-144.217
X124.042Y-163.231
X124.042Y-182.231
X124.85Y-186.7
X124.86Y-189.14
X124.9Y-118.637
X125.888Y-119.532
X126.459Y-117.196
X127.01Y-118.45
X127.229Y-163.235
X127.261Y-144.228
X127.261Y-182.228
X127.326Y-125.206
X127.509Y-193.581
X128.069Y-192.35
X128.299Y-124.437
X128.3Y-143.437
X128.3Y-162.437
X128.3Y-181.437
X128.4Y-191.0
X128.45Y-133.95
X128.5Y-153.05
X128.5Y-172.199
X129.058Y-135.449
X129.097Y-173.648
X129.1Y-134.6
X129.15Y-172.8
X129.2Y-153.7
X129.2Y-154.55
X129.2Y-191.7
X129.75Y-133.92
X129.8Y-153.05
X129.8Y-172.199
X129.9Y-191.0
X130.8Y-191.0
X130.85Y-133.95
X130.9Y-153.05
X130.9Y-172.25
X131.5Y-135.25
X131.539Y-173.55
X131.6Y-154.35
X131.6Y-192.35
X132.15Y-133.95
X132.2Y-153.05
X132.2Y-172.25
X132.286Y-124.437
X132.3Y-143.437
X132.3Y-162.437
X132.3Y-181.437
X132.3Y-190.9
X133.257Y-125.214
X133.261Y-163.216
X133.293Y-144.226
X133.361Y-182.216
X135.992Y-125.25
X136.014Y-182.25
X136.031Y-133.95
X136.031Y-135.25
X136.031Y-144.25
X136.031Y-153.05
X136.031Y-154.35
X136.031Y-163.25
X136.031Y-172.25
X136.031Y-173.55
X136.061Y-184.675
X137.331Y-122.237
X137.331Y-122.95
X137.331Y-133.95
X137.331Y-135.25
X137.331Y-141.237
X137.331Y-141.95
X137.331Y-153.05
X137.331Y-154.35
X137.331Y-172.25
X137.331Y-173.55
X137.331Y-179.237
X137.331Y-179.954
X137.331Y-184.19
X137.35Y-160.95
X137.4Y-160.237
X137.535Y-124.285
X137.61Y-143.25
X137.71Y-162.25
X137.71Y-181.25
X138.0Y-186.8
X138.131Y-122.95
X138.131Y-141.95
X138.131Y-160.95
X138.231Y-179.95
X138.56Y-185.44
X139.8Y-122.7
X139.8Y-123.6
X139.8Y-160.7
X139.8Y-161.6
X139.9Y-141.7
X139.9Y-142.6
X139.9Y-179.7
X139.9Y-180.6
X141.462Y-122.95
X141.462Y-141.95
X141.49Y-160.921
X141.562Y-179.95
X141.89Y-124.25
X141.89Y-143.25
X141.89Y-162.25
X142.115Y-181.335
X142.138Y-122.274
X142.151Y-160.261
X142.188Y-179.324
X142.2Y-141.237
X142.491Y-161.019
X142.576Y-142.07
X142.59Y-123.08
X142.591Y-180.019
X142.64Y-186.96
X142.8Y-191.0
X142.806Y-185.383
X142.962Y-163.205
X142.989Y-125.215
X143.042Y-144.231
X143.131Y-192.35
X143.142Y-182.231
X143.631Y-118.45
X144.1Y-116.9
X144.3Y-186.7
X144.5Y-191.0
X144.539Y-170.359
X144.6Y-189.1
X144.65Y-132.0
X144.65Y-133.95
X144.7Y-151.1
X144.7Y-153.05
X144.7Y-172.25
X145.3Y-134.6
X145.3Y-135.45
X145.4Y-153.7
X145.4Y-154.55
X145.4Y-172.9
X145.4Y-173.75
X145.4Y-191.7
X145.95Y-133.95
X145.985Y-132.235
X146.0Y-151.385
X146.0Y-153.05
X146.0Y-170.635
X146.0Y-172.25
X146.0Y-189.385
X146.3Y-182.3
X146.317Y-163.21
X146.342Y-125.2
X146.342Y-144.2
X146.45Y-114.89
X146.467Y-108.646
X146.6Y-190.9
X146.765Y-133.915
X146.765Y-172.25
X146.84Y-152.99
X146.868Y-186.662
X147.01Y-167.703
X147.049Y-129.374
X147.123Y-148.421
X147.2Y-183.0
X147.206Y-135.217
X147.232Y-163.988
X147.278Y-154.309
X147.286Y-124.437
X147.3Y-143.437
X147.3Y-181.437
X147.306Y-162.437
X147.333Y-188.043
X147.337Y-144.912
X147.341Y-173.481
X147.35Y-130.869
X147.4Y-152.365
X147.4Y-171.615
X147.4Y-190.3
X147.4Y-149.969
X147.4Y-169.169
X147.406Y-125.749
X147.415Y-133.265
X147.506Y-193.617
X148.233Y-115.554
X148.25Y-109.36
X148.558Y-172.306
X148.56Y-133.96
X148.614Y-153.022
X148.9Y-189.7
X148.947Y-183.177
X149.071Y-145.112
X149.072Y-126.013
X149.11Y-164.171
X149.856Y-142.375
X149.9Y-161.5
X149.9Y-180.3
X149.94Y-123.29
X150.311Y-104.715
X150.914Y-181.155
X150.985Y-162.285
X151.033Y-124.036
X151.095Y-142.974
X151.1Y-106.45
X151.2Y-141.031
X151.2Y-160.231
X151.2Y-179.031
X151.25Y-121.981
X151.286Y-112.437
X151.3Y-131.437
X151.3Y-150.437
X151.3Y-169.437
X151.86Y-142.21
X151.86Y-180.21
X151.935Y-161.35
X152.01Y-123.06
X152.106Y-132.139
X152.216Y-151.199
X152.28Y-113.244
X152.323Y-170.233
X153.65Y-201.0
X154.7Y-202.05
X154.956Y-191.337
X154.985Y-200.75
X154.992Y-151.25
X155.011Y-183.715
X155.031Y-113.25
X155.031Y-121.75
X155.031Y-123.05
X155.031Y-160.05
X155.031Y-161.35
X155.031Y-170.25
X155.05Y-132.25
X155.05Y-140.85
X155.05Y-142.15
X155.082Y-172.535
X155.81Y-185.45
X155.95Y-192.066
X156.331Y-110.25
X156.331Y-110.95
X156.331Y-121.75
X156.331Y-123.05
X156.331Y-148.95
X156.331Y-160.05
X156.331Y-161.35
X156.331Y-167.237
X156.331Y-167.95
X156.35Y-140.85
X156.35Y-142.15
X156.375Y-172.056
X156.4Y-129.237
X156.4Y-148.237
X156.427Y-129.95
X156.435Y-112.285
X156.535Y-150.285
X156.535Y-169.285
X156.61Y-131.25
X157.031Y-110.95
X157.131Y-129.95
X157.131Y-148.95
X157.131Y-167.95
X157.209Y-174.681
X157.8Y-173.45
X157.965Y-185.485
X158.8Y-110.7
X158.8Y-111.6
X158.8Y-148.7
X158.8Y-149.6
X158.8Y-167.7
X158.8Y-168.6
X158.9Y-129.7
X158.9Y-130.6
X159.227Y-192.137
X159.4Y-185.0
X159.809Y-189.919
X160.259Y-189.178
X160.36Y-191.16
X160.362Y-110.95
X160.462Y-129.95
X160.462Y-148.95
X160.462Y-167.95
X160.84Y-112.26
X160.931Y-189.85
X160.94Y-169.26
X160.965Y-131.285
X161.015Y-150.335
X161.038Y-110.274
X161.157Y-148.255
X161.2Y-167.237
X161.306Y-129.237
X161.466Y-174.986
X161.534Y-168.043
X161.56Y-111.14
X161.561Y-149.059
X161.627Y-173.463
X161.66Y-130.14
X161.683Y-177.806
X161.94Y-151.196
X161.973Y-113.237
X162.042Y-170.231
X162.176Y-132.25
X162.6Y-189.6
X162.6Y-190.5
X162.631Y-178.85
X162.95Y-174.9
X162.96Y-177.34
X163.131Y-106.45
X163.483Y-104.65
X163.856Y-107.6
X163.9Y-180.15
X164.262Y-189.85
X164.5Y-178.85
X164.69Y-191.15
X164.742Y-180.831
X164.938Y-189.174
X165.3Y-113.178
X165.334Y-189.943
X165.342Y-132.2
X165.342Y-151.2
X165.342Y-170.2
X165.842Y-192.131
X166.154Y-121.714
X166.204Y-140.827
X166.229Y-159.989
X166.229Y-178.789
X166.239Y-150.437
X166.3Y-112.437
X166.3Y-131.437
X166.3Y-169.437
X167.0Y-121.8
X167.075Y-140.875
X167.075Y-160.075
X167.075Y-178.875
X167.1Y-141.8
X167.1Y-161.0
X167.175Y-122.632
X167.608Y-179.538
X167.65Y-120.231
X167.7Y-139.331
X167.7Y-158.531
X167.7Y-177.331
X168.919Y-116.891
X168.946Y-173.941
X168.986Y-136.022
X168.986Y-155.222
X169.159Y-99.091
X169.2Y-192.2
X169.931Y-117.95
X169.981Y-137.05
X169.981Y-156.25
X169.981Y-175.05
X170.035Y-101.385
X170.106Y-191.337
X170.15Y-116.24
X170.2Y-154.615
X170.235Y-173.465
X170.247Y-135.478
X170.25Y-200.75
X170.3Y-107.437
X170.3Y-126.437
X170.3Y-145.437
X170.3Y-164.437
X170.9Y-201.4
X170.9Y-202.25
X171.055Y-117.235
X171.11Y-174.34
X171.142Y-136.35
X171.185Y-155.55
X171.21Y-118.55
X171.21Y-175.66
X171.216Y-146.199
X171.232Y-156.85
X171.25Y-165.166
X171.273Y-108.22
X171.285Y-137.65
X171.293Y-127.226
X171.55Y-200.75
X173.64Y-180.86
X173.959Y-165.25
X173.992Y-146.25
X174.031Y-108.25
X174.031Y-117.25
X174.031Y-118.55
X174.031Y-127.25
X174.031Y-136.35
X174.031Y-137.65
X174.031Y-155.55
X174.031Y-156.85
X174.061Y-167.575
X174.234Y-179.643
X174.55Y-200.75
X175.2Y-202.1
X175.331Y-117.25
X175.331Y-118.55
X175.331Y-136.35
X175.331Y-137.65
X175.331Y-155.55
X175.331Y-156.85
X175.331Y-162.954
X175.331Y-167.09
X175.339Y-143.237
X175.352Y-143.95
X175.386Y-105.237
X175.4Y-124.237
X175.4Y-162.237
X175.413Y-105.95
X175.427Y-124.95
X175.51Y-145.31
X175.535Y-107.285
X175.6Y-126.25
X175.66Y-164.26
X175.85Y-200.75
X176.0Y-191.337
X176.109Y-169.681
X176.131Y-105.95
X176.131Y-124.95
X176.131Y-143.95
X176.231Y-162.95
X176.431Y-183.65
X176.76Y-168.45
X176.875Y-184.95
X176.88Y-192.148
X177.786Y-105.678
X177.786Y-106.578
X177.8Y-124.7
X177.8Y-125.6
X177.8Y-143.7
X177.8Y-144.6
X177.9Y-162.7
X177.9Y-163.6
X178.66Y-183.95
X179.038Y-185.25
X179.462Y-105.95
X179.462Y-124.95
X179.462Y-143.95
X179.562Y-162.95
X179.88Y-126.25
X179.89Y-107.25
X179.965Y-145.285
X180.04Y-164.26
X180.138Y-105.274
X180.2Y-124.237
X180.256Y-143.237
X180.26Y-192.157
X180.3Y-162.237
X180.44Y-169.96
X180.491Y-125.019
X180.491Y-144.019
X180.569Y-106.065
X180.591Y-163.019
X180.683Y-173.706
X180.696Y-189.986
X180.791Y-168.519
X180.939Y-165.141
X180.959Y-146.204
X180.992Y-108.216
X181.012Y-127.222
X181.074Y-189.163
X181.231Y-174.35
X181.232Y-191.245
X181.825Y-189.913
X181.917Y-169.694
X181.96Y-173.24
X182.54Y-175.66
X182.856Y-102.65
X183.1Y-174.35
X183.494Y-189.663
X183.494Y-190.563
X184.112Y-177.231
X184.19Y-118.58
X184.19Y-137.736
X184.22Y-156.959
X184.311Y-174.332
X184.342Y-146.2
X184.377Y-136.299
X184.377Y-155.499
X184.392Y-108.177
X184.392Y-127.177
X184.442Y-165.2
X184.56Y-117.062
X184.7Y-117.9
X184.725Y-137.075
X184.725Y-156.275
X184.725Y-175.075
X185.009Y-159.261
X185.04Y-121.06
X185.115Y-140.185
X185.156Y-189.913
X185.3Y-107.437
X185.3Y-126.437
X185.3Y-164.437
X185.306Y-145.437
X185.36Y-176.59
X185.415Y-116.265
X185.439Y-154.525
X185.465Y-135.365
X185.5Y-173.265
X185.564Y-175.213
X185.619Y-117.9
X185.638Y-137.031
X185.656Y-191.244
X185.66Y-156.21
X185.816Y-189.253
X185.937Y-101.363
X186.15Y-120.29
X186.2Y-139.365
X186.235Y-158.665
X186.313Y-190.066
X186.654Y-192.167
X186.731Y-116.658
X186.761Y-173.822
X186.775Y-154.979
X186.785Y-135.741
X186.863Y-99.102
X187.231Y-102.65
X187.8Y-103.95
X187.85Y-122.031
X187.9Y-160.331
X187.9Y-141.131
X187.9Y-179.131
X187.94Y-181.06
X188.065Y-143.135
X188.066Y-124.085
X188.115Y-162.385
X189.109Y-125.081
X189.111Y-182.23
X189.15Y-123.261
X189.2Y-161.615
X189.222Y-163.409
X189.28Y-142.4
X189.294Y-144.231
X189.3Y-114.437
X189.3Y-133.437
X189.3Y-152.437
X189.3Y-171.437
X189.516Y-180.746
X189.7Y-123.85
X189.71Y-162.14
X189.785Y-142.95
X190.017Y-102.183
X190.166Y-192.091
X190.216Y-153.199
X190.302Y-115.193
X190.323Y-172.233
X190.358Y-134.241
X190.831Y-183.95
X190.985Y-191.337
X191.15Y-200.706
X191.788Y-202.25
X191.8Y-201.4
X191.811Y-107.885
X192.135Y-183.415
X192.45Y-200.638
X192.866Y-153.25
X193.0Y-105.15
X193.031Y-115.25
X193.031Y-123.85
X193.031Y-125.15
X193.031Y-134.25
X193.031Y-142.95
X193.031Y-144.25
X193.031Y-162.15
X193.031Y-163.45
X193.031Y-172.25
X194.261Y-201.152
X194.331Y-112.237
X194.331Y-112.85
X194.331Y-123.85
X194.331Y-125.15
X194.331Y-131.237
X194.331Y-131.95
X194.331Y-142.95
X194.331Y-144.25
X194.331Y-162.15
X194.331Y-163.45
X194.331Y-169.95
X194.339Y-150.237
X194.35Y-150.95
X194.4Y-169.237
X194.535Y-114.185
X194.535Y-171.285
X194.56Y-152.26
X194.6Y-133.25
X194.799Y-202.56
X195.131Y-112.85
X195.131Y-131.95
X195.131Y-150.95
X195.131Y-169.95
X195.544Y-201.363
X196.8Y-112.6
X196.8Y-113.5
X196.8Y-131.7
X196.8Y-132.6
X196.8Y-150.7
X196.8Y-151.6
X196.9Y-169.7
X196.9Y-170.6
X197.2Y-192.0
X198.148Y-192.915
X198.265Y-185.285
X198.462Y-112.85
X198.462Y-131.95
X198.462Y-150.95
X198.462Y-169.95
X198.94Y-152.26
X198.942Y-114.161
X198.968Y-133.287
X199.015Y-171.335
X199.038Y-112.274
X199.138Y-131.274
X199.138Y-150.274
X199.2Y-169.237
X199.406Y-150.983
X199.491Y-132.019
X199.5Y-180.3
X199.513Y-112.93
X199.569Y-184.75
X199.66Y-170.14
X199.7Y-180.9
X199.994Y-153.217
X199.994Y-172.217
X200.06Y-134.235
X200.142Y-115.231
X200.9Y-108.637
X201.1Y-179.7
X201.3Y-182.3
X201.4Y-193.5
X201.623Y-107.95
X201.884Y-109.528
X202.163Y-191.384
X202.2Y-180.9
X202.4Y-183.3
X202.5Y-192.7
X202.685Y-190.676
X202.956Y-108.456
X203.129Y-115.235
X203.2Y-105.1
X203.207Y-153.24
X203.292Y-191.507
X203.342Y-172.2
X203.392Y-134.177
X203.5Y-182.4
X204.0Y-182.8
X204.292Y-114.437
X204.3Y-152.437
X204.3Y-171.437
X204.306Y-133.437
X204.326Y-123.85
X204.357Y-180.95
X204.4Y-142.95
X204.4Y-162.126
X204.823Y-192.437
X205.0Y-124.5
X205.0Y-125.35
X205.0Y-191.554
X205.1Y-143.6
X205.1Y-162.8
X205.1Y-163.65
X205.1Y-181.6
X205.1Y-182.45
X205.105Y-144.45
X205.65Y-123.85
X205.7Y-142.95
X205.7Y-180.95
X205.701Y-162.15
X206.573Y-192.085
X206.7Y-180.8
X206.75Y-123.85
X206.8Y-142.95
X206.8Y-162.15
X206.835Y-193.485
X207.4Y-125.15
X207.427Y-163.45
X207.46Y-191.518
X207.5Y-182.3
X207.515Y-144.25
X207.618Y-192.367
X207.702Y-194.591
X208.05Y-123.85
X208.1Y-142.95
X208.1Y-162.15
X208.2Y-180.8
X208.286Y-114.437
X208.3Y-133.437
X208.3Y-152.437
X208.325Y-171.437
X209.186Y-115.185
X209.216Y-153.199
X209.293Y-172.226
X209.323Y-134.233
X210.572Y-203.876
X210.954Y-205.463
X211.011Y-195.143
X211.1Y-204.625
X211.875Y-203.975
X212.0Y-194.6
X212.031Y-134.25
X212.031Y-142.95
X212.031Y-144.25
X212.031Y-153.25
X212.031Y-162.15
X212.031Y-163.45
X212.171Y-115.25
X212.171Y-123.85
X212.171Y-125.15
X212.661Y-172.141
X212.697Y-203.974
X212.828Y-205.275
X213.142Y-169.969
X213.331Y-131.237
X213.331Y-142.95
X213.331Y-144.25
X213.331Y-150.95
X213.331Y-162.15
X213.331Y-163.45
X213.34Y-131.95
X213.345Y-184.755
X213.39Y-169.237
X213.4Y-150.237
X213.471Y-112.29
X213.471Y-123.85
X213.471Y-125.15
X213.474Y-112.95
X213.535Y-133.285
X213.535Y-171.285
X213.56Y-114.26
X213.6Y-152.3
X213.921Y-204.479
X214.131Y-112.95
X214.131Y-131.95
X214.131Y-150.95
X214.131Y-169.95
X214.678Y-184.25
X215.8Y-112.7
X215.8Y-113.6
X215.8Y-150.7
X215.8Y-151.6
X215.8Y-169.7
X215.8Y-170.6
X215.9Y-131.7
X215.9Y-132.6
X217.231Y-195.39
X217.462Y-112.95
X217.462Y-131.95
X217.462Y-150.95
X217.462Y-169.95
X217.8Y-196.5
X217.84Y-133.25
X217.89Y-152.25
X217.94Y-171.26
X218.015Y-114.335
X218.138Y-131.274
X218.138Y-169.274
X218.149Y-112.263
X218.2Y-150.237
X218.478Y-132.013
X218.491Y-170.019
X218.524Y-151.037
X218.561Y-113.059
X218.909Y-115.181
X218.909Y-153.181
X218.994Y-172.217
X219.06Y-134.235
X220.856Y-109.45
X221.013Y-197.536
X222.19Y-195.642
X222.237Y-197.006
X222.312Y-115.212
X222.342Y-153.2
X222.4Y-172.173
X222.433Y-134.154
X222.687Y-108.45
X222.8Y-195.076
X223.234Y-195.964
X223.3Y-114.437
X223.3Y-133.437
X223.3Y-152.437
X223.3Y-171.437
X223.388Y-142.95
X223.439Y-162.135
X223.45Y-123.85
X223.5Y-180.876
X223.824Y-109.45
X223.995Y-125.343
X224.044Y-184.256
X224.099Y-105.123
X224.1Y-124.5
X224.145Y-163.709
X224.175Y-143.575
X224.2Y-162.8
X224.2Y-181.6
X224.205Y-182.45
X224.369Y-144.403
X224.503Y-110.837
X224.58Y-183.01
X224.58Y-197.146
X224.75Y-123.831
X224.8Y-162.15
X224.8Y-142.031
X224.888Y-196.3
X224.94Y-180.95
X225.125Y-143.545
X225.291Y-125.081
X225.734Y-182.157
X226.1Y-177.8
X226.25Y-160.69
X226.25Y-166.787
X226.25Y-168.087
X226.25Y-179.74
X226.25Y-142.419
X226.25Y-162.569
X226.364Y-197.104
X226.391Y-198.551
X226.55Y-122.0
X226.986Y-199.72
X227.05Y-123.369
X227.05Y-139.715
X227.23Y-196.7
X227.294Y-197.506
X227.481Y-180.391
X227.55Y-178.769
X227.75Y-115.2
X228.05Y-162.267
X228.05Y-166.787
X228.05Y-168.087
X228.05Y-177.39
X228.25Y-111.755
X228.25Y-113.79
X228.285Y-209.818
X228.35Y-118.263
X228.406Y-211.456
X228.543Y-161.506
X228.55Y-142.295
X228.7Y-210.658
X228.9Y-121.3
X229.35Y-124.331
X229.52Y-210.263
X229.809Y-180.981
X229.819Y-140.87
X229.85Y-125.7
X229.865Y-103.953
X229.929Y-105.935
X230.1Y-174.1
X230.15Y-166.787
X230.15Y-168.087
X230.191Y-164.322
X230.207Y-200.886
X230.335Y-179.715
X230.4Y-115.6
X230.4Y-117.9
X230.4Y-120.4
X230.4Y-122.8
X230.85Y-173.65
X230.9Y-111.6
X231.353Y-200.53
X231.363Y-102.388
X231.375Y-127.564
X231.419Y-150.391
X231.45Y-166.787
X231.45Y-168.087
X231.46Y-164.81
X231.6Y-173.2
X231.926Y-179.75
X231.95Y-181.05
X231.983Y-190.006
X232.007Y-213.004
X232.115Y-211.562
X232.6Y-180.4
X232.65Y-128.081
X232.65Y-149.8
X233.239Y-212.217
X233.26Y-189.54
X233.45Y-180.4
X234.6Y-139.3
X236.15Y-138.97
X236.45Y-140.83
X237.394Y-156.317
X237.5Y-139.8
X237.592Y-123.291
X237.835Y-155.015
X237.9Y-204.4
X238.0Y-105.6
X238.3Y-205.5
X238.689Y-122.15
X238.75Y-111.35
X239.462Y-139.1
X239.5Y-103.9
X239.5Y-106.4
X239.5Y-108.1
X239.5Y-109.75
X239.5Y-110.6
X239.5Y-140.161
X240.009Y-198.083
X240.25Y-111.35
X240.311Y-122.15
X240.35Y-179.14
X240.474Y-177.705
X240.529Y-181.875
X240.666Y-134.333
X240.7Y-104.6
X240.711Y-196.988
X241.1Y-107.1
X241.141Y-207.044
X241.2Y-179.14
X241.358Y-123.276
X241.45Y-139.71
X242.0Y-178.24
X242.0Y-180.14
X242.395Y-140.655
X242.445Y-175.585
X242.728Y-206.812
X242.75Y-177.402
X242.833Y-205.431
X242.88Y-139.02
X243.412Y-204.882
X243.5Y-184.64
X243.798Y-205.929
X243.881Y-181.659
X244.1Y-179.04
X244.135Y-176.725
X244.179Y-182.817
X244.2Y-180.14
X244.212Y-178.147
X244.6Y-139.2
X244.634Y-173.522
X244.7Y-185.74
X244.9Y-177.04
X244.954Y-207.346
X245.235Y-175.625
X245.359Y-206.541
X245.49Y-113.19
X245.6Y-114.7
X245.6Y-115.75
X245.6Y-117.05
X245.64Y-118.263
X245.665Y-120.715
X245.672Y-123.008
X245.7Y-119.7
X245.7Y-122.15
X246.102Y-221.408
X246.15Y-128.018
X246.2Y-155.05
X246.389Y-208.926
X246.412Y-219.884
X246.6Y-175.84
X246.6Y-187.04
X246.683Y-207.594
X246.698Y-220.802
X246.75Y-156.4
X246.799Y-210.215
X247.438Y-127.493
X247.46Y-154.54
X247.578Y-220.555
X247.59Y-208.26
X247.636Y-207.339
X247.777Y-222.182
X247.9Y-181.64
X248.05Y-156.969
X248.4Y-177.14
X248.4Y-179.94
X248.5Y-220.998
X248.8Y-185.74
X249.031Y-175.59
X249.19Y-104.35
X249.2Y-105.6
X249.293Y-220.528
X249.32Y-222.266
X249.4Y-107.2
X249.481Y-156.609
X249.481Y-166.341
X249.6Y-164.9
X249.6Y-174.24
X249.65Y-173.391
X249.8Y-179.94
X249.875Y-102.361
X249.905Y-211.987
X250.065Y-105.185
X250.15Y-106.031
X250.37Y-221.264
X250.8Y-175.74
X250.8Y-187.04
X250.998Y-211.803
X251.297Y-175.159
X251.5Y-174.24
X252.118Y-104.534
X252.15Y-173.54
X252.25Y-177.095
X252.3Y-107.3
X252.4Y-185.735
X254.443Y-211.343
X254.45Y-206.593
X255.737Y-211.627
X255.75Y-206.25
T3
X231.843Y-105.04
X231.843Y-107.58
X231.843Y-110.12
X231.843Y-112.66
X231.843Y-115.2
X231.843Y-117.74
X231.843Y-120.28
X231.843Y-122.82
X231.843Y-125.36
X232.91Y-162.46
X232.91Y-167.46
X234.382Y-125.36
X235.685Y-146.595
X236.922Y-125.36
X238.225Y-146.595
X239.462Y-125.36
X240.765Y-146.595
X242.002Y-125.36
X243.305Y-146.595
X244.542Y-125.36
X247.082Y-105.04
X247.082Y-107.58
X247.082Y-110.12
X247.082Y-112.66
X247.082Y-115.2
X247.082Y-117.74
X247.082Y-120.28
X247.082Y-122.82
X247.082Y-125.36
X247.41Y-162.46
X247.41Y-164.96
X247.41Y-167.46
T2
G00X246.05Y-177.095
M15
G01X247.15Y-177.095
M16
G05
G00X246.05Y-185.735
M15
G01X247.15Y-185.735
M16
G05
G00X250.4Y-177.095
M15
G01X251.2Y-177.095
M16
G05
G00X250.4Y-185.735
M15
G01X251.2Y-185.735
M16
G05
T4
G00X240.56Y-159.36
M15
G01X239.26Y-159.36
M16
G05
G00X240.56Y-170.56
M15
G01X239.26Y-170.56
M16
G05
M30
