ISO-10303-21;
HEADER;
FILE_DESCRIPTION(('FreeCAD Model'),'2;1');
FILE_NAME('Open CASCADE Shape Model','2026-09-24T23:01:10',(''),(''),
  'Open CASCADE STEP processor 7.8','FreeCAD','Unknown');
FILE_SCHEMA(('AUTOMOTIVE_DESIGN { 1 0 10303 214 1 1 1 1 }'));
ENDSEC;
DATA;
#1 = APPLICATION_PROTOCOL_DEFINITION('international standard',
  'automotive_design',2000,#2);
#2 = APPLICATION_CONTEXT(
  'core data for automotive mechanical design processes');
#3 = SHAPE_DEFINITION_REPRESENTATION(#4,#10);
#4 = PRODUCT_DEFINITION_SHAPE('','',#5);
#5 = PRODUCT_DEFINITION('design','',#6,#9);
#6 = PRODUCT_DEFINITION_FORMATION('','',#7);
#7 = PRODUCT('Corps','Corps','',(#8));
#8 = PRODUCT_CONTEXT('',#2,'mechanical');
#9 = PRODUCT_DEFINITION_CONTEXT('part definition',#2,'design');
#10 = ADVANCED_BREP_SHAPE_REPRESENTATION('',(#11,#15),#1868);
#11 = AXIS2_PLACEMENT_3D('',#12,#13,#14);
#12 = CARTESIAN_POINT('',(0.,0.,0.));
#13 = DIRECTION('',(0.,0.,1.));
#14 = DIRECTION('',(1.,0.,-0.));
#15 = MANIFOLD_SOLID_BREP('',#16);
#16 = CLOSED_SHELL('',(#17,#57,#90,#123,#481,#590,#607,#624,#641,#658,
    #675,#692,#709,#751,#776,#824,#848,#873,#897,#922,#946,#970,#995,
    #1019,#1043,#1068,#1092,#1117,#1141,#1165,#1190,#1214,#1238,#1262,
    #1286,#1311,#1335,#1360,#1384,#1476,#1494,#1511,#1528,#1615,#1632,
    #1644,#1656,#1697,#1728,#1745,#1762,#1779,#1796,#1813,#1839,#1856));
#17 = ADVANCED_FACE('',(#18),#52,.T.);
#18 = FACE_BOUND('',#19,.T.);
#19 = EDGE_LOOP('',(#20,#30,#38,#46));
#20 = ORIENTED_EDGE('',*,*,#21,.T.);
#21 = EDGE_CURVE('',#22,#24,#26,.T.);
#22 = VERTEX_POINT('',#23);
#23 = CARTESIAN_POINT('',(122.87012079244,-121.1374588009,0.));
#24 = VERTEX_POINT('',#25);
#25 = CARTESIAN_POINT('',(122.87012079244,-121.1374588009,-8.5));
#26 = LINE('',#27,#28);
#27 = CARTESIAN_POINT('',(122.87012079244,-121.1374588009,0.));
#28 = VECTOR('',#29,1.);
#29 = DIRECTION('',(-0.,-0.,-1.));
#30 = ORIENTED_EDGE('',*,*,#31,.T.);
#31 = EDGE_CURVE('',#24,#32,#34,.T.);
#32 = VERTEX_POINT('',#33);
#33 = CARTESIAN_POINT('',(138.27323579226,-130.4489463997,-8.5));
#34 = LINE('',#35,#36);
#35 = CARTESIAN_POINT('',(122.87012079244,-121.1374588009,-8.5));
#36 = VECTOR('',#37,1.);
#37 = DIRECTION('',(0.855781764988,-0.517336999174,0.));
#38 = ORIENTED_EDGE('',*,*,#39,.F.);
#39 = EDGE_CURVE('',#40,#32,#42,.T.);
#40 = VERTEX_POINT('',#41);
#41 = CARTESIAN_POINT('',(138.27323579226,-130.4489463997,0.));
#42 = LINE('',#43,#44);
#43 = CARTESIAN_POINT('',(138.27323579226,-130.4489463997,0.));
#44 = VECTOR('',#45,1.);
#45 = DIRECTION('',(-0.,-0.,-1.));
#46 = ORIENTED_EDGE('',*,*,#47,.F.);
#47 = EDGE_CURVE('',#22,#40,#48,.T.);
#48 = LINE('',#49,#50);
#49 = CARTESIAN_POINT('',(122.87012079244,-121.1374588009,0.));
#50 = VECTOR('',#51,1.);
#51 = DIRECTION('',(0.855781764988,-0.517336999174,0.));
#52 = PLANE('',#53);
#53 = AXIS2_PLACEMENT_3D('',#54,#55,#56);
#54 = CARTESIAN_POINT('',(122.87012079244,-121.1374588009,0.));
#55 = DIRECTION('',(-0.517336999174,-0.855781764988,0.));
#56 = DIRECTION('',(0.855781764988,-0.517336999174,0.));
#57 = ADVANCED_FACE('',(#58),#85,.F.);
#58 = FACE_BOUND('',#59,.F.);
#59 = EDGE_LOOP('',(#60,#61,#70,#78));
#60 = ORIENTED_EDGE('',*,*,#21,.T.);
#61 = ORIENTED_EDGE('',*,*,#62,.T.);
#62 = EDGE_CURVE('',#24,#63,#65,.T.);
#63 = VERTEX_POINT('',#64);
#64 = CARTESIAN_POINT('',(81.483162114919,-109.6,-8.5));
#65 = CIRCLE('',#66,80.);
#66 = AXIS2_PLACEMENT_3D('',#67,#68,#69);
#67 = CARTESIAN_POINT('',(81.483160858559,-189.6,-8.5));
#68 = DIRECTION('',(0.,0.,1.));
#69 = DIRECTION('',(1.,0.,0.));
#70 = ORIENTED_EDGE('',*,*,#71,.F.);
#71 = EDGE_CURVE('',#72,#63,#74,.T.);
#72 = VERTEX_POINT('',#73);
#73 = CARTESIAN_POINT('',(81.483162114919,-109.6,0.));
#74 = LINE('',#75,#76);
#75 = CARTESIAN_POINT('',(81.483162114919,-109.6,0.));
#76 = VECTOR('',#77,1.);
#77 = DIRECTION('',(-0.,-0.,-1.));
#78 = ORIENTED_EDGE('',*,*,#79,.F.);
#79 = EDGE_CURVE('',#22,#72,#80,.T.);
#80 = CIRCLE('',#81,80.);
#81 = AXIS2_PLACEMENT_3D('',#82,#83,#84);
#82 = CARTESIAN_POINT('',(81.483160858559,-189.6,0.));
#83 = DIRECTION('',(0.,0.,1.));
#84 = DIRECTION('',(1.,0.,0.));
#85 = CYLINDRICAL_SURFACE('',#86,80.);
#86 = AXIS2_PLACEMENT_3D('',#87,#88,#89);
#87 = CARTESIAN_POINT('',(81.483160858559,-189.6,0.));
#88 = DIRECTION('',(0.,0.,1.));
#89 = DIRECTION('',(1.,0.,0.));
#90 = ADVANCED_FACE('',(#91),#118,.T.);
#91 = FACE_BOUND('',#92,.T.);
#92 = EDGE_LOOP('',(#93,#94,#103,#111));
#93 = ORIENTED_EDGE('',*,*,#39,.T.);
#94 = ORIENTED_EDGE('',*,*,#95,.T.);
#95 = EDGE_CURVE('',#32,#96,#98,.T.);
#96 = VERTEX_POINT('',#97);
#97 = CARTESIAN_POINT('',(144.44894639971,-128.9267642077,-8.5));
#98 = CIRCLE('',#99,4.497579356308);
#99 = AXIS2_PLACEMENT_3D('',#100,#101,#102);
#100 = CARTESIAN_POINT('',(140.6,-126.6,-8.5));
#101 = DIRECTION('',(0.,0.,1.));
#102 = DIRECTION('',(1.,0.,0.));
#103 = ORIENTED_EDGE('',*,*,#104,.F.);
#104 = EDGE_CURVE('',#105,#96,#107,.T.);
#105 = VERTEX_POINT('',#106);
#106 = CARTESIAN_POINT('',(144.44894639971,-128.9267642077,0.));
#107 = LINE('',#108,#109);
#108 = CARTESIAN_POINT('',(144.44894639971,-128.9267642077,0.));
#109 = VECTOR('',#110,1.);
#110 = DIRECTION('',(-0.,-0.,-1.));
#111 = ORIENTED_EDGE('',*,*,#112,.F.);
#112 = EDGE_CURVE('',#40,#105,#113,.T.);
#113 = CIRCLE('',#114,4.497579356308);
#114 = AXIS2_PLACEMENT_3D('',#115,#116,#117);
#115 = CARTESIAN_POINT('',(140.6,-126.6,0.));
#116 = DIRECTION('',(0.,0.,1.));
#117 = DIRECTION('',(1.,0.,0.));
#118 = CYLINDRICAL_SURFACE('',#119,4.497579356308);
#119 = AXIS2_PLACEMENT_3D('',#120,#121,#122);
#120 = CARTESIAN_POINT('',(140.6,-126.6,0.));
#121 = DIRECTION('',(0.,0.,1.));
#122 = DIRECTION('',(1.,0.,0.));
#123 = ADVANCED_FACE('',(#124),#476,.T.);
#124 = FACE_BOUND('',#125,.T.);
#125 = EDGE_LOOP('',(#126,#127,#128,#129,#137,#146,#154,#162,#171,#179,
    #187,#195,#204,#212,#220,#229,#237,#246,#254,#262,#270,#278,#287,
    #295,#303,#312,#320,#329,#337,#345,#354,#362,#370,#379,#387,#396,
    #404,#412,#420,#428,#436,#444,#453,#461,#470));
#126 = ORIENTED_EDGE('',*,*,#79,.F.);
#127 = ORIENTED_EDGE('',*,*,#47,.T.);
#128 = ORIENTED_EDGE('',*,*,#112,.T.);
#129 = ORIENTED_EDGE('',*,*,#130,.T.);
#130 = EDGE_CURVE('',#105,#131,#133,.T.);
#131 = VERTEX_POINT('',#132);
#132 = CARTESIAN_POINT('',(156.52706728248,-106.6775941605,0.));
#133 = LINE('',#134,#135);
#134 = CARTESIAN_POINT('',(144.44894639971,-128.9267642077,0.));
#135 = VECTOR('',#136,1.);
#136 = DIRECTION('',(0.477091862904,0.878853431666,0.));
#137 = ORIENTED_EDGE('',*,*,#138,.T.);
#138 = EDGE_CURVE('',#131,#139,#141,.T.);
#139 = VERTEX_POINT('',#140);
#140 = CARTESIAN_POINT('',(155.35935313738,-101.072566264,0.));
#141 = CIRCLE('',#142,4.048449953098);
#142 = AXIS2_PLACEMENT_3D('',#143,#144,#145);
#143 = CARTESIAN_POINT('',(153.14069626167,-104.4589372848,0.));
#144 = DIRECTION('',(0.,0.,1.));
#145 = DIRECTION('',(1.,0.,0.));
#146 = ORIENTED_EDGE('',*,*,#147,.F.);
#147 = EDGE_CURVE('',#148,#139,#150,.T.);
#148 = VERTEX_POINT('',#149);
#149 = CARTESIAN_POINT('',(148.8,-96.77505903606,0.));
#150 = LINE('',#151,#152);
#151 = CARTESIAN_POINT('',(148.8,-96.77505903606,0.));
#152 = VECTOR('',#153,1.);
#153 = DIRECTION('',(0.83646112958,-0.548026257311,0.));
#154 = ORIENTED_EDGE('',*,*,#155,.F.);
#155 = EDGE_CURVE('',#156,#148,#158,.T.);
#156 = VERTEX_POINT('',#157);
#157 = CARTESIAN_POINT('',(148.8,-3.3,0.));
#158 = LINE('',#159,#160);
#159 = CARTESIAN_POINT('',(148.8,-3.3,0.));
#160 = VECTOR('',#161,1.);
#161 = DIRECTION('',(0.,-1.,0.));
#162 = ORIENTED_EDGE('',*,*,#163,.T.);
#163 = EDGE_CURVE('',#156,#164,#166,.T.);
#164 = VERTEX_POINT('',#165);
#165 = CARTESIAN_POINT('',(144.3,1.2,0.));
#166 = CIRCLE('',#167,4.5);
#167 = AXIS2_PLACEMENT_3D('',#168,#169,#170);
#168 = CARTESIAN_POINT('',(144.3,-3.3,0.));
#169 = DIRECTION('',(0.,0.,1.));
#170 = DIRECTION('',(1.,0.,0.));
#171 = ORIENTED_EDGE('',*,*,#172,.T.);
#172 = EDGE_CURVE('',#164,#173,#175,.T.);
#173 = VERTEX_POINT('',#174);
#174 = CARTESIAN_POINT('',(135.6,1.2,-5.278363608401E-11));
#175 = LINE('',#176,#177);
#176 = CARTESIAN_POINT('',(144.3,1.2,0.));
#177 = VECTOR('',#178,1.);
#178 = DIRECTION('',(-1.,-1.E-17,0.));
#179 = ORIENTED_EDGE('',*,*,#180,.T.);
#180 = EDGE_CURVE('',#173,#181,#183,.T.);
#181 = VERTEX_POINT('',#182);
#182 = CARTESIAN_POINT('',(135.6,-1.8,-5.278296995019E-11));
#183 = LINE('',#184,#185);
#184 = CARTESIAN_POINT('',(135.6,1.2,-5.278363608401E-11));
#185 = VECTOR('',#186,1.);
#186 = DIRECTION('',(0.,-1.,2.22044604925E-16));
#187 = ORIENTED_EDGE('',*,*,#188,.T.);
#188 = EDGE_CURVE('',#181,#189,#191,.T.);
#189 = VERTEX_POINT('',#190);
#190 = CARTESIAN_POINT('',(144.3,-1.8,0.));
#191 = LINE('',#192,#193);
#192 = CARTESIAN_POINT('',(82.12132034356,-1.8,0.));
#193 = VECTOR('',#194,1.);
#194 = DIRECTION('',(1.,0.,0.));
#195 = ORIENTED_EDGE('',*,*,#196,.F.);
#196 = EDGE_CURVE('',#197,#189,#199,.T.);
#197 = VERTEX_POINT('',#198);
#198 = CARTESIAN_POINT('',(145.8,-3.3,0.));
#199 = CIRCLE('',#200,1.5);
#200 = AXIS2_PLACEMENT_3D('',#201,#202,#203);
#201 = CARTESIAN_POINT('',(144.3,-3.3,0.));
#202 = DIRECTION('',(0.,0.,1.));
#203 = DIRECTION('',(-1.,-1.2E-16,0.));
#204 = ORIENTED_EDGE('',*,*,#205,.T.);
#205 = EDGE_CURVE('',#197,#206,#208,.T.);
#206 = VERTEX_POINT('',#207);
#207 = CARTESIAN_POINT('',(145.8,-104.4894893975,0.));
#208 = LINE('',#209,#210);
#209 = CARTESIAN_POINT('',(145.8,-3.3,0.));
#210 = VECTOR('',#211,1.);
#211 = DIRECTION('',(0.,-1.,0.));
#212 = ORIENTED_EDGE('',*,*,#213,.T.);
#213 = EDGE_CURVE('',#206,#214,#216,.T.);
#214 = VERTEX_POINT('',#215);
#215 = CARTESIAN_POINT('',(150.92203938596,-107.8453083056,0.));
#216 = LINE('',#217,#218);
#217 = CARTESIAN_POINT('',(145.8,-104.4894893975,0.));
#218 = VECTOR('',#219,1.);
#219 = DIRECTION('',(0.83646112958,-0.548026257311,0.));
#220 = ORIENTED_EDGE('',*,*,#221,.F.);
#221 = EDGE_CURVE('',#222,#214,#224,.T.);
#222 = VERTEX_POINT('',#223);
#223 = CARTESIAN_POINT('',(151.41828014749,-109.8156377943,0.));
#224 = CIRCLE('',#225,1.5);
#225 = AXIS2_PLACEMENT_3D('',#226,#227,#228);
#226 = CARTESIAN_POINT('',(150.1,-109.1,0.));
#227 = DIRECTION('',(0.,0.,1.));
#228 = DIRECTION('',(-0.83646112958,0.548026257311,0.));
#229 = ORIENTED_EDGE('',*,*,#230,.T.);
#230 = EDGE_CURVE('',#222,#231,#233,.T.);
#231 = VERTEX_POINT('',#232);
#232 = CARTESIAN_POINT('',(141.91828014749,-127.3156377943,0.));
#233 = LINE('',#234,#235);
#234 = CARTESIAN_POINT('',(151.41828014749,-109.8156377943,0.));
#235 = VECTOR('',#236,1.);
#236 = DIRECTION('',(-0.477091862904,-0.878853431666,0.));
#237 = ORIENTED_EDGE('',*,*,#238,.F.);
#238 = EDGE_CURVE('',#239,#231,#241,.T.);
#239 = VERTEX_POINT('',#240);
#240 = CARTESIAN_POINT('',(139.82399450124,-127.8836726474,0.));
#241 = CIRCLE('',#242,1.5);
#242 = AXIS2_PLACEMENT_3D('',#243,#244,#245);
#243 = CARTESIAN_POINT('',(140.6,-126.6,0.));
#244 = DIRECTION('',(0.,-0.,1.));
#245 = DIRECTION('',(0.477091862904,0.878853431666,0.));
#246 = ORIENTED_EDGE('',*,*,#247,.T.);
#247 = EDGE_CURVE('',#239,#248,#250,.T.);
#248 = VERTEX_POINT('',#249);
#249 = CARTESIAN_POINT('',(122.24826023624,-117.2587937415,0.));
#250 = LINE('',#251,#252);
#251 = CARTESIAN_POINT('',(139.82399450124,-127.8836726474,0.));
#252 = VECTOR('',#253,1.);
#253 = DIRECTION('',(-0.855781764988,0.517336999174,0.));
#254 = ORIENTED_EDGE('',*,*,#255,.T.);
#255 = EDGE_CURVE('',#248,#256,#258,.T.);
#256 = VERTEX_POINT('',#257);
#257 = CARTESIAN_POINT('',(102.01629446671,-109.8568550453,0.));
#258 = LINE('',#259,#260);
#259 = CARTESIAN_POINT('',(122.24826023624,-117.2587937415,0.));
#260 = VECTOR('',#261,1.);
#261 = DIRECTION('',(-0.93912285212,0.343581531264,0.));
#262 = ORIENTED_EDGE('',*,*,#263,.T.);
#263 = EDGE_CURVE('',#256,#264,#266,.T.);
#264 = VERTEX_POINT('',#265);
#265 = CARTESIAN_POINT('',(82.376471617459,-106.6,0.));
#266 = LINE('',#267,#268);
#267 = CARTESIAN_POINT('',(102.01629446671,-109.8568550453,0.));
#268 = VECTOR('',#269,1.);
#269 = DIRECTION('',(-0.986527580702,0.163595025946,0.));
#270 = ORIENTED_EDGE('',*,*,#271,.F.);
#271 = EDGE_CURVE('',#272,#264,#274,.T.);
#272 = VERTEX_POINT('',#273);
#273 = CARTESIAN_POINT('',(42.,-106.6,0.));
#274 = LINE('',#275,#276);
#275 = CARTESIAN_POINT('',(42.,-106.6,0.));
#276 = VECTOR('',#277,1.);
#277 = DIRECTION('',(1.,0.,0.));
#278 = ORIENTED_EDGE('',*,*,#279,.F.);
#279 = EDGE_CURVE('',#280,#272,#282,.T.);
#280 = VERTEX_POINT('',#281);
#281 = CARTESIAN_POINT('',(40.5,-105.1,0.));
#282 = CIRCLE('',#283,1.5);
#283 = AXIS2_PLACEMENT_3D('',#284,#285,#286);
#284 = CARTESIAN_POINT('',(42.,-105.1,0.));
#285 = DIRECTION('',(0.,0.,1.));
#286 = DIRECTION('',(1.,0.,0.));
#287 = ORIENTED_EDGE('',*,*,#288,.F.);
#288 = EDGE_CURVE('',#289,#280,#291,.T.);
#289 = VERTEX_POINT('',#290);
#290 = CARTESIAN_POINT('',(40.5,-97.8,0.));
#291 = LINE('',#292,#293);
#292 = CARTESIAN_POINT('',(40.5,-97.8,0.));
#293 = VECTOR('',#294,1.);
#294 = DIRECTION('',(0.,-1.,0.));
#295 = ORIENTED_EDGE('',*,*,#296,.F.);
#296 = EDGE_CURVE('',#297,#289,#299,.T.);
#297 = VERTEX_POINT('',#298);
#298 = CARTESIAN_POINT('',(0.,-97.8,0.));
#299 = LINE('',#300,#301);
#300 = CARTESIAN_POINT('',(-2.8E-16,-97.8,0.));
#301 = VECTOR('',#302,1.);
#302 = DIRECTION('',(1.,0.,0.));
#303 = ORIENTED_EDGE('',*,*,#304,.F.);
#304 = EDGE_CURVE('',#305,#297,#307,.T.);
#305 = VERTEX_POINT('',#306);
#306 = CARTESIAN_POINT('',(-1.5,-96.3,0.));
#307 = CIRCLE('',#308,1.5);
#308 = AXIS2_PLACEMENT_3D('',#309,#310,#311);
#309 = CARTESIAN_POINT('',(0.,-96.3,0.));
#310 = DIRECTION('',(0.,0.,1.));
#311 = DIRECTION('',(1.,0.,0.));
#312 = ORIENTED_EDGE('',*,*,#313,.F.);
#313 = EDGE_CURVE('',#314,#305,#316,.T.);
#314 = VERTEX_POINT('',#315);
#315 = CARTESIAN_POINT('',(-1.5,-18.,0.));
#316 = LINE('',#317,#318);
#317 = CARTESIAN_POINT('',(-1.5,-18.,0.));
#318 = VECTOR('',#319,1.);
#319 = DIRECTION('',(0.,-1.,0.));
#320 = ORIENTED_EDGE('',*,*,#321,.F.);
#321 = EDGE_CURVE('',#322,#314,#324,.T.);
#322 = VERTEX_POINT('',#323);
#323 = CARTESIAN_POINT('',(0.,-16.5,0.));
#324 = CIRCLE('',#325,1.5);
#325 = AXIS2_PLACEMENT_3D('',#326,#327,#328);
#326 = CARTESIAN_POINT('',(0.,-18.,0.));
#327 = DIRECTION('',(-0.,0.,1.));
#328 = DIRECTION('',(1.1E-16,-1.,0.));
#329 = ORIENTED_EDGE('',*,*,#330,.F.);
#330 = EDGE_CURVE('',#331,#322,#333,.T.);
#331 = VERTEX_POINT('',#332);
#332 = CARTESIAN_POINT('',(28.36067318586,-16.5,0.));
#333 = LINE('',#334,#335);
#334 = CARTESIAN_POINT('',(28.36067318586,-16.5,0.));
#335 = VECTOR('',#336,1.);
#336 = DIRECTION('',(-1.,0.,0.));
#337 = ORIENTED_EDGE('',*,*,#338,.T.);
#338 = EDGE_CURVE('',#331,#339,#341,.T.);
#339 = VERTEX_POINT('',#340);
#340 = CARTESIAN_POINT('',(39.917919018454,-4.461202257715,0.));
#341 = LINE('',#342,#343);
#342 = CARTESIAN_POINT('',(28.36067318586,-16.5,0.));
#343 = VECTOR('',#344,1.);
#344 = DIRECTION('',(0.69253182819,0.721387321031,0.));
#345 = ORIENTED_EDGE('',*,*,#346,.F.);
#346 = EDGE_CURVE('',#347,#339,#349,.T.);
#347 = VERTEX_POINT('',#348);
#348 = CARTESIAN_POINT('',(41.,-4.,0.));
#349 = CIRCLE('',#350,1.5);
#350 = AXIS2_PLACEMENT_3D('',#351,#352,#353);
#351 = CARTESIAN_POINT('',(41.,-5.5,0.));
#352 = DIRECTION('',(0.,0.,1.));
#353 = DIRECTION('',(-0.69253182819,-0.721387321031,0.));
#354 = ORIENTED_EDGE('',*,*,#355,.T.);
#355 = EDGE_CURVE('',#347,#356,#358,.T.);
#356 = VERTEX_POINT('',#357);
#357 = CARTESIAN_POINT('',(53.57867965644,-4.,0.));
#358 = LINE('',#359,#360);
#359 = CARTESIAN_POINT('',(41.,-4.,0.));
#360 = VECTOR('',#361,1.);
#361 = DIRECTION('',(1.,0.,0.));
#362 = ORIENTED_EDGE('',*,*,#363,.T.);
#363 = EDGE_CURVE('',#356,#364,#366,.T.);
#364 = VERTEX_POINT('',#365);
#365 = CARTESIAN_POINT('',(58.63933982822,1.06066017178,0.));
#366 = LINE('',#367,#368);
#367 = CARTESIAN_POINT('',(53.57867965644,-4.,0.));
#368 = VECTOR('',#369,1.);
#369 = DIRECTION('',(0.707106781187,0.707106781187,0.));
#370 = ORIENTED_EDGE('',*,*,#371,.F.);
#371 = EDGE_CURVE('',#372,#364,#374,.T.);
#372 = VERTEX_POINT('',#373);
#373 = CARTESIAN_POINT('',(59.7,1.5,0.));
#374 = CIRCLE('',#375,1.5);
#375 = AXIS2_PLACEMENT_3D('',#376,#377,#378);
#376 = CARTESIAN_POINT('',(59.7,0.,0.));
#377 = DIRECTION('',(0.,0.,1.));
#378 = DIRECTION('',(-0.707106781187,-0.707106781187,0.));
#379 = ORIENTED_EDGE('',*,*,#380,.T.);
#380 = EDGE_CURVE('',#372,#381,#383,.T.);
#381 = VERTEX_POINT('',#382);
#382 = CARTESIAN_POINT('',(78.2,1.5,0.));
#383 = LINE('',#384,#385);
#384 = CARTESIAN_POINT('',(59.7,1.5,0.));
#385 = VECTOR('',#386,1.);
#386 = DIRECTION('',(1.,0.,0.));
#387 = ORIENTED_EDGE('',*,*,#388,.F.);
#388 = EDGE_CURVE('',#389,#381,#391,.T.);
#389 = VERTEX_POINT('',#390);
#390 = CARTESIAN_POINT('',(79.26066017178,1.06066017178,0.));
#391 = CIRCLE('',#392,1.5);
#392 = AXIS2_PLACEMENT_3D('',#393,#394,#395);
#393 = CARTESIAN_POINT('',(78.2,0.,0.));
#394 = DIRECTION('',(0.,0.,1.));
#395 = DIRECTION('',(-1.,-1.2E-16,0.));
#396 = ORIENTED_EDGE('',*,*,#397,.T.);
#397 = EDGE_CURVE('',#389,#398,#400,.T.);
#398 = VERTEX_POINT('',#399);
#399 = CARTESIAN_POINT('',(82.12132034356,-1.8,0.));
#400 = LINE('',#401,#402);
#401 = CARTESIAN_POINT('',(79.26066017178,1.06066017178,0.));
#402 = VECTOR('',#403,1.);
#403 = DIRECTION('',(0.707106781187,-0.707106781187,0.));
#404 = ORIENTED_EDGE('',*,*,#405,.T.);
#405 = EDGE_CURVE('',#398,#406,#408,.T.);
#406 = VERTEX_POINT('',#407);
#407 = CARTESIAN_POINT('',(125.6,-1.8,-1.093594153144E-12));
#408 = LINE('',#409,#410);
#409 = CARTESIAN_POINT('',(82.12132034356,-1.8,0.));
#410 = VECTOR('',#411,1.);
#411 = DIRECTION('',(1.,0.,0.));
#412 = ORIENTED_EDGE('',*,*,#413,.F.);
#413 = EDGE_CURVE('',#414,#406,#416,.T.);
#414 = VERTEX_POINT('',#415);
#415 = CARTESIAN_POINT('',(125.6,1.2,-1.094260286958E-12));
#416 = LINE('',#417,#418);
#417 = CARTESIAN_POINT('',(125.6,1.2,-1.094260286958E-12));
#418 = VECTOR('',#419,1.);
#419 = DIRECTION('',(0.,-1.,2.22044604925E-16));
#420 = ORIENTED_EDGE('',*,*,#421,.T.);
#421 = EDGE_CURVE('',#414,#422,#424,.T.);
#422 = VERTEX_POINT('',#423);
#423 = CARTESIAN_POINT('',(119.3,1.2,0.));
#424 = LINE('',#425,#426);
#425 = CARTESIAN_POINT('',(144.3,1.2,0.));
#426 = VECTOR('',#427,1.);
#427 = DIRECTION('',(-1.,-1.E-17,0.));
#428 = ORIENTED_EDGE('',*,*,#429,.F.);
#429 = EDGE_CURVE('',#430,#422,#432,.T.);
#430 = VERTEX_POINT('',#431);
#431 = CARTESIAN_POINT('',(89.887271669701,4.5,0.));
#432 = LINE('',#433,#434);
#433 = CARTESIAN_POINT('',(89.887271669701,4.5,0.));
#434 = VECTOR('',#435,1.);
#435 = DIRECTION('',(0.993764797681,-0.111496757306,0.));
#436 = ORIENTED_EDGE('',*,*,#437,.F.);
#437 = EDGE_CURVE('',#438,#430,#440,.T.);
#438 = VERTEX_POINT('',#439);
#439 = CARTESIAN_POINT('',(5.499999810542,4.5,0.));
#440 = LINE('',#441,#442);
#441 = CARTESIAN_POINT('',(5.499999810542,4.5,0.));
#442 = VECTOR('',#443,1.);
#443 = DIRECTION('',(1.,-1.E-17,0.));
#444 = ORIENTED_EDGE('',*,*,#445,.T.);
#445 = EDGE_CURVE('',#438,#446,#448,.T.);
#446 = VERTEX_POINT('',#447);
#447 = CARTESIAN_POINT('',(-4.5,-5.5,0.));
#448 = CIRCLE('',#449,10.);
#449 = AXIS2_PLACEMENT_3D('',#450,#451,#452);
#450 = CARTESIAN_POINT('',(5.5,-5.5,0.));
#451 = DIRECTION('',(0.,0.,1.));
#452 = DIRECTION('',(1.,0.,0.));
#453 = ORIENTED_EDGE('',*,*,#454,.F.);
#454 = EDGE_CURVE('',#455,#446,#457,.T.);
#455 = VERTEX_POINT('',#456);
#456 = CARTESIAN_POINT('',(-4.5,-99.6,0.));
#457 = LINE('',#458,#459);
#458 = CARTESIAN_POINT('',(-4.5,-99.6,0.));
#459 = VECTOR('',#460,1.);
#460 = DIRECTION('',(-1.2E-16,1.,0.));
#461 = ORIENTED_EDGE('',*,*,#462,.T.);
#462 = EDGE_CURVE('',#455,#463,#465,.T.);
#463 = VERTEX_POINT('',#464);
#464 = CARTESIAN_POINT('',(5.5,-109.6,0.));
#465 = CIRCLE('',#466,10.);
#466 = AXIS2_PLACEMENT_3D('',#467,#468,#469);
#467 = CARTESIAN_POINT('',(5.5,-99.6,0.));
#468 = DIRECTION('',(0.,0.,1.));
#469 = DIRECTION('',(1.,0.,0.));
#470 = ORIENTED_EDGE('',*,*,#471,.T.);
#471 = EDGE_CURVE('',#463,#72,#472,.T.);
#472 = LINE('',#473,#474);
#473 = CARTESIAN_POINT('',(5.5,-109.6,0.));
#474 = VECTOR('',#475,1.);
#475 = DIRECTION('',(1.,0.,0.));
#476 = PLANE('',#477);
#477 = AXIS2_PLACEMENT_3D('',#478,#479,#480);
#478 = CARTESIAN_POINT('',(76.570986807901,-57.64467575508,0.));
#479 = DIRECTION('',(0.,0.,1.));
#480 = DIRECTION('',(1.,0.,0.));
#481 = ADVANCED_FACE('',(#482),#585,.F.);
#482 = FACE_BOUND('',#483,.T.);
#483 = EDGE_LOOP('',(#484,#485,#486,#494,#503,#511,#520,#528,#536,#544,
    #553,#561,#569,#578,#584));
#484 = ORIENTED_EDGE('',*,*,#31,.F.);
#485 = ORIENTED_EDGE('',*,*,#62,.T.);
#486 = ORIENTED_EDGE('',*,*,#487,.F.);
#487 = EDGE_CURVE('',#488,#63,#490,.T.);
#488 = VERTEX_POINT('',#489);
#489 = CARTESIAN_POINT('',(5.5,-109.6,-8.5));
#490 = LINE('',#491,#492);
#491 = CARTESIAN_POINT('',(5.5,-109.6,-8.5));
#492 = VECTOR('',#493,1.);
#493 = DIRECTION('',(1.,0.,0.));
#494 = ORIENTED_EDGE('',*,*,#495,.F.);
#495 = EDGE_CURVE('',#496,#488,#498,.T.);
#496 = VERTEX_POINT('',#497);
#497 = CARTESIAN_POINT('',(-4.5,-99.6,-8.5));
#498 = CIRCLE('',#499,10.);
#499 = AXIS2_PLACEMENT_3D('',#500,#501,#502);
#500 = CARTESIAN_POINT('',(5.5,-99.6,-8.5));
#501 = DIRECTION('',(0.,0.,1.));
#502 = DIRECTION('',(1.,0.,0.));
#503 = ORIENTED_EDGE('',*,*,#504,.T.);
#504 = EDGE_CURVE('',#496,#505,#507,.T.);
#505 = VERTEX_POINT('',#506);
#506 = CARTESIAN_POINT('',(-4.5,-5.5,-8.5));
#507 = LINE('',#508,#509);
#508 = CARTESIAN_POINT('',(-4.5,-99.6,-8.5));
#509 = VECTOR('',#510,1.);
#510 = DIRECTION('',(-1.2E-16,1.,0.));
#511 = ORIENTED_EDGE('',*,*,#512,.F.);
#512 = EDGE_CURVE('',#513,#505,#515,.T.);
#513 = VERTEX_POINT('',#514);
#514 = CARTESIAN_POINT('',(5.499999810542,4.5,-8.5));
#515 = CIRCLE('',#516,10.);
#516 = AXIS2_PLACEMENT_3D('',#517,#518,#519);
#517 = CARTESIAN_POINT('',(5.5,-5.5,-8.5));
#518 = DIRECTION('',(0.,0.,1.));
#519 = DIRECTION('',(1.,0.,0.));
#520 = ORIENTED_EDGE('',*,*,#521,.T.);
#521 = EDGE_CURVE('',#513,#522,#524,.T.);
#522 = VERTEX_POINT('',#523);
#523 = CARTESIAN_POINT('',(89.887271669701,4.5,-8.5));
#524 = LINE('',#525,#526);
#525 = CARTESIAN_POINT('',(5.499999810542,4.5,-8.5));
#526 = VECTOR('',#527,1.);
#527 = DIRECTION('',(1.,-1.E-17,0.));
#528 = ORIENTED_EDGE('',*,*,#529,.T.);
#529 = EDGE_CURVE('',#522,#530,#532,.T.);
#530 = VERTEX_POINT('',#531);
#531 = CARTESIAN_POINT('',(119.3,1.2,-8.5));
#532 = LINE('',#533,#534);
#533 = CARTESIAN_POINT('',(89.887271669701,4.5,-8.5));
#534 = VECTOR('',#535,1.);
#535 = DIRECTION('',(0.993764797681,-0.111496757306,0.));
#536 = ORIENTED_EDGE('',*,*,#537,.F.);
#537 = EDGE_CURVE('',#538,#530,#540,.T.);
#538 = VERTEX_POINT('',#539);
#539 = CARTESIAN_POINT('',(144.3,1.2,-8.5));
#540 = LINE('',#541,#542);
#541 = CARTESIAN_POINT('',(144.3,1.2,-8.5));
#542 = VECTOR('',#543,1.);
#543 = DIRECTION('',(-1.,-1.E-17,0.));
#544 = ORIENTED_EDGE('',*,*,#545,.F.);
#545 = EDGE_CURVE('',#546,#538,#548,.T.);
#546 = VERTEX_POINT('',#547);
#547 = CARTESIAN_POINT('',(148.8,-3.3,-8.5));
#548 = CIRCLE('',#549,4.5);
#549 = AXIS2_PLACEMENT_3D('',#550,#551,#552);
#550 = CARTESIAN_POINT('',(144.3,-3.3,-8.5));
#551 = DIRECTION('',(0.,0.,1.));
#552 = DIRECTION('',(1.,0.,0.));
#553 = ORIENTED_EDGE('',*,*,#554,.T.);
#554 = EDGE_CURVE('',#546,#555,#557,.T.);
#555 = VERTEX_POINT('',#556);
#556 = CARTESIAN_POINT('',(148.8,-96.77505903606,-8.5));
#557 = LINE('',#558,#559);
#558 = CARTESIAN_POINT('',(148.8,-3.3,-8.5));
#559 = VECTOR('',#560,1.);
#560 = DIRECTION('',(0.,-1.,0.));
#561 = ORIENTED_EDGE('',*,*,#562,.T.);
#562 = EDGE_CURVE('',#555,#563,#565,.T.);
#563 = VERTEX_POINT('',#564);
#564 = CARTESIAN_POINT('',(155.35935313738,-101.072566264,-8.5));
#565 = LINE('',#566,#567);
#566 = CARTESIAN_POINT('',(148.8,-96.77505903606,-8.5));
#567 = VECTOR('',#568,1.);
#568 = DIRECTION('',(0.83646112958,-0.548026257311,0.));
#569 = ORIENTED_EDGE('',*,*,#570,.F.);
#570 = EDGE_CURVE('',#571,#563,#573,.T.);
#571 = VERTEX_POINT('',#572);
#572 = CARTESIAN_POINT('',(156.52706728248,-106.6775941605,-8.5));
#573 = CIRCLE('',#574,4.048449953098);
#574 = AXIS2_PLACEMENT_3D('',#575,#576,#577);
#575 = CARTESIAN_POINT('',(153.14069626167,-104.4589372848,-8.5));
#576 = DIRECTION('',(0.,0.,1.));
#577 = DIRECTION('',(1.,0.,0.));
#578 = ORIENTED_EDGE('',*,*,#579,.F.);
#579 = EDGE_CURVE('',#96,#571,#580,.T.);
#580 = LINE('',#581,#582);
#581 = CARTESIAN_POINT('',(144.44894639971,-128.9267642077,-8.5));
#582 = VECTOR('',#583,1.);
#583 = DIRECTION('',(0.477091862904,0.878853431666,0.));
#584 = ORIENTED_EDGE('',*,*,#95,.F.);
#585 = PLANE('',#586);
#586 = AXIS2_PLACEMENT_3D('',#587,#588,#589);
#587 = CARTESIAN_POINT('',(76.570986807901,-57.64467575508,-8.5));
#588 = DIRECTION('',(0.,0.,1.));
#589 = DIRECTION('',(1.,0.,0.));
#590 = ADVANCED_FACE('',(#591),#602,.T.);
#591 = FACE_BOUND('',#592,.T.);
#592 = EDGE_LOOP('',(#593,#599,#600,#601));
#593 = ORIENTED_EDGE('',*,*,#594,.T.);
#594 = EDGE_CURVE('',#463,#488,#595,.T.);
#595 = LINE('',#596,#597);
#596 = CARTESIAN_POINT('',(5.5,-109.6,0.));
#597 = VECTOR('',#598,1.);
#598 = DIRECTION('',(-0.,-0.,-1.));
#599 = ORIENTED_EDGE('',*,*,#487,.T.);
#600 = ORIENTED_EDGE('',*,*,#71,.F.);
#601 = ORIENTED_EDGE('',*,*,#471,.F.);
#602 = PLANE('',#603);
#603 = AXIS2_PLACEMENT_3D('',#604,#605,#606);
#604 = CARTESIAN_POINT('',(5.5,-109.6,0.));
#605 = DIRECTION('',(0.,-1.,0.));
#606 = DIRECTION('',(1.,0.,0.));
#607 = ADVANCED_FACE('',(#608),#619,.T.);
#608 = FACE_BOUND('',#609,.T.);
#609 = EDGE_LOOP('',(#610,#611,#612,#618));
#610 = ORIENTED_EDGE('',*,*,#104,.T.);
#611 = ORIENTED_EDGE('',*,*,#579,.T.);
#612 = ORIENTED_EDGE('',*,*,#613,.F.);
#613 = EDGE_CURVE('',#131,#571,#614,.T.);
#614 = LINE('',#615,#616);
#615 = CARTESIAN_POINT('',(156.52706728248,-106.6775941605,0.));
#616 = VECTOR('',#617,1.);
#617 = DIRECTION('',(-0.,-0.,-1.));
#618 = ORIENTED_EDGE('',*,*,#130,.F.);
#619 = PLANE('',#620);
#620 = AXIS2_PLACEMENT_3D('',#621,#622,#623);
#621 = CARTESIAN_POINT('',(144.44894639971,-128.9267642077,0.));
#622 = DIRECTION('',(0.878853431666,-0.477091862904,0.));
#623 = DIRECTION('',(0.477091862904,0.878853431666,0.));
#624 = ADVANCED_FACE('',(#625),#636,.T.);
#625 = FACE_BOUND('',#626,.T.);
#626 = EDGE_LOOP('',(#627,#633,#634,#635));
#627 = ORIENTED_EDGE('',*,*,#628,.T.);
#628 = EDGE_CURVE('',#455,#496,#629,.T.);
#629 = LINE('',#630,#631);
#630 = CARTESIAN_POINT('',(-4.5,-99.6,0.));
#631 = VECTOR('',#632,1.);
#632 = DIRECTION('',(-0.,-0.,-1.));
#633 = ORIENTED_EDGE('',*,*,#495,.T.);
#634 = ORIENTED_EDGE('',*,*,#594,.F.);
#635 = ORIENTED_EDGE('',*,*,#462,.F.);
#636 = CYLINDRICAL_SURFACE('',#637,10.);
#637 = AXIS2_PLACEMENT_3D('',#638,#639,#640);
#638 = CARTESIAN_POINT('',(5.5,-99.6,0.));
#639 = DIRECTION('',(0.,0.,1.));
#640 = DIRECTION('',(1.,0.,0.));
#641 = ADVANCED_FACE('',(#642),#653,.F.);
#642 = FACE_BOUND('',#643,.F.);
#643 = EDGE_LOOP('',(#644,#645,#646,#652));
#644 = ORIENTED_EDGE('',*,*,#628,.T.);
#645 = ORIENTED_EDGE('',*,*,#504,.T.);
#646 = ORIENTED_EDGE('',*,*,#647,.F.);
#647 = EDGE_CURVE('',#446,#505,#648,.T.);
#648 = LINE('',#649,#650);
#649 = CARTESIAN_POINT('',(-4.5,-5.5,0.));
#650 = VECTOR('',#651,1.);
#651 = DIRECTION('',(-0.,-0.,-1.));
#652 = ORIENTED_EDGE('',*,*,#454,.F.);
#653 = PLANE('',#654);
#654 = AXIS2_PLACEMENT_3D('',#655,#656,#657);
#655 = CARTESIAN_POINT('',(-4.5,-99.6,0.));
#656 = DIRECTION('',(1.,1.2E-16,0.));
#657 = DIRECTION('',(-1.2E-16,1.,0.));
#658 = ADVANCED_FACE('',(#659),#670,.T.);
#659 = FACE_BOUND('',#660,.T.);
#660 = EDGE_LOOP('',(#661,#667,#668,#669));
#661 = ORIENTED_EDGE('',*,*,#662,.T.);
#662 = EDGE_CURVE('',#438,#513,#663,.T.);
#663 = LINE('',#664,#665);
#664 = CARTESIAN_POINT('',(5.499999810542,4.5,0.));
#665 = VECTOR('',#666,1.);
#666 = DIRECTION('',(-0.,-0.,-1.));
#667 = ORIENTED_EDGE('',*,*,#512,.T.);
#668 = ORIENTED_EDGE('',*,*,#647,.F.);
#669 = ORIENTED_EDGE('',*,*,#445,.F.);
#670 = CYLINDRICAL_SURFACE('',#671,10.);
#671 = AXIS2_PLACEMENT_3D('',#672,#673,#674);
#672 = CARTESIAN_POINT('',(5.5,-5.5,0.));
#673 = DIRECTION('',(0.,0.,1.));
#674 = DIRECTION('',(1.,0.,0.));
#675 = ADVANCED_FACE('',(#676),#687,.F.);
#676 = FACE_BOUND('',#677,.F.);
#677 = EDGE_LOOP('',(#678,#679,#680,#686));
#678 = ORIENTED_EDGE('',*,*,#662,.T.);
#679 = ORIENTED_EDGE('',*,*,#521,.T.);
#680 = ORIENTED_EDGE('',*,*,#681,.F.);
#681 = EDGE_CURVE('',#430,#522,#682,.T.);
#682 = LINE('',#683,#684);
#683 = CARTESIAN_POINT('',(89.887271669701,4.5,0.));
#684 = VECTOR('',#685,1.);
#685 = DIRECTION('',(-0.,-0.,-1.));
#686 = ORIENTED_EDGE('',*,*,#437,.F.);
#687 = PLANE('',#688);
#688 = AXIS2_PLACEMENT_3D('',#689,#690,#691);
#689 = CARTESIAN_POINT('',(5.499999810542,4.5,0.));
#690 = DIRECTION('',(-1.E-17,-1.,0.));
#691 = DIRECTION('',(1.,-1.E-17,0.));
#692 = ADVANCED_FACE('',(#693),#704,.F.);
#693 = FACE_BOUND('',#694,.F.);
#694 = EDGE_LOOP('',(#695,#696,#697,#703));
#695 = ORIENTED_EDGE('',*,*,#681,.T.);
#696 = ORIENTED_EDGE('',*,*,#529,.T.);
#697 = ORIENTED_EDGE('',*,*,#698,.F.);
#698 = EDGE_CURVE('',#422,#530,#699,.T.);
#699 = LINE('',#700,#701);
#700 = CARTESIAN_POINT('',(119.3,1.2,0.));
#701 = VECTOR('',#702,1.);
#702 = DIRECTION('',(-0.,-0.,-1.));
#703 = ORIENTED_EDGE('',*,*,#429,.F.);
#704 = PLANE('',#705);
#705 = AXIS2_PLACEMENT_3D('',#706,#707,#708);
#706 = CARTESIAN_POINT('',(89.887271669701,4.5,0.));
#707 = DIRECTION('',(-0.111496757306,-0.993764797681,0.));
#708 = DIRECTION('',(0.993764797681,-0.111496757306,0.));
#709 = ADVANCED_FACE('',(#710),#746,.T.);
#710 = FACE_BOUND('',#711,.T.);
#711 = EDGE_LOOP('',(#712,#713,#719,#720,#721,#722,#731,#739));
#712 = ORIENTED_EDGE('',*,*,#172,.F.);
#713 = ORIENTED_EDGE('',*,*,#714,.T.);
#714 = EDGE_CURVE('',#164,#538,#715,.T.);
#715 = LINE('',#716,#717);
#716 = CARTESIAN_POINT('',(144.3,1.2,0.));
#717 = VECTOR('',#718,1.);
#718 = DIRECTION('',(-0.,-0.,-1.));
#719 = ORIENTED_EDGE('',*,*,#537,.T.);
#720 = ORIENTED_EDGE('',*,*,#698,.F.);
#721 = ORIENTED_EDGE('',*,*,#421,.F.);
#722 = ORIENTED_EDGE('',*,*,#723,.F.);
#723 = EDGE_CURVE('',#724,#414,#726,.T.);
#724 = VERTEX_POINT('',#725);
#725 = CARTESIAN_POINT('',(127.60000000002,1.2,-2.000000000068));
#726 = CIRCLE('',#727,2.000000000045);
#727 = AXIS2_PLACEMENT_3D('',#728,#729,#730);
#728 = CARTESIAN_POINT('',(127.60000000004,1.2,-2.27858E-11));
#729 = DIRECTION('',(0.,1.,-2.22044604925E-16));
#730 = DIRECTION('',(-1.,0.,0.));
#731 = ORIENTED_EDGE('',*,*,#732,.F.);
#732 = EDGE_CURVE('',#733,#724,#735,.T.);
#733 = VERTEX_POINT('',#734);
#734 = CARTESIAN_POINT('',(133.60000000002,1.2,-2.000000000068));
#735 = LINE('',#736,#737);
#736 = CARTESIAN_POINT('',(133.60000000002,1.2,-2.000000000068));
#737 = VECTOR('',#738,1.);
#738 = DIRECTION('',(-1.,0.,0.));
#739 = ORIENTED_EDGE('',*,*,#740,.F.);
#740 = EDGE_CURVE('',#173,#733,#741,.T.);
#741 = CIRCLE('',#742,1.999999999977);
#742 = AXIS2_PLACEMENT_3D('',#743,#744,#745);
#743 = CARTESIAN_POINT('',(133.60000000002,1.2,-9.07696E-11));
#744 = DIRECTION('',(0.,1.,-2.22044604925E-16));
#745 = DIRECTION('',(-1.,0.,0.));
#746 = PLANE('',#747);
#747 = AXIS2_PLACEMENT_3D('',#748,#749,#750);
#748 = CARTESIAN_POINT('',(144.3,1.2,0.));
#749 = DIRECTION('',(-1.E-17,1.,0.));
#750 = DIRECTION('',(-1.,-1.E-17,0.));
#751 = ADVANCED_FACE('',(#752),#771,.F.);
#752 = FACE_BOUND('',#753,.F.);
#753 = EDGE_LOOP('',(#754,#755,#763,#770));
#754 = ORIENTED_EDGE('',*,*,#723,.F.);
#755 = ORIENTED_EDGE('',*,*,#756,.T.);
#756 = EDGE_CURVE('',#724,#757,#759,.T.);
#757 = VERTEX_POINT('',#758);
#758 = CARTESIAN_POINT('',(127.60000000002,-1.8,-2.000000000068));
#759 = LINE('',#760,#761);
#760 = CARTESIAN_POINT('',(127.60000000002,1.2,-2.000000000068));
#761 = VECTOR('',#762,1.);
#762 = DIRECTION('',(0.,-1.,2.22044604925E-16));
#763 = ORIENTED_EDGE('',*,*,#764,.T.);
#764 = EDGE_CURVE('',#757,#406,#765,.T.);
#765 = CIRCLE('',#766,2.000000000045);
#766 = AXIS2_PLACEMENT_3D('',#767,#768,#769);
#767 = CARTESIAN_POINT('',(127.60000000004,-1.8,-2.278513386619E-11));
#768 = DIRECTION('',(0.,1.,-2.22044604925E-16));
#769 = DIRECTION('',(-1.,0.,0.));
#770 = ORIENTED_EDGE('',*,*,#413,.F.);
#771 = CYLINDRICAL_SURFACE('',#772,2.000000000045);
#772 = AXIS2_PLACEMENT_3D('',#773,#774,#775);
#773 = CARTESIAN_POINT('',(127.60000000004,1.2,-2.27858E-11));
#774 = DIRECTION('',(0.,1.,-2.22044604925E-16));
#775 = DIRECTION('',(-1.,0.,0.));
#776 = ADVANCED_FACE('',(#777),#819,.T.);
#777 = FACE_BOUND('',#778,.T.);
#778 = EDGE_LOOP('',(#779,#780,#788,#796,#802,#803,#812,#818));
#779 = ORIENTED_EDGE('',*,*,#405,.F.);
#780 = ORIENTED_EDGE('',*,*,#781,.T.);
#781 = EDGE_CURVE('',#398,#782,#784,.T.);
#782 = VERTEX_POINT('',#783);
#783 = CARTESIAN_POINT('',(82.12132034356,-1.8,-6.));
#784 = LINE('',#785,#786);
#785 = CARTESIAN_POINT('',(82.12132034356,-1.8,0.));
#786 = VECTOR('',#787,1.);
#787 = DIRECTION('',(-0.,-0.,-1.));
#788 = ORIENTED_EDGE('',*,*,#789,.T.);
#789 = EDGE_CURVE('',#782,#790,#792,.T.);
#790 = VERTEX_POINT('',#791);
#791 = CARTESIAN_POINT('',(144.3,-1.8,-6.));
#792 = LINE('',#793,#794);
#793 = CARTESIAN_POINT('',(82.12132034356,-1.8,-6.));
#794 = VECTOR('',#795,1.);
#795 = DIRECTION('',(1.,0.,0.));
#796 = ORIENTED_EDGE('',*,*,#797,.F.);
#797 = EDGE_CURVE('',#189,#790,#798,.T.);
#798 = LINE('',#799,#800);
#799 = CARTESIAN_POINT('',(144.3,-1.8,0.));
#800 = VECTOR('',#801,1.);
#801 = DIRECTION('',(-0.,-0.,-1.));
#802 = ORIENTED_EDGE('',*,*,#188,.F.);
#803 = ORIENTED_EDGE('',*,*,#804,.T.);
#804 = EDGE_CURVE('',#181,#805,#807,.T.);
#805 = VERTEX_POINT('',#806);
#806 = CARTESIAN_POINT('',(133.60000000002,-1.8,-2.000000000068));
#807 = CIRCLE('',#808,1.999999999977);
#808 = AXIS2_PLACEMENT_3D('',#809,#810,#811);
#809 = CARTESIAN_POINT('',(133.60000000002,-1.8,-9.076893386619E-11));
#810 = DIRECTION('',(0.,1.,-2.22044604925E-16));
#811 = DIRECTION('',(-1.,0.,0.));
#812 = ORIENTED_EDGE('',*,*,#813,.T.);
#813 = EDGE_CURVE('',#805,#757,#814,.T.);
#814 = LINE('',#815,#816);
#815 = CARTESIAN_POINT('',(107.86066017179,-1.8,-2.000000000068));
#816 = VECTOR('',#817,1.);
#817 = DIRECTION('',(-1.,0.,0.));
#818 = ORIENTED_EDGE('',*,*,#764,.T.);
#819 = PLANE('',#820);
#820 = AXIS2_PLACEMENT_3D('',#821,#822,#823);
#821 = CARTESIAN_POINT('',(82.12132034356,-1.8,0.));
#822 = DIRECTION('',(0.,-1.,0.));
#823 = DIRECTION('',(1.,0.,0.));
#824 = ADVANCED_FACE('',(#825),#843,.T.);
#825 = FACE_BOUND('',#826,.T.);
#826 = EDGE_LOOP('',(#827,#835,#841,#842));
#827 = ORIENTED_EDGE('',*,*,#828,.T.);
#828 = EDGE_CURVE('',#389,#829,#831,.T.);
#829 = VERTEX_POINT('',#830);
#830 = CARTESIAN_POINT('',(79.26066017178,1.06066017178,-6.));
#831 = LINE('',#832,#833);
#832 = CARTESIAN_POINT('',(79.26066017178,1.06066017178,0.));
#833 = VECTOR('',#834,1.);
#834 = DIRECTION('',(-0.,-0.,-1.));
#835 = ORIENTED_EDGE('',*,*,#836,.T.);
#836 = EDGE_CURVE('',#829,#782,#837,.T.);
#837 = LINE('',#838,#839);
#838 = CARTESIAN_POINT('',(79.26066017178,1.06066017178,-6.));
#839 = VECTOR('',#840,1.);
#840 = DIRECTION('',(0.707106781187,-0.707106781187,0.));
#841 = ORIENTED_EDGE('',*,*,#781,.F.);
#842 = ORIENTED_EDGE('',*,*,#397,.F.);
#843 = PLANE('',#844);
#844 = AXIS2_PLACEMENT_3D('',#845,#846,#847);
#845 = CARTESIAN_POINT('',(79.26066017178,1.06066017178,0.));
#846 = DIRECTION('',(-0.707106781187,-0.707106781187,0.));
#847 = DIRECTION('',(0.707106781187,-0.707106781187,0.));
#848 = ADVANCED_FACE('',(#849),#868,.F.);
#849 = FACE_BOUND('',#850,.F.);
#850 = EDGE_LOOP('',(#851,#852,#861,#867));
#851 = ORIENTED_EDGE('',*,*,#828,.T.);
#852 = ORIENTED_EDGE('',*,*,#853,.T.);
#853 = EDGE_CURVE('',#829,#854,#856,.T.);
#854 = VERTEX_POINT('',#855);
#855 = CARTESIAN_POINT('',(78.2,1.5,-6.));
#856 = CIRCLE('',#857,1.5);
#857 = AXIS2_PLACEMENT_3D('',#858,#859,#860);
#858 = CARTESIAN_POINT('',(78.2,0.,-6.));
#859 = DIRECTION('',(0.,0.,1.));
#860 = DIRECTION('',(-1.,-1.2E-16,0.));
#861 = ORIENTED_EDGE('',*,*,#862,.F.);
#862 = EDGE_CURVE('',#381,#854,#863,.T.);
#863 = LINE('',#864,#865);
#864 = CARTESIAN_POINT('',(78.2,1.5,0.));
#865 = VECTOR('',#866,1.);
#866 = DIRECTION('',(-0.,-0.,-1.));
#867 = ORIENTED_EDGE('',*,*,#388,.F.);
#868 = CYLINDRICAL_SURFACE('',#869,1.5);
#869 = AXIS2_PLACEMENT_3D('',#870,#871,#872);
#870 = CARTESIAN_POINT('',(78.2,0.,0.));
#871 = DIRECTION('',(0.,0.,1.));
#872 = DIRECTION('',(-1.,-1.2E-16,0.));
#873 = ADVANCED_FACE('',(#874),#892,.T.);
#874 = FACE_BOUND('',#875,.T.);
#875 = EDGE_LOOP('',(#876,#884,#890,#891));
#876 = ORIENTED_EDGE('',*,*,#877,.T.);
#877 = EDGE_CURVE('',#372,#878,#880,.T.);
#878 = VERTEX_POINT('',#879);
#879 = CARTESIAN_POINT('',(59.7,1.5,-6.));
#880 = LINE('',#881,#882);
#881 = CARTESIAN_POINT('',(59.7,1.5,0.));
#882 = VECTOR('',#883,1.);
#883 = DIRECTION('',(-0.,-0.,-1.));
#884 = ORIENTED_EDGE('',*,*,#885,.T.);
#885 = EDGE_CURVE('',#878,#854,#886,.T.);
#886 = LINE('',#887,#888);
#887 = CARTESIAN_POINT('',(59.7,1.5,-6.));
#888 = VECTOR('',#889,1.);
#889 = DIRECTION('',(1.,0.,0.));
#890 = ORIENTED_EDGE('',*,*,#862,.F.);
#891 = ORIENTED_EDGE('',*,*,#380,.F.);
#892 = PLANE('',#893);
#893 = AXIS2_PLACEMENT_3D('',#894,#895,#896);
#894 = CARTESIAN_POINT('',(59.7,1.5,0.));
#895 = DIRECTION('',(0.,-1.,0.));
#896 = DIRECTION('',(1.,0.,0.));
#897 = ADVANCED_FACE('',(#898),#917,.F.);
#898 = FACE_BOUND('',#899,.F.);
#899 = EDGE_LOOP('',(#900,#901,#910,#916));
#900 = ORIENTED_EDGE('',*,*,#877,.T.);
#901 = ORIENTED_EDGE('',*,*,#902,.T.);
#902 = EDGE_CURVE('',#878,#903,#905,.T.);
#903 = VERTEX_POINT('',#904);
#904 = CARTESIAN_POINT('',(58.63933982822,1.06066017178,-6.));
#905 = CIRCLE('',#906,1.5);
#906 = AXIS2_PLACEMENT_3D('',#907,#908,#909);
#907 = CARTESIAN_POINT('',(59.7,0.,-6.));
#908 = DIRECTION('',(0.,0.,1.));
#909 = DIRECTION('',(-0.707106781187,-0.707106781187,0.));
#910 = ORIENTED_EDGE('',*,*,#911,.F.);
#911 = EDGE_CURVE('',#364,#903,#912,.T.);
#912 = LINE('',#913,#914);
#913 = CARTESIAN_POINT('',(58.63933982822,1.06066017178,0.));
#914 = VECTOR('',#915,1.);
#915 = DIRECTION('',(-0.,-0.,-1.));
#916 = ORIENTED_EDGE('',*,*,#371,.F.);
#917 = CYLINDRICAL_SURFACE('',#918,1.5);
#918 = AXIS2_PLACEMENT_3D('',#919,#920,#921);
#919 = CARTESIAN_POINT('',(59.7,0.,0.));
#920 = DIRECTION('',(0.,0.,1.));
#921 = DIRECTION('',(-0.707106781187,-0.707106781187,0.));
#922 = ADVANCED_FACE('',(#923),#941,.T.);
#923 = FACE_BOUND('',#924,.T.);
#924 = EDGE_LOOP('',(#925,#933,#939,#940));
#925 = ORIENTED_EDGE('',*,*,#926,.T.);
#926 = EDGE_CURVE('',#356,#927,#929,.T.);
#927 = VERTEX_POINT('',#928);
#928 = CARTESIAN_POINT('',(53.57867965644,-4.,-6.));
#929 = LINE('',#930,#931);
#930 = CARTESIAN_POINT('',(53.57867965644,-4.,0.));
#931 = VECTOR('',#932,1.);
#932 = DIRECTION('',(-0.,-0.,-1.));
#933 = ORIENTED_EDGE('',*,*,#934,.T.);
#934 = EDGE_CURVE('',#927,#903,#935,.T.);
#935 = LINE('',#936,#937);
#936 = CARTESIAN_POINT('',(53.57867965644,-4.,-6.));
#937 = VECTOR('',#938,1.);
#938 = DIRECTION('',(0.707106781187,0.707106781187,0.));
#939 = ORIENTED_EDGE('',*,*,#911,.F.);
#940 = ORIENTED_EDGE('',*,*,#363,.F.);
#941 = PLANE('',#942);
#942 = AXIS2_PLACEMENT_3D('',#943,#944,#945);
#943 = CARTESIAN_POINT('',(53.57867965644,-4.,0.));
#944 = DIRECTION('',(0.707106781187,-0.707106781187,0.));
#945 = DIRECTION('',(0.707106781187,0.707106781187,0.));
#946 = ADVANCED_FACE('',(#947),#965,.T.);
#947 = FACE_BOUND('',#948,.T.);
#948 = EDGE_LOOP('',(#949,#957,#963,#964));
#949 = ORIENTED_EDGE('',*,*,#950,.T.);
#950 = EDGE_CURVE('',#347,#951,#953,.T.);
#951 = VERTEX_POINT('',#952);
#952 = CARTESIAN_POINT('',(41.,-4.,-6.));
#953 = LINE('',#954,#955);
#954 = CARTESIAN_POINT('',(41.,-4.,0.));
#955 = VECTOR('',#956,1.);
#956 = DIRECTION('',(-0.,-0.,-1.));
#957 = ORIENTED_EDGE('',*,*,#958,.T.);
#958 = EDGE_CURVE('',#951,#927,#959,.T.);
#959 = LINE('',#960,#961);
#960 = CARTESIAN_POINT('',(41.,-4.,-6.));
#961 = VECTOR('',#962,1.);
#962 = DIRECTION('',(1.,0.,0.));
#963 = ORIENTED_EDGE('',*,*,#926,.F.);
#964 = ORIENTED_EDGE('',*,*,#355,.F.);
#965 = PLANE('',#966);
#966 = AXIS2_PLACEMENT_3D('',#967,#968,#969);
#967 = CARTESIAN_POINT('',(41.,-4.,0.));
#968 = DIRECTION('',(0.,-1.,0.));
#969 = DIRECTION('',(1.,0.,0.));
#970 = ADVANCED_FACE('',(#971),#990,.F.);
#971 = FACE_BOUND('',#972,.F.);
#972 = EDGE_LOOP('',(#973,#974,#983,#989));
#973 = ORIENTED_EDGE('',*,*,#950,.T.);
#974 = ORIENTED_EDGE('',*,*,#975,.T.);
#975 = EDGE_CURVE('',#951,#976,#978,.T.);
#976 = VERTEX_POINT('',#977);
#977 = CARTESIAN_POINT('',(39.917919018454,-4.461202257715,-6.));
#978 = CIRCLE('',#979,1.5);
#979 = AXIS2_PLACEMENT_3D('',#980,#981,#982);
#980 = CARTESIAN_POINT('',(41.,-5.5,-6.));
#981 = DIRECTION('',(0.,0.,1.));
#982 = DIRECTION('',(-0.69253182819,-0.721387321031,0.));
#983 = ORIENTED_EDGE('',*,*,#984,.F.);
#984 = EDGE_CURVE('',#339,#976,#985,.T.);
#985 = LINE('',#986,#987);
#986 = CARTESIAN_POINT('',(39.917919018454,-4.461202257715,0.));
#987 = VECTOR('',#988,1.);
#988 = DIRECTION('',(-0.,-0.,-1.));
#989 = ORIENTED_EDGE('',*,*,#346,.F.);
#990 = CYLINDRICAL_SURFACE('',#991,1.5);
#991 = AXIS2_PLACEMENT_3D('',#992,#993,#994);
#992 = CARTESIAN_POINT('',(41.,-5.5,0.));
#993 = DIRECTION('',(0.,0.,1.));
#994 = DIRECTION('',(-0.69253182819,-0.721387321031,0.));
#995 = ADVANCED_FACE('',(#996),#1014,.T.);
#996 = FACE_BOUND('',#997,.T.);
#997 = EDGE_LOOP('',(#998,#1006,#1012,#1013));
#998 = ORIENTED_EDGE('',*,*,#999,.T.);
#999 = EDGE_CURVE('',#331,#1000,#1002,.T.);
#1000 = VERTEX_POINT('',#1001);
#1001 = CARTESIAN_POINT('',(28.36067318586,-16.5,-6.));
#1002 = LINE('',#1003,#1004);
#1003 = CARTESIAN_POINT('',(28.36067318586,-16.5,0.));
#1004 = VECTOR('',#1005,1.);
#1005 = DIRECTION('',(-0.,-0.,-1.));
#1006 = ORIENTED_EDGE('',*,*,#1007,.T.);
#1007 = EDGE_CURVE('',#1000,#976,#1008,.T.);
#1008 = LINE('',#1009,#1010);
#1009 = CARTESIAN_POINT('',(28.36067318586,-16.5,-6.));
#1010 = VECTOR('',#1011,1.);
#1011 = DIRECTION('',(0.69253182819,0.721387321031,0.));
#1012 = ORIENTED_EDGE('',*,*,#984,.F.);
#1013 = ORIENTED_EDGE('',*,*,#338,.F.);
#1014 = PLANE('',#1015);
#1015 = AXIS2_PLACEMENT_3D('',#1016,#1017,#1018);
#1016 = CARTESIAN_POINT('',(28.36067318586,-16.5,0.));
#1017 = DIRECTION('',(0.721387321031,-0.69253182819,0.));
#1018 = DIRECTION('',(0.69253182819,0.721387321031,0.));
#1019 = ADVANCED_FACE('',(#1020),#1038,.F.);
#1020 = FACE_BOUND('',#1021,.F.);
#1021 = EDGE_LOOP('',(#1022,#1023,#1031,#1037));
#1022 = ORIENTED_EDGE('',*,*,#999,.T.);
#1023 = ORIENTED_EDGE('',*,*,#1024,.T.);
#1024 = EDGE_CURVE('',#1000,#1025,#1027,.T.);
#1025 = VERTEX_POINT('',#1026);
#1026 = CARTESIAN_POINT('',(0.,-16.5,-6.));
#1027 = LINE('',#1028,#1029);
#1028 = CARTESIAN_POINT('',(28.36067318586,-16.5,-6.));
#1029 = VECTOR('',#1030,1.);
#1030 = DIRECTION('',(-1.,0.,0.));
#1031 = ORIENTED_EDGE('',*,*,#1032,.F.);
#1032 = EDGE_CURVE('',#322,#1025,#1033,.T.);
#1033 = LINE('',#1034,#1035);
#1034 = CARTESIAN_POINT('',(0.,-16.5,0.));
#1035 = VECTOR('',#1036,1.);
#1036 = DIRECTION('',(-0.,-0.,-1.));
#1037 = ORIENTED_EDGE('',*,*,#330,.F.);
#1038 = PLANE('',#1039);
#1039 = AXIS2_PLACEMENT_3D('',#1040,#1041,#1042);
#1040 = CARTESIAN_POINT('',(28.36067318586,-16.5,0.));
#1041 = DIRECTION('',(0.,1.,0.));
#1042 = DIRECTION('',(-1.,0.,0.));
#1043 = ADVANCED_FACE('',(#1044),#1063,.F.);
#1044 = FACE_BOUND('',#1045,.F.);
#1045 = EDGE_LOOP('',(#1046,#1047,#1056,#1062));
#1046 = ORIENTED_EDGE('',*,*,#1032,.T.);
#1047 = ORIENTED_EDGE('',*,*,#1048,.T.);
#1048 = EDGE_CURVE('',#1025,#1049,#1051,.T.);
#1049 = VERTEX_POINT('',#1050);
#1050 = CARTESIAN_POINT('',(-1.5,-18.,-6.));
#1051 = CIRCLE('',#1052,1.5);
#1052 = AXIS2_PLACEMENT_3D('',#1053,#1054,#1055);
#1053 = CARTESIAN_POINT('',(0.,-18.,-6.));
#1054 = DIRECTION('',(-0.,0.,1.));
#1055 = DIRECTION('',(1.1E-16,-1.,0.));
#1056 = ORIENTED_EDGE('',*,*,#1057,.F.);
#1057 = EDGE_CURVE('',#314,#1049,#1058,.T.);
#1058 = LINE('',#1059,#1060);
#1059 = CARTESIAN_POINT('',(-1.5,-18.,0.));
#1060 = VECTOR('',#1061,1.);
#1061 = DIRECTION('',(-0.,-0.,-1.));
#1062 = ORIENTED_EDGE('',*,*,#321,.F.);
#1063 = CYLINDRICAL_SURFACE('',#1064,1.5);
#1064 = AXIS2_PLACEMENT_3D('',#1065,#1066,#1067);
#1065 = CARTESIAN_POINT('',(0.,-18.,0.));
#1066 = DIRECTION('',(0.,0.,1.));
#1067 = DIRECTION('',(1.1E-16,-1.,0.));
#1068 = ADVANCED_FACE('',(#1069),#1087,.F.);
#1069 = FACE_BOUND('',#1070,.F.);
#1070 = EDGE_LOOP('',(#1071,#1072,#1080,#1086));
#1071 = ORIENTED_EDGE('',*,*,#1057,.T.);
#1072 = ORIENTED_EDGE('',*,*,#1073,.T.);
#1073 = EDGE_CURVE('',#1049,#1074,#1076,.T.);
#1074 = VERTEX_POINT('',#1075);
#1075 = CARTESIAN_POINT('',(-1.5,-96.3,-6.));
#1076 = LINE('',#1077,#1078);
#1077 = CARTESIAN_POINT('',(-1.5,-18.,-6.));
#1078 = VECTOR('',#1079,1.);
#1079 = DIRECTION('',(0.,-1.,0.));
#1080 = ORIENTED_EDGE('',*,*,#1081,.F.);
#1081 = EDGE_CURVE('',#305,#1074,#1082,.T.);
#1082 = LINE('',#1083,#1084);
#1083 = CARTESIAN_POINT('',(-1.5,-96.3,0.));
#1084 = VECTOR('',#1085,1.);
#1085 = DIRECTION('',(-0.,-0.,-1.));
#1086 = ORIENTED_EDGE('',*,*,#313,.F.);
#1087 = PLANE('',#1088);
#1088 = AXIS2_PLACEMENT_3D('',#1089,#1090,#1091);
#1089 = CARTESIAN_POINT('',(-1.5,-18.,0.));
#1090 = DIRECTION('',(-1.,0.,0.));
#1091 = DIRECTION('',(0.,-1.,0.));
#1092 = ADVANCED_FACE('',(#1093),#1112,.F.);
#1093 = FACE_BOUND('',#1094,.F.);
#1094 = EDGE_LOOP('',(#1095,#1096,#1105,#1111));
#1095 = ORIENTED_EDGE('',*,*,#1081,.T.);
#1096 = ORIENTED_EDGE('',*,*,#1097,.T.);
#1097 = EDGE_CURVE('',#1074,#1098,#1100,.T.);
#1098 = VERTEX_POINT('',#1099);
#1099 = CARTESIAN_POINT('',(0.,-97.8,-6.));
#1100 = CIRCLE('',#1101,1.5);
#1101 = AXIS2_PLACEMENT_3D('',#1102,#1103,#1104);
#1102 = CARTESIAN_POINT('',(0.,-96.3,-6.));
#1103 = DIRECTION('',(0.,0.,1.));
#1104 = DIRECTION('',(1.,0.,0.));
#1105 = ORIENTED_EDGE('',*,*,#1106,.F.);
#1106 = EDGE_CURVE('',#297,#1098,#1107,.T.);
#1107 = LINE('',#1108,#1109);
#1108 = CARTESIAN_POINT('',(0.,-97.8,0.));
#1109 = VECTOR('',#1110,1.);
#1110 = DIRECTION('',(-0.,-0.,-1.));
#1111 = ORIENTED_EDGE('',*,*,#304,.F.);
#1112 = CYLINDRICAL_SURFACE('',#1113,1.5);
#1113 = AXIS2_PLACEMENT_3D('',#1114,#1115,#1116);
#1114 = CARTESIAN_POINT('',(0.,-96.3,0.));
#1115 = DIRECTION('',(0.,0.,1.));
#1116 = DIRECTION('',(1.,0.,0.));
#1117 = ADVANCED_FACE('',(#1118),#1136,.F.);
#1118 = FACE_BOUND('',#1119,.F.);
#1119 = EDGE_LOOP('',(#1120,#1121,#1129,#1135));
#1120 = ORIENTED_EDGE('',*,*,#1106,.T.);
#1121 = ORIENTED_EDGE('',*,*,#1122,.T.);
#1122 = EDGE_CURVE('',#1098,#1123,#1125,.T.);
#1123 = VERTEX_POINT('',#1124);
#1124 = CARTESIAN_POINT('',(40.5,-97.8,-6.));
#1125 = LINE('',#1126,#1127);
#1126 = CARTESIAN_POINT('',(-2.8E-16,-97.8,-6.));
#1127 = VECTOR('',#1128,1.);
#1128 = DIRECTION('',(1.,0.,0.));
#1129 = ORIENTED_EDGE('',*,*,#1130,.F.);
#1130 = EDGE_CURVE('',#289,#1123,#1131,.T.);
#1131 = LINE('',#1132,#1133);
#1132 = CARTESIAN_POINT('',(40.5,-97.8,0.));
#1133 = VECTOR('',#1134,1.);
#1134 = DIRECTION('',(-0.,-0.,-1.));
#1135 = ORIENTED_EDGE('',*,*,#296,.F.);
#1136 = PLANE('',#1137);
#1137 = AXIS2_PLACEMENT_3D('',#1138,#1139,#1140);
#1138 = CARTESIAN_POINT('',(-2.8E-16,-97.8,0.));
#1139 = DIRECTION('',(0.,-1.,0.));
#1140 = DIRECTION('',(1.,0.,0.));
#1141 = ADVANCED_FACE('',(#1142),#1160,.F.);
#1142 = FACE_BOUND('',#1143,.F.);
#1143 = EDGE_LOOP('',(#1144,#1145,#1153,#1159));
#1144 = ORIENTED_EDGE('',*,*,#1130,.T.);
#1145 = ORIENTED_EDGE('',*,*,#1146,.T.);
#1146 = EDGE_CURVE('',#1123,#1147,#1149,.T.);
#1147 = VERTEX_POINT('',#1148);
#1148 = CARTESIAN_POINT('',(40.5,-105.1,-6.));
#1149 = LINE('',#1150,#1151);
#1150 = CARTESIAN_POINT('',(40.5,-97.8,-6.));
#1151 = VECTOR('',#1152,1.);
#1152 = DIRECTION('',(0.,-1.,0.));
#1153 = ORIENTED_EDGE('',*,*,#1154,.F.);
#1154 = EDGE_CURVE('',#280,#1147,#1155,.T.);
#1155 = LINE('',#1156,#1157);
#1156 = CARTESIAN_POINT('',(40.5,-105.1,0.));
#1157 = VECTOR('',#1158,1.);
#1158 = DIRECTION('',(-0.,-0.,-1.));
#1159 = ORIENTED_EDGE('',*,*,#288,.F.);
#1160 = PLANE('',#1161);
#1161 = AXIS2_PLACEMENT_3D('',#1162,#1163,#1164);
#1162 = CARTESIAN_POINT('',(40.5,-97.8,0.));
#1163 = DIRECTION('',(-1.,0.,0.));
#1164 = DIRECTION('',(0.,-1.,0.));
#1165 = ADVANCED_FACE('',(#1166),#1185,.F.);
#1166 = FACE_BOUND('',#1167,.F.);
#1167 = EDGE_LOOP('',(#1168,#1169,#1178,#1184));
#1168 = ORIENTED_EDGE('',*,*,#1154,.T.);
#1169 = ORIENTED_EDGE('',*,*,#1170,.T.);
#1170 = EDGE_CURVE('',#1147,#1171,#1173,.T.);
#1171 = VERTEX_POINT('',#1172);
#1172 = CARTESIAN_POINT('',(42.,-106.6,-6.));
#1173 = CIRCLE('',#1174,1.5);
#1174 = AXIS2_PLACEMENT_3D('',#1175,#1176,#1177);
#1175 = CARTESIAN_POINT('',(42.,-105.1,-6.));
#1176 = DIRECTION('',(0.,0.,1.));
#1177 = DIRECTION('',(1.,0.,0.));
#1178 = ORIENTED_EDGE('',*,*,#1179,.F.);
#1179 = EDGE_CURVE('',#272,#1171,#1180,.T.);
#1180 = LINE('',#1181,#1182);
#1181 = CARTESIAN_POINT('',(42.,-106.6,0.));
#1182 = VECTOR('',#1183,1.);
#1183 = DIRECTION('',(-0.,-0.,-1.));
#1184 = ORIENTED_EDGE('',*,*,#279,.F.);
#1185 = CYLINDRICAL_SURFACE('',#1186,1.5);
#1186 = AXIS2_PLACEMENT_3D('',#1187,#1188,#1189);
#1187 = CARTESIAN_POINT('',(42.,-105.1,0.));
#1188 = DIRECTION('',(0.,0.,1.));
#1189 = DIRECTION('',(1.,0.,0.));
#1190 = ADVANCED_FACE('',(#1191),#1209,.F.);
#1191 = FACE_BOUND('',#1192,.F.);
#1192 = EDGE_LOOP('',(#1193,#1194,#1202,#1208));
#1193 = ORIENTED_EDGE('',*,*,#1179,.T.);
#1194 = ORIENTED_EDGE('',*,*,#1195,.T.);
#1195 = EDGE_CURVE('',#1171,#1196,#1198,.T.);
#1196 = VERTEX_POINT('',#1197);
#1197 = CARTESIAN_POINT('',(82.376471617459,-106.6,-6.));
#1198 = LINE('',#1199,#1200);
#1199 = CARTESIAN_POINT('',(42.,-106.6,-6.));
#1200 = VECTOR('',#1201,1.);
#1201 = DIRECTION('',(1.,0.,0.));
#1202 = ORIENTED_EDGE('',*,*,#1203,.F.);
#1203 = EDGE_CURVE('',#264,#1196,#1204,.T.);
#1204 = LINE('',#1205,#1206);
#1205 = CARTESIAN_POINT('',(82.376471617459,-106.6,0.));
#1206 = VECTOR('',#1207,1.);
#1207 = DIRECTION('',(-0.,-0.,-1.));
#1208 = ORIENTED_EDGE('',*,*,#271,.F.);
#1209 = PLANE('',#1210);
#1210 = AXIS2_PLACEMENT_3D('',#1211,#1212,#1213);
#1211 = CARTESIAN_POINT('',(42.,-106.6,0.));
#1212 = DIRECTION('',(0.,-1.,0.));
#1213 = DIRECTION('',(1.,0.,0.));
#1214 = ADVANCED_FACE('',(#1215),#1233,.T.);
#1215 = FACE_BOUND('',#1216,.T.);
#1216 = EDGE_LOOP('',(#1217,#1225,#1231,#1232));
#1217 = ORIENTED_EDGE('',*,*,#1218,.T.);
#1218 = EDGE_CURVE('',#256,#1219,#1221,.T.);
#1219 = VERTEX_POINT('',#1220);
#1220 = CARTESIAN_POINT('',(102.01629446671,-109.8568550453,-6.));
#1221 = LINE('',#1222,#1223);
#1222 = CARTESIAN_POINT('',(102.01629446671,-109.8568550453,0.));
#1223 = VECTOR('',#1224,1.);
#1224 = DIRECTION('',(-0.,-0.,-1.));
#1225 = ORIENTED_EDGE('',*,*,#1226,.T.);
#1226 = EDGE_CURVE('',#1219,#1196,#1227,.T.);
#1227 = LINE('',#1228,#1229);
#1228 = CARTESIAN_POINT('',(102.01629446671,-109.8568550453,-6.));
#1229 = VECTOR('',#1230,1.);
#1230 = DIRECTION('',(-0.986527580702,0.163595025946,0.));
#1231 = ORIENTED_EDGE('',*,*,#1203,.F.);
#1232 = ORIENTED_EDGE('',*,*,#263,.F.);
#1233 = PLANE('',#1234);
#1234 = AXIS2_PLACEMENT_3D('',#1235,#1236,#1237);
#1235 = CARTESIAN_POINT('',(102.01629446671,-109.8568550453,0.));
#1236 = DIRECTION('',(0.163595025946,0.986527580702,0.));
#1237 = DIRECTION('',(-0.986527580702,0.163595025946,0.));
#1238 = ADVANCED_FACE('',(#1239),#1257,.T.);
#1239 = FACE_BOUND('',#1240,.T.);
#1240 = EDGE_LOOP('',(#1241,#1249,#1255,#1256));
#1241 = ORIENTED_EDGE('',*,*,#1242,.T.);
#1242 = EDGE_CURVE('',#248,#1243,#1245,.T.);
#1243 = VERTEX_POINT('',#1244);
#1244 = CARTESIAN_POINT('',(122.24826023624,-117.2587937415,-6.));
#1245 = LINE('',#1246,#1247);
#1246 = CARTESIAN_POINT('',(122.24826023624,-117.2587937415,0.));
#1247 = VECTOR('',#1248,1.);
#1248 = DIRECTION('',(-0.,-0.,-1.));
#1249 = ORIENTED_EDGE('',*,*,#1250,.T.);
#1250 = EDGE_CURVE('',#1243,#1219,#1251,.T.);
#1251 = LINE('',#1252,#1253);
#1252 = CARTESIAN_POINT('',(122.24826023624,-117.2587937415,-6.));
#1253 = VECTOR('',#1254,1.);
#1254 = DIRECTION('',(-0.93912285212,0.343581531264,0.));
#1255 = ORIENTED_EDGE('',*,*,#1218,.F.);
#1256 = ORIENTED_EDGE('',*,*,#255,.F.);
#1257 = PLANE('',#1258);
#1258 = AXIS2_PLACEMENT_3D('',#1259,#1260,#1261);
#1259 = CARTESIAN_POINT('',(122.24826023624,-117.2587937415,0.));
#1260 = DIRECTION('',(0.343581531264,0.93912285212,0.));
#1261 = DIRECTION('',(-0.93912285212,0.343581531264,0.));
#1262 = ADVANCED_FACE('',(#1263),#1281,.T.);
#1263 = FACE_BOUND('',#1264,.T.);
#1264 = EDGE_LOOP('',(#1265,#1273,#1279,#1280));
#1265 = ORIENTED_EDGE('',*,*,#1266,.T.);
#1266 = EDGE_CURVE('',#239,#1267,#1269,.T.);
#1267 = VERTEX_POINT('',#1268);
#1268 = CARTESIAN_POINT('',(139.82399450124,-127.8836726474,-6.));
#1269 = LINE('',#1270,#1271);
#1270 = CARTESIAN_POINT('',(139.82399450124,-127.8836726474,0.));
#1271 = VECTOR('',#1272,1.);
#1272 = DIRECTION('',(-0.,-0.,-1.));
#1273 = ORIENTED_EDGE('',*,*,#1274,.T.);
#1274 = EDGE_CURVE('',#1267,#1243,#1275,.T.);
#1275 = LINE('',#1276,#1277);
#1276 = CARTESIAN_POINT('',(139.82399450124,-127.8836726474,-6.));
#1277 = VECTOR('',#1278,1.);
#1278 = DIRECTION('',(-0.855781764988,0.517336999174,0.));
#1279 = ORIENTED_EDGE('',*,*,#1242,.F.);
#1280 = ORIENTED_EDGE('',*,*,#247,.F.);
#1281 = PLANE('',#1282);
#1282 = AXIS2_PLACEMENT_3D('',#1283,#1284,#1285);
#1283 = CARTESIAN_POINT('',(139.82399450124,-127.8836726474,0.));
#1284 = DIRECTION('',(0.517336999174,0.855781764988,0.));
#1285 = DIRECTION('',(-0.855781764988,0.517336999174,0.));
#1286 = ADVANCED_FACE('',(#1287),#1306,.F.);
#1287 = FACE_BOUND('',#1288,.F.);
#1288 = EDGE_LOOP('',(#1289,#1290,#1299,#1305));
#1289 = ORIENTED_EDGE('',*,*,#1266,.T.);
#1290 = ORIENTED_EDGE('',*,*,#1291,.T.);
#1291 = EDGE_CURVE('',#1267,#1292,#1294,.T.);
#1292 = VERTEX_POINT('',#1293);
#1293 = CARTESIAN_POINT('',(141.91828014749,-127.3156377943,-6.));
#1294 = CIRCLE('',#1295,1.5);
#1295 = AXIS2_PLACEMENT_3D('',#1296,#1297,#1298);
#1296 = CARTESIAN_POINT('',(140.6,-126.6,-6.));
#1297 = DIRECTION('',(0.,-0.,1.));
#1298 = DIRECTION('',(0.477091862904,0.878853431666,0.));
#1299 = ORIENTED_EDGE('',*,*,#1300,.F.);
#1300 = EDGE_CURVE('',#231,#1292,#1301,.T.);
#1301 = LINE('',#1302,#1303);
#1302 = CARTESIAN_POINT('',(141.91828014749,-127.3156377943,0.));
#1303 = VECTOR('',#1304,1.);
#1304 = DIRECTION('',(-0.,-0.,-1.));
#1305 = ORIENTED_EDGE('',*,*,#238,.F.);
#1306 = CYLINDRICAL_SURFACE('',#1307,1.5);
#1307 = AXIS2_PLACEMENT_3D('',#1308,#1309,#1310);
#1308 = CARTESIAN_POINT('',(140.6,-126.6,0.));
#1309 = DIRECTION('',(0.,0.,1.));
#1310 = DIRECTION('',(0.477091862904,0.878853431666,0.));
#1311 = ADVANCED_FACE('',(#1312),#1330,.T.);
#1312 = FACE_BOUND('',#1313,.T.);
#1313 = EDGE_LOOP('',(#1314,#1322,#1328,#1329));
#1314 = ORIENTED_EDGE('',*,*,#1315,.T.);
#1315 = EDGE_CURVE('',#222,#1316,#1318,.T.);
#1316 = VERTEX_POINT('',#1317);
#1317 = CARTESIAN_POINT('',(151.41828014749,-109.8156377943,-6.));
#1318 = LINE('',#1319,#1320);
#1319 = CARTESIAN_POINT('',(151.41828014749,-109.8156377943,0.));
#1320 = VECTOR('',#1321,1.);
#1321 = DIRECTION('',(-0.,-0.,-1.));
#1322 = ORIENTED_EDGE('',*,*,#1323,.T.);
#1323 = EDGE_CURVE('',#1316,#1292,#1324,.T.);
#1324 = LINE('',#1325,#1326);
#1325 = CARTESIAN_POINT('',(151.41828014749,-109.8156377943,-6.));
#1326 = VECTOR('',#1327,1.);
#1327 = DIRECTION('',(-0.477091862904,-0.878853431666,0.));
#1328 = ORIENTED_EDGE('',*,*,#1300,.F.);
#1329 = ORIENTED_EDGE('',*,*,#230,.F.);
#1330 = PLANE('',#1331);
#1331 = AXIS2_PLACEMENT_3D('',#1332,#1333,#1334);
#1332 = CARTESIAN_POINT('',(151.41828014749,-109.8156377943,0.));
#1333 = DIRECTION('',(-0.878853431666,0.477091862904,0.));
#1334 = DIRECTION('',(-0.477091862904,-0.878853431666,0.));
#1335 = ADVANCED_FACE('',(#1336),#1355,.F.);
#1336 = FACE_BOUND('',#1337,.F.);
#1337 = EDGE_LOOP('',(#1338,#1339,#1348,#1354));
#1338 = ORIENTED_EDGE('',*,*,#1315,.T.);
#1339 = ORIENTED_EDGE('',*,*,#1340,.T.);
#1340 = EDGE_CURVE('',#1316,#1341,#1343,.T.);
#1341 = VERTEX_POINT('',#1342);
#1342 = CARTESIAN_POINT('',(150.92203938596,-107.8453083056,-6.));
#1343 = CIRCLE('',#1344,1.5);
#1344 = AXIS2_PLACEMENT_3D('',#1345,#1346,#1347);
#1345 = CARTESIAN_POINT('',(150.1,-109.1,-6.));
#1346 = DIRECTION('',(0.,0.,1.));
#1347 = DIRECTION('',(-0.83646112958,0.548026257311,0.));
#1348 = ORIENTED_EDGE('',*,*,#1349,.F.);
#1349 = EDGE_CURVE('',#214,#1341,#1350,.T.);
#1350 = LINE('',#1351,#1352);
#1351 = CARTESIAN_POINT('',(150.92203938596,-107.8453083056,0.));
#1352 = VECTOR('',#1353,1.);
#1353 = DIRECTION('',(-0.,-0.,-1.));
#1354 = ORIENTED_EDGE('',*,*,#221,.F.);
#1355 = CYLINDRICAL_SURFACE('',#1356,1.5);
#1356 = AXIS2_PLACEMENT_3D('',#1357,#1358,#1359);
#1357 = CARTESIAN_POINT('',(150.1,-109.1,0.));
#1358 = DIRECTION('',(0.,0.,1.));
#1359 = DIRECTION('',(-0.83646112958,0.548026257311,0.));
#1360 = ADVANCED_FACE('',(#1361),#1379,.T.);
#1361 = FACE_BOUND('',#1362,.T.);
#1362 = EDGE_LOOP('',(#1363,#1371,#1377,#1378));
#1363 = ORIENTED_EDGE('',*,*,#1364,.T.);
#1364 = EDGE_CURVE('',#206,#1365,#1367,.T.);
#1365 = VERTEX_POINT('',#1366);
#1366 = CARTESIAN_POINT('',(145.8,-104.4894893975,-6.));
#1367 = LINE('',#1368,#1369);
#1368 = CARTESIAN_POINT('',(145.8,-104.4894893975,0.));
#1369 = VECTOR('',#1370,1.);
#1370 = DIRECTION('',(-0.,-0.,-1.));
#1371 = ORIENTED_EDGE('',*,*,#1372,.T.);
#1372 = EDGE_CURVE('',#1365,#1341,#1373,.T.);
#1373 = LINE('',#1374,#1375);
#1374 = CARTESIAN_POINT('',(145.8,-104.4894893975,-6.));
#1375 = VECTOR('',#1376,1.);
#1376 = DIRECTION('',(0.83646112958,-0.548026257311,0.));
#1377 = ORIENTED_EDGE('',*,*,#1349,.F.);
#1378 = ORIENTED_EDGE('',*,*,#213,.F.);
#1379 = PLANE('',#1380);
#1380 = AXIS2_PLACEMENT_3D('',#1381,#1382,#1383);
#1381 = CARTESIAN_POINT('',(145.8,-104.4894893975,0.));
#1382 = DIRECTION('',(-0.548026257311,-0.83646112958,0.));
#1383 = DIRECTION('',(0.83646112958,-0.548026257311,0.));
#1384 = ADVANCED_FACE('',(#1385),#1471,.T.);
#1385 = FACE_BOUND('',#1386,.T.);
#1386 = EDGE_LOOP('',(#1387,#1388,#1396,#1404,#1413,#1421,#1430,#1438,
    #1447,#1455,#1464,#1470));
#1387 = ORIENTED_EDGE('',*,*,#205,.F.);
#1388 = ORIENTED_EDGE('',*,*,#1389,.T.);
#1389 = EDGE_CURVE('',#197,#1390,#1392,.T.);
#1390 = VERTEX_POINT('',#1391);
#1391 = CARTESIAN_POINT('',(145.8,-3.3,-6.));
#1392 = LINE('',#1393,#1394);
#1393 = CARTESIAN_POINT('',(145.8,-3.3,0.));
#1394 = VECTOR('',#1395,1.);
#1395 = DIRECTION('',(-0.,-0.,-1.));
#1396 = ORIENTED_EDGE('',*,*,#1397,.T.);
#1397 = EDGE_CURVE('',#1390,#1398,#1400,.T.);
#1398 = VERTEX_POINT('',#1399);
#1399 = CARTESIAN_POINT('',(145.8,-54.28013158464,-6.));
#1400 = LINE('',#1401,#1402);
#1401 = CARTESIAN_POINT('',(145.8,-3.3,-6.));
#1402 = VECTOR('',#1403,1.);
#1403 = DIRECTION('',(0.,-1.,0.));
#1404 = ORIENTED_EDGE('',*,*,#1405,.T.);
#1405 = EDGE_CURVE('',#1398,#1406,#1408,.T.);
#1406 = VERTEX_POINT('',#1407);
#1407 = CARTESIAN_POINT('',(145.8,-53.8,-4.7));
#1408 = CIRCLE('',#1409,2.);
#1409 = AXIS2_PLACEMENT_3D('',#1410,#1411,#1412);
#1410 = CARTESIAN_POINT('',(145.8,-55.8,-4.7));
#1411 = DIRECTION('',(1.,0.,0.));
#1412 = DIRECTION('',(0.,1.,0.));
#1413 = ORIENTED_EDGE('',*,*,#1414,.F.);
#1414 = EDGE_CURVE('',#1415,#1406,#1417,.T.);
#1415 = VERTEX_POINT('',#1416);
#1416 = CARTESIAN_POINT('',(145.8,-53.8,-3.7));
#1417 = LINE('',#1418,#1419);
#1418 = CARTESIAN_POINT('',(145.8,-53.8,-1.85));
#1419 = VECTOR('',#1420,1.);
#1420 = DIRECTION('',(-0.,-0.,-1.));
#1421 = ORIENTED_EDGE('',*,*,#1422,.T.);
#1422 = EDGE_CURVE('',#1415,#1423,#1425,.T.);
#1423 = VERTEX_POINT('',#1424);
#1424 = CARTESIAN_POINT('',(145.8,-55.8,-1.7));
#1425 = CIRCLE('',#1426,2.);
#1426 = AXIS2_PLACEMENT_3D('',#1427,#1428,#1429);
#1427 = CARTESIAN_POINT('',(145.8,-55.8,-3.7));
#1428 = DIRECTION('',(1.,0.,0.));
#1429 = DIRECTION('',(0.,1.,0.));
#1430 = ORIENTED_EDGE('',*,*,#1431,.F.);
#1431 = EDGE_CURVE('',#1432,#1423,#1434,.T.);
#1432 = VERTEX_POINT('',#1433);
#1433 = CARTESIAN_POINT('',(145.8,-61.8,-1.7));
#1434 = LINE('',#1435,#1436);
#1435 = CARTESIAN_POINT('',(145.8,-32.55,-1.7));
#1436 = VECTOR('',#1437,1.);
#1437 = DIRECTION('',(0.,1.,0.));
#1438 = ORIENTED_EDGE('',*,*,#1439,.T.);
#1439 = EDGE_CURVE('',#1432,#1440,#1442,.T.);
#1440 = VERTEX_POINT('',#1441);
#1441 = CARTESIAN_POINT('',(145.8,-63.8,-3.7));
#1442 = CIRCLE('',#1443,2.);
#1443 = AXIS2_PLACEMENT_3D('',#1444,#1445,#1446);
#1444 = CARTESIAN_POINT('',(145.8,-61.8,-3.7));
#1445 = DIRECTION('',(1.,0.,0.));
#1446 = DIRECTION('',(0.,1.,0.));
#1447 = ORIENTED_EDGE('',*,*,#1448,.T.);
#1448 = EDGE_CURVE('',#1440,#1449,#1451,.T.);
#1449 = VERTEX_POINT('',#1450);
#1450 = CARTESIAN_POINT('',(145.8,-63.8,-4.7));
#1451 = LINE('',#1452,#1453);
#1452 = CARTESIAN_POINT('',(145.8,-63.8,-1.85));
#1453 = VECTOR('',#1454,1.);
#1454 = DIRECTION('',(-0.,-0.,-1.));
#1455 = ORIENTED_EDGE('',*,*,#1456,.T.);
#1456 = EDGE_CURVE('',#1449,#1457,#1459,.T.);
#1457 = VERTEX_POINT('',#1458);
#1458 = CARTESIAN_POINT('',(145.8,-63.31986841535,-6.));
#1459 = CIRCLE('',#1460,2.);
#1460 = AXIS2_PLACEMENT_3D('',#1461,#1462,#1463);
#1461 = CARTESIAN_POINT('',(145.8,-61.8,-4.7));
#1462 = DIRECTION('',(1.,0.,0.));
#1463 = DIRECTION('',(0.,1.,0.));
#1464 = ORIENTED_EDGE('',*,*,#1465,.T.);
#1465 = EDGE_CURVE('',#1457,#1365,#1466,.T.);
#1466 = LINE('',#1467,#1468);
#1467 = CARTESIAN_POINT('',(145.8,-3.3,-6.));
#1468 = VECTOR('',#1469,1.);
#1469 = DIRECTION('',(0.,-1.,0.));
#1470 = ORIENTED_EDGE('',*,*,#1364,.F.);
#1471 = PLANE('',#1472);
#1472 = AXIS2_PLACEMENT_3D('',#1473,#1474,#1475);
#1473 = CARTESIAN_POINT('',(145.8,-3.3,0.));
#1474 = DIRECTION('',(-1.,0.,0.));
#1475 = DIRECTION('',(0.,-1.,0.));
#1476 = ADVANCED_FACE('',(#1477),#1489,.F.);
#1477 = FACE_BOUND('',#1478,.F.);
#1478 = EDGE_LOOP('',(#1479,#1480,#1487,#1488));
#1479 = ORIENTED_EDGE('',*,*,#1389,.T.);
#1480 = ORIENTED_EDGE('',*,*,#1481,.T.);
#1481 = EDGE_CURVE('',#1390,#790,#1482,.T.);
#1482 = CIRCLE('',#1483,1.5);
#1483 = AXIS2_PLACEMENT_3D('',#1484,#1485,#1486);
#1484 = CARTESIAN_POINT('',(144.3,-3.3,-6.));
#1485 = DIRECTION('',(0.,0.,1.));
#1486 = DIRECTION('',(-1.,-1.2E-16,0.));
#1487 = ORIENTED_EDGE('',*,*,#797,.F.);
#1488 = ORIENTED_EDGE('',*,*,#196,.F.);
#1489 = CYLINDRICAL_SURFACE('',#1490,1.5);
#1490 = AXIS2_PLACEMENT_3D('',#1491,#1492,#1493);
#1491 = CARTESIAN_POINT('',(144.3,-3.3,0.));
#1492 = DIRECTION('',(0.,0.,1.));
#1493 = DIRECTION('',(-1.,-1.2E-16,0.));
#1494 = ADVANCED_FACE('',(#1495),#1506,.F.);
#1495 = FACE_BOUND('',#1496,.F.);
#1496 = EDGE_LOOP('',(#1497,#1498,#1499,#1500));
#1497 = ORIENTED_EDGE('',*,*,#740,.F.);
#1498 = ORIENTED_EDGE('',*,*,#180,.T.);
#1499 = ORIENTED_EDGE('',*,*,#804,.T.);
#1500 = ORIENTED_EDGE('',*,*,#1501,.F.);
#1501 = EDGE_CURVE('',#733,#805,#1502,.T.);
#1502 = LINE('',#1503,#1504);
#1503 = CARTESIAN_POINT('',(133.60000000002,1.2,-2.000000000068));
#1504 = VECTOR('',#1505,1.);
#1505 = DIRECTION('',(0.,-1.,2.22044604925E-16));
#1506 = CYLINDRICAL_SURFACE('',#1507,1.999999999977);
#1507 = AXIS2_PLACEMENT_3D('',#1508,#1509,#1510);
#1508 = CARTESIAN_POINT('',(133.60000000002,1.2,-9.07696E-11));
#1509 = DIRECTION('',(0.,1.,-2.22044604925E-16));
#1510 = DIRECTION('',(-1.,0.,0.));
#1511 = ADVANCED_FACE('',(#1512),#1523,.T.);
#1512 = FACE_BOUND('',#1513,.T.);
#1513 = EDGE_LOOP('',(#1514,#1520,#1521,#1522));
#1514 = ORIENTED_EDGE('',*,*,#1515,.T.);
#1515 = EDGE_CURVE('',#156,#546,#1516,.T.);
#1516 = LINE('',#1517,#1518);
#1517 = CARTESIAN_POINT('',(148.8,-3.3,0.));
#1518 = VECTOR('',#1519,1.);
#1519 = DIRECTION('',(-0.,-0.,-1.));
#1520 = ORIENTED_EDGE('',*,*,#545,.T.);
#1521 = ORIENTED_EDGE('',*,*,#714,.F.);
#1522 = ORIENTED_EDGE('',*,*,#163,.F.);
#1523 = CYLINDRICAL_SURFACE('',#1524,4.5);
#1524 = AXIS2_PLACEMENT_3D('',#1525,#1526,#1527);
#1525 = CARTESIAN_POINT('',(144.3,-3.3,0.));
#1526 = DIRECTION('',(0.,0.,1.));
#1527 = DIRECTION('',(1.,0.,0.));
#1528 = ADVANCED_FACE('',(#1529,#1540),#1610,.F.);
#1529 = FACE_BOUND('',#1530,.F.);
#1530 = EDGE_LOOP('',(#1531,#1532,#1533,#1539));
#1531 = ORIENTED_EDGE('',*,*,#1515,.T.);
#1532 = ORIENTED_EDGE('',*,*,#554,.T.);
#1533 = ORIENTED_EDGE('',*,*,#1534,.F.);
#1534 = EDGE_CURVE('',#148,#555,#1535,.T.);
#1535 = LINE('',#1536,#1537);
#1536 = CARTESIAN_POINT('',(148.8,-96.77505903606,0.));
#1537 = VECTOR('',#1538,1.);
#1538 = DIRECTION('',(-0.,-0.,-1.));
#1539 = ORIENTED_EDGE('',*,*,#155,.F.);
#1540 = FACE_BOUND('',#1541,.F.);
#1541 = EDGE_LOOP('',(#1542,#1552,#1561,#1569,#1578,#1586,#1595,#1603));
#1542 = ORIENTED_EDGE('',*,*,#1543,.F.);
#1543 = EDGE_CURVE('',#1544,#1546,#1548,.T.);
#1544 = VERTEX_POINT('',#1545);
#1545 = CARTESIAN_POINT('',(148.8,-61.8,-1.7));
#1546 = VERTEX_POINT('',#1547);
#1547 = CARTESIAN_POINT('',(148.8,-55.8,-1.7));
#1548 = LINE('',#1549,#1550);
#1549 = CARTESIAN_POINT('',(148.8,-61.8,-1.7));
#1550 = VECTOR('',#1551,1.);
#1551 = DIRECTION('',(0.,1.,0.));
#1552 = ORIENTED_EDGE('',*,*,#1553,.T.);
#1553 = EDGE_CURVE('',#1544,#1554,#1556,.T.);
#1554 = VERTEX_POINT('',#1555);
#1555 = CARTESIAN_POINT('',(148.8,-63.8,-3.7));
#1556 = CIRCLE('',#1557,2.);
#1557 = AXIS2_PLACEMENT_3D('',#1558,#1559,#1560);
#1558 = CARTESIAN_POINT('',(148.8,-61.8,-3.7));
#1559 = DIRECTION('',(1.,0.,0.));
#1560 = DIRECTION('',(0.,1.,0.));
#1561 = ORIENTED_EDGE('',*,*,#1562,.T.);
#1562 = EDGE_CURVE('',#1554,#1563,#1565,.T.);
#1563 = VERTEX_POINT('',#1564);
#1564 = CARTESIAN_POINT('',(148.8,-63.8,-4.7));
#1565 = LINE('',#1566,#1567);
#1566 = CARTESIAN_POINT('',(148.8,-63.8,-3.7));
#1567 = VECTOR('',#1568,1.);
#1568 = DIRECTION('',(0.,0.,-1.));
#1569 = ORIENTED_EDGE('',*,*,#1570,.T.);
#1570 = EDGE_CURVE('',#1563,#1571,#1573,.T.);
#1571 = VERTEX_POINT('',#1572);
#1572 = CARTESIAN_POINT('',(148.8,-61.8,-6.7));
#1573 = CIRCLE('',#1574,2.);
#1574 = AXIS2_PLACEMENT_3D('',#1575,#1576,#1577);
#1575 = CARTESIAN_POINT('',(148.8,-61.8,-4.7));
#1576 = DIRECTION('',(1.,0.,0.));
#1577 = DIRECTION('',(0.,1.,0.));
#1578 = ORIENTED_EDGE('',*,*,#1579,.T.);
#1579 = EDGE_CURVE('',#1571,#1580,#1582,.T.);
#1580 = VERTEX_POINT('',#1581);
#1581 = CARTESIAN_POINT('',(148.8,-55.8,-6.7));
#1582 = LINE('',#1583,#1584);
#1583 = CARTESIAN_POINT('',(148.8,-61.8,-6.7));
#1584 = VECTOR('',#1585,1.);
#1585 = DIRECTION('',(0.,1.,0.));
#1586 = ORIENTED_EDGE('',*,*,#1587,.T.);
#1587 = EDGE_CURVE('',#1580,#1588,#1590,.T.);
#1588 = VERTEX_POINT('',#1589);
#1589 = CARTESIAN_POINT('',(148.8,-53.8,-4.7));
#1590 = CIRCLE('',#1591,2.);
#1591 = AXIS2_PLACEMENT_3D('',#1592,#1593,#1594);
#1592 = CARTESIAN_POINT('',(148.8,-55.8,-4.7));
#1593 = DIRECTION('',(1.,0.,0.));
#1594 = DIRECTION('',(0.,1.,0.));
#1595 = ORIENTED_EDGE('',*,*,#1596,.F.);
#1596 = EDGE_CURVE('',#1597,#1588,#1599,.T.);
#1597 = VERTEX_POINT('',#1598);
#1598 = CARTESIAN_POINT('',(148.8,-53.8,-3.7));
#1599 = LINE('',#1600,#1601);
#1600 = CARTESIAN_POINT('',(148.8,-53.8,-3.7));
#1601 = VECTOR('',#1602,1.);
#1602 = DIRECTION('',(0.,0.,-1.));
#1603 = ORIENTED_EDGE('',*,*,#1604,.T.);
#1604 = EDGE_CURVE('',#1597,#1546,#1605,.T.);
#1605 = CIRCLE('',#1606,2.);
#1606 = AXIS2_PLACEMENT_3D('',#1607,#1608,#1609);
#1607 = CARTESIAN_POINT('',(148.8,-55.8,-3.7));
#1608 = DIRECTION('',(1.,0.,0.));
#1609 = DIRECTION('',(0.,1.,0.));
#1610 = PLANE('',#1611);
#1611 = AXIS2_PLACEMENT_3D('',#1612,#1613,#1614);
#1612 = CARTESIAN_POINT('',(148.8,-3.3,0.));
#1613 = DIRECTION('',(-1.,0.,0.));
#1614 = DIRECTION('',(0.,-1.,0.));
#1615 = ADVANCED_FACE('',(#1616),#1627,.F.);
#1616 = FACE_BOUND('',#1617,.F.);
#1617 = EDGE_LOOP('',(#1618,#1619,#1620,#1626));
#1618 = ORIENTED_EDGE('',*,*,#1534,.T.);
#1619 = ORIENTED_EDGE('',*,*,#562,.T.);
#1620 = ORIENTED_EDGE('',*,*,#1621,.F.);
#1621 = EDGE_CURVE('',#139,#563,#1622,.T.);
#1622 = LINE('',#1623,#1624);
#1623 = CARTESIAN_POINT('',(155.35935313738,-101.072566264,0.));
#1624 = VECTOR('',#1625,1.);
#1625 = DIRECTION('',(-0.,-0.,-1.));
#1626 = ORIENTED_EDGE('',*,*,#147,.F.);
#1627 = PLANE('',#1628);
#1628 = AXIS2_PLACEMENT_3D('',#1629,#1630,#1631);
#1629 = CARTESIAN_POINT('',(148.8,-96.77505903606,0.));
#1630 = DIRECTION('',(-0.548026257311,-0.83646112958,0.));
#1631 = DIRECTION('',(0.83646112958,-0.548026257311,0.));
#1632 = ADVANCED_FACE('',(#1633),#1639,.T.);
#1633 = FACE_BOUND('',#1634,.T.);
#1634 = EDGE_LOOP('',(#1635,#1636,#1637,#1638));
#1635 = ORIENTED_EDGE('',*,*,#613,.T.);
#1636 = ORIENTED_EDGE('',*,*,#570,.T.);
#1637 = ORIENTED_EDGE('',*,*,#1621,.F.);
#1638 = ORIENTED_EDGE('',*,*,#138,.F.);
#1639 = CYLINDRICAL_SURFACE('',#1640,4.048449953098);
#1640 = AXIS2_PLACEMENT_3D('',#1641,#1642,#1643);
#1641 = CARTESIAN_POINT('',(153.14069626167,-104.4589372848,0.));
#1642 = DIRECTION('',(0.,0.,1.));
#1643 = DIRECTION('',(1.,0.,0.));
#1644 = ADVANCED_FACE('',(#1645),#1651,.F.);
#1645 = FACE_BOUND('',#1646,.F.);
#1646 = EDGE_LOOP('',(#1647,#1648,#1649,#1650));
#1647 = ORIENTED_EDGE('',*,*,#732,.F.);
#1648 = ORIENTED_EDGE('',*,*,#1501,.T.);
#1649 = ORIENTED_EDGE('',*,*,#813,.T.);
#1650 = ORIENTED_EDGE('',*,*,#756,.F.);
#1651 = PLANE('',#1652);
#1652 = AXIS2_PLACEMENT_3D('',#1653,#1654,#1655);
#1653 = CARTESIAN_POINT('',(133.60000000002,1.2,-2.000000000068));
#1654 = DIRECTION('',(-0.,-2.22044604925E-16,-1.));
#1655 = DIRECTION('',(-1.,0.,0.));
#1656 = ADVANCED_FACE('',(#1657),#1692,.T.);
#1657 = FACE_BOUND('',#1658,.F.);
#1658 = EDGE_LOOP('',(#1659,#1660,#1661,#1662,#1663,#1664,#1665,#1666,
    #1667,#1668,#1669,#1670,#1671,#1672,#1673,#1674,#1675,#1676,#1677,
    #1678,#1679,#1680,#1681,#1687,#1688,#1689,#1690,#1691));
#1659 = ORIENTED_EDGE('',*,*,#1274,.T.);
#1660 = ORIENTED_EDGE('',*,*,#1250,.T.);
#1661 = ORIENTED_EDGE('',*,*,#1226,.T.);
#1662 = ORIENTED_EDGE('',*,*,#1195,.F.);
#1663 = ORIENTED_EDGE('',*,*,#1170,.F.);
#1664 = ORIENTED_EDGE('',*,*,#1146,.F.);
#1665 = ORIENTED_EDGE('',*,*,#1122,.F.);
#1666 = ORIENTED_EDGE('',*,*,#1097,.F.);
#1667 = ORIENTED_EDGE('',*,*,#1073,.F.);
#1668 = ORIENTED_EDGE('',*,*,#1048,.F.);
#1669 = ORIENTED_EDGE('',*,*,#1024,.F.);
#1670 = ORIENTED_EDGE('',*,*,#1007,.T.);
#1671 = ORIENTED_EDGE('',*,*,#975,.F.);
#1672 = ORIENTED_EDGE('',*,*,#958,.T.);
#1673 = ORIENTED_EDGE('',*,*,#934,.T.);
#1674 = ORIENTED_EDGE('',*,*,#902,.F.);
#1675 = ORIENTED_EDGE('',*,*,#885,.T.);
#1676 = ORIENTED_EDGE('',*,*,#853,.F.);
#1677 = ORIENTED_EDGE('',*,*,#836,.T.);
#1678 = ORIENTED_EDGE('',*,*,#789,.T.);
#1679 = ORIENTED_EDGE('',*,*,#1481,.F.);
#1680 = ORIENTED_EDGE('',*,*,#1397,.T.);
#1681 = ORIENTED_EDGE('',*,*,#1682,.T.);
#1682 = EDGE_CURVE('',#1398,#1457,#1683,.T.);
#1683 = LINE('',#1684,#1685);
#1684 = CARTESIAN_POINT('',(145.8,-3.3,-6.));
#1685 = VECTOR('',#1686,1.);
#1686 = DIRECTION('',(0.,-1.,0.));
#1687 = ORIENTED_EDGE('',*,*,#1465,.T.);
#1688 = ORIENTED_EDGE('',*,*,#1372,.T.);
#1689 = ORIENTED_EDGE('',*,*,#1340,.F.);
#1690 = ORIENTED_EDGE('',*,*,#1323,.T.);
#1691 = ORIENTED_EDGE('',*,*,#1291,.F.);
#1692 = PLANE('',#1693);
#1693 = AXIS2_PLACEMENT_3D('',#1694,#1695,#1696);
#1694 = CARTESIAN_POINT('',(78.358469007242,-59.15722435022,-6.));
#1695 = DIRECTION('',(0.,0.,1.));
#1696 = DIRECTION('',(1.,0.,0.));
#1697 = ADVANCED_FACE('',(#1698),#1723,.F.);
#1698 = FACE_BOUND('',#1699,.F.);
#1699 = EDGE_LOOP('',(#1700,#1701,#1707,#1708,#1717));
#1700 = ORIENTED_EDGE('',*,*,#1570,.F.);
#1701 = ORIENTED_EDGE('',*,*,#1702,.T.);
#1702 = EDGE_CURVE('',#1563,#1449,#1703,.T.);
#1703 = LINE('',#1704,#1705);
#1704 = CARTESIAN_POINT('',(148.8,-63.8,-4.7));
#1705 = VECTOR('',#1706,1.);
#1706 = DIRECTION('',(-1.,-0.,-0.));
#1707 = ORIENTED_EDGE('',*,*,#1456,.T.);
#1708 = ORIENTED_EDGE('',*,*,#1709,.T.);
#1709 = EDGE_CURVE('',#1457,#1710,#1712,.T.);
#1710 = VERTEX_POINT('',#1711);
#1711 = CARTESIAN_POINT('',(145.8,-61.8,-6.7));
#1712 = CIRCLE('',#1713,2.);
#1713 = AXIS2_PLACEMENT_3D('',#1714,#1715,#1716);
#1714 = CARTESIAN_POINT('',(145.8,-61.8,-4.7));
#1715 = DIRECTION('',(1.,0.,0.));
#1716 = DIRECTION('',(0.,1.,0.));
#1717 = ORIENTED_EDGE('',*,*,#1718,.F.);
#1718 = EDGE_CURVE('',#1571,#1710,#1719,.T.);
#1719 = LINE('',#1720,#1721);
#1720 = CARTESIAN_POINT('',(148.8,-61.8,-6.7));
#1721 = VECTOR('',#1722,1.);
#1722 = DIRECTION('',(-1.,-0.,-0.));
#1723 = CYLINDRICAL_SURFACE('',#1724,2.);
#1724 = AXIS2_PLACEMENT_3D('',#1725,#1726,#1727);
#1725 = CARTESIAN_POINT('',(148.8,-61.8,-4.7));
#1726 = DIRECTION('',(1.,0.,0.));
#1727 = DIRECTION('',(0.,1.,0.));
#1728 = ADVANCED_FACE('',(#1729),#1740,.F.);
#1729 = FACE_BOUND('',#1730,.F.);
#1730 = EDGE_LOOP('',(#1731,#1732,#1738,#1739));
#1731 = ORIENTED_EDGE('',*,*,#1562,.F.);
#1732 = ORIENTED_EDGE('',*,*,#1733,.T.);
#1733 = EDGE_CURVE('',#1554,#1440,#1734,.T.);
#1734 = LINE('',#1735,#1736);
#1735 = CARTESIAN_POINT('',(148.8,-63.8,-3.7));
#1736 = VECTOR('',#1737,1.);
#1737 = DIRECTION('',(-1.,-0.,-0.));
#1738 = ORIENTED_EDGE('',*,*,#1448,.T.);
#1739 = ORIENTED_EDGE('',*,*,#1702,.F.);
#1740 = PLANE('',#1741);
#1741 = AXIS2_PLACEMENT_3D('',#1742,#1743,#1744);
#1742 = CARTESIAN_POINT('',(148.8,-63.8,-3.7));
#1743 = DIRECTION('',(0.,-1.,0.));
#1744 = DIRECTION('',(0.,0.,-1.));
#1745 = ADVANCED_FACE('',(#1746),#1757,.F.);
#1746 = FACE_BOUND('',#1747,.F.);
#1747 = EDGE_LOOP('',(#1748,#1749,#1755,#1756));
#1748 = ORIENTED_EDGE('',*,*,#1553,.F.);
#1749 = ORIENTED_EDGE('',*,*,#1750,.T.);
#1750 = EDGE_CURVE('',#1544,#1432,#1751,.T.);
#1751 = LINE('',#1752,#1753);
#1752 = CARTESIAN_POINT('',(148.8,-61.8,-1.7));
#1753 = VECTOR('',#1754,1.);
#1754 = DIRECTION('',(-1.,-0.,-0.));
#1755 = ORIENTED_EDGE('',*,*,#1439,.T.);
#1756 = ORIENTED_EDGE('',*,*,#1733,.F.);
#1757 = CYLINDRICAL_SURFACE('',#1758,2.);
#1758 = AXIS2_PLACEMENT_3D('',#1759,#1760,#1761);
#1759 = CARTESIAN_POINT('',(148.8,-61.8,-3.7));
#1760 = DIRECTION('',(1.,0.,0.));
#1761 = DIRECTION('',(0.,1.,0.));
#1762 = ADVANCED_FACE('',(#1763),#1774,.T.);
#1763 = FACE_BOUND('',#1764,.T.);
#1764 = EDGE_LOOP('',(#1765,#1766,#1767,#1768));
#1765 = ORIENTED_EDGE('',*,*,#1543,.F.);
#1766 = ORIENTED_EDGE('',*,*,#1750,.T.);
#1767 = ORIENTED_EDGE('',*,*,#1431,.T.);
#1768 = ORIENTED_EDGE('',*,*,#1769,.F.);
#1769 = EDGE_CURVE('',#1546,#1423,#1770,.T.);
#1770 = LINE('',#1771,#1772);
#1771 = CARTESIAN_POINT('',(148.8,-55.8,-1.7));
#1772 = VECTOR('',#1773,1.);
#1773 = DIRECTION('',(-1.,-0.,-0.));
#1774 = PLANE('',#1775);
#1775 = AXIS2_PLACEMENT_3D('',#1776,#1777,#1778);
#1776 = CARTESIAN_POINT('',(148.8,-61.8,-1.7));
#1777 = DIRECTION('',(0.,0.,-1.));
#1778 = DIRECTION('',(0.,1.,0.));
#1779 = ADVANCED_FACE('',(#1780),#1791,.F.);
#1780 = FACE_BOUND('',#1781,.F.);
#1781 = EDGE_LOOP('',(#1782,#1783,#1789,#1790));
#1782 = ORIENTED_EDGE('',*,*,#1604,.F.);
#1783 = ORIENTED_EDGE('',*,*,#1784,.T.);
#1784 = EDGE_CURVE('',#1597,#1415,#1785,.T.);
#1785 = LINE('',#1786,#1787);
#1786 = CARTESIAN_POINT('',(148.8,-53.8,-3.7));
#1787 = VECTOR('',#1788,1.);
#1788 = DIRECTION('',(-1.,-0.,-0.));
#1789 = ORIENTED_EDGE('',*,*,#1422,.T.);
#1790 = ORIENTED_EDGE('',*,*,#1769,.F.);
#1791 = CYLINDRICAL_SURFACE('',#1792,2.);
#1792 = AXIS2_PLACEMENT_3D('',#1793,#1794,#1795);
#1793 = CARTESIAN_POINT('',(148.8,-55.8,-3.7));
#1794 = DIRECTION('',(1.,0.,0.));
#1795 = DIRECTION('',(0.,1.,0.));
#1796 = ADVANCED_FACE('',(#1797),#1808,.T.);
#1797 = FACE_BOUND('',#1798,.T.);
#1798 = EDGE_LOOP('',(#1799,#1800,#1801,#1802));
#1799 = ORIENTED_EDGE('',*,*,#1596,.F.);
#1800 = ORIENTED_EDGE('',*,*,#1784,.T.);
#1801 = ORIENTED_EDGE('',*,*,#1414,.T.);
#1802 = ORIENTED_EDGE('',*,*,#1803,.F.);
#1803 = EDGE_CURVE('',#1588,#1406,#1804,.T.);
#1804 = LINE('',#1805,#1806);
#1805 = CARTESIAN_POINT('',(148.8,-53.8,-4.7));
#1806 = VECTOR('',#1807,1.);
#1807 = DIRECTION('',(-1.,-0.,-0.));
#1808 = PLANE('',#1809);
#1809 = AXIS2_PLACEMENT_3D('',#1810,#1811,#1812);
#1810 = CARTESIAN_POINT('',(148.8,-53.8,-3.7));
#1811 = DIRECTION('',(0.,-1.,0.));
#1812 = DIRECTION('',(0.,0.,-1.));
#1813 = ADVANCED_FACE('',(#1814),#1834,.F.);
#1814 = FACE_BOUND('',#1815,.F.);
#1815 = EDGE_LOOP('',(#1816,#1817,#1825,#1832,#1833));
#1816 = ORIENTED_EDGE('',*,*,#1587,.F.);
#1817 = ORIENTED_EDGE('',*,*,#1818,.T.);
#1818 = EDGE_CURVE('',#1580,#1819,#1821,.T.);
#1819 = VERTEX_POINT('',#1820);
#1820 = CARTESIAN_POINT('',(145.8,-55.8,-6.7));
#1821 = LINE('',#1822,#1823);
#1822 = CARTESIAN_POINT('',(148.8,-55.8,-6.7));
#1823 = VECTOR('',#1824,1.);
#1824 = DIRECTION('',(-1.,-0.,-0.));
#1825 = ORIENTED_EDGE('',*,*,#1826,.T.);
#1826 = EDGE_CURVE('',#1819,#1398,#1827,.T.);
#1827 = CIRCLE('',#1828,2.);
#1828 = AXIS2_PLACEMENT_3D('',#1829,#1830,#1831);
#1829 = CARTESIAN_POINT('',(145.8,-55.8,-4.7));
#1830 = DIRECTION('',(1.,0.,0.));
#1831 = DIRECTION('',(0.,1.,0.));
#1832 = ORIENTED_EDGE('',*,*,#1405,.T.);
#1833 = ORIENTED_EDGE('',*,*,#1803,.F.);
#1834 = CYLINDRICAL_SURFACE('',#1835,2.);
#1835 = AXIS2_PLACEMENT_3D('',#1836,#1837,#1838);
#1836 = CARTESIAN_POINT('',(148.8,-55.8,-4.7));
#1837 = DIRECTION('',(1.,0.,0.));
#1838 = DIRECTION('',(0.,1.,0.));
#1839 = ADVANCED_FACE('',(#1840),#1851,.F.);
#1840 = FACE_BOUND('',#1841,.F.);
#1841 = EDGE_LOOP('',(#1842,#1843,#1844,#1850));
#1842 = ORIENTED_EDGE('',*,*,#1579,.F.);
#1843 = ORIENTED_EDGE('',*,*,#1718,.T.);
#1844 = ORIENTED_EDGE('',*,*,#1845,.T.);
#1845 = EDGE_CURVE('',#1710,#1819,#1846,.T.);
#1846 = LINE('',#1847,#1848);
#1847 = CARTESIAN_POINT('',(145.8,-32.55,-6.7));
#1848 = VECTOR('',#1849,1.);
#1849 = DIRECTION('',(0.,1.,0.));
#1850 = ORIENTED_EDGE('',*,*,#1818,.F.);
#1851 = PLANE('',#1852);
#1852 = AXIS2_PLACEMENT_3D('',#1853,#1854,#1855);
#1853 = CARTESIAN_POINT('',(148.8,-61.8,-6.7));
#1854 = DIRECTION('',(0.,0.,-1.));
#1855 = DIRECTION('',(0.,1.,0.));
#1856 = ADVANCED_FACE('',(#1857),#1863,.F.);
#1857 = FACE_BOUND('',#1858,.F.);
#1858 = EDGE_LOOP('',(#1859,#1860,#1861,#1862));
#1859 = ORIENTED_EDGE('',*,*,#1709,.F.);
#1860 = ORIENTED_EDGE('',*,*,#1682,.F.);
#1861 = ORIENTED_EDGE('',*,*,#1826,.F.);
#1862 = ORIENTED_EDGE('',*,*,#1845,.F.);
#1863 = PLANE('',#1864);
#1864 = AXIS2_PLACEMENT_3D('',#1865,#1866,#1867);
#1865 = CARTESIAN_POINT('',(145.8,-3.3,0.));
#1866 = DIRECTION('',(-1.,0.,0.));
#1867 = DIRECTION('',(0.,-1.,0.));
#1868 = ( GEOMETRIC_REPRESENTATION_CONTEXT(3) 
GLOBAL_UNCERTAINTY_ASSIGNED_CONTEXT((#1872)) 
GLOBAL_UNIT_ASSIGNED_CONTEXT((#1869,#1870,#1871)) REPRESENTATION_CONTEXT
('Context #1','3D Context with UNIT and UNCERTAINTY') );
#1869 = ( LENGTH_UNIT() NAMED_UNIT(*) SI_UNIT(.MILLI.,.METRE.) );
#1870 = ( NAMED_UNIT(*) PLANE_ANGLE_UNIT() SI_UNIT($,.RADIAN.) );
#1871 = ( NAMED_UNIT(*) SI_UNIT($,.STERADIAN.) SOLID_ANGLE_UNIT() );
#1872 = UNCERTAINTY_MEASURE_WITH_UNIT(LENGTH_MEASURE(1.E-07),#1869,
  'distance_accuracy_value','confusion accuracy');
#1873 = PRODUCT_RELATED_PRODUCT_CATEGORY('part',$,(#7));
#1874 = MECHANICAL_DESIGN_GEOMETRIC_PRESENTATION_REPRESENTATION('',(
    #1875),#1868);
#1875 = STYLED_ITEM('color',(#1876),#15);
#1876 = PRESENTATION_STYLE_ASSIGNMENT((#1877,#1883));
#1877 = SURFACE_STYLE_USAGE(.BOTH.,#1878);
#1878 = SURFACE_SIDE_STYLE('',(#1879));
#1879 = SURFACE_STYLE_FILL_AREA(#1880);
#1880 = FILL_AREA_STYLE('',(#1881));
#1881 = FILL_AREA_STYLE_COLOUR('',#1882);
#1882 = COLOUR_RGB('',0.447058818107,0.474509808674,0.501960817233);
#1883 = CURVE_STYLE('',#1884,POSITIVE_LENGTH_MEASURE(0.1),#1885);
#1884 = DRAUGHTING_PRE_DEFINED_CURVE_FONT('continuous');
#1885 = COLOUR_RGB('',0.678431390124,0.709803936702,0.741176476869);
ENDSEC;
END-ISO-10303-21;
