ISO-10303-21;
HEADER;
FILE_DESCRIPTION(('OLED_0.91in_128x32_SSD1306_I2C - generated model'),'2;1');
FILE_NAME('OLED_0.91in_128x32_SSD1306_I2C.step','2026-09-20',(''),(''),'python STEP writer','','');
FILE_SCHEMA(('AUTOMOTIVE_DESIGN { 1 0 10303 214 1 1 1 1 }'));
ENDSEC;
DATA;
#1=APPLICATION_CONTEXT('automotive design');
#2=APPLICATION_PROTOCOL_DEFINITION('international standard','automotive_design',2000,#1);
#3=MECHANICAL_CONTEXT('none',#1,'mechanical');
#4=PRODUCT('OLED_0.91in_128x32_SSD1306_I2C','OLED_0.91in_128x32_SSD1306_I2C','',(#3));
#5=PRODUCT_RELATED_PRODUCT_CATEGORY('part',$,(#4));
#6=PRODUCT_DEFINITION_CONTEXT('part definition',#1,'design');
#7=PRODUCT_DEFINITION_FORMATION_WITH_SPECIFIED_SOURCE('ANY','',#4,.NOT_KNOWN.);
#8=PRODUCT_DEFINITION('design','',#7,#6);
#9=PRODUCT_DEFINITION_SHAPE('','',#8);
#10=(LENGTH_UNIT() NAMED_UNIT(*) SI_UNIT(.MILLI.,.METRE.));
#11=(NAMED_UNIT(*) PLANE_ANGLE_UNIT() SI_UNIT($,.RADIAN.));
#12=(NAMED_UNIT(*) SI_UNIT($,.STERADIAN.) SOLID_ANGLE_UNIT());
#13=UNCERTAINTY_MEASURE_WITH_UNIT(LENGTH_MEASURE(1.E-05),#10,'distance_accuracy_value','confusion accuracy');
#14=(GEOMETRIC_REPRESENTATION_CONTEXT(3) GLOBAL_UNCERTAINTY_ASSIGNED_CONTEXT((#13)) GLOBAL_UNIT_ASSIGNED_CONTEXT((#10,#11,#12)) REPRESENTATION_CONTEXT('Context #1','3D Context with UNIT and UNCERTAINTY'));
#15=CARTESIAN_POINT('',(0.000000,0.000000,0.000000));
#16=DIRECTION('',(0.000000,0.000000,1.000000));
#17=DIRECTION('',(1.000000,0.000000,0.000000));
#18=AXIS2_PLACEMENT_3D('',#15,#16,#17);
#19=CARTESIAN_POINT('',(-2.000000,-9.810000,2.540000));
#20=VERTEX_POINT('',#19);
#21=CARTESIAN_POINT('',(-2.000000,-9.810000,3.740000));
#22=VERTEX_POINT('',#21);
#23=CARTESIAN_POINT('',(-2.000000,2.190000,2.540000));
#24=VERTEX_POINT('',#23);
#25=CARTESIAN_POINT('',(-2.000000,2.190000,3.740000));
#26=VERTEX_POINT('',#25);
#27=CARTESIAN_POINT('',(36.000000,-9.810000,2.540000));
#28=VERTEX_POINT('',#27);
#29=CARTESIAN_POINT('',(36.000000,-9.810000,3.740000));
#30=VERTEX_POINT('',#29);
#31=CARTESIAN_POINT('',(36.000000,2.190000,2.540000));
#32=VERTEX_POINT('',#31);
#33=CARTESIAN_POINT('',(36.000000,2.190000,3.740000));
#34=VERTEX_POINT('',#33);
#35=DIRECTION('',(1.000000,0.000000,0.000000));
#36=VECTOR('',#35,38.000000);
#37=LINE('',#21,#36);
#38=EDGE_CURVE('',#22,#30,#37,.T.);
#39=ORIENTED_EDGE('',*,*,#38,.T.);
#40=DIRECTION('',(0.000000,1.000000,0.000000));
#41=VECTOR('',#40,12.000000);
#42=LINE('',#29,#41);
#43=EDGE_CURVE('',#30,#34,#42,.T.);
#44=ORIENTED_EDGE('',*,*,#43,.T.);
#45=DIRECTION('',(-1.000000,0.000000,0.000000));
#46=VECTOR('',#45,38.000000);
#47=LINE('',#33,#46);
#48=EDGE_CURVE('',#34,#26,#47,.T.);
#49=ORIENTED_EDGE('',*,*,#48,.T.);
#50=DIRECTION('',(0.000000,-1.000000,0.000000));
#51=VECTOR('',#50,12.000000);
#52=LINE('',#25,#51);
#53=EDGE_CURVE('',#26,#22,#52,.T.);
#54=ORIENTED_EDGE('',*,*,#53,.T.);
#55=EDGE_LOOP('',(#39,#44,#49,#54));
#56=FACE_OUTER_BOUND('',#55,.T.);
#57=CARTESIAN_POINT('',(-2.000000,-9.810000,3.740000));
#58=DIRECTION('',(0.000000,0.000000,1.000000));
#59=DIRECTION('',(1.000000,0.000000,0.000000));
#60=AXIS2_PLACEMENT_3D('',#57,#58,#59);
#61=PLANE('',#60);
#62=ADVANCED_FACE('',(#56),#61,.T.);
#63=DIRECTION('',(0.000000,1.000000,0.000000));
#64=VECTOR('',#63,12.000000);
#65=LINE('',#19,#64);
#66=EDGE_CURVE('',#20,#24,#65,.T.);
#67=ORIENTED_EDGE('',*,*,#66,.T.);
#68=DIRECTION('',(1.000000,0.000000,0.000000));
#69=VECTOR('',#68,38.000000);
#70=LINE('',#23,#69);
#71=EDGE_CURVE('',#24,#32,#70,.T.);
#72=ORIENTED_EDGE('',*,*,#71,.T.);
#73=DIRECTION('',(0.000000,-1.000000,0.000000));
#74=VECTOR('',#73,12.000000);
#75=LINE('',#31,#74);
#76=EDGE_CURVE('',#32,#28,#75,.T.);
#77=ORIENTED_EDGE('',*,*,#76,.T.);
#78=DIRECTION('',(-1.000000,0.000000,0.000000));
#79=VECTOR('',#78,38.000000);
#80=LINE('',#27,#79);
#81=EDGE_CURVE('',#28,#20,#80,.T.);
#82=ORIENTED_EDGE('',*,*,#81,.T.);
#83=EDGE_LOOP('',(#67,#72,#77,#82));
#84=FACE_OUTER_BOUND('',#83,.T.);
#85=CARTESIAN_POINT('',(-2.000000,-9.810000,2.540000));
#86=DIRECTION('',(0.000000,0.000000,-1.000000));
#87=DIRECTION('',(1.000000,0.000000,0.000000));
#88=AXIS2_PLACEMENT_3D('',#85,#86,#87);
#89=PLANE('',#88);
#90=ADVANCED_FACE('',(#84),#89,.T.);
#91=ORIENTED_EDGE('',*,*,#76,.F.);
#92=DIRECTION('',(0.000000,0.000000,1.000000));
#93=VECTOR('',#92,1.200000);
#94=LINE('',#31,#93);
#95=EDGE_CURVE('',#32,#34,#94,.T.);
#96=ORIENTED_EDGE('',*,*,#95,.T.);
#97=ORIENTED_EDGE('',*,*,#43,.F.);
#98=DIRECTION('',(0.000000,0.000000,-1.000000));
#99=VECTOR('',#98,1.200000);
#100=LINE('',#29,#99);
#101=EDGE_CURVE('',#30,#28,#100,.T.);
#102=ORIENTED_EDGE('',*,*,#101,.T.);
#103=EDGE_LOOP('',(#91,#96,#97,#102));
#104=FACE_OUTER_BOUND('',#103,.T.);
#105=CARTESIAN_POINT('',(36.000000,-9.810000,2.540000));
#106=DIRECTION('',(1.000000,0.000000,0.000000));
#107=DIRECTION('',(0.000000,1.000000,0.000000));
#108=AXIS2_PLACEMENT_3D('',#105,#106,#107);
#109=PLANE('',#108);
#110=ADVANCED_FACE('',(#104),#109,.T.);
#111=DIRECTION('',(0.000000,0.000000,1.000000));
#112=VECTOR('',#111,1.200000);
#113=LINE('',#19,#112);
#114=EDGE_CURVE('',#20,#22,#113,.T.);
#115=ORIENTED_EDGE('',*,*,#114,.T.);
#116=ORIENTED_EDGE('',*,*,#53,.F.);
#117=DIRECTION('',(0.000000,0.000000,-1.000000));
#118=VECTOR('',#117,1.200000);
#119=LINE('',#25,#118);
#120=EDGE_CURVE('',#26,#24,#119,.T.);
#121=ORIENTED_EDGE('',*,*,#120,.T.);
#122=ORIENTED_EDGE('',*,*,#66,.F.);
#123=EDGE_LOOP('',(#115,#116,#121,#122));
#124=FACE_OUTER_BOUND('',#123,.T.);
#125=CARTESIAN_POINT('',(-2.000000,-9.810000,2.540000));
#126=DIRECTION('',(-1.000000,0.000000,0.000000));
#127=DIRECTION('',(0.000000,1.000000,0.000000));
#128=AXIS2_PLACEMENT_3D('',#125,#126,#127);
#129=PLANE('',#128);
#130=ADVANCED_FACE('',(#124),#129,.T.);
#131=ORIENTED_EDGE('',*,*,#120,.F.);
#132=ORIENTED_EDGE('',*,*,#48,.F.);
#133=ORIENTED_EDGE('',*,*,#95,.F.);
#134=ORIENTED_EDGE('',*,*,#71,.F.);
#135=EDGE_LOOP('',(#131,#132,#133,#134));
#136=FACE_OUTER_BOUND('',#135,.T.);
#137=CARTESIAN_POINT('',(-2.000000,2.190000,2.540000));
#138=DIRECTION('',(0.000000,1.000000,0.000000));
#139=DIRECTION('',(0.000000,0.000000,1.000000));
#140=AXIS2_PLACEMENT_3D('',#137,#138,#139);
#141=PLANE('',#140);
#142=ADVANCED_FACE('',(#136),#141,.T.);
#143=ORIENTED_EDGE('',*,*,#81,.F.);
#144=ORIENTED_EDGE('',*,*,#101,.F.);
#145=ORIENTED_EDGE('',*,*,#38,.F.);
#146=ORIENTED_EDGE('',*,*,#114,.F.);
#147=EDGE_LOOP('',(#143,#144,#145,#146));
#148=FACE_OUTER_BOUND('',#147,.T.);
#149=CARTESIAN_POINT('',(-2.000000,-9.810000,2.540000));
#150=DIRECTION('',(0.000000,-1.000000,0.000000));
#151=DIRECTION('',(0.000000,0.000000,1.000000));
#152=AXIS2_PLACEMENT_3D('',#149,#150,#151);
#153=PLANE('',#152);
#154=ADVANCED_FACE('',(#148),#153,.T.);
#155=CLOSED_SHELL('',(#62,#90,#110,#130,#142,#154));
#156=MANIFOLD_SOLID_BREP('PCB',#155);
#157=COLOUR_RGB('',0.050000,0.200000,0.550000);
#158=FILL_AREA_STYLE_COLOUR('',#157);
#159=FILL_AREA_STYLE('',(#158));
#160=SURFACE_STYLE_FILL_AREA(#159);
#161=SURFACE_SIDE_STYLE('',(#160));
#162=SURFACE_STYLE_USAGE(.BOTH.,#161);
#163=PRESENTATION_STYLE_ASSIGNMENT((#162));
#164=STYLED_ITEM('',(#163),#156);
#165=CARTESIAN_POINT('',(-1.270000,-8.890000,0.000000));
#166=VERTEX_POINT('',#165);
#167=CARTESIAN_POINT('',(-1.270000,-8.890000,2.540000));
#168=VERTEX_POINT('',#167);
#169=CARTESIAN_POINT('',(-1.270000,1.270000,0.000000));
#170=VERTEX_POINT('',#169);
#171=CARTESIAN_POINT('',(-1.270000,1.270000,2.540000));
#172=VERTEX_POINT('',#171);
#173=CARTESIAN_POINT('',(1.270000,-8.890000,0.000000));
#174=VERTEX_POINT('',#173);
#175=CARTESIAN_POINT('',(1.270000,-8.890000,2.540000));
#176=VERTEX_POINT('',#175);
#177=CARTESIAN_POINT('',(1.270000,1.270000,0.000000));
#178=VERTEX_POINT('',#177);
#179=CARTESIAN_POINT('',(1.270000,1.270000,2.540000));
#180=VERTEX_POINT('',#179);
#181=DIRECTION('',(1.000000,0.000000,0.000000));
#182=VECTOR('',#181,2.540000);
#183=LINE('',#167,#182);
#184=EDGE_CURVE('',#168,#176,#183,.T.);
#185=ORIENTED_EDGE('',*,*,#184,.T.);
#186=DIRECTION('',(0.000000,1.000000,0.000000));
#187=VECTOR('',#186,10.160000);
#188=LINE('',#175,#187);
#189=EDGE_CURVE('',#176,#180,#188,.T.);
#190=ORIENTED_EDGE('',*,*,#189,.T.);
#191=DIRECTION('',(-1.000000,0.000000,0.000000));
#192=VECTOR('',#191,2.540000);
#193=LINE('',#179,#192);
#194=EDGE_CURVE('',#180,#172,#193,.T.);
#195=ORIENTED_EDGE('',*,*,#194,.T.);
#196=DIRECTION('',(0.000000,-1.000000,0.000000));
#197=VECTOR('',#196,10.160000);
#198=LINE('',#171,#197);
#199=EDGE_CURVE('',#172,#168,#198,.T.);
#200=ORIENTED_EDGE('',*,*,#199,.T.);
#201=EDGE_LOOP('',(#185,#190,#195,#200));
#202=FACE_OUTER_BOUND('',#201,.T.);
#203=CARTESIAN_POINT('',(-1.270000,-8.890000,2.540000));
#204=DIRECTION('',(0.000000,0.000000,1.000000));
#205=DIRECTION('',(1.000000,0.000000,0.000000));
#206=AXIS2_PLACEMENT_3D('',#203,#204,#205);
#207=PLANE('',#206);
#208=ADVANCED_FACE('',(#202),#207,.T.);
#209=DIRECTION('',(0.000000,1.000000,0.000000));
#210=VECTOR('',#209,10.160000);
#211=LINE('',#165,#210);
#212=EDGE_CURVE('',#166,#170,#211,.T.);
#213=ORIENTED_EDGE('',*,*,#212,.T.);
#214=DIRECTION('',(1.000000,0.000000,0.000000));
#215=VECTOR('',#214,2.540000);
#216=LINE('',#169,#215);
#217=EDGE_CURVE('',#170,#178,#216,.T.);
#218=ORIENTED_EDGE('',*,*,#217,.T.);
#219=DIRECTION('',(0.000000,-1.000000,0.000000));
#220=VECTOR('',#219,10.160000);
#221=LINE('',#177,#220);
#222=EDGE_CURVE('',#178,#174,#221,.T.);
#223=ORIENTED_EDGE('',*,*,#222,.T.);
#224=DIRECTION('',(-1.000000,0.000000,0.000000));
#225=VECTOR('',#224,2.540000);
#226=LINE('',#173,#225);
#227=EDGE_CURVE('',#174,#166,#226,.T.);
#228=ORIENTED_EDGE('',*,*,#227,.T.);
#229=EDGE_LOOP('',(#213,#218,#223,#228));
#230=FACE_OUTER_BOUND('',#229,.T.);
#231=CARTESIAN_POINT('',(-1.270000,-8.890000,0.000000));
#232=DIRECTION('',(0.000000,0.000000,-1.000000));
#233=DIRECTION('',(1.000000,0.000000,0.000000));
#234=AXIS2_PLACEMENT_3D('',#231,#232,#233);
#235=PLANE('',#234);
#236=ADVANCED_FACE('',(#230),#235,.T.);
#237=ORIENTED_EDGE('',*,*,#222,.F.);
#238=DIRECTION('',(0.000000,0.000000,1.000000));
#239=VECTOR('',#238,2.540000);
#240=LINE('',#177,#239);
#241=EDGE_CURVE('',#178,#180,#240,.T.);
#242=ORIENTED_EDGE('',*,*,#241,.T.);
#243=ORIENTED_EDGE('',*,*,#189,.F.);
#244=DIRECTION('',(0.000000,0.000000,-1.000000));
#245=VECTOR('',#244,2.540000);
#246=LINE('',#175,#245);
#247=EDGE_CURVE('',#176,#174,#246,.T.);
#248=ORIENTED_EDGE('',*,*,#247,.T.);
#249=EDGE_LOOP('',(#237,#242,#243,#248));
#250=FACE_OUTER_BOUND('',#249,.T.);
#251=CARTESIAN_POINT('',(1.270000,-8.890000,0.000000));
#252=DIRECTION('',(1.000000,0.000000,0.000000));
#253=DIRECTION('',(0.000000,1.000000,0.000000));
#254=AXIS2_PLACEMENT_3D('',#251,#252,#253);
#255=PLANE('',#254);
#256=ADVANCED_FACE('',(#250),#255,.T.);
#257=DIRECTION('',(0.000000,0.000000,1.000000));
#258=VECTOR('',#257,2.540000);
#259=LINE('',#165,#258);
#260=EDGE_CURVE('',#166,#168,#259,.T.);
#261=ORIENTED_EDGE('',*,*,#260,.T.);
#262=ORIENTED_EDGE('',*,*,#199,.F.);
#263=DIRECTION('',(0.000000,0.000000,-1.000000));
#264=VECTOR('',#263,2.540000);
#265=LINE('',#171,#264);
#266=EDGE_CURVE('',#172,#170,#265,.T.);
#267=ORIENTED_EDGE('',*,*,#266,.T.);
#268=ORIENTED_EDGE('',*,*,#212,.F.);
#269=EDGE_LOOP('',(#261,#262,#267,#268));
#270=FACE_OUTER_BOUND('',#269,.T.);
#271=CARTESIAN_POINT('',(-1.270000,-8.890000,0.000000));
#272=DIRECTION('',(-1.000000,0.000000,0.000000));
#273=DIRECTION('',(0.000000,1.000000,0.000000));
#274=AXIS2_PLACEMENT_3D('',#271,#272,#273);
#275=PLANE('',#274);
#276=ADVANCED_FACE('',(#270),#275,.T.);
#277=ORIENTED_EDGE('',*,*,#266,.F.);
#278=ORIENTED_EDGE('',*,*,#194,.F.);
#279=ORIENTED_EDGE('',*,*,#241,.F.);
#280=ORIENTED_EDGE('',*,*,#217,.F.);
#281=EDGE_LOOP('',(#277,#278,#279,#280));
#282=FACE_OUTER_BOUND('',#281,.T.);
#283=CARTESIAN_POINT('',(-1.270000,1.270000,0.000000));
#284=DIRECTION('',(0.000000,1.000000,0.000000));
#285=DIRECTION('',(0.000000,0.000000,1.000000));
#286=AXIS2_PLACEMENT_3D('',#283,#284,#285);
#287=PLANE('',#286);
#288=ADVANCED_FACE('',(#282),#287,.T.);
#289=ORIENTED_EDGE('',*,*,#227,.F.);
#290=ORIENTED_EDGE('',*,*,#247,.F.);
#291=ORIENTED_EDGE('',*,*,#184,.F.);
#292=ORIENTED_EDGE('',*,*,#260,.F.);
#293=EDGE_LOOP('',(#289,#290,#291,#292));
#294=FACE_OUTER_BOUND('',#293,.T.);
#295=CARTESIAN_POINT('',(-1.270000,-8.890000,0.000000));
#296=DIRECTION('',(0.000000,-1.000000,0.000000));
#297=DIRECTION('',(0.000000,0.000000,1.000000));
#298=AXIS2_PLACEMENT_3D('',#295,#296,#297);
#299=PLANE('',#298);
#300=ADVANCED_FACE('',(#294),#299,.T.);
#301=CLOSED_SHELL('',(#208,#236,#256,#276,#288,#300));
#302=MANIFOLD_SOLID_BREP('HEADER',#301);
#303=COLOUR_RGB('',0.080000,0.080000,0.080000);
#304=FILL_AREA_STYLE_COLOUR('',#303);
#305=FILL_AREA_STYLE('',(#304));
#306=SURFACE_STYLE_FILL_AREA(#305);
#307=SURFACE_SIDE_STYLE('',(#306));
#308=SURFACE_STYLE_USAGE(.BOTH.,#307);
#309=PRESENTATION_STYLE_ASSIGNMENT((#308));
#310=STYLED_ITEM('',(#309),#302);
#311=CARTESIAN_POINT('',(-0.320000,-0.320000,-3.000000));
#312=VERTEX_POINT('',#311);
#313=CARTESIAN_POINT('',(-0.320000,-0.320000,4.540000));
#314=VERTEX_POINT('',#313);
#315=CARTESIAN_POINT('',(-0.320000,0.320000,-3.000000));
#316=VERTEX_POINT('',#315);
#317=CARTESIAN_POINT('',(-0.320000,0.320000,4.540000));
#318=VERTEX_POINT('',#317);
#319=CARTESIAN_POINT('',(0.320000,-0.320000,-3.000000));
#320=VERTEX_POINT('',#319);
#321=CARTESIAN_POINT('',(0.320000,-0.320000,4.540000));
#322=VERTEX_POINT('',#321);
#323=CARTESIAN_POINT('',(0.320000,0.320000,-3.000000));
#324=VERTEX_POINT('',#323);
#325=CARTESIAN_POINT('',(0.320000,0.320000,4.540000));
#326=VERTEX_POINT('',#325);
#327=DIRECTION('',(1.000000,0.000000,0.000000));
#328=VECTOR('',#327,0.640000);
#329=LINE('',#313,#328);
#330=EDGE_CURVE('',#314,#322,#329,.T.);
#331=ORIENTED_EDGE('',*,*,#330,.T.);
#332=DIRECTION('',(0.000000,1.000000,0.000000));
#333=VECTOR('',#332,0.640000);
#334=LINE('',#321,#333);
#335=EDGE_CURVE('',#322,#326,#334,.T.);
#336=ORIENTED_EDGE('',*,*,#335,.T.);
#337=DIRECTION('',(-1.000000,0.000000,0.000000));
#338=VECTOR('',#337,0.640000);
#339=LINE('',#325,#338);
#340=EDGE_CURVE('',#326,#318,#339,.T.);
#341=ORIENTED_EDGE('',*,*,#340,.T.);
#342=DIRECTION('',(0.000000,-1.000000,0.000000));
#343=VECTOR('',#342,0.640000);
#344=LINE('',#317,#343);
#345=EDGE_CURVE('',#318,#314,#344,.T.);
#346=ORIENTED_EDGE('',*,*,#345,.T.);
#347=EDGE_LOOP('',(#331,#336,#341,#346));
#348=FACE_OUTER_BOUND('',#347,.T.);
#349=CARTESIAN_POINT('',(-0.320000,-0.320000,4.540000));
#350=DIRECTION('',(0.000000,0.000000,1.000000));
#351=DIRECTION('',(1.000000,0.000000,0.000000));
#352=AXIS2_PLACEMENT_3D('',#349,#350,#351);
#353=PLANE('',#352);
#354=ADVANCED_FACE('',(#348),#353,.T.);
#355=DIRECTION('',(0.000000,1.000000,0.000000));
#356=VECTOR('',#355,0.640000);
#357=LINE('',#311,#356);
#358=EDGE_CURVE('',#312,#316,#357,.T.);
#359=ORIENTED_EDGE('',*,*,#358,.T.);
#360=DIRECTION('',(1.000000,0.000000,0.000000));
#361=VECTOR('',#360,0.640000);
#362=LINE('',#315,#361);
#363=EDGE_CURVE('',#316,#324,#362,.T.);
#364=ORIENTED_EDGE('',*,*,#363,.T.);
#365=DIRECTION('',(0.000000,-1.000000,0.000000));
#366=VECTOR('',#365,0.640000);
#367=LINE('',#323,#366);
#368=EDGE_CURVE('',#324,#320,#367,.T.);
#369=ORIENTED_EDGE('',*,*,#368,.T.);
#370=DIRECTION('',(-1.000000,0.000000,0.000000));
#371=VECTOR('',#370,0.640000);
#372=LINE('',#319,#371);
#373=EDGE_CURVE('',#320,#312,#372,.T.);
#374=ORIENTED_EDGE('',*,*,#373,.T.);
#375=EDGE_LOOP('',(#359,#364,#369,#374));
#376=FACE_OUTER_BOUND('',#375,.T.);
#377=CARTESIAN_POINT('',(-0.320000,-0.320000,-3.000000));
#378=DIRECTION('',(0.000000,0.000000,-1.000000));
#379=DIRECTION('',(1.000000,0.000000,0.000000));
#380=AXIS2_PLACEMENT_3D('',#377,#378,#379);
#381=PLANE('',#380);
#382=ADVANCED_FACE('',(#376),#381,.T.);
#383=ORIENTED_EDGE('',*,*,#368,.F.);
#384=DIRECTION('',(0.000000,0.000000,1.000000));
#385=VECTOR('',#384,7.540000);
#386=LINE('',#323,#385);
#387=EDGE_CURVE('',#324,#326,#386,.T.);
#388=ORIENTED_EDGE('',*,*,#387,.T.);
#389=ORIENTED_EDGE('',*,*,#335,.F.);
#390=DIRECTION('',(0.000000,0.000000,-1.000000));
#391=VECTOR('',#390,7.540000);
#392=LINE('',#321,#391);
#393=EDGE_CURVE('',#322,#320,#392,.T.);
#394=ORIENTED_EDGE('',*,*,#393,.T.);
#395=EDGE_LOOP('',(#383,#388,#389,#394));
#396=FACE_OUTER_BOUND('',#395,.T.);
#397=CARTESIAN_POINT('',(0.320000,-0.320000,-3.000000));
#398=DIRECTION('',(1.000000,0.000000,0.000000));
#399=DIRECTION('',(0.000000,1.000000,0.000000));
#400=AXIS2_PLACEMENT_3D('',#397,#398,#399);
#401=PLANE('',#400);
#402=ADVANCED_FACE('',(#396),#401,.T.);
#403=DIRECTION('',(0.000000,0.000000,1.000000));
#404=VECTOR('',#403,7.540000);
#405=LINE('',#311,#404);
#406=EDGE_CURVE('',#312,#314,#405,.T.);
#407=ORIENTED_EDGE('',*,*,#406,.T.);
#408=ORIENTED_EDGE('',*,*,#345,.F.);
#409=DIRECTION('',(0.000000,0.000000,-1.000000));
#410=VECTOR('',#409,7.540000);
#411=LINE('',#317,#410);
#412=EDGE_CURVE('',#318,#316,#411,.T.);
#413=ORIENTED_EDGE('',*,*,#412,.T.);
#414=ORIENTED_EDGE('',*,*,#358,.F.);
#415=EDGE_LOOP('',(#407,#408,#413,#414));
#416=FACE_OUTER_BOUND('',#415,.T.);
#417=CARTESIAN_POINT('',(-0.320000,-0.320000,-3.000000));
#418=DIRECTION('',(-1.000000,0.000000,0.000000));
#419=DIRECTION('',(0.000000,1.000000,0.000000));
#420=AXIS2_PLACEMENT_3D('',#417,#418,#419);
#421=PLANE('',#420);
#422=ADVANCED_FACE('',(#416),#421,.T.);
#423=ORIENTED_EDGE('',*,*,#412,.F.);
#424=ORIENTED_EDGE('',*,*,#340,.F.);
#425=ORIENTED_EDGE('',*,*,#387,.F.);
#426=ORIENTED_EDGE('',*,*,#363,.F.);
#427=EDGE_LOOP('',(#423,#424,#425,#426));
#428=FACE_OUTER_BOUND('',#427,.T.);
#429=CARTESIAN_POINT('',(-0.320000,0.320000,-3.000000));
#430=DIRECTION('',(0.000000,1.000000,0.000000));
#431=DIRECTION('',(0.000000,0.000000,1.000000));
#432=AXIS2_PLACEMENT_3D('',#429,#430,#431);
#433=PLANE('',#432);
#434=ADVANCED_FACE('',(#428),#433,.T.);
#435=ORIENTED_EDGE('',*,*,#373,.F.);
#436=ORIENTED_EDGE('',*,*,#393,.F.);
#437=ORIENTED_EDGE('',*,*,#330,.F.);
#438=ORIENTED_EDGE('',*,*,#406,.F.);
#439=EDGE_LOOP('',(#435,#436,#437,#438));
#440=FACE_OUTER_BOUND('',#439,.T.);
#441=CARTESIAN_POINT('',(-0.320000,-0.320000,-3.000000));
#442=DIRECTION('',(0.000000,-1.000000,0.000000));
#443=DIRECTION('',(0.000000,0.000000,1.000000));
#444=AXIS2_PLACEMENT_3D('',#441,#442,#443);
#445=PLANE('',#444);
#446=ADVANCED_FACE('',(#440),#445,.T.);
#447=CLOSED_SHELL('',(#354,#382,#402,#422,#434,#446));
#448=MANIFOLD_SOLID_BREP('PIN1',#447);
#449=COLOUR_RGB('',0.900000,0.750000,0.300000);
#450=FILL_AREA_STYLE_COLOUR('',#449);
#451=FILL_AREA_STYLE('',(#450));
#452=SURFACE_STYLE_FILL_AREA(#451);
#453=SURFACE_SIDE_STYLE('',(#452));
#454=SURFACE_STYLE_USAGE(.BOTH.,#453);
#455=PRESENTATION_STYLE_ASSIGNMENT((#454));
#456=STYLED_ITEM('',(#455),#448);
#457=CARTESIAN_POINT('',(-0.320000,-2.860000,-3.000000));
#458=VERTEX_POINT('',#457);
#459=CARTESIAN_POINT('',(-0.320000,-2.860000,4.540000));
#460=VERTEX_POINT('',#459);
#461=CARTESIAN_POINT('',(-0.320000,-2.220000,-3.000000));
#462=VERTEX_POINT('',#461);
#463=CARTESIAN_POINT('',(-0.320000,-2.220000,4.540000));
#464=VERTEX_POINT('',#463);
#465=CARTESIAN_POINT('',(0.320000,-2.860000,-3.000000));
#466=VERTEX_POINT('',#465);
#467=CARTESIAN_POINT('',(0.320000,-2.860000,4.540000));
#468=VERTEX_POINT('',#467);
#469=CARTESIAN_POINT('',(0.320000,-2.220000,-3.000000));
#470=VERTEX_POINT('',#469);
#471=CARTESIAN_POINT('',(0.320000,-2.220000,4.540000));
#472=VERTEX_POINT('',#471);
#473=DIRECTION('',(1.000000,0.000000,0.000000));
#474=VECTOR('',#473,0.640000);
#475=LINE('',#459,#474);
#476=EDGE_CURVE('',#460,#468,#475,.T.);
#477=ORIENTED_EDGE('',*,*,#476,.T.);
#478=DIRECTION('',(0.000000,1.000000,0.000000));
#479=VECTOR('',#478,0.640000);
#480=LINE('',#467,#479);
#481=EDGE_CURVE('',#468,#472,#480,.T.);
#482=ORIENTED_EDGE('',*,*,#481,.T.);
#483=DIRECTION('',(-1.000000,0.000000,0.000000));
#484=VECTOR('',#483,0.640000);
#485=LINE('',#471,#484);
#486=EDGE_CURVE('',#472,#464,#485,.T.);
#487=ORIENTED_EDGE('',*,*,#486,.T.);
#488=DIRECTION('',(0.000000,-1.000000,0.000000));
#489=VECTOR('',#488,0.640000);
#490=LINE('',#463,#489);
#491=EDGE_CURVE('',#464,#460,#490,.T.);
#492=ORIENTED_EDGE('',*,*,#491,.T.);
#493=EDGE_LOOP('',(#477,#482,#487,#492));
#494=FACE_OUTER_BOUND('',#493,.T.);
#495=CARTESIAN_POINT('',(-0.320000,-2.860000,4.540000));
#496=DIRECTION('',(0.000000,0.000000,1.000000));
#497=DIRECTION('',(1.000000,0.000000,0.000000));
#498=AXIS2_PLACEMENT_3D('',#495,#496,#497);
#499=PLANE('',#498);
#500=ADVANCED_FACE('',(#494),#499,.T.);
#501=DIRECTION('',(0.000000,1.000000,0.000000));
#502=VECTOR('',#501,0.640000);
#503=LINE('',#457,#502);
#504=EDGE_CURVE('',#458,#462,#503,.T.);
#505=ORIENTED_EDGE('',*,*,#504,.T.);
#506=DIRECTION('',(1.000000,0.000000,0.000000));
#507=VECTOR('',#506,0.640000);
#508=LINE('',#461,#507);
#509=EDGE_CURVE('',#462,#470,#508,.T.);
#510=ORIENTED_EDGE('',*,*,#509,.T.);
#511=DIRECTION('',(0.000000,-1.000000,0.000000));
#512=VECTOR('',#511,0.640000);
#513=LINE('',#469,#512);
#514=EDGE_CURVE('',#470,#466,#513,.T.);
#515=ORIENTED_EDGE('',*,*,#514,.T.);
#516=DIRECTION('',(-1.000000,0.000000,0.000000));
#517=VECTOR('',#516,0.640000);
#518=LINE('',#465,#517);
#519=EDGE_CURVE('',#466,#458,#518,.T.);
#520=ORIENTED_EDGE('',*,*,#519,.T.);
#521=EDGE_LOOP('',(#505,#510,#515,#520));
#522=FACE_OUTER_BOUND('',#521,.T.);
#523=CARTESIAN_POINT('',(-0.320000,-2.860000,-3.000000));
#524=DIRECTION('',(0.000000,0.000000,-1.000000));
#525=DIRECTION('',(1.000000,0.000000,0.000000));
#526=AXIS2_PLACEMENT_3D('',#523,#524,#525);
#527=PLANE('',#526);
#528=ADVANCED_FACE('',(#522),#527,.T.);
#529=ORIENTED_EDGE('',*,*,#514,.F.);
#530=DIRECTION('',(0.000000,0.000000,1.000000));
#531=VECTOR('',#530,7.540000);
#532=LINE('',#469,#531);
#533=EDGE_CURVE('',#470,#472,#532,.T.);
#534=ORIENTED_EDGE('',*,*,#533,.T.);
#535=ORIENTED_EDGE('',*,*,#481,.F.);
#536=DIRECTION('',(0.000000,0.000000,-1.000000));
#537=VECTOR('',#536,7.540000);
#538=LINE('',#467,#537);
#539=EDGE_CURVE('',#468,#466,#538,.T.);
#540=ORIENTED_EDGE('',*,*,#539,.T.);
#541=EDGE_LOOP('',(#529,#534,#535,#540));
#542=FACE_OUTER_BOUND('',#541,.T.);
#543=CARTESIAN_POINT('',(0.320000,-2.860000,-3.000000));
#544=DIRECTION('',(1.000000,0.000000,0.000000));
#545=DIRECTION('',(0.000000,1.000000,0.000000));
#546=AXIS2_PLACEMENT_3D('',#543,#544,#545);
#547=PLANE('',#546);
#548=ADVANCED_FACE('',(#542),#547,.T.);
#549=DIRECTION('',(0.000000,0.000000,1.000000));
#550=VECTOR('',#549,7.540000);
#551=LINE('',#457,#550);
#552=EDGE_CURVE('',#458,#460,#551,.T.);
#553=ORIENTED_EDGE('',*,*,#552,.T.);
#554=ORIENTED_EDGE('',*,*,#491,.F.);
#555=DIRECTION('',(0.000000,0.000000,-1.000000));
#556=VECTOR('',#555,7.540000);
#557=LINE('',#463,#556);
#558=EDGE_CURVE('',#464,#462,#557,.T.);
#559=ORIENTED_EDGE('',*,*,#558,.T.);
#560=ORIENTED_EDGE('',*,*,#504,.F.);
#561=EDGE_LOOP('',(#553,#554,#559,#560));
#562=FACE_OUTER_BOUND('',#561,.T.);
#563=CARTESIAN_POINT('',(-0.320000,-2.860000,-3.000000));
#564=DIRECTION('',(-1.000000,0.000000,0.000000));
#565=DIRECTION('',(0.000000,1.000000,0.000000));
#566=AXIS2_PLACEMENT_3D('',#563,#564,#565);
#567=PLANE('',#566);
#568=ADVANCED_FACE('',(#562),#567,.T.);
#569=ORIENTED_EDGE('',*,*,#558,.F.);
#570=ORIENTED_EDGE('',*,*,#486,.F.);
#571=ORIENTED_EDGE('',*,*,#533,.F.);
#572=ORIENTED_EDGE('',*,*,#509,.F.);
#573=EDGE_LOOP('',(#569,#570,#571,#572));
#574=FACE_OUTER_BOUND('',#573,.T.);
#575=CARTESIAN_POINT('',(-0.320000,-2.220000,-3.000000));
#576=DIRECTION('',(0.000000,1.000000,0.000000));
#577=DIRECTION('',(0.000000,0.000000,1.000000));
#578=AXIS2_PLACEMENT_3D('',#575,#576,#577);
#579=PLANE('',#578);
#580=ADVANCED_FACE('',(#574),#579,.T.);
#581=ORIENTED_EDGE('',*,*,#519,.F.);
#582=ORIENTED_EDGE('',*,*,#539,.F.);
#583=ORIENTED_EDGE('',*,*,#476,.F.);
#584=ORIENTED_EDGE('',*,*,#552,.F.);
#585=EDGE_LOOP('',(#581,#582,#583,#584));
#586=FACE_OUTER_BOUND('',#585,.T.);
#587=CARTESIAN_POINT('',(-0.320000,-2.860000,-3.000000));
#588=DIRECTION('',(0.000000,-1.000000,0.000000));
#589=DIRECTION('',(0.000000,0.000000,1.000000));
#590=AXIS2_PLACEMENT_3D('',#587,#588,#589);
#591=PLANE('',#590);
#592=ADVANCED_FACE('',(#586),#591,.T.);
#593=CLOSED_SHELL('',(#500,#528,#548,#568,#580,#592));
#594=MANIFOLD_SOLID_BREP('PIN2',#593);
#595=STYLED_ITEM('',(#455),#594);
#596=CARTESIAN_POINT('',(-0.320000,-5.400000,-3.000000));
#597=VERTEX_POINT('',#596);
#598=CARTESIAN_POINT('',(-0.320000,-5.400000,4.540000));
#599=VERTEX_POINT('',#598);
#600=CARTESIAN_POINT('',(-0.320000,-4.760000,-3.000000));
#601=VERTEX_POINT('',#600);
#602=CARTESIAN_POINT('',(-0.320000,-4.760000,4.540000));
#603=VERTEX_POINT('',#602);
#604=CARTESIAN_POINT('',(0.320000,-5.400000,-3.000000));
#605=VERTEX_POINT('',#604);
#606=CARTESIAN_POINT('',(0.320000,-5.400000,4.540000));
#607=VERTEX_POINT('',#606);
#608=CARTESIAN_POINT('',(0.320000,-4.760000,-3.000000));
#609=VERTEX_POINT('',#608);
#610=CARTESIAN_POINT('',(0.320000,-4.760000,4.540000));
#611=VERTEX_POINT('',#610);
#612=DIRECTION('',(1.000000,0.000000,0.000000));
#613=VECTOR('',#612,0.640000);
#614=LINE('',#598,#613);
#615=EDGE_CURVE('',#599,#607,#614,.T.);
#616=ORIENTED_EDGE('',*,*,#615,.T.);
#617=DIRECTION('',(0.000000,1.000000,0.000000));
#618=VECTOR('',#617,0.640000);
#619=LINE('',#606,#618);
#620=EDGE_CURVE('',#607,#611,#619,.T.);
#621=ORIENTED_EDGE('',*,*,#620,.T.);
#622=DIRECTION('',(-1.000000,0.000000,0.000000));
#623=VECTOR('',#622,0.640000);
#624=LINE('',#610,#623);
#625=EDGE_CURVE('',#611,#603,#624,.T.);
#626=ORIENTED_EDGE('',*,*,#625,.T.);
#627=DIRECTION('',(0.000000,-1.000000,0.000000));
#628=VECTOR('',#627,0.640000);
#629=LINE('',#602,#628);
#630=EDGE_CURVE('',#603,#599,#629,.T.);
#631=ORIENTED_EDGE('',*,*,#630,.T.);
#632=EDGE_LOOP('',(#616,#621,#626,#631));
#633=FACE_OUTER_BOUND('',#632,.T.);
#634=CARTESIAN_POINT('',(-0.320000,-5.400000,4.540000));
#635=DIRECTION('',(0.000000,0.000000,1.000000));
#636=DIRECTION('',(1.000000,0.000000,0.000000));
#637=AXIS2_PLACEMENT_3D('',#634,#635,#636);
#638=PLANE('',#637);
#639=ADVANCED_FACE('',(#633),#638,.T.);
#640=DIRECTION('',(0.000000,1.000000,0.000000));
#641=VECTOR('',#640,0.640000);
#642=LINE('',#596,#641);
#643=EDGE_CURVE('',#597,#601,#642,.T.);
#644=ORIENTED_EDGE('',*,*,#643,.T.);
#645=DIRECTION('',(1.000000,0.000000,0.000000));
#646=VECTOR('',#645,0.640000);
#647=LINE('',#600,#646);
#648=EDGE_CURVE('',#601,#609,#647,.T.);
#649=ORIENTED_EDGE('',*,*,#648,.T.);
#650=DIRECTION('',(0.000000,-1.000000,0.000000));
#651=VECTOR('',#650,0.640000);
#652=LINE('',#608,#651);
#653=EDGE_CURVE('',#609,#605,#652,.T.);
#654=ORIENTED_EDGE('',*,*,#653,.T.);
#655=DIRECTION('',(-1.000000,0.000000,0.000000));
#656=VECTOR('',#655,0.640000);
#657=LINE('',#604,#656);
#658=EDGE_CURVE('',#605,#597,#657,.T.);
#659=ORIENTED_EDGE('',*,*,#658,.T.);
#660=EDGE_LOOP('',(#644,#649,#654,#659));
#661=FACE_OUTER_BOUND('',#660,.T.);
#662=CARTESIAN_POINT('',(-0.320000,-5.400000,-3.000000));
#663=DIRECTION('',(0.000000,0.000000,-1.000000));
#664=DIRECTION('',(1.000000,0.000000,0.000000));
#665=AXIS2_PLACEMENT_3D('',#662,#663,#664);
#666=PLANE('',#665);
#667=ADVANCED_FACE('',(#661),#666,.T.);
#668=ORIENTED_EDGE('',*,*,#653,.F.);
#669=DIRECTION('',(0.000000,0.000000,1.000000));
#670=VECTOR('',#669,7.540000);
#671=LINE('',#608,#670);
#672=EDGE_CURVE('',#609,#611,#671,.T.);
#673=ORIENTED_EDGE('',*,*,#672,.T.);
#674=ORIENTED_EDGE('',*,*,#620,.F.);
#675=DIRECTION('',(0.000000,0.000000,-1.000000));
#676=VECTOR('',#675,7.540000);
#677=LINE('',#606,#676);
#678=EDGE_CURVE('',#607,#605,#677,.T.);
#679=ORIENTED_EDGE('',*,*,#678,.T.);
#680=EDGE_LOOP('',(#668,#673,#674,#679));
#681=FACE_OUTER_BOUND('',#680,.T.);
#682=CARTESIAN_POINT('',(0.320000,-5.400000,-3.000000));
#683=DIRECTION('',(1.000000,0.000000,0.000000));
#684=DIRECTION('',(0.000000,1.000000,0.000000));
#685=AXIS2_PLACEMENT_3D('',#682,#683,#684);
#686=PLANE('',#685);
#687=ADVANCED_FACE('',(#681),#686,.T.);
#688=DIRECTION('',(0.000000,0.000000,1.000000));
#689=VECTOR('',#688,7.540000);
#690=LINE('',#596,#689);
#691=EDGE_CURVE('',#597,#599,#690,.T.);
#692=ORIENTED_EDGE('',*,*,#691,.T.);
#693=ORIENTED_EDGE('',*,*,#630,.F.);
#694=DIRECTION('',(0.000000,0.000000,-1.000000));
#695=VECTOR('',#694,7.540000);
#696=LINE('',#602,#695);
#697=EDGE_CURVE('',#603,#601,#696,.T.);
#698=ORIENTED_EDGE('',*,*,#697,.T.);
#699=ORIENTED_EDGE('',*,*,#643,.F.);
#700=EDGE_LOOP('',(#692,#693,#698,#699));
#701=FACE_OUTER_BOUND('',#700,.T.);
#702=CARTESIAN_POINT('',(-0.320000,-5.400000,-3.000000));
#703=DIRECTION('',(-1.000000,0.000000,0.000000));
#704=DIRECTION('',(0.000000,1.000000,0.000000));
#705=AXIS2_PLACEMENT_3D('',#702,#703,#704);
#706=PLANE('',#705);
#707=ADVANCED_FACE('',(#701),#706,.T.);
#708=ORIENTED_EDGE('',*,*,#697,.F.);
#709=ORIENTED_EDGE('',*,*,#625,.F.);
#710=ORIENTED_EDGE('',*,*,#672,.F.);
#711=ORIENTED_EDGE('',*,*,#648,.F.);
#712=EDGE_LOOP('',(#708,#709,#710,#711));
#713=FACE_OUTER_BOUND('',#712,.T.);
#714=CARTESIAN_POINT('',(-0.320000,-4.760000,-3.000000));
#715=DIRECTION('',(0.000000,1.000000,0.000000));
#716=DIRECTION('',(0.000000,0.000000,1.000000));
#717=AXIS2_PLACEMENT_3D('',#714,#715,#716);
#718=PLANE('',#717);
#719=ADVANCED_FACE('',(#713),#718,.T.);
#720=ORIENTED_EDGE('',*,*,#658,.F.);
#721=ORIENTED_EDGE('',*,*,#678,.F.);
#722=ORIENTED_EDGE('',*,*,#615,.F.);
#723=ORIENTED_EDGE('',*,*,#691,.F.);
#724=EDGE_LOOP('',(#720,#721,#722,#723));
#725=FACE_OUTER_BOUND('',#724,.T.);
#726=CARTESIAN_POINT('',(-0.320000,-5.400000,-3.000000));
#727=DIRECTION('',(0.000000,-1.000000,0.000000));
#728=DIRECTION('',(0.000000,0.000000,1.000000));
#729=AXIS2_PLACEMENT_3D('',#726,#727,#728);
#730=PLANE('',#729);
#731=ADVANCED_FACE('',(#725),#730,.T.);
#732=CLOSED_SHELL('',(#639,#667,#687,#707,#719,#731));
#733=MANIFOLD_SOLID_BREP('PIN3',#732);
#734=STYLED_ITEM('',(#455),#733);
#735=CARTESIAN_POINT('',(-0.320000,-7.940000,-3.000000));
#736=VERTEX_POINT('',#735);
#737=CARTESIAN_POINT('',(-0.320000,-7.940000,4.540000));
#738=VERTEX_POINT('',#737);
#739=CARTESIAN_POINT('',(-0.320000,-7.300000,-3.000000));
#740=VERTEX_POINT('',#739);
#741=CARTESIAN_POINT('',(-0.320000,-7.300000,4.540000));
#742=VERTEX_POINT('',#741);
#743=CARTESIAN_POINT('',(0.320000,-7.940000,-3.000000));
#744=VERTEX_POINT('',#743);
#745=CARTESIAN_POINT('',(0.320000,-7.940000,4.540000));
#746=VERTEX_POINT('',#745);
#747=CARTESIAN_POINT('',(0.320000,-7.300000,-3.000000));
#748=VERTEX_POINT('',#747);
#749=CARTESIAN_POINT('',(0.320000,-7.300000,4.540000));
#750=VERTEX_POINT('',#749);
#751=DIRECTION('',(1.000000,0.000000,0.000000));
#752=VECTOR('',#751,0.640000);
#753=LINE('',#737,#752);
#754=EDGE_CURVE('',#738,#746,#753,.T.);
#755=ORIENTED_EDGE('',*,*,#754,.T.);
#756=DIRECTION('',(0.000000,1.000000,0.000000));
#757=VECTOR('',#756,0.640000);
#758=LINE('',#745,#757);
#759=EDGE_CURVE('',#746,#750,#758,.T.);
#760=ORIENTED_EDGE('',*,*,#759,.T.);
#761=DIRECTION('',(-1.000000,0.000000,0.000000));
#762=VECTOR('',#761,0.640000);
#763=LINE('',#749,#762);
#764=EDGE_CURVE('',#750,#742,#763,.T.);
#765=ORIENTED_EDGE('',*,*,#764,.T.);
#766=DIRECTION('',(0.000000,-1.000000,0.000000));
#767=VECTOR('',#766,0.640000);
#768=LINE('',#741,#767);
#769=EDGE_CURVE('',#742,#738,#768,.T.);
#770=ORIENTED_EDGE('',*,*,#769,.T.);
#771=EDGE_LOOP('',(#755,#760,#765,#770));
#772=FACE_OUTER_BOUND('',#771,.T.);
#773=CARTESIAN_POINT('',(-0.320000,-7.940000,4.540000));
#774=DIRECTION('',(0.000000,0.000000,1.000000));
#775=DIRECTION('',(1.000000,0.000000,0.000000));
#776=AXIS2_PLACEMENT_3D('',#773,#774,#775);
#777=PLANE('',#776);
#778=ADVANCED_FACE('',(#772),#777,.T.);
#779=DIRECTION('',(0.000000,1.000000,0.000000));
#780=VECTOR('',#779,0.640000);
#781=LINE('',#735,#780);
#782=EDGE_CURVE('',#736,#740,#781,.T.);
#783=ORIENTED_EDGE('',*,*,#782,.T.);
#784=DIRECTION('',(1.000000,0.000000,0.000000));
#785=VECTOR('',#784,0.640000);
#786=LINE('',#739,#785);
#787=EDGE_CURVE('',#740,#748,#786,.T.);
#788=ORIENTED_EDGE('',*,*,#787,.T.);
#789=DIRECTION('',(0.000000,-1.000000,0.000000));
#790=VECTOR('',#789,0.640000);
#791=LINE('',#747,#790);
#792=EDGE_CURVE('',#748,#744,#791,.T.);
#793=ORIENTED_EDGE('',*,*,#792,.T.);
#794=DIRECTION('',(-1.000000,0.000000,0.000000));
#795=VECTOR('',#794,0.640000);
#796=LINE('',#743,#795);
#797=EDGE_CURVE('',#744,#736,#796,.T.);
#798=ORIENTED_EDGE('',*,*,#797,.T.);
#799=EDGE_LOOP('',(#783,#788,#793,#798));
#800=FACE_OUTER_BOUND('',#799,.T.);
#801=CARTESIAN_POINT('',(-0.320000,-7.940000,-3.000000));
#802=DIRECTION('',(0.000000,0.000000,-1.000000));
#803=DIRECTION('',(1.000000,0.000000,0.000000));
#804=AXIS2_PLACEMENT_3D('',#801,#802,#803);
#805=PLANE('',#804);
#806=ADVANCED_FACE('',(#800),#805,.T.);
#807=ORIENTED_EDGE('',*,*,#792,.F.);
#808=DIRECTION('',(0.000000,0.000000,1.000000));
#809=VECTOR('',#808,7.540000);
#810=LINE('',#747,#809);
#811=EDGE_CURVE('',#748,#750,#810,.T.);
#812=ORIENTED_EDGE('',*,*,#811,.T.);
#813=ORIENTED_EDGE('',*,*,#759,.F.);
#814=DIRECTION('',(0.000000,0.000000,-1.000000));
#815=VECTOR('',#814,7.540000);
#816=LINE('',#745,#815);
#817=EDGE_CURVE('',#746,#744,#816,.T.);
#818=ORIENTED_EDGE('',*,*,#817,.T.);
#819=EDGE_LOOP('',(#807,#812,#813,#818));
#820=FACE_OUTER_BOUND('',#819,.T.);
#821=CARTESIAN_POINT('',(0.320000,-7.940000,-3.000000));
#822=DIRECTION('',(1.000000,0.000000,0.000000));
#823=DIRECTION('',(0.000000,1.000000,0.000000));
#824=AXIS2_PLACEMENT_3D('',#821,#822,#823);
#825=PLANE('',#824);
#826=ADVANCED_FACE('',(#820),#825,.T.);
#827=DIRECTION('',(0.000000,0.000000,1.000000));
#828=VECTOR('',#827,7.540000);
#829=LINE('',#735,#828);
#830=EDGE_CURVE('',#736,#738,#829,.T.);
#831=ORIENTED_EDGE('',*,*,#830,.T.);
#832=ORIENTED_EDGE('',*,*,#769,.F.);
#833=DIRECTION('',(0.000000,0.000000,-1.000000));
#834=VECTOR('',#833,7.540000);
#835=LINE('',#741,#834);
#836=EDGE_CURVE('',#742,#740,#835,.T.);
#837=ORIENTED_EDGE('',*,*,#836,.T.);
#838=ORIENTED_EDGE('',*,*,#782,.F.);
#839=EDGE_LOOP('',(#831,#832,#837,#838));
#840=FACE_OUTER_BOUND('',#839,.T.);
#841=CARTESIAN_POINT('',(-0.320000,-7.940000,-3.000000));
#842=DIRECTION('',(-1.000000,0.000000,0.000000));
#843=DIRECTION('',(0.000000,1.000000,0.000000));
#844=AXIS2_PLACEMENT_3D('',#841,#842,#843);
#845=PLANE('',#844);
#846=ADVANCED_FACE('',(#840),#845,.T.);
#847=ORIENTED_EDGE('',*,*,#836,.F.);
#848=ORIENTED_EDGE('',*,*,#764,.F.);
#849=ORIENTED_EDGE('',*,*,#811,.F.);
#850=ORIENTED_EDGE('',*,*,#787,.F.);
#851=EDGE_LOOP('',(#847,#848,#849,#850));
#852=FACE_OUTER_BOUND('',#851,.T.);
#853=CARTESIAN_POINT('',(-0.320000,-7.300000,-3.000000));
#854=DIRECTION('',(0.000000,1.000000,0.000000));
#855=DIRECTION('',(0.000000,0.000000,1.000000));
#856=AXIS2_PLACEMENT_3D('',#853,#854,#855);
#857=PLANE('',#856);
#858=ADVANCED_FACE('',(#852),#857,.T.);
#859=ORIENTED_EDGE('',*,*,#797,.F.);
#860=ORIENTED_EDGE('',*,*,#817,.F.);
#861=ORIENTED_EDGE('',*,*,#754,.F.);
#862=ORIENTED_EDGE('',*,*,#830,.F.);
#863=EDGE_LOOP('',(#859,#860,#861,#862));
#864=FACE_OUTER_BOUND('',#863,.T.);
#865=CARTESIAN_POINT('',(-0.320000,-7.940000,-3.000000));
#866=DIRECTION('',(0.000000,-1.000000,0.000000));
#867=DIRECTION('',(0.000000,0.000000,1.000000));
#868=AXIS2_PLACEMENT_3D('',#865,#866,#867);
#869=PLANE('',#868);
#870=ADVANCED_FACE('',(#864),#869,.T.);
#871=CLOSED_SHELL('',(#778,#806,#826,#846,#858,#870));
#872=MANIFOLD_SOLID_BREP('PIN4',#871);
#873=STYLED_ITEM('',(#455),#872);
#874=CARTESIAN_POINT('',(6.000000,-9.560000,3.740000));
#875=VERTEX_POINT('',#874);
#876=CARTESIAN_POINT('',(6.000000,-9.560000,4.940000));
#877=VERTEX_POINT('',#876);
#878=CARTESIAN_POINT('',(6.000000,1.940000,3.740000));
#879=VERTEX_POINT('',#878);
#880=CARTESIAN_POINT('',(6.000000,1.940000,4.940000));
#881=VERTEX_POINT('',#880);
#882=CARTESIAN_POINT('',(36.000000,-9.560000,3.740000));
#883=VERTEX_POINT('',#882);
#884=CARTESIAN_POINT('',(36.000000,-9.560000,4.940000));
#885=VERTEX_POINT('',#884);
#886=CARTESIAN_POINT('',(36.000000,1.940000,3.740000));
#887=VERTEX_POINT('',#886);
#888=CARTESIAN_POINT('',(36.000000,1.940000,4.940000));
#889=VERTEX_POINT('',#888);
#890=DIRECTION('',(1.000000,0.000000,0.000000));
#891=VECTOR('',#890,30.000000);
#892=LINE('',#876,#891);
#893=EDGE_CURVE('',#877,#885,#892,.T.);
#894=ORIENTED_EDGE('',*,*,#893,.T.);
#895=DIRECTION('',(0.000000,1.000000,0.000000));
#896=VECTOR('',#895,11.500000);
#897=LINE('',#884,#896);
#898=EDGE_CURVE('',#885,#889,#897,.T.);
#899=ORIENTED_EDGE('',*,*,#898,.T.);
#900=DIRECTION('',(-1.000000,0.000000,0.000000));
#901=VECTOR('',#900,30.000000);
#902=LINE('',#888,#901);
#903=EDGE_CURVE('',#889,#881,#902,.T.);
#904=ORIENTED_EDGE('',*,*,#903,.T.);
#905=DIRECTION('',(0.000000,-1.000000,0.000000));
#906=VECTOR('',#905,11.500000);
#907=LINE('',#880,#906);
#908=EDGE_CURVE('',#881,#877,#907,.T.);
#909=ORIENTED_EDGE('',*,*,#908,.T.);
#910=EDGE_LOOP('',(#894,#899,#904,#909));
#911=FACE_OUTER_BOUND('',#910,.T.);
#912=CARTESIAN_POINT('',(6.000000,-9.560000,4.940000));
#913=DIRECTION('',(0.000000,0.000000,1.000000));
#914=DIRECTION('',(1.000000,0.000000,0.000000));
#915=AXIS2_PLACEMENT_3D('',#912,#913,#914);
#916=PLANE('',#915);
#917=ADVANCED_FACE('',(#911),#916,.T.);
#918=DIRECTION('',(0.000000,1.000000,0.000000));
#919=VECTOR('',#918,11.500000);
#920=LINE('',#874,#919);
#921=EDGE_CURVE('',#875,#879,#920,.T.);
#922=ORIENTED_EDGE('',*,*,#921,.T.);
#923=DIRECTION('',(1.000000,0.000000,0.000000));
#924=VECTOR('',#923,30.000000);
#925=LINE('',#878,#924);
#926=EDGE_CURVE('',#879,#887,#925,.T.);
#927=ORIENTED_EDGE('',*,*,#926,.T.);
#928=DIRECTION('',(0.000000,-1.000000,0.000000));
#929=VECTOR('',#928,11.500000);
#930=LINE('',#886,#929);
#931=EDGE_CURVE('',#887,#883,#930,.T.);
#932=ORIENTED_EDGE('',*,*,#931,.T.);
#933=DIRECTION('',(-1.000000,0.000000,0.000000));
#934=VECTOR('',#933,30.000000);
#935=LINE('',#882,#934);
#936=EDGE_CURVE('',#883,#875,#935,.T.);
#937=ORIENTED_EDGE('',*,*,#936,.T.);
#938=EDGE_LOOP('',(#922,#927,#932,#937));
#939=FACE_OUTER_BOUND('',#938,.T.);
#940=CARTESIAN_POINT('',(6.000000,-9.560000,3.740000));
#941=DIRECTION('',(0.000000,0.000000,-1.000000));
#942=DIRECTION('',(1.000000,0.000000,0.000000));
#943=AXIS2_PLACEMENT_3D('',#940,#941,#942);
#944=PLANE('',#943);
#945=ADVANCED_FACE('',(#939),#944,.T.);
#946=ORIENTED_EDGE('',*,*,#931,.F.);
#947=DIRECTION('',(0.000000,0.000000,1.000000));
#948=VECTOR('',#947,1.200000);
#949=LINE('',#886,#948);
#950=EDGE_CURVE('',#887,#889,#949,.T.);
#951=ORIENTED_EDGE('',*,*,#950,.T.);
#952=ORIENTED_EDGE('',*,*,#898,.F.);
#953=DIRECTION('',(0.000000,0.000000,-1.000000));
#954=VECTOR('',#953,1.200000);
#955=LINE('',#884,#954);
#956=EDGE_CURVE('',#885,#883,#955,.T.);
#957=ORIENTED_EDGE('',*,*,#956,.T.);
#958=EDGE_LOOP('',(#946,#951,#952,#957));
#959=FACE_OUTER_BOUND('',#958,.T.);
#960=CARTESIAN_POINT('',(36.000000,-9.560000,3.740000));
#961=DIRECTION('',(1.000000,0.000000,0.000000));
#962=DIRECTION('',(0.000000,1.000000,0.000000));
#963=AXIS2_PLACEMENT_3D('',#960,#961,#962);
#964=PLANE('',#963);
#965=ADVANCED_FACE('',(#959),#964,.T.);
#966=DIRECTION('',(0.000000,0.000000,1.000000));
#967=VECTOR('',#966,1.200000);
#968=LINE('',#874,#967);
#969=EDGE_CURVE('',#875,#877,#968,.T.);
#970=ORIENTED_EDGE('',*,*,#969,.T.);
#971=ORIENTED_EDGE('',*,*,#908,.F.);
#972=DIRECTION('',(0.000000,0.000000,-1.000000));
#973=VECTOR('',#972,1.200000);
#974=LINE('',#880,#973);
#975=EDGE_CURVE('',#881,#879,#974,.T.);
#976=ORIENTED_EDGE('',*,*,#975,.T.);
#977=ORIENTED_EDGE('',*,*,#921,.F.);
#978=EDGE_LOOP('',(#970,#971,#976,#977));
#979=FACE_OUTER_BOUND('',#978,.T.);
#980=CARTESIAN_POINT('',(6.000000,-9.560000,3.740000));
#981=DIRECTION('',(-1.000000,0.000000,0.000000));
#982=DIRECTION('',(0.000000,1.000000,0.000000));
#983=AXIS2_PLACEMENT_3D('',#980,#981,#982);
#984=PLANE('',#983);
#985=ADVANCED_FACE('',(#979),#984,.T.);
#986=ORIENTED_EDGE('',*,*,#975,.F.);
#987=ORIENTED_EDGE('',*,*,#903,.F.);
#988=ORIENTED_EDGE('',*,*,#950,.F.);
#989=ORIENTED_EDGE('',*,*,#926,.F.);
#990=EDGE_LOOP('',(#986,#987,#988,#989));
#991=FACE_OUTER_BOUND('',#990,.T.);
#992=CARTESIAN_POINT('',(6.000000,1.940000,3.740000));
#993=DIRECTION('',(0.000000,1.000000,0.000000));
#994=DIRECTION('',(0.000000,0.000000,1.000000));
#995=AXIS2_PLACEMENT_3D('',#992,#993,#994);
#996=PLANE('',#995);
#997=ADVANCED_FACE('',(#991),#996,.T.);
#998=ORIENTED_EDGE('',*,*,#936,.F.);
#999=ORIENTED_EDGE('',*,*,#956,.F.);
#1000=ORIENTED_EDGE('',*,*,#893,.F.);
#1001=ORIENTED_EDGE('',*,*,#969,.F.);
#1002=EDGE_LOOP('',(#998,#999,#1000,#1001));
#1003=FACE_OUTER_BOUND('',#1002,.T.);
#1004=CARTESIAN_POINT('',(6.000000,-9.560000,3.740000));
#1005=DIRECTION('',(0.000000,-1.000000,0.000000));
#1006=DIRECTION('',(0.000000,0.000000,1.000000));
#1007=AXIS2_PLACEMENT_3D('',#1004,#1005,#1006);
#1008=PLANE('',#1007);
#1009=ADVANCED_FACE('',(#1003),#1008,.T.);
#1010=CLOSED_SHELL('',(#917,#945,#965,#985,#997,#1009));
#1011=MANIFOLD_SOLID_BREP('GLASS',#1010);
#1012=COLOUR_RGB('',0.120000,0.120000,0.140000);
#1013=FILL_AREA_STYLE_COLOUR('',#1012);
#1014=FILL_AREA_STYLE('',(#1013));
#1015=SURFACE_STYLE_FILL_AREA(#1014);
#1016=SURFACE_SIDE_STYLE('',(#1015));
#1017=SURFACE_STYLE_USAGE(.BOTH.,#1016);
#1018=PRESENTATION_STYLE_ASSIGNMENT((#1017));
#1019=STYLED_ITEM('',(#1018),#1011);
#1020=CARTESIAN_POINT('',(8.500000,-8.060000,4.940000));
#1021=VERTEX_POINT('',#1020);
#1022=CARTESIAN_POINT('',(8.500000,-8.060000,5.090000));
#1023=VERTEX_POINT('',#1022);
#1024=CARTESIAN_POINT('',(8.500000,0.440000,4.940000));
#1025=VERTEX_POINT('',#1024);
#1026=CARTESIAN_POINT('',(8.500000,0.440000,5.090000));
#1027=VERTEX_POINT('',#1026);
#1028=CARTESIAN_POINT('',(34.500000,-8.060000,4.940000));
#1029=VERTEX_POINT('',#1028);
#1030=CARTESIAN_POINT('',(34.500000,-8.060000,5.090000));
#1031=VERTEX_POINT('',#1030);
#1032=CARTESIAN_POINT('',(34.500000,0.440000,4.940000));
#1033=VERTEX_POINT('',#1032);
#1034=CARTESIAN_POINT('',(34.500000,0.440000,5.090000));
#1035=VERTEX_POINT('',#1034);
#1036=DIRECTION('',(1.000000,0.000000,0.000000));
#1037=VECTOR('',#1036,26.000000);
#1038=LINE('',#1022,#1037);
#1039=EDGE_CURVE('',#1023,#1031,#1038,.T.);
#1040=ORIENTED_EDGE('',*,*,#1039,.T.);
#1041=DIRECTION('',(0.000000,1.000000,0.000000));
#1042=VECTOR('',#1041,8.500000);
#1043=LINE('',#1030,#1042);
#1044=EDGE_CURVE('',#1031,#1035,#1043,.T.);
#1045=ORIENTED_EDGE('',*,*,#1044,.T.);
#1046=DIRECTION('',(-1.000000,0.000000,0.000000));
#1047=VECTOR('',#1046,26.000000);
#1048=LINE('',#1034,#1047);
#1049=EDGE_CURVE('',#1035,#1027,#1048,.T.);
#1050=ORIENTED_EDGE('',*,*,#1049,.T.);
#1051=DIRECTION('',(0.000000,-1.000000,0.000000));
#1052=VECTOR('',#1051,8.500000);
#1053=LINE('',#1026,#1052);
#1054=EDGE_CURVE('',#1027,#1023,#1053,.T.);
#1055=ORIENTED_EDGE('',*,*,#1054,.T.);
#1056=EDGE_LOOP('',(#1040,#1045,#1050,#1055));
#1057=FACE_OUTER_BOUND('',#1056,.T.);
#1058=CARTESIAN_POINT('',(8.500000,-8.060000,5.090000));
#1059=DIRECTION('',(0.000000,0.000000,1.000000));
#1060=DIRECTION('',(1.000000,0.000000,0.000000));
#1061=AXIS2_PLACEMENT_3D('',#1058,#1059,#1060);
#1062=PLANE('',#1061);
#1063=ADVANCED_FACE('',(#1057),#1062,.T.);
#1064=DIRECTION('',(0.000000,1.000000,0.000000));
#1065=VECTOR('',#1064,8.500000);
#1066=LINE('',#1020,#1065);
#1067=EDGE_CURVE('',#1021,#1025,#1066,.T.);
#1068=ORIENTED_EDGE('',*,*,#1067,.T.);
#1069=DIRECTION('',(1.000000,0.000000,0.000000));
#1070=VECTOR('',#1069,26.000000);
#1071=LINE('',#1024,#1070);
#1072=EDGE_CURVE('',#1025,#1033,#1071,.T.);
#1073=ORIENTED_EDGE('',*,*,#1072,.T.);
#1074=DIRECTION('',(0.000000,-1.000000,0.000000));
#1075=VECTOR('',#1074,8.500000);
#1076=LINE('',#1032,#1075);
#1077=EDGE_CURVE('',#1033,#1029,#1076,.T.);
#1078=ORIENTED_EDGE('',*,*,#1077,.T.);
#1079=DIRECTION('',(-1.000000,0.000000,0.000000));
#1080=VECTOR('',#1079,26.000000);
#1081=LINE('',#1028,#1080);
#1082=EDGE_CURVE('',#1029,#1021,#1081,.T.);
#1083=ORIENTED_EDGE('',*,*,#1082,.T.);
#1084=EDGE_LOOP('',(#1068,#1073,#1078,#1083));
#1085=FACE_OUTER_BOUND('',#1084,.T.);
#1086=CARTESIAN_POINT('',(8.500000,-8.060000,4.940000));
#1087=DIRECTION('',(0.000000,0.000000,-1.000000));
#1088=DIRECTION('',(1.000000,0.000000,0.000000));
#1089=AXIS2_PLACEMENT_3D('',#1086,#1087,#1088);
#1090=PLANE('',#1089);
#1091=ADVANCED_FACE('',(#1085),#1090,.T.);
#1092=ORIENTED_EDGE('',*,*,#1077,.F.);
#1093=DIRECTION('',(0.000000,0.000000,1.000000));
#1094=VECTOR('',#1093,0.150000);
#1095=LINE('',#1032,#1094);
#1096=EDGE_CURVE('',#1033,#1035,#1095,.T.);
#1097=ORIENTED_EDGE('',*,*,#1096,.T.);
#1098=ORIENTED_EDGE('',*,*,#1044,.F.);
#1099=DIRECTION('',(0.000000,0.000000,-1.000000));
#1100=VECTOR('',#1099,0.150000);
#1101=LINE('',#1030,#1100);
#1102=EDGE_CURVE('',#1031,#1029,#1101,.T.);
#1103=ORIENTED_EDGE('',*,*,#1102,.T.);
#1104=EDGE_LOOP('',(#1092,#1097,#1098,#1103));
#1105=FACE_OUTER_BOUND('',#1104,.T.);
#1106=CARTESIAN_POINT('',(34.500000,-8.060000,4.940000));
#1107=DIRECTION('',(1.000000,0.000000,0.000000));
#1108=DIRECTION('',(0.000000,1.000000,0.000000));
#1109=AXIS2_PLACEMENT_3D('',#1106,#1107,#1108);
#1110=PLANE('',#1109);
#1111=ADVANCED_FACE('',(#1105),#1110,.T.);
#1112=DIRECTION('',(0.000000,0.000000,1.000000));
#1113=VECTOR('',#1112,0.150000);
#1114=LINE('',#1020,#1113);
#1115=EDGE_CURVE('',#1021,#1023,#1114,.T.);
#1116=ORIENTED_EDGE('',*,*,#1115,.T.);
#1117=ORIENTED_EDGE('',*,*,#1054,.F.);
#1118=DIRECTION('',(0.000000,0.000000,-1.000000));
#1119=VECTOR('',#1118,0.150000);
#1120=LINE('',#1026,#1119);
#1121=EDGE_CURVE('',#1027,#1025,#1120,.T.);
#1122=ORIENTED_EDGE('',*,*,#1121,.T.);
#1123=ORIENTED_EDGE('',*,*,#1067,.F.);
#1124=EDGE_LOOP('',(#1116,#1117,#1122,#1123));
#1125=FACE_OUTER_BOUND('',#1124,.T.);
#1126=CARTESIAN_POINT('',(8.500000,-8.060000,4.940000));
#1127=DIRECTION('',(-1.000000,0.000000,0.000000));
#1128=DIRECTION('',(0.000000,1.000000,0.000000));
#1129=AXIS2_PLACEMENT_3D('',#1126,#1127,#1128);
#1130=PLANE('',#1129);
#1131=ADVANCED_FACE('',(#1125),#1130,.T.);
#1132=ORIENTED_EDGE('',*,*,#1121,.F.);
#1133=ORIENTED_EDGE('',*,*,#1049,.F.);
#1134=ORIENTED_EDGE('',*,*,#1096,.F.);
#1135=ORIENTED_EDGE('',*,*,#1072,.F.);
#1136=EDGE_LOOP('',(#1132,#1133,#1134,#1135));
#1137=FACE_OUTER_BOUND('',#1136,.T.);
#1138=CARTESIAN_POINT('',(8.500000,0.440000,4.940000));
#1139=DIRECTION('',(0.000000,1.000000,0.000000));
#1140=DIRECTION('',(0.000000,0.000000,1.000000));
#1141=AXIS2_PLACEMENT_3D('',#1138,#1139,#1140);
#1142=PLANE('',#1141);
#1143=ADVANCED_FACE('',(#1137),#1142,.T.);
#1144=ORIENTED_EDGE('',*,*,#1082,.F.);
#1145=ORIENTED_EDGE('',*,*,#1102,.F.);
#1146=ORIENTED_EDGE('',*,*,#1039,.F.);
#1147=ORIENTED_EDGE('',*,*,#1115,.F.);
#1148=EDGE_LOOP('',(#1144,#1145,#1146,#1147));
#1149=FACE_OUTER_BOUND('',#1148,.T.);
#1150=CARTESIAN_POINT('',(8.500000,-8.060000,4.940000));
#1151=DIRECTION('',(0.000000,-1.000000,0.000000));
#1152=DIRECTION('',(0.000000,0.000000,1.000000));
#1153=AXIS2_PLACEMENT_3D('',#1150,#1151,#1152);
#1154=PLANE('',#1153);
#1155=ADVANCED_FACE('',(#1149),#1154,.T.);
#1156=CLOSED_SHELL('',(#1063,#1091,#1111,#1131,#1143,#1155));
#1157=MANIFOLD_SOLID_BREP('POLARISER',#1156);
#1158=COLOUR_RGB('',0.030000,0.030000,0.040000);
#1159=FILL_AREA_STYLE_COLOUR('',#1158);
#1160=FILL_AREA_STYLE('',(#1159));
#1161=SURFACE_STYLE_FILL_AREA(#1160);
#1162=SURFACE_SIDE_STYLE('',(#1161));
#1163=SURFACE_STYLE_USAGE(.BOTH.,#1162);
#1164=PRESENTATION_STYLE_ASSIGNMENT((#1163));
#1165=STYLED_ITEM('',(#1164),#1157);
#1166=CARTESIAN_POINT('',(10.308000,-6.602000,5.090000));
#1167=VERTEX_POINT('',#1166);
#1168=CARTESIAN_POINT('',(10.308000,-6.602000,5.110000));
#1169=VERTEX_POINT('',#1168);
#1170=CARTESIAN_POINT('',(10.308000,-1.018000,5.090000));
#1171=VERTEX_POINT('',#1170);
#1172=CARTESIAN_POINT('',(10.308000,-1.018000,5.110000));
#1173=VERTEX_POINT('',#1172);
#1174=CARTESIAN_POINT('',(32.692000,-6.602000,5.090000));
#1175=VERTEX_POINT('',#1174);
#1176=CARTESIAN_POINT('',(32.692000,-6.602000,5.110000));
#1177=VERTEX_POINT('',#1176);
#1178=CARTESIAN_POINT('',(32.692000,-1.018000,5.090000));
#1179=VERTEX_POINT('',#1178);
#1180=CARTESIAN_POINT('',(32.692000,-1.018000,5.110000));
#1181=VERTEX_POINT('',#1180);
#1182=DIRECTION('',(1.000000,0.000000,0.000000));
#1183=VECTOR('',#1182,22.384000);
#1184=LINE('',#1168,#1183);
#1185=EDGE_CURVE('',#1169,#1177,#1184,.T.);
#1186=ORIENTED_EDGE('',*,*,#1185,.T.);
#1187=DIRECTION('',(0.000000,1.000000,0.000000));
#1188=VECTOR('',#1187,5.584000);
#1189=LINE('',#1176,#1188);
#1190=EDGE_CURVE('',#1177,#1181,#1189,.T.);
#1191=ORIENTED_EDGE('',*,*,#1190,.T.);
#1192=DIRECTION('',(-1.000000,0.000000,0.000000));
#1193=VECTOR('',#1192,22.384000);
#1194=LINE('',#1180,#1193);
#1195=EDGE_CURVE('',#1181,#1173,#1194,.T.);
#1196=ORIENTED_EDGE('',*,*,#1195,.T.);
#1197=DIRECTION('',(0.000000,-1.000000,0.000000));
#1198=VECTOR('',#1197,5.584000);
#1199=LINE('',#1172,#1198);
#1200=EDGE_CURVE('',#1173,#1169,#1199,.T.);
#1201=ORIENTED_EDGE('',*,*,#1200,.T.);
#1202=EDGE_LOOP('',(#1186,#1191,#1196,#1201));
#1203=FACE_OUTER_BOUND('',#1202,.T.);
#1204=CARTESIAN_POINT('',(10.308000,-6.602000,5.110000));
#1205=DIRECTION('',(0.000000,0.000000,1.000000));
#1206=DIRECTION('',(1.000000,0.000000,0.000000));
#1207=AXIS2_PLACEMENT_3D('',#1204,#1205,#1206);
#1208=PLANE('',#1207);
#1209=ADVANCED_FACE('',(#1203),#1208,.T.);
#1210=DIRECTION('',(0.000000,1.000000,0.000000));
#1211=VECTOR('',#1210,5.584000);
#1212=LINE('',#1166,#1211);
#1213=EDGE_CURVE('',#1167,#1171,#1212,.T.);
#1214=ORIENTED_EDGE('',*,*,#1213,.T.);
#1215=DIRECTION('',(1.000000,0.000000,0.000000));
#1216=VECTOR('',#1215,22.384000);
#1217=LINE('',#1170,#1216);
#1218=EDGE_CURVE('',#1171,#1179,#1217,.T.);
#1219=ORIENTED_EDGE('',*,*,#1218,.T.);
#1220=DIRECTION('',(0.000000,-1.000000,0.000000));
#1221=VECTOR('',#1220,5.584000);
#1222=LINE('',#1178,#1221);
#1223=EDGE_CURVE('',#1179,#1175,#1222,.T.);
#1224=ORIENTED_EDGE('',*,*,#1223,.T.);
#1225=DIRECTION('',(-1.000000,0.000000,0.000000));
#1226=VECTOR('',#1225,22.384000);
#1227=LINE('',#1174,#1226);
#1228=EDGE_CURVE('',#1175,#1167,#1227,.T.);
#1229=ORIENTED_EDGE('',*,*,#1228,.T.);
#1230=EDGE_LOOP('',(#1214,#1219,#1224,#1229));
#1231=FACE_OUTER_BOUND('',#1230,.T.);
#1232=CARTESIAN_POINT('',(10.308000,-6.602000,5.090000));
#1233=DIRECTION('',(0.000000,0.000000,-1.000000));
#1234=DIRECTION('',(1.000000,0.000000,0.000000));
#1235=AXIS2_PLACEMENT_3D('',#1232,#1233,#1234);
#1236=PLANE('',#1235);
#1237=ADVANCED_FACE('',(#1231),#1236,.T.);
#1238=ORIENTED_EDGE('',*,*,#1223,.F.);
#1239=DIRECTION('',(0.000000,0.000000,1.000000));
#1240=VECTOR('',#1239,0.020000);
#1241=LINE('',#1178,#1240);
#1242=EDGE_CURVE('',#1179,#1181,#1241,.T.);
#1243=ORIENTED_EDGE('',*,*,#1242,.T.);
#1244=ORIENTED_EDGE('',*,*,#1190,.F.);
#1245=DIRECTION('',(0.000000,0.000000,-1.000000));
#1246=VECTOR('',#1245,0.020000);
#1247=LINE('',#1176,#1246);
#1248=EDGE_CURVE('',#1177,#1175,#1247,.T.);
#1249=ORIENTED_EDGE('',*,*,#1248,.T.);
#1250=EDGE_LOOP('',(#1238,#1243,#1244,#1249));
#1251=FACE_OUTER_BOUND('',#1250,.T.);
#1252=CARTESIAN_POINT('',(32.692000,-6.602000,5.090000));
#1253=DIRECTION('',(1.000000,0.000000,0.000000));
#1254=DIRECTION('',(0.000000,1.000000,0.000000));
#1255=AXIS2_PLACEMENT_3D('',#1252,#1253,#1254);
#1256=PLANE('',#1255);
#1257=ADVANCED_FACE('',(#1251),#1256,.T.);
#1258=DIRECTION('',(0.000000,0.000000,1.000000));
#1259=VECTOR('',#1258,0.020000);
#1260=LINE('',#1166,#1259);
#1261=EDGE_CURVE('',#1167,#1169,#1260,.T.);
#1262=ORIENTED_EDGE('',*,*,#1261,.T.);
#1263=ORIENTED_EDGE('',*,*,#1200,.F.);
#1264=DIRECTION('',(0.000000,0.000000,-1.000000));
#1265=VECTOR('',#1264,0.020000);
#1266=LINE('',#1172,#1265);
#1267=EDGE_CURVE('',#1173,#1171,#1266,.T.);
#1268=ORIENTED_EDGE('',*,*,#1267,.T.);
#1269=ORIENTED_EDGE('',*,*,#1213,.F.);
#1270=EDGE_LOOP('',(#1262,#1263,#1268,#1269));
#1271=FACE_OUTER_BOUND('',#1270,.T.);
#1272=CARTESIAN_POINT('',(10.308000,-6.602000,5.090000));
#1273=DIRECTION('',(-1.000000,0.000000,0.000000));
#1274=DIRECTION('',(0.000000,1.000000,0.000000));
#1275=AXIS2_PLACEMENT_3D('',#1272,#1273,#1274);
#1276=PLANE('',#1275);
#1277=ADVANCED_FACE('',(#1271),#1276,.T.);
#1278=ORIENTED_EDGE('',*,*,#1267,.F.);
#1279=ORIENTED_EDGE('',*,*,#1195,.F.);
#1280=ORIENTED_EDGE('',*,*,#1242,.F.);
#1281=ORIENTED_EDGE('',*,*,#1218,.F.);
#1282=EDGE_LOOP('',(#1278,#1279,#1280,#1281));
#1283=FACE_OUTER_BOUND('',#1282,.T.);
#1284=CARTESIAN_POINT('',(10.308000,-1.018000,5.090000));
#1285=DIRECTION('',(0.000000,1.000000,0.000000));
#1286=DIRECTION('',(0.000000,0.000000,1.000000));
#1287=AXIS2_PLACEMENT_3D('',#1284,#1285,#1286);
#1288=PLANE('',#1287);
#1289=ADVANCED_FACE('',(#1283),#1288,.T.);
#1290=ORIENTED_EDGE('',*,*,#1228,.F.);
#1291=ORIENTED_EDGE('',*,*,#1248,.F.);
#1292=ORIENTED_EDGE('',*,*,#1185,.F.);
#1293=ORIENTED_EDGE('',*,*,#1261,.F.);
#1294=EDGE_LOOP('',(#1290,#1291,#1292,#1293));
#1295=FACE_OUTER_BOUND('',#1294,.T.);
#1296=CARTESIAN_POINT('',(10.308000,-6.602000,5.090000));
#1297=DIRECTION('',(0.000000,-1.000000,0.000000));
#1298=DIRECTION('',(0.000000,0.000000,1.000000));
#1299=AXIS2_PLACEMENT_3D('',#1296,#1297,#1298);
#1300=PLANE('',#1299);
#1301=ADVANCED_FACE('',(#1295),#1300,.T.);
#1302=CLOSED_SHELL('',(#1209,#1237,#1257,#1277,#1289,#1301));
#1303=MANIFOLD_SOLID_BREP('ACTIVE_AREA',#1302);
#1304=COLOUR_RGB('',0.020000,0.030000,0.100000);
#1305=FILL_AREA_STYLE_COLOUR('',#1304);
#1306=FILL_AREA_STYLE('',(#1305));
#1307=SURFACE_STYLE_FILL_AREA(#1306);
#1308=SURFACE_SIDE_STYLE('',(#1307));
#1309=SURFACE_STYLE_USAGE(.BOTH.,#1308);
#1310=PRESENTATION_STYLE_ASSIGNMENT((#1309));
#1311=STYLED_ITEM('',(#1310),#1303);
#1312=ADVANCED_BREP_SHAPE_REPRESENTATION('OLED_0.91in_128x32_SSD1306_I2C',(#18,#156,#302,#448,#594,#733,#872,#1011,#1157,#1303),#14);
#1313=SHAPE_DEFINITION_REPRESENTATION(#9,#1312);
#1314=MECHANICAL_DESIGN_GEOMETRIC_PRESENTATION_REPRESENTATION('',(#164,#310,#456,#595,#734,#873,#1019,#1165,#1311),#14);
ENDSEC;
END-ISO-10303-21;
